M48
;Layer_Color=9474304
;FILE_FORMAT=4:4
METRIC,LZ
;TYPE=PLATED
T1F00S00C0.3000
T3F00S00C1.0000
T4F00S00C1.1000
T5F00S00C3.2000
;TYPE=NON_PLATED
T6F00S00C0.6000
T7F00S00C0.9906
T8F00S00C2.3749
%
T01
X004Y-0055
X0045
X-004
X-0045
X-004Y-005
X-0035
Y-0045
X-004
Y-004
X-0035
Y-0035
X-004
Y-003
X-0035
Y-0025
X-003Y-002
X-00285Y-001675
X-0027
X-00255
X-0024
Y-001525
X-00255
X-0029
X-003Y-003
Y-0035
Y-004
X-0025
Y-0035
X-003Y-0045
X-0045
Y-004
Y-0035
X-005
Y-004
X-0055
Y-0035
Y-0045
X-005Y-003
Y-0025
Y-002
Y-0015
X-002225Y-001425
X-00195Y-001782
X-002Y-002
X-0015
Y-0025
X-001
Y-003
X-0005
X0
X0005
X001
X0015
X-0015
Y-0035
X-002
Y-003
X002
Y-0035
X0025
Y-004
X003
Y-0035
X0035
X004
Y-004
X0035
Y-0045
X004
X0045
Y-004
Y-0035
X005
X00501659Y-00307137
X0055Y-003
Y-0035
Y-004
X005
X0055Y-0045
X004Y-005
X0035
X003Y-0045
Y-003
X0035
X004
X0035Y-0025
X003Y-002
Y-0015
X0019775Y-001832
X002Y-002
X005
Y-0015
Y-0025
Y-001
Y-0005
Y0
Y0005
Y001
Y0015
Y002
Y0025
X0035
X003Y002
Y0015
Y001
X00263Y00117
X00227
X002332Y001102
Y000975
X0019775Y000332
X0019775Y-000332
X0019775Y-000418
X0019775Y-001082
X0019775Y-001168
X003Y-001
Y-0005
Y0
X002Y002
X0010545Y0021625
Y0023175
X000695Y002217
Y002472
X0004375Y0024075
X0004545Y0020595
X00035Y0020595
X0002455Y0020595
X0002455Y0017405
X00035Y0017405
X0004545Y0017405
X000555Y0019625
X00065Y00196
X00074
X000835Y0019575
X0005275Y0012875
X0003625Y0011525
X00027Y001245
X0002325Y0009125
X0000725
X0000725Y0005725
X0001525
X0002325
X0002325Y00048
X0001525
X0000725
X00058Y00035
X00057Y00023
X001
Y00035
Y0001
Y-000025
X00131Y00051
X-0004075Y0003175
X-0007625Y0007
X-00070625Y00132325
X-000448Y00122
Y00107
X-0008125Y0017025
X-00075336Y0020975
X-00059159
X-00042983
X-00026806
X-00091513
X-00107689
X-00123866
X-0014
X-0014025Y00165
X-001848Y0010475
X-001975
X-001817Y-0005775
X-00169
X-0007485Y-0005715
X-00075Y-0007
X-00053942Y-00089324
X-00054192Y-00098824
X-00054Y-00109
X-000959Y-0010475
X-0009525Y-001405
X-0010475Y-0014025
X0001275Y-00135
X0002225Y-0013525
X-00008Y-0001685
X-002225Y-001325
X-0008825Y0025025
X-0025Y0015
X-003
Y002
X-0035Y0025
X-005
Y002
Y0015
Y001
Y0005
Y0
Y-0005
Y-001
X-0029Y-001375
X-00255
X-0024
X-0024725Y-0011975
Y-0010475
X-00236Y-00069
X-0025Y0035
Y004
X-003
Y0035
X-0035
X-004
Y004
X-0035
Y0045
X-004
Y005
X-0035
X-004Y0055
X-0045
Y0045
Y004
Y0035
X-005
Y003
X-0055
Y0035
Y004
Y0045
X-00500316Y00401591
X-003Y0045
Y003
X-0035
X-002
Y0035
X-0015
X0000155Y0028325
X00012Y002728
X000088Y00256
X0004375Y0025575
X000455Y00267
X000375
X000935
X001015
X00127Y002728
X0015Y0035
X002
Y003
X003
X0035
X004
Y0035
X0035
Y004
X004
X0045
Y0035
X005
Y004
X0055
Y0035
Y0045
X0045
X004
X0035
X003
Y004
Y0035
X0025
Y004
X0035Y005
X004
Y0055
X0045
X005Y003
T03
X-000481Y-0026375
X-000253
X-000025
X000203
X000431
X000317Y-0023835
X000089
X-000139
X-000367
X-000481Y-0021295
X-000253
X-000025
X000203
X000431
X000545Y-0023835
T04
X002246Y-001505
X0025
X002754
Y-0007525
X0025
X002246
Y0
X0025
X002754
T05
X-001249Y-0023835
X00125
T06
X000406Y002882
X000984
T07
X0023985Y000594
X0026015
X0025Y001356
T08
X002246Y0007845
X002754
Y001356
X002246
M30
