G04*
G04 #@! TF.GenerationSoftware,Altium Limited,Altium Designer,22.2.1 (43)*
G04*
G04 Layer_Physical_Order=2*
G04 Layer_Color=16711680*
%FSLAX25Y25*%
%MOIN*%
G70*
G04*
G04 #@! TF.SameCoordinates,854AD7C7-718E-4D2E-BE00-AD7F3FE1A44B*
G04*
G04*
G04 #@! TF.FilePolarity,Positive*
G04*
G01*
G75*
%ADD12C,0.03937*%
%ADD17C,0.01000*%
%ADD70C,0.06890*%
%ADD71R,0.06890X0.06890*%
%ADD72C,0.09350*%
%ADD73C,0.03900*%
%ADD74C,0.05937*%
%ADD75C,0.16598*%
%ADD76R,0.05937X0.05937*%
G04:AMPARAMS|DCode=77|XSize=70.87mil|YSize=39.37mil|CornerRadius=9.84mil|HoleSize=0mil|Usage=FLASHONLY|Rotation=270.000|XOffset=0mil|YOffset=0mil|HoleType=Round|Shape=RoundedRectangle|*
%AMROUNDEDRECTD77*
21,1,0.07087,0.01968,0,0,270.0*
21,1,0.05118,0.03937,0,0,270.0*
1,1,0.01968,-0.00984,-0.02559*
1,1,0.01968,-0.00984,0.02559*
1,1,0.01968,0.00984,0.02559*
1,1,0.01968,0.00984,-0.02559*
%
%ADD77ROUNDEDRECTD77*%
%ADD78O,0.03937X0.08268*%
%ADD79C,0.02362*%
%ADD80C,0.02559*%
G36*
X63122Y117326D02*
Y81921D01*
X63200Y81531D01*
X63421Y81200D01*
X72958Y71663D01*
Y45933D01*
X73035Y45543D01*
X73256Y45213D01*
X80804Y37665D01*
X81135Y37444D01*
X81525Y37366D01*
X90314D01*
X90803Y36877D01*
X91457Y36606D01*
X92165D01*
X92819Y36877D01*
X93320Y37378D01*
X93591Y38032D01*
Y38740D01*
X93320Y39394D01*
X92819Y39894D01*
X92165Y40165D01*
X91457D01*
X90803Y39894D01*
X90314Y39405D01*
X81947D01*
X79448Y41904D01*
X79640Y42366D01*
X90314D01*
X90803Y41877D01*
X91457Y41606D01*
X92165D01*
X92819Y41877D01*
X93320Y42378D01*
X93591Y43032D01*
Y43740D01*
X93320Y44394D01*
X92819Y44894D01*
X92165Y45165D01*
X91457D01*
X91085Y45552D01*
X91150Y45709D01*
Y46417D01*
X90879Y47071D01*
X90422Y47528D01*
X90427Y47782D01*
X90494Y48065D01*
X90616Y48098D01*
X91910Y48845D01*
X92966Y49901D01*
X93713Y51195D01*
X94100Y52639D01*
Y54133D01*
X93856Y55043D01*
X94305Y55302D01*
X95551Y54056D01*
X95475Y53774D01*
Y52997D01*
X95676Y52247D01*
X96065Y51574D01*
X96614Y51025D01*
X97286Y50637D01*
X98037Y50436D01*
X98814D01*
X99095Y50511D01*
X113189Y36417D01*
Y34855D01*
X112689Y34648D01*
X111910Y35427D01*
X110616Y36174D01*
X109172Y36561D01*
X107678D01*
X106235Y36174D01*
X104941Y35427D01*
X103884Y34370D01*
X103137Y33076D01*
X102750Y31633D01*
Y30139D01*
X103137Y28695D01*
X103884Y27401D01*
X104941Y26345D01*
X106235Y25598D01*
X107678Y25211D01*
X109172D01*
X110616Y25598D01*
X111910Y26345D01*
X112689Y27124D01*
X113189Y26917D01*
Y-66043D01*
X72835D01*
Y-28473D01*
X73297Y-28282D01*
X97406Y-52391D01*
Y-55441D01*
X96903Y-55576D01*
X96003Y-56095D01*
X95268Y-56830D01*
X94749Y-57729D01*
X94480Y-58733D01*
Y-59771D01*
X94749Y-60775D01*
X95268Y-61674D01*
X96003Y-62409D01*
X96903Y-62928D01*
X97906Y-63197D01*
X98945D01*
X99948Y-62928D01*
X100847Y-62409D01*
X101582Y-61674D01*
X102101Y-60775D01*
X102370Y-59771D01*
Y-58733D01*
X102101Y-57729D01*
X101582Y-56830D01*
X100847Y-56095D01*
X99948Y-55576D01*
X99445Y-55441D01*
Y-51968D01*
X99367Y-51578D01*
X99146Y-51248D01*
X72835Y-24936D01*
Y-6131D01*
X73297Y-5939D01*
X78149Y-10791D01*
X77942Y-11291D01*
X77500D01*
X76846Y-11562D01*
X76346Y-12063D01*
X76075Y-12717D01*
Y-13425D01*
X76346Y-14079D01*
X76846Y-14580D01*
X77500Y-14850D01*
X78208D01*
X78862Y-14580D01*
X79363Y-14079D01*
X79634Y-13425D01*
Y-12984D01*
X80134Y-12777D01*
X95010Y-27652D01*
X94749Y-28103D01*
X94480Y-29107D01*
Y-30145D01*
X94749Y-31149D01*
X95268Y-32048D01*
X96003Y-32783D01*
X96903Y-33302D01*
X97906Y-33571D01*
X98945D01*
X99948Y-33302D01*
X100847Y-32783D01*
X101582Y-32048D01*
X102101Y-31149D01*
X102370Y-30145D01*
Y-29107D01*
X102101Y-28103D01*
X101582Y-27204D01*
X100847Y-26469D01*
X99948Y-25950D01*
X98945Y-25681D01*
X97906D01*
X96903Y-25950D01*
X96451Y-26210D01*
X72835Y-2593D01*
Y14728D01*
X82255D01*
X95010Y1974D01*
X94749Y1523D01*
X94480Y519D01*
Y-519D01*
X94749Y-1523D01*
X95268Y-2422D01*
X96003Y-3157D01*
X96903Y-3676D01*
X97906Y-3945D01*
X98945D01*
X99948Y-3676D01*
X100847Y-3157D01*
X101582Y-2422D01*
X102101Y-1523D01*
X102370Y-519D01*
Y519D01*
X102101Y1523D01*
X101582Y2422D01*
X100847Y3157D01*
X99948Y3676D01*
X98945Y3945D01*
X97906D01*
X96903Y3676D01*
X96451Y3416D01*
X83398Y16469D01*
X83067Y16690D01*
X82677Y16768D01*
X72835D01*
Y21654D01*
X53642Y40846D01*
Y113681D01*
X49213Y118110D01*
X3937D01*
X-3937Y110236D01*
Y33465D01*
X4724Y24803D01*
X11417D01*
Y15748D01*
X0D01*
X-19193Y34941D01*
Y46363D01*
X-18693Y46570D01*
X-18646Y46523D01*
X-17992Y46252D01*
X-17284D01*
X-16630Y46523D01*
X-16129Y47023D01*
X-15858Y47677D01*
Y48386D01*
X-16129Y49040D01*
X-16630Y49540D01*
X-17284Y49811D01*
X-17992D01*
X-18646Y49540D01*
X-18693Y49493D01*
X-19193Y49700D01*
Y72342D01*
X-23622Y76772D01*
X-57087D01*
X-57087Y115881D01*
X-52727Y120240D01*
X-20079D01*
X-19689Y120318D01*
X-19358Y120539D01*
X-7452Y132445D01*
X8918D01*
X8967Y131945D01*
X8791Y131910D01*
X8300Y131582D01*
X7972Y131091D01*
X7857Y130512D01*
Y125394D01*
X7972Y124815D01*
X8300Y124324D01*
X8791Y123996D01*
X9370Y123880D01*
X11339D01*
X11918Y123996D01*
X12409Y124324D01*
X12737Y124815D01*
X12852Y125394D01*
Y130512D01*
X12737Y131091D01*
X12409Y131582D01*
X11918Y131910D01*
X11742Y131945D01*
X11791Y132445D01*
X42933D01*
X42983Y131945D01*
X42807Y131910D01*
X42316Y131582D01*
X41988Y131091D01*
X41873Y130512D01*
Y125394D01*
X41988Y124815D01*
X42316Y124324D01*
X42807Y123996D01*
X43386Y123880D01*
X45354D01*
X45933Y123996D01*
X46424Y124324D01*
X46752Y124815D01*
X46868Y125394D01*
Y130512D01*
X46752Y131091D01*
X46424Y131582D01*
X45933Y131910D01*
X45757Y131945D01*
X45807Y132445D01*
X48003D01*
X63122Y117326D01*
D02*
G37*
G36*
X184206Y228291D02*
X188572Y227775D01*
X192885Y226917D01*
X197116Y225723D01*
X201241Y224201D01*
X205235Y222361D01*
X209071Y220212D01*
X212726Y217770D01*
X216179Y215048D01*
X219408Y212063D01*
X222393Y208834D01*
X225115Y205381D01*
X227557Y201726D01*
X229706Y197889D01*
X231546Y193896D01*
X233068Y189771D01*
X234262Y185540D01*
X235120Y181227D01*
X235636Y176861D01*
X235809Y172468D01*
X235636Y168074D01*
X235120Y163708D01*
X234262Y159396D01*
X233068Y155164D01*
X232392Y153330D01*
D01*
X232217Y152865D01*
X230199Y148568D01*
X227206Y141341D01*
X224550Y133984D01*
X222236Y126512D01*
X220270Y118941D01*
X218655Y111288D01*
X217396Y103568D01*
X216494Y95798D01*
X215953Y87995D01*
X215772Y80176D01*
X215798D01*
Y-80176D01*
X215798Y-80176D01*
X215772D01*
X215953Y-87995D01*
X216494Y-95798D01*
X217396Y-103568D01*
X218655Y-111288D01*
X220270Y-118941D01*
X222236Y-126512D01*
X224550Y-133984D01*
X227206Y-141341D01*
X230199Y-148568D01*
X232217Y-152865D01*
X232392Y-153330D01*
D01*
X233068Y-155164D01*
X234262Y-159396D01*
X235120Y-163708D01*
X235636Y-168074D01*
X235809Y-172468D01*
X235636Y-176861D01*
X235120Y-181228D01*
X234262Y-185540D01*
X233068Y-189771D01*
X231546Y-193897D01*
X229706Y-197889D01*
X227557Y-201726D01*
X225115Y-205381D01*
X222393Y-208834D01*
X219408Y-212063D01*
X216179Y-215048D01*
X212726Y-217770D01*
X209071Y-220212D01*
X205235Y-222361D01*
X201241Y-224201D01*
X197116Y-225723D01*
X192885Y-226917D01*
X188572Y-227775D01*
X184206Y-228291D01*
X179813Y-228464D01*
X175419Y-228291D01*
X171053Y-227775D01*
X166741Y-226917D01*
X162509Y-225723D01*
X158384Y-224201D01*
X154391Y-222361D01*
X150555Y-220212D01*
X146899Y-217770D01*
X143446Y-215048D01*
X140257Y-212100D01*
X140226Y-212054D01*
X84833Y-156661D01*
X84766Y-156616D01*
X82368Y-154383D01*
X78599Y-151346D01*
X74624Y-148586D01*
X70461Y-146116D01*
X66133Y-143950D01*
X61661Y-142097D01*
X57069Y-140569D01*
X52379Y-139372D01*
X47616Y-138513D01*
X42804Y-137995D01*
X37967Y-137823D01*
Y-137846D01*
X-38164D01*
Y-137823D01*
X-43001Y-137995D01*
X-47813Y-138513D01*
X-52576Y-139372D01*
X-57266Y-140569D01*
X-61858Y-142097D01*
X-66330Y-143950D01*
X-70658Y-146116D01*
X-74821Y-148586D01*
X-78796Y-151346D01*
X-82565Y-154383D01*
X-84963Y-156616D01*
X-85030Y-156661D01*
X-140423Y-212054D01*
X-140454Y-212100D01*
X-143643Y-215048D01*
X-147096Y-217770D01*
X-150751Y-220212D01*
X-154588Y-222361D01*
X-158581Y-224201D01*
X-162706Y-225723D01*
X-166937Y-226917D01*
X-171250Y-227775D01*
X-175616Y-228291D01*
X-180009Y-228464D01*
X-184403Y-228291D01*
X-188769Y-227775D01*
X-193082Y-226917D01*
X-197313Y-225723D01*
X-201438Y-224201D01*
X-205431Y-222361D01*
X-209267Y-220212D01*
X-212923Y-217770D01*
X-216376Y-215048D01*
X-219605Y-212063D01*
X-222589Y-208834D01*
X-225311Y-205381D01*
X-227754Y-201726D01*
X-229903Y-197889D01*
X-231743Y-193897D01*
X-233265Y-189771D01*
X-234459Y-185540D01*
X-235316Y-181228D01*
X-235833Y-176861D01*
X-236006Y-172468D01*
X-235833Y-168074D01*
X-235316Y-163708D01*
X-234459Y-159396D01*
X-233265Y-155164D01*
X-232589Y-153330D01*
D01*
X-232413Y-152865D01*
X-230396Y-148568D01*
X-227403Y-141341D01*
X-224746Y-133984D01*
X-222433Y-126512D01*
X-220466Y-118941D01*
X-218852Y-111288D01*
X-217593Y-103568D01*
X-216691Y-95798D01*
X-216150Y-87995D01*
X-215969Y-80176D01*
X-215995D01*
X-215995Y-80176D01*
Y80176D01*
X-215969D01*
X-216150Y87995D01*
X-216691Y95798D01*
X-217593Y103568D01*
X-218852Y111288D01*
X-220466Y118941D01*
X-222433Y126512D01*
X-224746Y133984D01*
X-227403Y141341D01*
X-230396Y148568D01*
X-232413Y152865D01*
X-232589Y153330D01*
D01*
X-233265Y155164D01*
X-234459Y159396D01*
X-235316Y163708D01*
X-235833Y168074D01*
X-236006Y172468D01*
X-235833Y176861D01*
X-235316Y181227D01*
X-234459Y185540D01*
X-233265Y189771D01*
X-231743Y193896D01*
X-229903Y197889D01*
X-227754Y201726D01*
X-225311Y205381D01*
X-222589Y208834D01*
X-219605Y212063D01*
X-216376Y215048D01*
X-212923Y217770D01*
X-209267Y220212D01*
X-205431Y222361D01*
X-201438Y224201D01*
X-197313Y225723D01*
X-193082Y226917D01*
X-188769Y227775D01*
X-184403Y228291D01*
X-180009Y228464D01*
X-175616Y228291D01*
X-171250Y227775D01*
X-166937Y226917D01*
X-162706Y225723D01*
X-158581Y224201D01*
X-154588Y222361D01*
X-150751Y220212D01*
X-147096Y217770D01*
X-143643Y215048D01*
X-140454Y212099D01*
X-140423Y212054D01*
X-85030Y156661D01*
X-84963Y156616D01*
X-82565Y154383D01*
X-78796Y151346D01*
X-74821Y148586D01*
X-70658Y146116D01*
X-66330Y143950D01*
X-61858Y142097D01*
X-57266Y140569D01*
X-52576Y139372D01*
X-47813Y138513D01*
X-43001Y137995D01*
X-38164Y137822D01*
Y137846D01*
X-10095D01*
X-9938Y137434D01*
X-9933Y137346D01*
X-21819Y125461D01*
X-54467D01*
X-54857Y125383D01*
X-55188Y125162D01*
X-65319Y115031D01*
X-65540Y114700D01*
X-65618Y114310D01*
Y87960D01*
X-78477Y75102D01*
X-78698Y74771D01*
X-78776Y74381D01*
Y42737D01*
X-79264Y42248D01*
X-79535Y41594D01*
Y40886D01*
X-79264Y40232D01*
X-78764Y39732D01*
X-78110Y39461D01*
X-77402D01*
X-76748Y39732D01*
X-76247Y40232D01*
X-75976Y40886D01*
Y41594D01*
X-76247Y42248D01*
X-76736Y42737D01*
Y46461D01*
X-76274Y46653D01*
X-73776Y44154D01*
Y42737D01*
X-74265Y42248D01*
X-74535Y41594D01*
Y40886D01*
X-74265Y40232D01*
X-73764Y39732D01*
X-73110Y39461D01*
X-72402D01*
X-71748Y39732D01*
X-71247Y40232D01*
X-71205Y40335D01*
X-70705Y40236D01*
Y2785D01*
X-93634Y-20145D01*
X-93855Y-20476D01*
X-93933Y-20866D01*
Y-25668D01*
X-94422Y-26157D01*
X-94693Y-26811D01*
Y-27519D01*
X-94422Y-28173D01*
X-93921Y-28674D01*
X-93267Y-28945D01*
X-92559D01*
X-91905Y-28674D01*
X-91405Y-28173D01*
X-91134Y-27519D01*
Y-26811D01*
X-91405Y-26157D01*
X-91894Y-25668D01*
Y-21289D01*
X-68964Y1641D01*
X-68743Y1972D01*
X-68665Y2362D01*
Y43755D01*
X-68743Y44145D01*
X-68964Y44475D01*
X-73555Y49067D01*
Y72641D01*
X-60696Y85500D01*
X-60475Y85830D01*
X-60398Y86221D01*
Y112570D01*
X-58090Y114878D01*
X-57628Y114686D01*
X-57628Y83226D01*
X-59449D01*
X-60412Y83034D01*
X-61229Y82488D01*
X-66740Y76977D01*
X-67286Y76160D01*
X-67478Y75197D01*
Y1043D01*
X-89378Y-20858D01*
X-89924Y-21675D01*
X-90115Y-22638D01*
Y-48671D01*
X-118110D01*
X-118493Y-48830D01*
X-118651Y-49213D01*
Y-68898D01*
X-118493Y-69280D01*
X-118110Y-69439D01*
X-84646D01*
X-84263Y-69280D01*
X-84105Y-68898D01*
Y-49213D01*
X-84263Y-48830D01*
X-84646Y-48671D01*
X-85082D01*
Y-23680D01*
X-63181Y-1780D01*
X-62635Y-963D01*
X-62444Y0D01*
Y74154D01*
X-58406Y78192D01*
X-57628D01*
Y76772D01*
X-57469Y76389D01*
X-57087Y76230D01*
X-23846D01*
X-19734Y72118D01*
Y49700D01*
X-19693Y49601D01*
Y49493D01*
X-19617Y49417D01*
X-19576Y49317D01*
X-19476Y49276D01*
X-19400Y49200D01*
X-18900Y48993D01*
X-18792D01*
X-18693Y48952D01*
X-18594Y48993D01*
X-18486D01*
X-18439Y49040D01*
X-17884Y49270D01*
X-17391D01*
X-16936Y49081D01*
X-16588Y48733D01*
X-16399Y48278D01*
Y47785D01*
X-16588Y47330D01*
X-16936Y46982D01*
X-17391Y46793D01*
X-17884D01*
X-18439Y47023D01*
X-18486Y47070D01*
X-18594D01*
X-18693Y47111D01*
X-18792Y47070D01*
X-18900D01*
X-19400Y46863D01*
X-19476Y46787D01*
X-19576Y46746D01*
X-19617Y46646D01*
X-19693Y46570D01*
Y46462D01*
X-19734Y46363D01*
Y34941D01*
X-19576Y34558D01*
X-383Y15365D01*
X-223Y15299D01*
X-322Y14799D01*
X-2727D01*
X-26785Y38857D01*
Y50599D01*
X-26296Y51089D01*
X-26026Y51743D01*
Y52450D01*
X-26296Y53105D01*
X-26797Y53605D01*
X-27451Y53876D01*
X-28159D01*
X-28813Y53605D01*
X-29314Y53105D01*
X-29585Y52450D01*
Y51743D01*
X-29314Y51089D01*
X-28825Y50599D01*
Y38435D01*
X-28747Y38045D01*
X-28526Y37714D01*
X-3871Y13059D01*
X-3540Y12837D01*
X-3150Y12760D01*
X21338D01*
X21827Y12271D01*
X22481Y12000D01*
X23189D01*
X23843Y12271D01*
X24343Y12772D01*
X24614Y13426D01*
Y14133D01*
X24343Y14787D01*
X23843Y15288D01*
X23189Y15559D01*
X22481D01*
X21827Y15288D01*
X21338Y14799D01*
X11740D01*
X11640Y15299D01*
X11800Y15365D01*
X11958Y15748D01*
Y24803D01*
X11800Y25186D01*
X11417Y25344D01*
X4949D01*
X-3396Y33689D01*
Y110012D01*
X4161Y117569D01*
X48988D01*
X53101Y113457D01*
Y40846D01*
X53259Y40464D01*
X72293Y21429D01*
Y16768D01*
X45276D01*
X44885Y16690D01*
X44555Y16469D01*
X41771Y13685D01*
X41266Y13845D01*
X41225Y14069D01*
X41235Y14203D01*
X46092Y19059D01*
X50078D01*
X50567Y18570D01*
X51221Y18299D01*
X51929D01*
X52583Y18570D01*
X53083Y19071D01*
X53354Y19725D01*
Y20433D01*
X53083Y21087D01*
X52583Y21587D01*
X51929Y21858D01*
X51221D01*
X50567Y21587D01*
X50078Y21098D01*
X45669D01*
X45279Y21021D01*
X44948Y20800D01*
X39708Y15559D01*
X39016D01*
X38362Y15288D01*
X37861Y14787D01*
X37591Y14133D01*
Y13426D01*
X37861Y12772D01*
X38362Y12271D01*
X39016Y12000D01*
X39724D01*
X40341Y12256D01*
X40400Y12262D01*
X40889Y12074D01*
X40899Y12026D01*
X39708Y10835D01*
X39016D01*
X38362Y10564D01*
X37861Y10063D01*
X37591Y9409D01*
Y8701D01*
X37861Y8047D01*
X38362Y7547D01*
X39016Y7276D01*
X39724D01*
X40378Y7547D01*
X40879Y8047D01*
X41150Y8701D01*
Y9393D01*
X42977Y11220D01*
X43198Y11551D01*
X43276Y11941D01*
Y12306D01*
X45698Y14728D01*
X72293D01*
Y-1399D01*
X71832Y-1590D01*
X59678Y10564D01*
X59347Y10785D01*
X58957Y10862D01*
X45276D01*
X44885Y10785D01*
X44555Y10564D01*
X39708Y5717D01*
X39016D01*
X38362Y5446D01*
X37861Y4945D01*
X37591Y4291D01*
Y3583D01*
X37861Y2929D01*
X38362Y2428D01*
X39016Y2158D01*
X39724D01*
X40378Y2428D01*
X40879Y2929D01*
X41150Y3583D01*
Y4275D01*
X45698Y8823D01*
X58534D01*
X72602Y-5245D01*
X72452Y-5748D01*
X72411Y-5847D01*
X72335Y-5923D01*
Y-6031D01*
X72293Y-6131D01*
Y-23742D01*
X71832Y-23933D01*
X48162Y-263D01*
X47831Y-42D01*
X47441Y35D01*
X40867D01*
X40378Y524D01*
X39724Y795D01*
X39016D01*
X38362Y524D01*
X37861Y24D01*
X37591Y-630D01*
Y-1338D01*
X37861Y-1992D01*
X38362Y-2493D01*
X39016Y-2764D01*
X39724D01*
X40378Y-2493D01*
X40867Y-2004D01*
X47019D01*
X72602Y-27587D01*
X72452Y-28091D01*
X72411Y-28190D01*
X72335Y-28266D01*
Y-28374D01*
X72293Y-28473D01*
Y-66043D01*
X72452Y-66426D01*
X72835Y-66584D01*
X113189D01*
X113572Y-66426D01*
X113730Y-66043D01*
Y26917D01*
X113689Y27016D01*
Y27124D01*
X113613Y27200D01*
X113572Y27299D01*
X113502Y27329D01*
X113450Y27363D01*
X113396Y27417D01*
X113240Y27876D01*
X113714Y28695D01*
X114100Y30139D01*
Y31633D01*
X113714Y33076D01*
X113240Y33896D01*
X113396Y34355D01*
X113450Y34408D01*
X113502Y34443D01*
X113572Y34472D01*
X113613Y34572D01*
X113689Y34648D01*
Y34755D01*
X113730Y34855D01*
Y36417D01*
X113572Y36800D01*
X113572Y36800D01*
X105130Y45242D01*
X105323Y45709D01*
Y46417D01*
X105052Y47071D01*
X104551Y47572D01*
X103897Y47842D01*
X103189D01*
X102723Y47649D01*
X99963Y50409D01*
X100028Y50905D01*
X100237Y51025D01*
X100786Y51574D01*
X101174Y52247D01*
X101375Y52997D01*
Y53774D01*
X101174Y54524D01*
X100786Y55197D01*
X100237Y55746D01*
X99564Y56135D01*
X98814Y56336D01*
X98037D01*
X97286Y56135D01*
X96614Y55746D01*
X96065Y55197D01*
X95944Y54988D01*
X95448Y54923D01*
X94687Y55684D01*
X94557Y55738D01*
X94445Y55824D01*
X94372Y55815D01*
X94305Y55843D01*
X94174Y55789D01*
X94034Y55770D01*
X93710Y55583D01*
X92966Y56870D01*
X91910Y57927D01*
X90616Y58674D01*
X89172Y59061D01*
X87678D01*
X86235Y58674D01*
X84941Y57927D01*
X83884Y56870D01*
X83137Y55576D01*
X82750Y54133D01*
Y52639D01*
X83137Y51195D01*
X83884Y49901D01*
X84941Y48845D01*
X86235Y48098D01*
X87384Y47790D01*
X87616Y47237D01*
X87616Y47236D01*
X87513Y47083D01*
X78769D01*
X78178Y47673D01*
Y73403D01*
X78100Y73794D01*
X77879Y74124D01*
X68342Y83661D01*
Y119066D01*
X68265Y119456D01*
X68044Y119787D01*
X68044Y119787D01*
X50464Y137367D01*
X50133Y137588D01*
X49743Y137665D01*
X44412D01*
X44385Y138165D01*
X47616Y138513D01*
X52379Y139372D01*
X57069Y140569D01*
X61661Y142097D01*
X66133Y143950D01*
X70461Y146116D01*
X74624Y148586D01*
X78599Y151346D01*
X82368Y154383D01*
X84766Y156616D01*
X84833Y156661D01*
X140226Y212054D01*
X140257Y212099D01*
X143446Y215048D01*
X146899Y217770D01*
X150555Y220212D01*
X154391Y222361D01*
X158384Y224201D01*
X162509Y225723D01*
X166741Y226917D01*
X171053Y227775D01*
X175419Y228291D01*
X179813Y228464D01*
X184206Y228291D01*
D02*
G37*
G36*
X-84646Y-68898D02*
X-118110D01*
Y-49213D01*
X-84646D01*
Y-68898D01*
D02*
G37*
%LPC*%
G36*
X-11516Y119340D02*
X-44980D01*
X-45363Y119182D01*
X-45522Y118799D01*
Y110925D01*
X-45363Y110543D01*
X-44980Y110384D01*
X-11516D01*
X-11133Y110543D01*
X-10975Y110925D01*
Y118799D01*
X-11133Y119182D01*
X-11516Y119340D01*
D02*
G37*
G36*
X-34390Y100303D02*
X-35098D01*
X-35752Y100032D01*
X-36253Y99532D01*
X-36524Y98878D01*
Y98170D01*
X-36253Y97516D01*
X-35752Y97015D01*
X-35098Y96744D01*
X-34390D01*
X-33736Y97015D01*
X-33235Y97516D01*
X-32965Y98170D01*
Y98878D01*
X-33235Y99532D01*
X-33736Y100032D01*
X-34390Y100303D01*
D02*
G37*
G36*
X99375Y48927D02*
X97475D01*
X97475Y48927D01*
X97475Y48927D01*
X97287Y48849D01*
X97112Y48786D01*
X97107Y48774D01*
X97092Y48768D01*
X97092Y48768D01*
X97092Y48768D01*
X97009Y48567D01*
X96936Y48412D01*
X96935Y48387D01*
X96934Y48386D01*
Y48374D01*
X96932Y48330D01*
X96932Y48330D01*
X96929Y48276D01*
X96923Y48233D01*
X96913Y48182D01*
X96899Y48128D01*
X96880Y48065D01*
X96865Y48018D01*
X96848Y47977D01*
X96825Y47929D01*
X96803Y47889D01*
X96770Y47837D01*
Y47837D01*
X96770Y47837D01*
X96738Y47788D01*
X96710Y47751D01*
X96682Y47719D01*
X96637Y47674D01*
X96592Y47629D01*
X96560Y47601D01*
X96523Y47573D01*
X96474Y47541D01*
X96474Y47541D01*
X96474Y47541D01*
X96422Y47508D01*
X96382Y47486D01*
X96334Y47463D01*
X96293Y47445D01*
X96246Y47431D01*
X96183Y47412D01*
X96129Y47398D01*
X96078Y47388D01*
X96035Y47382D01*
X95982Y47379D01*
X95899Y47375D01*
X95723Y47292D01*
X95543Y47217D01*
X95537Y47205D01*
X95525Y47199D01*
X95459Y47015D01*
X95384Y46835D01*
Y44937D01*
X95459Y44757D01*
X95525Y44573D01*
X95537Y44567D01*
X95543Y44554D01*
X95723Y44480D01*
X95899Y44396D01*
X95982Y44392D01*
X96035Y44390D01*
X96078Y44384D01*
X96129Y44373D01*
X96183Y44360D01*
X96246Y44341D01*
X96293Y44326D01*
X96334Y44309D01*
X96382Y44286D01*
X96422Y44264D01*
X96474Y44231D01*
X96474D01*
X96474Y44231D01*
X96523Y44199D01*
X96560Y44171D01*
X96592Y44143D01*
X96637Y44098D01*
X96682Y44052D01*
X96710Y44020D01*
X96738Y43983D01*
X96770Y43934D01*
X96770Y43934D01*
X96770Y43934D01*
X96803Y43883D01*
X96825Y43843D01*
X96848Y43795D01*
X96865Y43754D01*
X96880Y43707D01*
X96899Y43644D01*
X96913Y43590D01*
X96923Y43538D01*
X96929Y43495D01*
X96932Y43442D01*
X96934Y43398D01*
Y43374D01*
X96932Y43330D01*
X96932Y43330D01*
X96929Y43276D01*
X96923Y43233D01*
X96913Y43182D01*
X96899Y43128D01*
X96880Y43065D01*
X96865Y43018D01*
X96848Y42977D01*
X96825Y42929D01*
X96803Y42889D01*
X96770Y42837D01*
Y42837D01*
X96770Y42837D01*
X96738Y42788D01*
X96710Y42751D01*
X96682Y42720D01*
X96637Y42674D01*
X96592Y42629D01*
X96560Y42601D01*
X96523Y42573D01*
X96474Y42541D01*
X96474Y42541D01*
X96474Y42541D01*
X96422Y42507D01*
X96382Y42486D01*
X96334Y42463D01*
X96293Y42445D01*
X96246Y42431D01*
X96183Y42412D01*
X96129Y42398D01*
X96078Y42388D01*
X96035Y42382D01*
X95982Y42379D01*
X95899Y42375D01*
X95723Y42292D01*
X95543Y42217D01*
X95537Y42205D01*
X95525Y42199D01*
X95459Y42015D01*
X95384Y41835D01*
Y39937D01*
X95459Y39757D01*
X95525Y39573D01*
X95537Y39567D01*
X95543Y39554D01*
X95723Y39480D01*
X95899Y39396D01*
X95982Y39393D01*
X96035Y39390D01*
X96078Y39384D01*
X96129Y39373D01*
X96183Y39360D01*
X96246Y39341D01*
X96293Y39326D01*
X96334Y39309D01*
X96382Y39286D01*
X96422Y39264D01*
X96474Y39231D01*
X96474D01*
X96474Y39231D01*
X96523Y39199D01*
X96560Y39171D01*
X96592Y39143D01*
X96637Y39098D01*
X96682Y39052D01*
X96710Y39020D01*
X96738Y38983D01*
X96770Y38934D01*
X96770Y38934D01*
X96770Y38934D01*
X96803Y38883D01*
X96825Y38843D01*
X96848Y38795D01*
X96865Y38754D01*
X96880Y38707D01*
X96899Y38644D01*
X96913Y38590D01*
X96923Y38539D01*
X96929Y38495D01*
X96932Y38442D01*
X96934Y38398D01*
Y38374D01*
X96932Y38330D01*
X96932Y38330D01*
X96929Y38276D01*
X96923Y38233D01*
X96913Y38182D01*
X96899Y38128D01*
X96880Y38065D01*
X96865Y38018D01*
X96848Y37977D01*
X96825Y37929D01*
X96803Y37889D01*
X96770Y37837D01*
Y37837D01*
X96770Y37837D01*
X96738Y37788D01*
X96710Y37751D01*
X96682Y37720D01*
X96637Y37674D01*
X96592Y37629D01*
X96560Y37601D01*
X96523Y37573D01*
X96474Y37541D01*
X96474Y37541D01*
X96474Y37541D01*
X96422Y37508D01*
X96382Y37486D01*
X96334Y37463D01*
X96293Y37446D01*
X96246Y37431D01*
X96183Y37412D01*
X96129Y37398D01*
X96078Y37388D01*
X96035Y37382D01*
X95982Y37379D01*
X95899Y37375D01*
X95723Y37292D01*
X95543Y37217D01*
X95537Y37205D01*
X95525Y37199D01*
X95459Y37015D01*
X95384Y36835D01*
Y34937D01*
X95459Y34757D01*
X95525Y34573D01*
X95537Y34567D01*
X95543Y34554D01*
X95723Y34480D01*
X95899Y34396D01*
X95982Y34392D01*
X96035Y34390D01*
X96078Y34384D01*
X96129Y34373D01*
X96183Y34360D01*
X96246Y34341D01*
X96293Y34326D01*
X96334Y34309D01*
X96382Y34286D01*
X96422Y34264D01*
X96474Y34231D01*
X96474D01*
X96474Y34231D01*
X96523Y34199D01*
X96560Y34171D01*
X96592Y34143D01*
X96637Y34098D01*
X96682Y34052D01*
X96710Y34020D01*
X96738Y33983D01*
X96770Y33934D01*
X96770Y33934D01*
X96770Y33934D01*
X96803Y33883D01*
X96825Y33843D01*
X96848Y33795D01*
X96865Y33754D01*
X96880Y33707D01*
X96899Y33644D01*
X96913Y33590D01*
X96923Y33538D01*
X96929Y33495D01*
X96932Y33442D01*
X96934Y33398D01*
Y33374D01*
X96932Y33330D01*
X96932Y33330D01*
X96929Y33276D01*
X96923Y33233D01*
X96913Y33182D01*
X96899Y33128D01*
X96880Y33065D01*
X96865Y33018D01*
X96848Y32977D01*
X96825Y32929D01*
X96803Y32889D01*
X96770Y32837D01*
Y32837D01*
X96770Y32837D01*
X96738Y32788D01*
X96710Y32751D01*
X96682Y32719D01*
X96637Y32674D01*
X96592Y32629D01*
X96560Y32601D01*
X96523Y32573D01*
X96474Y32541D01*
X96474Y32541D01*
X96474Y32541D01*
X96422Y32508D01*
X96382Y32486D01*
X96334Y32463D01*
X96293Y32445D01*
X96246Y32431D01*
X96183Y32412D01*
X96129Y32398D01*
X96078Y32388D01*
X96035Y32382D01*
X95982Y32379D01*
X95899Y32375D01*
X95723Y32292D01*
X95543Y32217D01*
X95537Y32205D01*
X95525Y32199D01*
X95459Y32015D01*
X95384Y31835D01*
Y29937D01*
X95459Y29757D01*
X95525Y29573D01*
X95537Y29567D01*
X95543Y29554D01*
X95723Y29480D01*
X95899Y29396D01*
X95982Y29392D01*
X96035Y29390D01*
X96078Y29384D01*
X96129Y29373D01*
X96183Y29360D01*
X96246Y29341D01*
X96293Y29326D01*
X96334Y29309D01*
X96382Y29286D01*
X96422Y29264D01*
X96474Y29231D01*
X96474D01*
X96474Y29231D01*
X96523Y29199D01*
X96560Y29171D01*
X96592Y29143D01*
X96637Y29098D01*
X96682Y29052D01*
X96710Y29020D01*
X96738Y28983D01*
X96770Y28934D01*
X96770Y28934D01*
X96770Y28934D01*
X96803Y28883D01*
X96825Y28843D01*
X96848Y28795D01*
X96865Y28754D01*
X96880Y28707D01*
X96899Y28644D01*
X96913Y28590D01*
X96923Y28539D01*
X96929Y28495D01*
X96932Y28442D01*
X96934Y28398D01*
Y28386D01*
X96935Y28384D01*
X96936Y28360D01*
X97009Y28204D01*
X97092Y28003D01*
X97107Y27997D01*
X97112Y27985D01*
X97287Y27922D01*
X97475Y27845D01*
X99375D01*
X99375Y27845D01*
X99375Y27845D01*
X99563Y27923D01*
X99738Y27985D01*
X99744Y27997D01*
X99758Y28003D01*
X99758Y28003D01*
X99758Y28003D01*
X99841Y28204D01*
X99915Y28360D01*
X99916Y28384D01*
X99916Y28386D01*
Y28398D01*
X99919Y28442D01*
X99919Y28442D01*
X99921Y28495D01*
X99927Y28539D01*
X99938Y28590D01*
X99951Y28644D01*
X99970Y28707D01*
X99985Y28754D01*
X100002Y28795D01*
X100025Y28843D01*
X100047Y28883D01*
X100080Y28934D01*
Y28934D01*
X100080Y28934D01*
X100112Y28983D01*
X100140Y29020D01*
X100168Y29052D01*
X100213Y29098D01*
X100259Y29143D01*
X100291Y29171D01*
X100328Y29199D01*
X100377Y29231D01*
X100377Y29231D01*
X100377Y29231D01*
X100428Y29264D01*
X100468Y29286D01*
X100516Y29309D01*
X100557Y29326D01*
X100604Y29341D01*
X100667Y29360D01*
X100721Y29373D01*
X100773Y29384D01*
X100816Y29390D01*
X100869Y29392D01*
X100951Y29396D01*
X101128Y29480D01*
X101308Y29554D01*
X101313Y29567D01*
X101326Y29573D01*
X101392Y29757D01*
X101466Y29937D01*
Y31835D01*
X101392Y32015D01*
X101326Y32199D01*
X101313Y32205D01*
X101308Y32217D01*
X101128Y32292D01*
X100951Y32375D01*
X100869Y32379D01*
X100816Y32382D01*
X100773Y32388D01*
X100721Y32398D01*
X100667Y32412D01*
X100604Y32431D01*
X100557Y32445D01*
X100516Y32463D01*
X100468Y32486D01*
X100428Y32508D01*
X100377Y32541D01*
X100377D01*
X100377Y32541D01*
X100328Y32573D01*
X100291Y32601D01*
X100259Y32629D01*
X100213Y32674D01*
X100168Y32719D01*
X100140Y32751D01*
X100112Y32788D01*
X100080Y32837D01*
X100080Y32837D01*
X100080Y32837D01*
X100047Y32889D01*
X100025Y32929D01*
X100002Y32977D01*
X99985Y33018D01*
X99970Y33065D01*
X99951Y33128D01*
X99938Y33182D01*
X99927Y33233D01*
X99921Y33276D01*
X99919Y33329D01*
X99916Y33374D01*
Y33398D01*
X99919Y33441D01*
X99919Y33441D01*
X99921Y33495D01*
X99927Y33538D01*
X99938Y33590D01*
X99951Y33644D01*
X99970Y33707D01*
X99985Y33754D01*
X100002Y33795D01*
X100025Y33843D01*
X100047Y33883D01*
X100080Y33934D01*
Y33934D01*
X100080Y33934D01*
X100112Y33983D01*
X100140Y34020D01*
X100168Y34052D01*
X100213Y34098D01*
X100259Y34143D01*
X100291Y34171D01*
X100328Y34199D01*
X100377Y34231D01*
X100377Y34231D01*
X100377Y34231D01*
X100428Y34264D01*
X100468Y34286D01*
X100516Y34309D01*
X100557Y34326D01*
X100604Y34341D01*
X100667Y34360D01*
X100721Y34373D01*
X100773Y34384D01*
X100816Y34390D01*
X100869Y34392D01*
X100951Y34396D01*
X101128Y34480D01*
X101308Y34554D01*
X101313Y34567D01*
X101326Y34573D01*
X101392Y34757D01*
X101466Y34937D01*
Y36835D01*
X101392Y37015D01*
X101326Y37199D01*
X101313Y37205D01*
X101308Y37217D01*
X101128Y37292D01*
X100951Y37375D01*
X100869Y37379D01*
X100816Y37382D01*
X100773Y37388D01*
X100721Y37398D01*
X100667Y37412D01*
X100604Y37431D01*
X100557Y37446D01*
X100516Y37463D01*
X100468Y37486D01*
X100428Y37508D01*
X100377Y37541D01*
X100377D01*
X100377Y37541D01*
X100328Y37573D01*
X100291Y37601D01*
X100259Y37629D01*
X100213Y37674D01*
X100168Y37719D01*
X100140Y37751D01*
X100112Y37788D01*
X100080Y37837D01*
X100080Y37837D01*
X100080Y37837D01*
X100047Y37889D01*
X100025Y37929D01*
X100002Y37977D01*
X99985Y38018D01*
X99970Y38065D01*
X99951Y38128D01*
X99938Y38182D01*
X99927Y38233D01*
X99921Y38276D01*
X99919Y38329D01*
X99916Y38374D01*
Y38398D01*
X99919Y38442D01*
X99919Y38442D01*
X99921Y38495D01*
X99927Y38539D01*
X99938Y38590D01*
X99951Y38644D01*
X99970Y38707D01*
X99985Y38754D01*
X100002Y38795D01*
X100025Y38843D01*
X100047Y38883D01*
X100080Y38934D01*
Y38934D01*
X100080Y38934D01*
X100112Y38983D01*
X100140Y39020D01*
X100168Y39052D01*
X100213Y39098D01*
X100259Y39143D01*
X100291Y39171D01*
X100328Y39199D01*
X100377Y39231D01*
X100377Y39231D01*
X100377Y39231D01*
X100428Y39264D01*
X100468Y39286D01*
X100516Y39309D01*
X100557Y39326D01*
X100604Y39341D01*
X100667Y39360D01*
X100721Y39373D01*
X100773Y39384D01*
X100816Y39390D01*
X100869Y39393D01*
X100951Y39396D01*
X101128Y39480D01*
X101308Y39554D01*
X101313Y39567D01*
X101326Y39573D01*
X101392Y39757D01*
X101466Y39937D01*
Y41835D01*
X101392Y42015D01*
X101326Y42199D01*
X101313Y42205D01*
X101308Y42217D01*
X101128Y42292D01*
X100951Y42375D01*
X100869Y42379D01*
X100816Y42382D01*
X100773Y42388D01*
X100721Y42398D01*
X100667Y42412D01*
X100604Y42431D01*
X100557Y42445D01*
X100516Y42463D01*
X100468Y42486D01*
X100428Y42507D01*
X100377Y42541D01*
X100377D01*
X100377Y42541D01*
X100328Y42573D01*
X100291Y42601D01*
X100259Y42629D01*
X100213Y42674D01*
X100168Y42719D01*
X100140Y42751D01*
X100112Y42788D01*
X100080Y42837D01*
X100080Y42837D01*
X100080Y42837D01*
X100047Y42889D01*
X100025Y42929D01*
X100002Y42977D01*
X99985Y43018D01*
X99970Y43065D01*
X99951Y43128D01*
X99938Y43182D01*
X99927Y43233D01*
X99921Y43276D01*
X99919Y43329D01*
X99916Y43374D01*
Y43398D01*
X99919Y43442D01*
X99919Y43442D01*
X99921Y43495D01*
X99927Y43538D01*
X99938Y43590D01*
X99951Y43644D01*
X99970Y43707D01*
X99985Y43754D01*
X100002Y43795D01*
X100025Y43843D01*
X100047Y43883D01*
X100080Y43934D01*
Y43934D01*
X100080Y43934D01*
X100112Y43983D01*
X100140Y44020D01*
X100168Y44052D01*
X100213Y44098D01*
X100259Y44143D01*
X100291Y44171D01*
X100328Y44199D01*
X100377Y44231D01*
X100377Y44231D01*
X100377Y44231D01*
X100428Y44264D01*
X100468Y44286D01*
X100516Y44309D01*
X100557Y44326D01*
X100604Y44341D01*
X100667Y44360D01*
X100721Y44373D01*
X100773Y44384D01*
X100816Y44390D01*
X100869Y44392D01*
X100951Y44396D01*
X101128Y44480D01*
X101308Y44554D01*
X101313Y44567D01*
X101326Y44573D01*
X101392Y44757D01*
X101466Y44937D01*
Y46835D01*
X101392Y47015D01*
X101326Y47199D01*
X101313Y47205D01*
X101308Y47217D01*
X101128Y47292D01*
X100951Y47375D01*
X100869Y47379D01*
X100816Y47382D01*
X100773Y47388D01*
X100721Y47398D01*
X100667Y47412D01*
X100604Y47431D01*
X100557Y47445D01*
X100516Y47463D01*
X100468Y47486D01*
X100428Y47508D01*
X100377Y47541D01*
X100377D01*
X100377Y47541D01*
X100328Y47573D01*
X100291Y47601D01*
X100259Y47629D01*
X100213Y47674D01*
X100168Y47719D01*
X100140Y47751D01*
X100112Y47788D01*
X100080Y47837D01*
X100080Y47837D01*
X100080Y47837D01*
X100047Y47889D01*
X100025Y47929D01*
X100002Y47977D01*
X99985Y48018D01*
X99970Y48065D01*
X99951Y48128D01*
X99938Y48182D01*
X99927Y48233D01*
X99921Y48276D01*
X99919Y48329D01*
X99916Y48374D01*
Y48386D01*
X99916Y48387D01*
X99915Y48412D01*
X99841Y48568D01*
X99758Y48768D01*
X99744Y48774D01*
X99738Y48786D01*
X99563Y48849D01*
X99375Y48927D01*
D02*
G37*
G36*
X89172Y36561D02*
X87678D01*
X86235Y36174D01*
X84941Y35427D01*
X83884Y34370D01*
X83137Y33076D01*
X82750Y31633D01*
Y30139D01*
X83137Y28695D01*
X83884Y27401D01*
X84941Y26345D01*
X86235Y25598D01*
X87678Y25211D01*
X89172D01*
X90616Y25598D01*
X91910Y26345D01*
X92966Y27401D01*
X93713Y28695D01*
X94100Y30139D01*
Y31633D01*
X93713Y33076D01*
X92966Y34370D01*
X91910Y35427D01*
X90616Y36174D01*
X89172Y36561D01*
D02*
G37*
G36*
X102810Y26336D02*
X102033D01*
X101283Y26135D01*
X100610Y25746D01*
X100061Y25197D01*
X99672Y24524D01*
X99471Y23774D01*
Y22997D01*
X99672Y22247D01*
X100061Y21575D01*
X100610Y21025D01*
X101283Y20637D01*
X102033Y20436D01*
X102810D01*
X103560Y20637D01*
X104233Y21025D01*
X104782Y21575D01*
X105170Y22247D01*
X105371Y22997D01*
Y23774D01*
X105170Y24524D01*
X104782Y25197D01*
X104233Y25746D01*
X103560Y26135D01*
X102810Y26336D01*
D02*
G37*
G36*
X94818D02*
X94041D01*
X93291Y26135D01*
X92618Y25746D01*
X92069Y25197D01*
X91680Y24524D01*
X91479Y23774D01*
Y22997D01*
X91680Y22247D01*
X92069Y21575D01*
X92618Y21025D01*
X93291Y20637D01*
X94041Y20436D01*
X94818D01*
X95568Y20637D01*
X96241Y21025D01*
X96790Y21575D01*
X97178Y22247D01*
X97379Y22997D01*
Y23774D01*
X97178Y24524D01*
X96790Y25197D01*
X96241Y25746D01*
X95568Y26135D01*
X94818Y26336D01*
D02*
G37*
G36*
X112370Y3945D02*
X108675D01*
Y250D01*
X112370D01*
Y3945D01*
D02*
G37*
G36*
X108175D02*
X104480D01*
Y250D01*
X108175D01*
Y3945D01*
D02*
G37*
G36*
X112370Y-250D02*
X108675D01*
Y-3945D01*
X112370D01*
Y-250D01*
D02*
G37*
G36*
X108175D02*
X104480D01*
Y-3945D01*
X108175D01*
Y-250D01*
D02*
G37*
G36*
X88945Y3945D02*
X87906D01*
X86902Y3676D01*
X86003Y3157D01*
X85268Y2422D01*
X84749Y1523D01*
X84480Y519D01*
Y-519D01*
X84749Y-1523D01*
X85268Y-2422D01*
X86003Y-3157D01*
X86902Y-3676D01*
X87906Y-3945D01*
X88945D01*
X89948Y-3676D01*
X90847Y-3157D01*
X91582Y-2422D01*
X92101Y-1523D01*
X92370Y-519D01*
Y519D01*
X92101Y1523D01*
X91582Y2422D01*
X90847Y3157D01*
X89948Y3676D01*
X88945Y3945D01*
D02*
G37*
G36*
X112370Y-25681D02*
X108675D01*
Y-29376D01*
X112370D01*
Y-25681D01*
D02*
G37*
G36*
X108175D02*
X104480D01*
Y-29376D01*
X108175D01*
Y-25681D01*
D02*
G37*
G36*
X112370Y-29876D02*
X108675D01*
Y-33571D01*
X112370D01*
Y-29876D01*
D02*
G37*
G36*
X108175D02*
X104480D01*
Y-33571D01*
X108175D01*
Y-29876D01*
D02*
G37*
G36*
X88945Y-25681D02*
X87906D01*
X86902Y-25950D01*
X86003Y-26469D01*
X85268Y-27204D01*
X84749Y-28103D01*
X84480Y-29107D01*
Y-30145D01*
X84749Y-31149D01*
X85268Y-32048D01*
X86003Y-32783D01*
X86902Y-33302D01*
X87906Y-33571D01*
X88945D01*
X89948Y-33302D01*
X90847Y-32783D01*
X91582Y-32048D01*
X92101Y-31149D01*
X92370Y-30145D01*
Y-29107D01*
X92101Y-28103D01*
X91582Y-27204D01*
X90847Y-26469D01*
X89948Y-25950D01*
X88945Y-25681D01*
D02*
G37*
G36*
X78208Y-40819D02*
X77500D01*
X76846Y-41090D01*
X76346Y-41590D01*
X76075Y-42244D01*
Y-42952D01*
X76346Y-43606D01*
X76846Y-44107D01*
X77500Y-44378D01*
X78208D01*
X78862Y-44107D01*
X79363Y-43606D01*
X79634Y-42952D01*
Y-42244D01*
X79363Y-41590D01*
X78862Y-41090D01*
X78208Y-40819D01*
D02*
G37*
G36*
X112370Y-55307D02*
X108675D01*
Y-59002D01*
X112370D01*
Y-55307D01*
D02*
G37*
G36*
X108175D02*
X104480D01*
Y-59002D01*
X108175D01*
Y-55307D01*
D02*
G37*
G36*
X112370Y-59502D02*
X108675D01*
Y-63197D01*
X112370D01*
Y-59502D01*
D02*
G37*
G36*
X108175D02*
X104480D01*
Y-63197D01*
X108175D01*
Y-59502D01*
D02*
G37*
G36*
X88945Y-55307D02*
X87906D01*
X86902Y-55576D01*
X86003Y-56095D01*
X85268Y-56830D01*
X84749Y-57729D01*
X84480Y-58733D01*
Y-59771D01*
X84749Y-60775D01*
X85268Y-61674D01*
X86003Y-62409D01*
X86902Y-62928D01*
X87906Y-63197D01*
X88945D01*
X89948Y-62928D01*
X90847Y-62409D01*
X91582Y-61674D01*
X92101Y-60775D01*
X92370Y-59771D01*
Y-58733D01*
X92101Y-57729D01*
X91582Y-56830D01*
X90847Y-56095D01*
X89948Y-55576D01*
X88945Y-55307D01*
D02*
G37*
G36*
X196752Y205767D02*
X195012Y205596D01*
X193340Y205089D01*
X191798Y204265D01*
X190447Y203156D01*
X189338Y201804D01*
X188514Y200263D01*
X188006Y198590D01*
X187835Y196850D01*
X188006Y195111D01*
X188514Y193438D01*
X189338Y191896D01*
X190447Y190545D01*
X191798Y189436D01*
X193340Y188612D01*
X195012Y188105D01*
X196752Y187933D01*
X198492Y188105D01*
X200164Y188612D01*
X201706Y189436D01*
X203057Y190545D01*
X204166Y191896D01*
X204990Y193438D01*
X205498Y195111D01*
X205669Y196850D01*
X205498Y198590D01*
X204990Y200263D01*
X204166Y201804D01*
X203057Y203156D01*
X201706Y204265D01*
X200164Y205089D01*
X198492Y205596D01*
X196752Y205767D01*
D02*
G37*
G36*
X-196949D02*
X-198688Y205596D01*
X-200361Y205089D01*
X-201903Y204265D01*
X-203254Y203156D01*
X-204363Y201804D01*
X-205187Y200263D01*
X-205694Y198590D01*
X-205866Y196850D01*
X-205694Y195111D01*
X-205187Y193438D01*
X-204363Y191896D01*
X-203254Y190545D01*
X-201903Y189436D01*
X-200361Y188612D01*
X-198688Y188105D01*
X-196949Y187933D01*
X-195209Y188105D01*
X-193536Y188612D01*
X-191995Y189436D01*
X-190644Y190545D01*
X-189535Y191896D01*
X-188711Y193438D01*
X-188203Y195111D01*
X-188032Y196850D01*
X-188203Y198590D01*
X-188711Y200263D01*
X-189535Y201804D01*
X-190644Y203156D01*
X-191995Y204265D01*
X-193536Y205089D01*
X-195209Y205596D01*
X-196949Y205767D01*
D02*
G37*
G36*
X-23524Y135876D02*
X-33366D01*
X-33749Y135717D01*
X-33907Y135335D01*
Y127461D01*
X-33749Y127078D01*
X-33366Y126919D01*
X-23524D01*
X-23141Y127078D01*
X-22982Y127461D01*
Y135335D01*
X-23141Y135717D01*
X-23524Y135876D01*
D02*
G37*
G36*
X175670Y121386D02*
X175657Y121384D01*
X175645Y121386D01*
X175429Y121377D01*
X175416Y121374D01*
X175404Y121376D01*
X175265Y121337D01*
X175124Y121303D01*
X175114Y121296D01*
X175102Y121292D01*
X174909Y121195D01*
X174898Y121188D01*
X174886Y121184D01*
X174775Y121092D01*
X174661Y121003D01*
X174655Y120992D01*
X174645Y120984D01*
X174603Y120932D01*
X139895Y86224D01*
X139894Y86222D01*
X139892Y86221D01*
X139890Y86219D01*
X139888Y86216D01*
X139885Y86214D01*
X139883Y86212D01*
X139881Y86209D01*
X139879Y86207D01*
X139876Y86205D01*
X139874Y86202D01*
X139872Y86200D01*
X138393Y84650D01*
X138379Y84628D01*
X138359Y84612D01*
X135603Y81330D01*
X135591Y81307D01*
X135572Y81290D01*
X133030Y77839D01*
X133019Y77816D01*
X133001Y77797D01*
X130683Y74193D01*
X130674Y74168D01*
X130657Y74149D01*
X128573Y70404D01*
X128565Y70380D01*
X128549Y70359D01*
X126707Y66490D01*
X126700Y66465D01*
X126686Y66443D01*
X125093Y62465D01*
X125088Y62439D01*
X125076Y62417D01*
X123738Y58346D01*
X123735Y58320D01*
X123723Y58297D01*
X122647Y54149D01*
X122645Y54123D01*
X122636Y54099D01*
X121824Y49891D01*
X121824Y49865D01*
X121816Y49841D01*
X121273Y45590D01*
X121275Y45564D01*
X121269Y45539D01*
X120997Y41262D01*
X121000Y41236D01*
X120995Y41211D01*
Y39068D01*
X120995Y39068D01*
X120995Y-39088D01*
X120995Y-39092D01*
X120996Y-39098D01*
X120995Y-39104D01*
X120995Y-39110D01*
X120996Y-39115D01*
X120996Y-39118D01*
Y-39120D01*
X120995Y-39122D01*
X120996Y-39128D01*
X120996Y-39129D01*
X120999Y-41249D01*
X121004Y-41274D01*
X121001Y-41300D01*
X121277Y-45554D01*
X121284Y-45579D01*
X121282Y-45604D01*
X121826Y-49832D01*
X121834Y-49857D01*
X121834Y-49883D01*
X122644Y-54068D01*
X122653Y-54092D01*
X122655Y-54117D01*
X123727Y-58243D01*
X123738Y-58266D01*
X123741Y-58292D01*
X125072Y-62342D01*
X125085Y-62364D01*
X125089Y-62389D01*
X126673Y-66347D01*
X126687Y-66369D01*
X126693Y-66394D01*
X128523Y-70244D01*
X128539Y-70265D01*
X128547Y-70289D01*
X130616Y-74016D01*
X130633Y-74035D01*
X130642Y-74059D01*
X132943Y-77648D01*
X132961Y-77667D01*
X132971Y-77690D01*
X135494Y-81126D01*
X135513Y-81144D01*
X135525Y-81166D01*
X138260Y-84437D01*
X138280Y-84453D01*
X138293Y-84475D01*
X139687Y-85942D01*
X139699Y-85975D01*
X139730Y-86023D01*
X139761Y-86056D01*
X139782Y-86096D01*
X139818Y-86140D01*
X139853Y-86169D01*
X139878Y-86207D01*
X139897Y-86226D01*
X174604Y-120933D01*
X174646Y-120984D01*
X174654Y-120992D01*
X174660Y-121001D01*
X174775Y-121091D01*
X174887Y-121184D01*
X174898Y-121187D01*
X174907Y-121195D01*
X175098Y-121291D01*
X175109Y-121294D01*
X175118Y-121301D01*
X175259Y-121336D01*
X175399Y-121375D01*
X175411Y-121374D01*
X175422Y-121377D01*
X175635Y-121387D01*
X175647Y-121385D01*
X175658Y-121387D01*
X175801Y-121362D01*
X175945Y-121340D01*
X175955Y-121334D01*
X175966Y-121332D01*
X176165Y-121254D01*
X176175Y-121248D01*
X176186Y-121246D01*
X176306Y-121164D01*
X176429Y-121086D01*
X176436Y-121076D01*
X176445Y-121070D01*
X176520Y-120994D01*
X176521Y-120993D01*
X176521Y-120993D01*
X176522Y-120992D01*
X176523Y-120990D01*
X176525Y-120989D01*
X176525Y-120989D01*
X176526Y-120988D01*
X176526Y-120987D01*
X176528Y-120986D01*
X176529Y-120985D01*
X176530Y-120984D01*
X176531Y-120982D01*
X176532Y-120982D01*
X176532Y-120982D01*
X176533Y-120980D01*
X176534Y-120979D01*
X176534Y-120979D01*
X176535Y-120979D01*
X176535Y-120978D01*
X176536Y-120977D01*
X176537Y-120977D01*
X176538Y-120975D01*
X176539Y-120975D01*
X176539Y-120975D01*
X176539Y-120974D01*
X176540Y-120974D01*
X177450Y-120021D01*
X177471Y-119988D01*
X177500Y-119963D01*
X179132Y-117893D01*
X179149Y-117859D01*
X179176Y-117831D01*
X180603Y-115615D01*
X180617Y-115579D01*
X180641Y-115549D01*
X181851Y-113208D01*
X181861Y-113171D01*
X181883Y-113138D01*
X182864Y-110692D01*
X182871Y-110654D01*
X182889Y-110620D01*
X183632Y-108091D01*
X183636Y-108053D01*
X183651Y-108017D01*
X184150Y-105429D01*
X184150Y-105391D01*
X184161Y-105354D01*
X184412Y-102730D01*
X184408Y-102692D01*
X184415Y-102654D01*
Y-101336D01*
X184415Y-101336D01*
X184415Y101335D01*
Y102653D01*
X184407Y102691D01*
X184411Y102730D01*
X184160Y105354D01*
X184149Y105392D01*
X184149Y105430D01*
X183649Y108019D01*
X183635Y108055D01*
X183631Y108093D01*
X182887Y110623D01*
X182869Y110657D01*
X182862Y110695D01*
X181880Y113142D01*
X181859Y113174D01*
X181848Y113212D01*
X180638Y115554D01*
X180614Y115584D01*
X180599Y115620D01*
X179171Y117837D01*
X179144Y117865D01*
X179127Y117899D01*
X177494Y119969D01*
X177465Y119994D01*
X177444Y120027D01*
X176458Y121058D01*
X176447Y121065D01*
X176440Y121076D01*
X176320Y121155D01*
X176201Y121238D01*
X176189Y121240D01*
X176178Y121247D01*
X175978Y121328D01*
X175965Y121330D01*
X175954Y121337D01*
X175812Y121360D01*
X175670Y121386D01*
D02*
G37*
G36*
X10604Y116129D02*
Y111746D01*
X12871D01*
Y113661D01*
X12680Y114625D01*
X12134Y115441D01*
X11317Y115987D01*
X10604Y116129D01*
D02*
G37*
G36*
X10104Y116129D02*
X9391Y115987D01*
X8575Y115441D01*
X8029Y114625D01*
X7837Y113661D01*
Y111746D01*
X10104D01*
Y116129D01*
D02*
G37*
G36*
X44620D02*
Y111746D01*
X46887D01*
Y113661D01*
X46695Y114625D01*
X46150Y115441D01*
X45333Y115987D01*
X44620Y116129D01*
D02*
G37*
G36*
X44120Y116129D02*
X43407Y115987D01*
X42590Y115441D01*
X42045Y114625D01*
X41853Y113661D01*
Y111746D01*
X44120D01*
Y116129D01*
D02*
G37*
G36*
X39174Y115646D02*
X38306D01*
X37505Y115314D01*
X36891Y114700D01*
X36559Y113898D01*
Y113031D01*
X36891Y112229D01*
X37505Y111616D01*
X38306Y111284D01*
X39174D01*
X39976Y111616D01*
X40589Y112229D01*
X40921Y113031D01*
Y113898D01*
X40589Y114700D01*
X39976Y115314D01*
X39174Y115646D01*
D02*
G37*
G36*
X16418D02*
X15550D01*
X14749Y115314D01*
X14135Y114700D01*
X13803Y113898D01*
Y113031D01*
X14135Y112229D01*
X14749Y111616D01*
X15550Y111284D01*
X16418D01*
X17220Y111616D01*
X17833Y112229D01*
X18165Y113031D01*
Y113898D01*
X17833Y114700D01*
X17220Y115314D01*
X16418Y115646D01*
D02*
G37*
G36*
X98327Y107342D02*
X96587Y107171D01*
X94914Y106663D01*
X93373Y105839D01*
X92022Y104730D01*
X90913Y103379D01*
X90089Y101838D01*
X89581Y100165D01*
X89410Y98425D01*
X89581Y96686D01*
X90089Y95013D01*
X90913Y93471D01*
X92022Y92120D01*
X93373Y91011D01*
X94914Y90187D01*
X96587Y89680D01*
X98327Y89508D01*
X100066Y89680D01*
X101739Y90187D01*
X103281Y91011D01*
X104632Y92120D01*
X105741Y93471D01*
X106565Y95013D01*
X107072Y96686D01*
X107244Y98425D01*
X107072Y100165D01*
X106565Y101838D01*
X105741Y103379D01*
X104632Y104730D01*
X103281Y105839D01*
X101739Y106663D01*
X100066Y107171D01*
X98327Y107342D01*
D02*
G37*
G36*
X-98524D02*
X-100263Y107171D01*
X-101936Y106663D01*
X-103478Y105839D01*
X-104829Y104730D01*
X-105938Y103379D01*
X-106762Y101838D01*
X-107269Y100165D01*
X-107441Y98425D01*
X-107269Y96686D01*
X-106762Y95013D01*
X-105938Y93471D01*
X-104829Y92120D01*
X-103478Y91011D01*
X-101936Y90187D01*
X-100263Y89680D01*
X-98524Y89508D01*
X-96784Y89680D01*
X-95111Y90187D01*
X-93570Y91011D01*
X-92218Y92120D01*
X-91109Y93471D01*
X-90285Y95013D01*
X-89778Y96686D01*
X-89607Y98425D01*
X-89778Y100165D01*
X-90285Y101838D01*
X-91109Y103379D01*
X-92218Y104730D01*
X-93570Y105839D01*
X-95111Y106663D01*
X-96784Y107171D01*
X-98524Y107342D01*
D02*
G37*
G36*
X10354Y111496D02*
D01*
Y111246D01*
X7837D01*
Y109331D01*
X8029Y108368D01*
X8575Y107551D01*
X9391Y107005D01*
X9749Y106934D01*
X9813Y106814D01*
Y82972D01*
X9972Y82590D01*
X10354Y82431D01*
X44370D01*
X44753Y82590D01*
X44911Y82972D01*
Y106814D01*
X44976Y106934D01*
X45333Y107005D01*
X46150Y107551D01*
X46695Y108368D01*
X46887Y109331D01*
Y111246D01*
X44370D01*
X41853D01*
Y109331D01*
X42014Y108521D01*
X41720Y108021D01*
X13004D01*
X12710Y108521D01*
X12871Y109331D01*
Y111246D01*
X10354D01*
Y111496D01*
D02*
G37*
G36*
X29488Y78945D02*
X28780D01*
X28126Y78674D01*
X27625Y78173D01*
X27612Y78142D01*
X27112D01*
X27099Y78173D01*
X26599Y78674D01*
X25945Y78945D01*
X25237D01*
X24582Y78674D01*
X24082Y78173D01*
X23811Y77519D01*
Y76811D01*
X24082Y76157D01*
X24582Y75657D01*
X25237Y75386D01*
X25555D01*
Y-24184D01*
X10617Y-39122D01*
X-19556D01*
Y-38553D01*
X-19827Y-37899D01*
X-20327Y-37399D01*
X-20981Y-37128D01*
X-21689D01*
X-22343Y-37399D01*
X-22844Y-37899D01*
X-23115Y-38553D01*
Y-39261D01*
X-22844Y-39915D01*
X-22343Y-40416D01*
X-21725Y-40672D01*
X-21698Y-40844D01*
X-21715Y-41176D01*
X-22268Y-41405D01*
X-22769Y-41905D01*
X-23039Y-42559D01*
Y-43267D01*
X-22769Y-43921D01*
X-22268Y-44422D01*
X-21614Y-44693D01*
X-20906D01*
X-20252Y-44422D01*
X-19751Y-43921D01*
X-19480Y-43267D01*
Y-42752D01*
X11698D01*
X12088Y-42674D01*
X12419Y-42453D01*
X28886Y-25986D01*
X29107Y-25655D01*
X29185Y-25265D01*
Y75386D01*
X29488D01*
X30142Y75657D01*
X30643Y76157D01*
X30913Y76811D01*
Y77519D01*
X30643Y78173D01*
X30142Y78674D01*
X29488Y78945D01*
D02*
G37*
G36*
X109172Y59061D02*
X107678D01*
X106235Y58674D01*
X104941Y57927D01*
X103884Y56870D01*
X103137Y55576D01*
X102750Y54133D01*
Y52639D01*
X103137Y51195D01*
X103884Y49901D01*
X104941Y48845D01*
X106235Y48098D01*
X107678Y47711D01*
X109172D01*
X110616Y48098D01*
X111910Y48845D01*
X112966Y49901D01*
X113714Y51195D01*
X114100Y52639D01*
Y54133D01*
X113714Y55576D01*
X112966Y56870D01*
X111910Y57927D01*
X110616Y58674D01*
X109172Y59061D01*
D02*
G37*
G36*
X-29666Y29339D02*
X-30374D01*
X-31028Y29068D01*
X-31528Y28567D01*
X-31799Y27913D01*
Y27205D01*
X-31528Y26551D01*
X-31028Y26050D01*
X-30374Y25780D01*
X-29666D01*
X-29012Y26050D01*
X-28523Y26539D01*
X-21289D01*
X-3083Y8334D01*
X-2752Y8113D01*
X-2362Y8036D01*
X20944D01*
X21433Y7547D01*
X22087Y7276D01*
X22795D01*
X23449Y7547D01*
X23949Y8047D01*
X24220Y8701D01*
Y9409D01*
X23949Y10063D01*
X23449Y10564D01*
X22795Y10835D01*
X22087D01*
X21433Y10564D01*
X20944Y10075D01*
X-1940D01*
X-20145Y28280D01*
X-20476Y28501D01*
X-20866Y28579D01*
X-28523D01*
X-29012Y29068D01*
X-29666Y29339D01*
D02*
G37*
G36*
X-15846Y19031D02*
X-20472D01*
X-20863Y18954D01*
X-21193Y18733D01*
X-30189Y9737D01*
X-30411Y9406D01*
X-30488Y9016D01*
Y-21003D01*
X-30977Y-21492D01*
X-31248Y-22146D01*
Y-22854D01*
X-30977Y-23508D01*
X-30476Y-24009D01*
X-29822Y-24280D01*
X-29114D01*
X-28460Y-24009D01*
X-27960Y-23508D01*
X-27689Y-22854D01*
Y-22146D01*
X-27960Y-21492D01*
X-28449Y-21003D01*
Y8593D01*
X-20050Y16992D01*
X-16269D01*
X-4169Y4893D01*
Y-5137D01*
X-4658Y-5626D01*
X-4929Y-6280D01*
Y-6988D01*
X-4658Y-7642D01*
X-4158Y-8143D01*
X-3504Y-8413D01*
X-2796D01*
X-2142Y-8143D01*
X-1641Y-7642D01*
X-1370Y-6988D01*
Y-6280D01*
X-1641Y-5626D01*
X-2130Y-5137D01*
Y5315D01*
X-2208Y5705D01*
X-2429Y6036D01*
X-15125Y18733D01*
X-15456Y18954D01*
X-15846Y19031D01*
D02*
G37*
G36*
X-54863Y66740D02*
X-55571D01*
X-56225Y66469D01*
X-56725Y65969D01*
X-56996Y65315D01*
Y64607D01*
X-56725Y63953D01*
X-56236Y63464D01*
Y-14665D01*
X-56159Y-15055D01*
X-55937Y-15386D01*
X-43044Y-28280D01*
X-42713Y-28501D01*
X-42323Y-28579D01*
X-31025D01*
X-30536Y-29068D01*
X-29882Y-29339D01*
X-29174D01*
X-28519Y-29068D01*
X-28019Y-28567D01*
X-27748Y-27913D01*
Y-27205D01*
X-28019Y-26551D01*
X-28519Y-26050D01*
X-29174Y-25780D01*
X-29882D01*
X-30536Y-26050D01*
X-31025Y-26539D01*
X-41901D01*
X-54197Y-14243D01*
Y63464D01*
X-53708Y63953D01*
X-53437Y64607D01*
Y65315D01*
X-53708Y65969D01*
X-54208Y66469D01*
X-54863Y66740D01*
D02*
G37*
G36*
X-15689Y14279D02*
X-16397D01*
X-17051Y14009D01*
X-17552Y13508D01*
X-17823Y12854D01*
Y12162D01*
X-26311Y3674D01*
X-26533Y3343D01*
X-26610Y2953D01*
Y-47638D01*
X-26533Y-48028D01*
X-26311Y-48359D01*
X-20800Y-53870D01*
X-20469Y-54092D01*
X-20079Y-54169D01*
X3523D01*
X4012Y-54658D01*
X4666Y-54929D01*
X5374D01*
X6028Y-54658D01*
X6528Y-54158D01*
X6799Y-53504D01*
Y-52796D01*
X6528Y-52142D01*
X6028Y-51641D01*
X5374Y-51370D01*
X4666D01*
X4012Y-51641D01*
X3523Y-52130D01*
X-19656D01*
X-24571Y-47216D01*
Y2530D01*
X-16381Y10721D01*
X-15689D01*
X-15035Y10991D01*
X-14535Y11492D01*
X-14264Y12146D01*
Y12854D01*
X-14535Y13508D01*
X-15035Y14009D01*
X-15689Y14279D01*
D02*
G37*
G36*
X-37402Y-39461D02*
X-38110D01*
X-38764Y-39732D01*
X-39265Y-40232D01*
X-39535Y-40886D01*
Y-41578D01*
X-41961Y-44003D01*
X-42182Y-44334D01*
X-42260Y-44724D01*
Y-53720D01*
X-42749Y-54208D01*
X-43020Y-54862D01*
Y-55571D01*
X-42749Y-56225D01*
X-42248Y-56725D01*
X-41594Y-56996D01*
X-40886D01*
X-40232Y-56725D01*
X-39732Y-56225D01*
X-39461Y-55571D01*
Y-54862D01*
X-39732Y-54208D01*
X-40221Y-53720D01*
Y-45147D01*
X-38094Y-43020D01*
X-37402D01*
X-36748Y-42749D01*
X-36247Y-42248D01*
X-35976Y-41594D01*
Y-40886D01*
X-36247Y-40232D01*
X-36748Y-39732D01*
X-37402Y-39461D01*
D02*
G37*
G36*
X-18480Y-80370D02*
X-18687D01*
Y-83589D01*
X-15469D01*
Y-83382D01*
X-15705Y-82500D01*
X-16161Y-81709D01*
X-16807Y-81063D01*
X-17598Y-80606D01*
X-18480Y-80370D01*
D02*
G37*
G36*
X-19187D02*
X-19394D01*
X-20276Y-80606D01*
X-21067Y-81063D01*
X-21712Y-81709D01*
X-22169Y-82500D01*
X-22406Y-83382D01*
Y-83589D01*
X-19187D01*
Y-80370D01*
D02*
G37*
G36*
X20437D02*
X13500D01*
Y-87307D01*
X20437D01*
Y-80370D01*
D02*
G37*
G36*
X8449D02*
X7536D01*
X6653Y-80606D01*
X5862Y-81063D01*
X5217Y-81709D01*
X4760Y-82500D01*
X4524Y-83382D01*
Y-84295D01*
X4760Y-85177D01*
X5217Y-85968D01*
X5862Y-86614D01*
X6653Y-87071D01*
X7536Y-87307D01*
X8449D01*
X9331Y-87071D01*
X10122Y-86614D01*
X10768Y-85968D01*
X11224Y-85177D01*
X11461Y-84295D01*
Y-83382D01*
X11224Y-82500D01*
X10768Y-81709D01*
X10122Y-81063D01*
X9331Y-80606D01*
X8449Y-80370D01*
D02*
G37*
G36*
X-528D02*
X-1441D01*
X-2323Y-80606D01*
X-3114Y-81063D01*
X-3760Y-81709D01*
X-4216Y-82500D01*
X-4453Y-83382D01*
Y-84295D01*
X-4216Y-85177D01*
X-3760Y-85968D01*
X-3114Y-86614D01*
X-2323Y-87071D01*
X-1441Y-87307D01*
X-528D01*
X354Y-87071D01*
X1146Y-86614D01*
X1791Y-85968D01*
X2248Y-85177D01*
X2484Y-84295D01*
Y-83382D01*
X2248Y-82500D01*
X1791Y-81709D01*
X1146Y-81063D01*
X354Y-80606D01*
X-528Y-80370D01*
D02*
G37*
G36*
X-9504D02*
X-10417D01*
X-11299Y-80606D01*
X-12090Y-81063D01*
X-12736Y-81709D01*
X-13193Y-82500D01*
X-13429Y-83382D01*
Y-84295D01*
X-13193Y-85177D01*
X-12736Y-85968D01*
X-12090Y-86614D01*
X-11299Y-87071D01*
X-10417Y-87307D01*
X-9504D01*
X-8622Y-87071D01*
X-7831Y-86614D01*
X-7185Y-85968D01*
X-6729Y-85177D01*
X-6492Y-84295D01*
Y-83382D01*
X-6729Y-82500D01*
X-7185Y-81709D01*
X-7831Y-81063D01*
X-8622Y-80606D01*
X-9504Y-80370D01*
D02*
G37*
G36*
X-15469Y-84089D02*
X-18687D01*
Y-87307D01*
X-18480D01*
X-17598Y-87071D01*
X-16807Y-86614D01*
X-16161Y-85968D01*
X-15705Y-85177D01*
X-15469Y-84295D01*
Y-84089D01*
D02*
G37*
G36*
X-19187D02*
X-22406D01*
Y-84295D01*
X-22169Y-85177D01*
X-21712Y-85968D01*
X-21067Y-86614D01*
X-20276Y-87071D01*
X-19394Y-87307D01*
X-19187D01*
Y-84089D01*
D02*
G37*
G36*
X50079Y-85039D02*
X49463D01*
Y-93589D01*
X58012D01*
Y-92972D01*
X57674Y-91272D01*
X57010Y-89671D01*
X56047Y-88229D01*
X54822Y-87004D01*
X53381Y-86041D01*
X51779Y-85378D01*
X50079Y-85039D01*
D02*
G37*
G36*
X48963D02*
X48346D01*
X46646Y-85378D01*
X45045Y-86041D01*
X43603Y-87004D01*
X42378Y-88229D01*
X41415Y-89671D01*
X40751Y-91272D01*
X40413Y-92972D01*
Y-93589D01*
X48963D01*
Y-85039D01*
D02*
G37*
G36*
X21913Y-90370D02*
X21707D01*
Y-93589D01*
X24925D01*
Y-93382D01*
X24689Y-92500D01*
X24232Y-91709D01*
X23586Y-91063D01*
X22795Y-90606D01*
X21913Y-90370D01*
D02*
G37*
G36*
X21207D02*
X21000D01*
X20118Y-90606D01*
X19327Y-91063D01*
X18681Y-91709D01*
X18225Y-92500D01*
X17988Y-93382D01*
Y-93589D01*
X21207D01*
Y-90370D01*
D02*
G37*
G36*
X12937D02*
X12730D01*
Y-93589D01*
X15949D01*
Y-93382D01*
X15712Y-92500D01*
X15256Y-91709D01*
X14610Y-91063D01*
X13819Y-90606D01*
X12937Y-90370D01*
D02*
G37*
G36*
X12230D02*
X12024D01*
X11141Y-90606D01*
X10351Y-91063D01*
X9705Y-91709D01*
X9248Y-92500D01*
X9012Y-93382D01*
Y-93589D01*
X12230D01*
Y-90370D01*
D02*
G37*
G36*
X3961D02*
X3754D01*
Y-93589D01*
X6972D01*
Y-93382D01*
X6736Y-92500D01*
X6279Y-91709D01*
X5634Y-91063D01*
X4843Y-90606D01*
X3961Y-90370D01*
D02*
G37*
G36*
X3254D02*
X3047D01*
X2165Y-90606D01*
X1374Y-91063D01*
X728Y-91709D01*
X272Y-92500D01*
X35Y-93382D01*
Y-93589D01*
X3254D01*
Y-90370D01*
D02*
G37*
G36*
X-13992D02*
X-14199D01*
Y-93589D01*
X-10980D01*
Y-93382D01*
X-11217Y-92500D01*
X-11673Y-91709D01*
X-12319Y-91063D01*
X-13110Y-90606D01*
X-13992Y-90370D01*
D02*
G37*
G36*
X-14699D02*
X-14905D01*
X-15788Y-90606D01*
X-16578Y-91063D01*
X-17224Y-91709D01*
X-17681Y-92500D01*
X-17917Y-93382D01*
Y-93589D01*
X-14699D01*
Y-90370D01*
D02*
G37*
G36*
X-48307Y-85039D02*
X-48923D01*
Y-93589D01*
X-40374D01*
Y-92972D01*
X-40712Y-91272D01*
X-41375Y-89671D01*
X-42338Y-88229D01*
X-43564Y-87004D01*
X-45005Y-86041D01*
X-46607Y-85378D01*
X-48307Y-85039D01*
D02*
G37*
G36*
X-49423D02*
X-50040D01*
X-51740Y-85378D01*
X-53341Y-86041D01*
X-54782Y-87004D01*
X-56008Y-88229D01*
X-56971Y-89671D01*
X-57634Y-91272D01*
X-57972Y-92972D01*
Y-93589D01*
X-49423D01*
Y-85039D01*
D02*
G37*
G36*
X24925Y-94089D02*
X21707D01*
Y-97307D01*
X21913D01*
X22795Y-97071D01*
X23586Y-96614D01*
X24232Y-95968D01*
X24689Y-95177D01*
X24925Y-94295D01*
Y-94089D01*
D02*
G37*
G36*
X21207D02*
X17988D01*
Y-94295D01*
X18225Y-95177D01*
X18681Y-95968D01*
X19327Y-96614D01*
X20118Y-97071D01*
X21000Y-97307D01*
X21207D01*
Y-94089D01*
D02*
G37*
G36*
X15949D02*
X12730D01*
Y-97307D01*
X12937D01*
X13819Y-97071D01*
X14610Y-96614D01*
X15256Y-95968D01*
X15712Y-95177D01*
X15949Y-94295D01*
Y-94089D01*
D02*
G37*
G36*
X12230D02*
X9012D01*
Y-94295D01*
X9248Y-95177D01*
X9705Y-95968D01*
X10351Y-96614D01*
X11141Y-97071D01*
X12024Y-97307D01*
X12230D01*
Y-94089D01*
D02*
G37*
G36*
X6972D02*
X3754D01*
Y-97307D01*
X3961D01*
X4843Y-97071D01*
X5634Y-96614D01*
X6279Y-95968D01*
X6736Y-95177D01*
X6972Y-94295D01*
Y-94089D01*
D02*
G37*
G36*
X3254D02*
X35D01*
Y-94295D01*
X272Y-95177D01*
X728Y-95968D01*
X1374Y-96614D01*
X2165Y-97071D01*
X3047Y-97307D01*
X3254D01*
Y-94089D01*
D02*
G37*
G36*
X-5016Y-90370D02*
X-5929D01*
X-6811Y-90606D01*
X-7602Y-91063D01*
X-8248Y-91709D01*
X-8705Y-92500D01*
X-8941Y-93382D01*
Y-94295D01*
X-8705Y-95177D01*
X-8248Y-95968D01*
X-7602Y-96614D01*
X-6811Y-97071D01*
X-5929Y-97307D01*
X-5016D01*
X-4134Y-97071D01*
X-3343Y-96614D01*
X-2697Y-95968D01*
X-2240Y-95177D01*
X-2004Y-94295D01*
Y-93382D01*
X-2240Y-92500D01*
X-2697Y-91709D01*
X-3343Y-91063D01*
X-4134Y-90606D01*
X-5016Y-90370D01*
D02*
G37*
G36*
X-10980Y-94089D02*
X-14199D01*
Y-97307D01*
X-13992D01*
X-13110Y-97071D01*
X-12319Y-96614D01*
X-11673Y-95968D01*
X-11217Y-95177D01*
X-10980Y-94295D01*
Y-94089D01*
D02*
G37*
G36*
X-14699D02*
X-17917D01*
Y-94295D01*
X-17681Y-95177D01*
X-17224Y-95968D01*
X-16578Y-96614D01*
X-15788Y-97071D01*
X-14905Y-97307D01*
X-14699D01*
Y-94089D01*
D02*
G37*
G36*
X58012D02*
X49463D01*
Y-102638D01*
X50079D01*
X51779Y-102300D01*
X53381Y-101636D01*
X54822Y-100673D01*
X56047Y-99448D01*
X57010Y-98007D01*
X57674Y-96405D01*
X58012Y-94705D01*
Y-94089D01*
D02*
G37*
G36*
X48963D02*
X40413D01*
Y-94705D01*
X40751Y-96405D01*
X41415Y-98007D01*
X42378Y-99448D01*
X43603Y-100673D01*
X45045Y-101636D01*
X46646Y-102300D01*
X48346Y-102638D01*
X48963D01*
Y-94089D01*
D02*
G37*
G36*
X-40374D02*
X-48923D01*
Y-102638D01*
X-48307D01*
X-46607Y-102300D01*
X-45005Y-101636D01*
X-43564Y-100673D01*
X-42338Y-99448D01*
X-41375Y-98007D01*
X-40712Y-96405D01*
X-40374Y-94705D01*
Y-94089D01*
D02*
G37*
G36*
X-49423D02*
X-57972D01*
Y-94705D01*
X-57634Y-96405D01*
X-56971Y-98007D01*
X-56008Y-99448D01*
X-54782Y-100673D01*
X-53341Y-101636D01*
X-51740Y-102300D01*
X-50040Y-102638D01*
X-49423D01*
Y-94089D01*
D02*
G37*
G36*
X17425Y-100370D02*
X16512D01*
X15630Y-100606D01*
X14839Y-101063D01*
X14193Y-101709D01*
X13736Y-102500D01*
X13500Y-103382D01*
Y-104295D01*
X13736Y-105177D01*
X14193Y-105968D01*
X14839Y-106614D01*
X15630Y-107071D01*
X16512Y-107307D01*
X17425D01*
X18307Y-107071D01*
X19098Y-106614D01*
X19744Y-105968D01*
X20201Y-105177D01*
X20437Y-104295D01*
Y-103382D01*
X20201Y-102500D01*
X19744Y-101709D01*
X19098Y-101063D01*
X18307Y-100606D01*
X17425Y-100370D01*
D02*
G37*
G36*
X8449D02*
X7536D01*
X6653Y-100606D01*
X5862Y-101063D01*
X5217Y-101709D01*
X4760Y-102500D01*
X4524Y-103382D01*
Y-104295D01*
X4760Y-105177D01*
X5217Y-105968D01*
X5862Y-106614D01*
X6653Y-107071D01*
X7536Y-107307D01*
X8449D01*
X9331Y-107071D01*
X10122Y-106614D01*
X10768Y-105968D01*
X11224Y-105177D01*
X11461Y-104295D01*
Y-103382D01*
X11224Y-102500D01*
X10768Y-101709D01*
X10122Y-101063D01*
X9331Y-100606D01*
X8449Y-100370D01*
D02*
G37*
G36*
X-71181Y-20957D02*
X-71889D01*
X-72543Y-21228D01*
X-73044Y-21728D01*
X-73315Y-22382D01*
Y-23090D01*
X-73044Y-23744D01*
X-72555Y-24233D01*
Y-52185D01*
X-72477Y-52575D01*
X-72256Y-52906D01*
X-30449Y-94714D01*
Y-108760D01*
X-30371Y-109150D01*
X-30150Y-109481D01*
X-24441Y-115190D01*
X-24111Y-115410D01*
X-23720Y-115488D01*
X-11614D01*
X-11224Y-115410D01*
X-10893Y-115190D01*
X-2609Y-106905D01*
X-2323Y-107071D01*
X-1441Y-107307D01*
X-528D01*
X354Y-107071D01*
X1146Y-106614D01*
X1791Y-105968D01*
X2248Y-105177D01*
X2484Y-104295D01*
Y-103382D01*
X2248Y-102500D01*
X1791Y-101709D01*
X1146Y-101063D01*
X354Y-100606D01*
X-528Y-100370D01*
X-1441D01*
X-2323Y-100606D01*
X-3114Y-101063D01*
X-3760Y-101709D01*
X-4216Y-102500D01*
X-4453Y-103382D01*
Y-104295D01*
X-4216Y-105177D01*
X-4051Y-105464D01*
X-12037Y-113449D01*
X-23298D01*
X-28409Y-108337D01*
Y-94291D01*
X-28487Y-93901D01*
X-28708Y-93570D01*
X-70516Y-51763D01*
Y-24233D01*
X-70027Y-23744D01*
X-69756Y-23090D01*
Y-22382D01*
X-70027Y-21728D01*
X-70527Y-21228D01*
X-71181Y-20957D01*
D02*
G37*
G36*
X-66181D02*
X-66889D01*
X-67543Y-21228D01*
X-68044Y-21728D01*
X-68315Y-22382D01*
Y-23090D01*
X-68044Y-23744D01*
X-67555Y-24233D01*
Y-49606D01*
X-67477Y-49997D01*
X-67256Y-50327D01*
X-25429Y-92155D01*
Y-106201D01*
X-25351Y-106591D01*
X-25130Y-106922D01*
X-21686Y-110367D01*
X-21355Y-110588D01*
X-20965Y-110665D01*
X-15768D01*
X-15378Y-110588D01*
X-15047Y-110367D01*
X-11586Y-106905D01*
X-11299Y-107071D01*
X-10417Y-107307D01*
X-9504D01*
X-8622Y-107071D01*
X-7831Y-106614D01*
X-7185Y-105968D01*
X-6729Y-105177D01*
X-6492Y-104295D01*
Y-103382D01*
X-6729Y-102500D01*
X-7185Y-101709D01*
X-7831Y-101063D01*
X-8622Y-100606D01*
X-9504Y-100370D01*
X-10417D01*
X-11299Y-100606D01*
X-12090Y-101063D01*
X-12736Y-101709D01*
X-13193Y-102500D01*
X-13429Y-103382D01*
Y-104295D01*
X-13193Y-105177D01*
X-13027Y-105464D01*
X-16190Y-108626D01*
X-20542D01*
X-23390Y-105778D01*
Y-91732D01*
X-23468Y-91342D01*
X-23688Y-91011D01*
X-65516Y-49184D01*
Y-24233D01*
X-65027Y-23744D01*
X-64756Y-23090D01*
Y-22382D01*
X-65027Y-21728D01*
X-65527Y-21228D01*
X-66181Y-20957D01*
D02*
G37*
G36*
X-18480Y-100370D02*
X-19394D01*
X-20276Y-100606D01*
X-21067Y-101063D01*
X-21712Y-101709D01*
X-22169Y-102500D01*
X-22406Y-103382D01*
Y-104295D01*
X-22169Y-105177D01*
X-21712Y-105968D01*
X-21067Y-106614D01*
X-20276Y-107071D01*
X-19394Y-107307D01*
X-18480D01*
X-17598Y-107071D01*
X-16807Y-106614D01*
X-16161Y-105968D01*
X-15705Y-105177D01*
X-15469Y-104295D01*
Y-103382D01*
X-15705Y-102500D01*
X-16161Y-101709D01*
X-16807Y-101063D01*
X-17598Y-100606D01*
X-18480Y-100370D01*
D02*
G37*
G36*
X98327Y-89508D02*
X96587Y-89680D01*
X94914Y-90187D01*
X93373Y-91011D01*
X92022Y-92120D01*
X90913Y-93471D01*
X90089Y-95013D01*
X89581Y-96686D01*
X89410Y-98425D01*
X89581Y-100165D01*
X90089Y-101838D01*
X90913Y-103379D01*
X92022Y-104730D01*
X93373Y-105839D01*
X94914Y-106663D01*
X96587Y-107171D01*
X98327Y-107342D01*
X100066Y-107171D01*
X101739Y-106663D01*
X103281Y-105839D01*
X104632Y-104730D01*
X105741Y-103379D01*
X106565Y-101838D01*
X107072Y-100165D01*
X107244Y-98425D01*
X107072Y-96686D01*
X106565Y-95013D01*
X105741Y-93471D01*
X104632Y-92120D01*
X103281Y-91011D01*
X101739Y-90187D01*
X100066Y-89680D01*
X98327Y-89508D01*
D02*
G37*
G36*
X-98524D02*
X-100263Y-89680D01*
X-101936Y-90187D01*
X-103478Y-91011D01*
X-104829Y-92120D01*
X-105938Y-93471D01*
X-106762Y-95013D01*
X-107269Y-96686D01*
X-107441Y-98425D01*
X-107269Y-100165D01*
X-106762Y-101838D01*
X-105938Y-103379D01*
X-104829Y-104730D01*
X-103478Y-105839D01*
X-101936Y-106663D01*
X-100263Y-107171D01*
X-98524Y-107342D01*
X-96784Y-107171D01*
X-95111Y-106663D01*
X-93570Y-105839D01*
X-92218Y-104730D01*
X-91109Y-103379D01*
X-90285Y-101838D01*
X-89778Y-100165D01*
X-89607Y-98425D01*
X-89778Y-96686D01*
X-90285Y-95013D01*
X-91109Y-93471D01*
X-92218Y-92120D01*
X-93570Y-91011D01*
X-95111Y-90187D01*
X-96784Y-89680D01*
X-98524Y-89508D01*
D02*
G37*
G36*
X-175867Y121386D02*
X-176009Y121360D01*
X-176151Y121337D01*
X-176162Y121330D01*
X-176175Y121328D01*
X-176375Y121247D01*
X-176386Y121240D01*
X-176398Y121238D01*
X-176516Y121155D01*
X-176637Y121076D01*
X-176644Y121065D01*
X-176655Y121058D01*
X-176729Y120980D01*
X-177641Y120027D01*
X-177661Y119994D01*
X-177691Y119969D01*
X-179323Y117899D01*
X-179341Y117865D01*
X-179368Y117837D01*
X-180796Y115620D01*
X-180810Y115584D01*
X-180834Y115554D01*
X-182045Y113212D01*
X-182056Y113174D01*
X-182077Y113142D01*
X-183059Y110695D01*
X-183066Y110657D01*
X-183084Y110623D01*
X-183828Y108093D01*
X-183832Y108055D01*
X-183846Y108019D01*
X-184346Y105430D01*
X-184346Y105392D01*
X-184357Y105354D01*
X-184608Y102730D01*
X-184604Y102691D01*
X-184612Y102653D01*
Y101335D01*
X-184612Y-101336D01*
Y-102654D01*
X-184605Y-102692D01*
X-184609Y-102730D01*
X-184358Y-105354D01*
X-184347Y-105391D01*
X-184347Y-105429D01*
X-183847Y-108017D01*
X-183833Y-108053D01*
X-183829Y-108091D01*
X-183086Y-110620D01*
X-183068Y-110654D01*
X-183061Y-110692D01*
X-182080Y-113138D01*
X-182058Y-113171D01*
X-182048Y-113208D01*
X-180838Y-115549D01*
X-180814Y-115579D01*
X-180800Y-115615D01*
X-179373Y-117831D01*
X-179346Y-117859D01*
X-179329Y-117893D01*
X-177697Y-119963D01*
X-177668Y-119988D01*
X-177647Y-120021D01*
X-176736Y-120974D01*
X-176736Y-120974D01*
X-176735Y-120975D01*
X-176735Y-120975D01*
X-176735Y-120975D01*
X-176734Y-120976D01*
X-176734Y-120976D01*
X-176734Y-120977D01*
X-176733Y-120977D01*
X-176732Y-120978D01*
X-176732Y-120979D01*
X-176731Y-120979D01*
X-176731Y-120979D01*
X-176730Y-120980D01*
X-176730Y-120980D01*
X-176729Y-120982D01*
X-176728Y-120982D01*
X-176728Y-120982D01*
X-176727Y-120984D01*
X-176725Y-120985D01*
X-176725Y-120986D01*
X-176723Y-120987D01*
X-176723Y-120988D01*
X-176722Y-120989D01*
X-176722Y-120989D01*
X-176720Y-120990D01*
X-176719Y-120992D01*
X-176718Y-120993D01*
X-176717Y-120993D01*
X-176717Y-120994D01*
X-176642Y-121070D01*
X-176633Y-121076D01*
X-176626Y-121086D01*
X-176503Y-121164D01*
X-176383Y-121246D01*
X-176372Y-121248D01*
X-176362Y-121254D01*
X-176163Y-121332D01*
X-176152Y-121334D01*
X-176142Y-121340D01*
X-175998Y-121362D01*
X-175855Y-121387D01*
X-175844Y-121385D01*
X-175832Y-121387D01*
X-175619Y-121377D01*
X-175608Y-121374D01*
X-175596Y-121375D01*
X-175456Y-121336D01*
X-175314Y-121301D01*
X-175305Y-121294D01*
X-175294Y-121291D01*
X-175103Y-121195D01*
X-175095Y-121187D01*
X-175084Y-121184D01*
X-174972Y-121091D01*
X-174857Y-121001D01*
X-174851Y-120992D01*
X-174843Y-120984D01*
X-174801Y-120933D01*
X-140092Y-86225D01*
X-140075Y-86207D01*
X-140049Y-86169D01*
X-140014Y-86140D01*
X-139979Y-86096D01*
X-139958Y-86056D01*
X-139926Y-86023D01*
X-139896Y-85975D01*
X-139883Y-85942D01*
X-138490Y-84475D01*
X-138477Y-84453D01*
X-138456Y-84437D01*
X-135722Y-81166D01*
X-135710Y-81144D01*
X-135691Y-81126D01*
X-133168Y-77690D01*
X-133157Y-77667D01*
X-133140Y-77648D01*
X-130839Y-74059D01*
X-130830Y-74035D01*
X-130813Y-74016D01*
X-128744Y-70289D01*
X-128736Y-70265D01*
X-128720Y-70244D01*
X-126890Y-66394D01*
X-126884Y-66369D01*
X-126870Y-66347D01*
X-125286Y-62389D01*
X-125282Y-62364D01*
X-125269Y-62342D01*
X-123938Y-58292D01*
X-123935Y-58266D01*
X-123924Y-58243D01*
X-122852Y-54117D01*
X-122850Y-54092D01*
X-122840Y-54068D01*
X-122031Y-49883D01*
X-122031Y-49857D01*
X-122023Y-49832D01*
X-121479Y-45604D01*
X-121481Y-45579D01*
X-121474Y-45554D01*
X-121198Y-41300D01*
X-121201Y-41274D01*
X-121196Y-41249D01*
X-121193Y-39129D01*
X-121192Y-39128D01*
X-121192Y-39122D01*
X-121193Y-39120D01*
Y-39118D01*
X-121193Y-39117D01*
X-121193Y-39116D01*
X-121193Y-39115D01*
X-121192Y-39110D01*
X-121192Y-39104D01*
X-121193Y-39098D01*
X-121192Y-39092D01*
X-121192Y-39088D01*
Y-35974D01*
X-96457D01*
X-96074Y-35816D01*
X-95916Y-35433D01*
Y35433D01*
X-96074Y35816D01*
X-96457Y35974D01*
X-121192D01*
Y39068D01*
X-121192Y39068D01*
Y41211D01*
X-121197Y41236D01*
X-121194Y41262D01*
X-121465Y45539D01*
X-121472Y45564D01*
X-121470Y45590D01*
X-122013Y49841D01*
X-122021Y49865D01*
X-122021Y49891D01*
X-122832Y54099D01*
X-122842Y54123D01*
X-122844Y54149D01*
X-123920Y58297D01*
X-123932Y58320D01*
X-123935Y58346D01*
X-125272Y62417D01*
X-125285Y62439D01*
X-125290Y62465D01*
X-126883Y66443D01*
X-126897Y66465D01*
X-126904Y66490D01*
X-128746Y70359D01*
X-128762Y70380D01*
X-128770Y70404D01*
X-130854Y74149D01*
X-130871Y74168D01*
X-130880Y74193D01*
X-133198Y77797D01*
X-133216Y77816D01*
X-133227Y77839D01*
X-135768Y81290D01*
X-135787Y81307D01*
X-135800Y81330D01*
X-138556Y84612D01*
X-138576Y84628D01*
X-138590Y84650D01*
X-140069Y86200D01*
X-140071Y86202D01*
X-140073Y86205D01*
X-140075Y86207D01*
X-140078Y86209D01*
X-140080Y86212D01*
X-140082Y86214D01*
X-140085Y86216D01*
X-140087Y86219D01*
X-140089Y86221D01*
X-140091Y86222D01*
X-140092Y86224D01*
X-174800Y120932D01*
X-174842Y120984D01*
X-174852Y120992D01*
X-174858Y121003D01*
X-174972Y121092D01*
X-175083Y121184D01*
X-175095Y121188D01*
X-175105Y121195D01*
X-175299Y121292D01*
X-175311Y121296D01*
X-175321Y121303D01*
X-175461Y121337D01*
X-175601Y121376D01*
X-175613Y121374D01*
X-175626Y121377D01*
X-175841Y121386D01*
X-175854Y121384D01*
X-175867Y121386D01*
D02*
G37*
G36*
X196752Y-187933D02*
X195012Y-188105D01*
X193340Y-188612D01*
X191798Y-189436D01*
X190447Y-190545D01*
X189338Y-191896D01*
X188514Y-193438D01*
X188006Y-195111D01*
X187835Y-196850D01*
X188006Y-198590D01*
X188514Y-200263D01*
X189338Y-201804D01*
X190447Y-203156D01*
X191798Y-204265D01*
X193340Y-205089D01*
X195012Y-205596D01*
X196752Y-205767D01*
X198492Y-205596D01*
X200164Y-205089D01*
X201706Y-204265D01*
X203057Y-203156D01*
X204166Y-201804D01*
X204990Y-200263D01*
X205498Y-198590D01*
X205669Y-196850D01*
X205498Y-195111D01*
X204990Y-193438D01*
X204166Y-191896D01*
X203057Y-190545D01*
X201706Y-189436D01*
X200164Y-188612D01*
X198492Y-188105D01*
X196752Y-187933D01*
D02*
G37*
G36*
X-196949Y-187933D02*
X-198688Y-188105D01*
X-200361Y-188612D01*
X-201903Y-189436D01*
X-203254Y-190545D01*
X-204363Y-191896D01*
X-205187Y-193438D01*
X-205694Y-195111D01*
X-205866Y-196850D01*
X-205694Y-198590D01*
X-205187Y-200263D01*
X-204363Y-201804D01*
X-203254Y-203156D01*
X-201903Y-204265D01*
X-200361Y-205089D01*
X-198688Y-205596D01*
X-196949Y-205767D01*
X-195209Y-205596D01*
X-193536Y-205089D01*
X-191995Y-204265D01*
X-190644Y-203156D01*
X-189535Y-201804D01*
X-188711Y-200263D01*
X-188203Y-198590D01*
X-188032Y-196850D01*
X-188203Y-195111D01*
X-188711Y-193438D01*
X-189535Y-191896D01*
X-190644Y-190545D01*
X-191995Y-189436D01*
X-193536Y-188612D01*
X-195209Y-188105D01*
X-196949Y-187933D01*
D02*
G37*
%LPD*%
G36*
X43407Y107005D02*
X44370Y106814D01*
Y82972D01*
X10354D01*
Y106814D01*
X11317Y107005D01*
X12028Y107480D01*
X42696D01*
X43407Y107005D01*
D02*
G37*
%LPC*%
G36*
X40315Y106898D02*
X39607D01*
X38953Y106627D01*
X38452Y106126D01*
X38181Y105472D01*
Y104764D01*
X38452Y104110D01*
X38953Y103610D01*
X39607Y103339D01*
X40315D01*
X40969Y103610D01*
X41469Y104110D01*
X41740Y104764D01*
Y105472D01*
X41469Y106126D01*
X40969Y106627D01*
X40315Y106898D01*
D02*
G37*
G36*
X15118D02*
X14410D01*
X13756Y106627D01*
X13255Y106126D01*
X12984Y105472D01*
Y104764D01*
X13255Y104110D01*
X13756Y103610D01*
X14410Y103339D01*
X15118D01*
X15772Y103610D01*
X16272Y104110D01*
X16543Y104764D01*
Y105472D01*
X16272Y106126D01*
X15772Y106627D01*
X15118Y106898D01*
D02*
G37*
G36*
X27716Y99102D02*
X27008D01*
X26354Y98831D01*
X25854Y98331D01*
X25583Y97677D01*
Y96969D01*
X25854Y96315D01*
X26354Y95814D01*
X27008Y95543D01*
X27716D01*
X28370Y95814D01*
X28871Y96315D01*
X29142Y96969D01*
Y97677D01*
X28871Y98331D01*
X28370Y98831D01*
X27716Y99102D01*
D02*
G37*
G36*
X41870Y93020D02*
X41162D01*
X40508Y92749D01*
X40007Y92248D01*
X39736Y91594D01*
Y90886D01*
X40007Y90232D01*
X40508Y89732D01*
X41162Y89461D01*
X41870D01*
X42524Y89732D01*
X43024Y90232D01*
X43295Y90886D01*
Y91594D01*
X43024Y92248D01*
X42524Y92749D01*
X41870Y93020D01*
D02*
G37*
%LPD*%
D12*
X-59449Y80709D02*
X-55118D01*
X-87598Y-52165D02*
Y-22638D01*
X-64961Y0D01*
Y75197D01*
X-59449Y80709D01*
D17*
X-30020Y27559D02*
X-20866D01*
X-41240Y-55216D02*
Y-44724D01*
X-20068Y-40142D02*
X11039D01*
X-21174Y-42913D02*
X-19993Y-41732D01*
X-41240Y-44724D02*
X-37756Y-41240D01*
X-21335Y-38907D02*
X-21303D01*
X-21260Y-42913D02*
X-21174D01*
X-21303Y-38907D02*
X-20068Y-40142D01*
X-19993Y-41732D02*
X11698D01*
X-3150Y-6634D02*
Y5315D01*
X39370Y9055D02*
X42256Y11941D01*
Y12729D01*
X45276Y15748D01*
X-2362Y9055D02*
X22441D01*
X-20866Y27559D02*
X-2362Y9055D01*
X45669Y20079D02*
X51575D01*
X39370Y13780D02*
X45669Y20079D01*
X-3150Y13780D02*
X22835D01*
X-27805Y38435D02*
X-3150Y13780D01*
X-27805Y38435D02*
Y52096D01*
X39370Y3937D02*
X45276Y9843D01*
X58957D01*
X47441Y-984D02*
X98425Y-51968D01*
X39370Y-984D02*
X47441D01*
X45276Y15748D02*
X82677D01*
X78774Y43386D02*
X91811D01*
X75568Y46592D02*
X78774Y43386D01*
X-9192Y136646D02*
X49743D01*
X67323Y83239D02*
Y119066D01*
X49084Y135055D02*
X65732Y118407D01*
X-8533Y135055D02*
X49084D01*
X-7874Y133465D02*
X48425D01*
X64142Y81921D02*
Y117748D01*
X48425Y133465D02*
X64142Y117748D01*
X49743Y136646D02*
X67323Y119066D01*
X65732Y82580D02*
Y118407D01*
X-74575Y48644D02*
X-69685Y43755D01*
X-76165Y47986D02*
Y73722D01*
X-77756Y74381D02*
X-64598Y87538D01*
X-76165Y73722D02*
X-63008Y86879D01*
X-74575Y48644D02*
Y73063D01*
X-61417Y86221D01*
X-77756Y41240D02*
Y74381D01*
X-76165Y47986D02*
X-72756Y44576D01*
X-92913Y-27165D02*
Y-20866D01*
X-69685Y2362D02*
Y43755D01*
X-92913Y-20866D02*
X-69685Y2362D01*
X-72756Y41240D02*
Y44576D01*
X-63008Y113651D02*
X-53808Y122850D01*
X-61417Y112992D02*
X-53150Y121260D01*
X-20738Y122850D02*
X-8533Y135055D01*
X-64598Y114310D02*
X-54467Y124441D01*
X-20079Y121260D02*
X-7874Y133465D01*
X-53150Y121260D02*
X-20079D01*
X-53808Y122850D02*
X-20738D01*
X-21396Y124441D02*
X-9192Y136646D01*
X-54467Y124441D02*
X-21396D01*
X-64598Y87538D02*
Y114310D01*
X-63008Y86879D02*
Y113651D01*
X-61417Y86221D02*
Y112992D01*
X65732Y82580D02*
X75568Y72745D01*
X67323Y83239D02*
X77158Y73403D01*
X64142Y81921D02*
X73977Y72086D01*
Y45933D02*
X81525Y38386D01*
X73977Y45933D02*
Y72086D01*
X78347Y46063D02*
X89370D01*
X77158Y47251D02*
X78347Y46063D01*
X77158Y47251D02*
Y73403D01*
X75568Y46592D02*
Y72745D01*
X81525Y38386D02*
X91811D01*
X98425Y-59252D02*
Y-51968D01*
X58957Y9843D02*
X98425Y-29626D01*
X82677Y15748D02*
X98425Y0D01*
X-15846Y18012D02*
X-3150Y5315D01*
X-29469Y9016D02*
X-20472Y18012D01*
X-15846D01*
X-29469Y-22500D02*
Y9016D01*
X25591Y76797D02*
X26575Y75813D01*
Y-24606D02*
Y75813D01*
X11698Y-41732D02*
X28165Y-25265D01*
Y75898D02*
X29134Y76867D01*
Y77165D01*
X28165Y-25265D02*
Y75898D01*
X11039Y-40142D02*
X26575Y-24606D01*
X25591Y76797D02*
Y77165D01*
X-25591Y-47638D02*
X-20079Y-53150D01*
X-25591Y2953D02*
X-16043Y12500D01*
X-25591Y-47638D02*
Y2953D01*
X-20079Y-53150D02*
X5020D01*
X-42323Y-27559D02*
X-29528D01*
X-55216Y-14665D02*
X-42323Y-27559D01*
X-71535Y-52185D02*
X-29429Y-94291D01*
X-71535Y-52185D02*
Y-22736D01*
X-66535Y-49606D02*
X-24409Y-91732D01*
X-66535Y-49606D02*
Y-22736D01*
X-24409Y-106201D02*
Y-91732D01*
X-29429Y-108760D02*
Y-94291D01*
X-11614Y-114469D02*
X-984Y-103839D01*
X-29429Y-108760D02*
X-23720Y-114469D01*
X-11614D01*
X-15768Y-109646D02*
X-9961Y-103839D01*
X-20965Y-109646D02*
X-15768D01*
X-24409Y-106201D02*
X-20965Y-109646D01*
X-55216Y-14665D02*
Y64961D01*
D70*
X98425Y-59252D02*
D03*
X88425D02*
D03*
X98425Y0D02*
D03*
X88425D02*
D03*
X98425Y-29626D02*
D03*
X88425D02*
D03*
D71*
X108425Y-59252D02*
D03*
Y0D02*
D03*
Y-29626D02*
D03*
D72*
X88425Y30886D02*
D03*
Y53386D02*
D03*
X108425Y30886D02*
D03*
Y53386D02*
D03*
D73*
X94429Y23386D02*
D03*
X102421D02*
D03*
X98425Y53386D02*
D03*
D74*
X-18937Y-103839D02*
D03*
X-9961D02*
D03*
X-984D02*
D03*
X7992D02*
D03*
X16969D02*
D03*
X-14449Y-93839D02*
D03*
X-5472D02*
D03*
X3504D02*
D03*
X12480D02*
D03*
X21457D02*
D03*
X-18937Y-83839D02*
D03*
X-9961D02*
D03*
X-984D02*
D03*
X7992D02*
D03*
D75*
X49213Y-93839D02*
D03*
X-49173D02*
D03*
D76*
X16969Y-83839D02*
D03*
D77*
X44370Y127953D02*
D03*
X10354D02*
D03*
D78*
X44370Y111496D02*
D03*
X10354D02*
D03*
D79*
X15984Y113465D02*
D03*
X38740D02*
D03*
D80*
X-30020Y27559D02*
D03*
X-76772Y-70157D02*
D03*
X13780Y81083D02*
D03*
X9665Y81083D02*
D03*
X17894Y81083D02*
D03*
X9665Y68524D02*
D03*
X17894Y68524D02*
D03*
X13780Y68524D02*
D03*
X50000Y107402D02*
D03*
X610Y111516D02*
D03*
X4724Y107402D02*
D03*
X3465Y100787D02*
D03*
X118110Y39370D02*
D03*
Y0D02*
D03*
Y-19685D02*
D03*
Y-39370D02*
D03*
Y-59055D02*
D03*
X78740Y-78740D02*
D03*
X118110D02*
D03*
X98425Y-157480D02*
D03*
X-98425D02*
D03*
Y59055D02*
D03*
X-118110D02*
D03*
X-59055Y137795D02*
D03*
X-78740D02*
D03*
Y118110D02*
D03*
X-98425Y157480D02*
D03*
Y137795D02*
D03*
X118110Y59055D02*
D03*
Y78740D02*
D03*
X78740D02*
D03*
X59055Y137795D02*
D03*
X78740D02*
D03*
Y118110D02*
D03*
X137795Y98425D02*
D03*
X157480Y118110D02*
D03*
X137795D02*
D03*
X118110D02*
D03*
X98425Y137795D02*
D03*
Y157480D02*
D03*
X118110Y137795D02*
D03*
X137795D02*
D03*
X157480D02*
D03*
X177165D02*
D03*
Y157480D02*
D03*
X157480D02*
D03*
X137795D02*
D03*
X118110D02*
D03*
Y177165D02*
D03*
X137795D02*
D03*
Y196850D02*
D03*
X157480Y177165D02*
D03*
Y196850D02*
D03*
Y216535D02*
D03*
X177165D02*
D03*
Y177165D02*
D03*
X216535D02*
D03*
Y157480D02*
D03*
X196850D02*
D03*
X216535Y137795D02*
D03*
X196850D02*
D03*
Y118110D02*
D03*
Y98425D02*
D03*
Y78740D02*
D03*
Y59055D02*
D03*
Y39370D02*
D03*
Y19685D02*
D03*
Y0D02*
D03*
Y-19685D02*
D03*
Y-39370D02*
D03*
Y-59055D02*
D03*
Y-78740D02*
D03*
Y-98425D02*
D03*
X216535Y-118110D02*
D03*
X197503Y-120920D02*
D03*
X216535Y-157480D02*
D03*
Y-137795D02*
D03*
X196850D02*
D03*
X177165D02*
D03*
Y-157480D02*
D03*
X196850D02*
D03*
X216535Y-177165D02*
D03*
X177165D02*
D03*
Y-216535D02*
D03*
X157480D02*
D03*
Y-196850D02*
D03*
X137795D02*
D03*
X157480Y-177165D02*
D03*
Y-118110D02*
D03*
Y-137795D02*
D03*
Y-157480D02*
D03*
X137795Y-177165D02*
D03*
X118110D02*
D03*
X137795Y-157480D02*
D03*
X118110D02*
D03*
X137795Y-137795D02*
D03*
Y-118110D02*
D03*
Y-98425D02*
D03*
X118110Y-137795D02*
D03*
X98425D02*
D03*
X78740D02*
D03*
X118110Y-118110D02*
D03*
X78740D02*
D03*
X59055D02*
D03*
X39370D02*
D03*
X19685D02*
D03*
X0D02*
D03*
X-39370Y-98425D02*
D03*
X-19685Y-118110D02*
D03*
X-39370D02*
D03*
X-59055Y-78740D02*
D03*
Y-98425D02*
D03*
Y-118110D02*
D03*
Y-137795D02*
D03*
X-78740D02*
D03*
X-98425D02*
D03*
X-78740Y-118110D02*
D03*
Y-78740D02*
D03*
X-118110D02*
D03*
X-137795Y-98425D02*
D03*
X-118110Y-118110D02*
D03*
Y-137795D02*
D03*
Y-157480D02*
D03*
Y-177165D02*
D03*
X-137795Y-196850D02*
D03*
Y-177165D02*
D03*
Y-157480D02*
D03*
Y-137795D02*
D03*
Y-118110D02*
D03*
X-157480D02*
D03*
Y-137795D02*
D03*
Y-157480D02*
D03*
Y-177165D02*
D03*
Y-196850D02*
D03*
Y-216535D02*
D03*
X-177165D02*
D03*
Y-177165D02*
D03*
Y-137795D02*
D03*
Y-157480D02*
D03*
X-216535Y-177165D02*
D03*
X-196850Y-157480D02*
D03*
X-216535D02*
D03*
Y-137795D02*
D03*
X-196850D02*
D03*
Y-118110D02*
D03*
Y-98425D02*
D03*
Y-78740D02*
D03*
Y-59055D02*
D03*
Y-39370D02*
D03*
Y-19685D02*
D03*
Y0D02*
D03*
Y19685D02*
D03*
Y39370D02*
D03*
Y59055D02*
D03*
Y78740D02*
D03*
Y98425D02*
D03*
Y118110D02*
D03*
X-216535D02*
D03*
X-157480Y216535D02*
D03*
X-177165D02*
D03*
X-137795Y196850D02*
D03*
X-157480D02*
D03*
X-216535Y177165D02*
D03*
X-196975Y158107D02*
D03*
X-216535Y157480D02*
D03*
Y137795D02*
D03*
X-196850D02*
D03*
X-177165D02*
D03*
X-157480D02*
D03*
Y177165D02*
D03*
X-177165D02*
D03*
Y157480D02*
D03*
X-157480D02*
D03*
X-118110Y177165D02*
D03*
X-137795D02*
D03*
Y157480D02*
D03*
X-118110D02*
D03*
X-137795Y137795D02*
D03*
X-118110D02*
D03*
Y118110D02*
D03*
X-137795D02*
D03*
Y98425D02*
D03*
X-118110Y78740D02*
D03*
X-37500Y-55315D02*
D03*
X-41240Y-55216D02*
D03*
X-21260Y-42913D02*
D03*
X-21335Y-38907D02*
D03*
X-37756Y-41240D02*
D03*
X-21237Y-35167D02*
D03*
X-3150Y-6634D02*
D03*
X39370Y9055D02*
D03*
X22441D02*
D03*
X51575Y20079D02*
D03*
X39370Y13780D02*
D03*
X22835D02*
D03*
X39370Y-984D02*
D03*
Y3937D02*
D03*
X6004Y18898D02*
D03*
X2854D02*
D03*
X9154D02*
D03*
X-92913Y-27165D02*
D03*
X-72756Y41240D02*
D03*
X-77756D02*
D03*
X89370Y46063D02*
D03*
X91811Y38386D02*
D03*
Y43386D02*
D03*
X-27805Y52096D02*
D03*
X103543Y46063D02*
D03*
X77854Y-16457D02*
D03*
X77854Y-42598D02*
D03*
X77854Y-45984D02*
D03*
X77854Y-72126D02*
D03*
Y-13071D02*
D03*
X77854Y13071D02*
D03*
X-29469Y-22500D02*
D03*
X-31988Y67028D02*
D03*
X-17638Y48031D02*
D03*
Y42126D02*
D03*
X-29660Y82579D02*
D03*
X-97342Y-47146D02*
D03*
Y-41240D02*
D03*
X8760Y-53248D02*
D03*
X21850Y77264D02*
D03*
X32874Y77067D02*
D03*
X25591Y77165D02*
D03*
X29134D02*
D03*
X-29528Y-27559D02*
D03*
X6004Y22539D02*
D03*
X9154D02*
D03*
X2854D02*
D03*
X-71535Y-22736D02*
D03*
X-66535D02*
D03*
X41516Y91240D02*
D03*
X27362Y87283D02*
D03*
Y97323D02*
D03*
X41516Y85138D02*
D03*
X17224Y94784D02*
D03*
Y100689D02*
D03*
X14764Y105118D02*
D03*
X39961D02*
D03*
X36811D02*
D03*
X17913D02*
D03*
X10630Y49016D02*
D03*
X20768Y50689D02*
D03*
X14272Y45374D02*
D03*
X9154Y35925D02*
D03*
X2854D02*
D03*
X-34744Y98524D02*
D03*
X-55216Y64961D02*
D03*
X5020Y-53150D02*
D03*
X-16043Y12500D02*
D03*
X-42397Y82579D02*
D03*
X-16922D02*
D03*
X-10554D02*
D03*
X-23291D02*
D03*
X-36029D02*
D03*
X-48766D02*
D03*
X-55118D02*
D03*
X-114173Y-60039D02*
D03*
Y-54134D02*
D03*
X-112205Y-65945D02*
D03*
X-106299D02*
D03*
X-100394D02*
D03*
X-94488D02*
D03*
Y-54134D02*
D03*
Y-60039D02*
D03*
X-87598Y-56102D02*
D03*
Y-52165D02*
D03*
X-100394Y-60039D02*
D03*
Y-54134D02*
D03*
M02*
