G04*
G04 #@! TF.GenerationSoftware,Altium Limited,Altium Designer,22.2.1 (43)*
G04*
G04 Layer_Color=2752767*
%FSLAX25Y25*%
%MOIN*%
G70*
G04*
G04 #@! TF.SameCoordinates,6F0AF130-F76F-4113-A5DE-7D687C79F967*
G04*
G04*
G04 #@! TF.FilePolarity,Positive*
G04*
G01*
G75*
%ADD83C,0.00200*%
%ADD84C,0.00267*%
D83*
X97625Y-60052D02*
Y-58452D01*
X99225D01*
Y-60052D01*
X97625D01*
X107625D02*
Y-58452D01*
X109225D01*
Y-60052D01*
X107625D01*
X87625D02*
Y-58452D01*
X89225D01*
Y-60052D01*
X87625D01*
X94429Y22586D02*
X93629Y24186D01*
X95229D01*
X94429Y22586D01*
X102421D02*
X101621Y24186D01*
X103221D01*
X102421Y22586D01*
X98425Y52586D02*
X97625Y54186D01*
X99225D01*
X98425Y52586D01*
X97625Y-800D02*
Y800D01*
X99225D01*
Y-800D01*
X97625D01*
X107625D02*
Y800D01*
X109225D01*
Y-800D01*
X107625D01*
X87625D02*
Y800D01*
X89225D01*
Y-800D01*
X87625D01*
X97625Y-30426D02*
Y-28826D01*
X99225D01*
Y-30426D01*
X97625D01*
X107625D02*
Y-28826D01*
X109225D01*
Y-30426D01*
X107625D01*
X87625D02*
Y-28826D01*
X89225D01*
Y-30426D01*
X87625D01*
X-18937Y-104639D02*
X-18537Y-104239D01*
X-18137D01*
X-18537Y-103839D01*
X-18137Y-103439D01*
X-18537D01*
X-18937Y-103039D01*
X-19337Y-103439D01*
X-19737D01*
X-19337Y-103839D01*
X-19737Y-104239D01*
X-19337D01*
X-18937Y-104639D01*
X-9961D02*
X-9561Y-104239D01*
X-9161D01*
X-9561Y-103839D01*
X-9161Y-103439D01*
X-9561D01*
X-9961Y-103039D01*
X-10361Y-103439D01*
X-10761D01*
X-10361Y-103839D01*
X-10761Y-104239D01*
X-10361D01*
X-9961Y-104639D01*
X-984D02*
X-584Y-104239D01*
X-184D01*
X-584Y-103839D01*
X-184Y-103439D01*
X-584D01*
X-984Y-103039D01*
X-1384Y-103439D01*
X-1784D01*
X-1384Y-103839D01*
X-1784Y-104239D01*
X-1384D01*
X-984Y-104639D01*
X7992D02*
X8392Y-104239D01*
X8792D01*
X8392Y-103839D01*
X8792Y-103439D01*
X8392D01*
X7992Y-103039D01*
X7592Y-103439D01*
X7192D01*
X7592Y-103839D01*
X7192Y-104239D01*
X7592D01*
X7992Y-104639D01*
X16969D02*
X17368Y-104239D01*
X17768D01*
X17368Y-103839D01*
X17768Y-103439D01*
X17368D01*
X16969Y-103039D01*
X16568Y-103439D01*
X16169D01*
X16568Y-103839D01*
X16169Y-104239D01*
X16568D01*
X16969Y-104639D01*
X-14449Y-94639D02*
X-14049Y-94239D01*
X-13649D01*
X-14049Y-93839D01*
X-13649Y-93439D01*
X-14049D01*
X-14449Y-93039D01*
X-14849Y-93439D01*
X-15249D01*
X-14849Y-93839D01*
X-15249Y-94239D01*
X-14849D01*
X-14449Y-94639D01*
X-5472D02*
X-5072Y-94239D01*
X-4672D01*
X-5072Y-93839D01*
X-4672Y-93439D01*
X-5072D01*
X-5472Y-93039D01*
X-5872Y-93439D01*
X-6272D01*
X-5872Y-93839D01*
X-6272Y-94239D01*
X-5872D01*
X-5472Y-94639D01*
X3504D02*
X3904Y-94239D01*
X4304D01*
X3904Y-93839D01*
X4304Y-93439D01*
X3904D01*
X3504Y-93039D01*
X3104Y-93439D01*
X2704D01*
X3104Y-93839D01*
X2704Y-94239D01*
X3104D01*
X3504Y-94639D01*
X12480D02*
X12880Y-94239D01*
X13280D01*
X12880Y-93839D01*
X13280Y-93439D01*
X12880D01*
X12480Y-93039D01*
X12080Y-93439D01*
X11680D01*
X12080Y-93839D01*
X11680Y-94239D01*
X12080D01*
X12480Y-94639D01*
X21457D02*
X21857Y-94239D01*
X22257D01*
X21857Y-93839D01*
X22257Y-93439D01*
X21857D01*
X21457Y-93039D01*
X21057Y-93439D01*
X20657D01*
X21057Y-93839D01*
X20657Y-94239D01*
X21057D01*
X21457Y-94639D01*
X48413D02*
X48813Y-93839D01*
X48413Y-93039D01*
X49213Y-93439D01*
X50013Y-93039D01*
X49613Y-93839D01*
X50013Y-94639D01*
X49213Y-94239D01*
X48413Y-94639D01*
X-49973D02*
X-49573Y-93839D01*
X-49973Y-93039D01*
X-49173Y-93439D01*
X-48373Y-93039D01*
X-48773Y-93839D01*
X-48373Y-94639D01*
X-49173Y-94239D01*
X-49973Y-94639D01*
X-18937Y-84639D02*
X-18537Y-84239D01*
X-18137D01*
X-18537Y-83839D01*
X-18137Y-83439D01*
X-18537D01*
X-18937Y-83039D01*
X-19337Y-83439D01*
X-19737D01*
X-19337Y-83839D01*
X-19737Y-84239D01*
X-19337D01*
X-18937Y-84639D01*
X-9961D02*
X-9561Y-84239D01*
X-9161D01*
X-9561Y-83839D01*
X-9161Y-83439D01*
X-9561D01*
X-9961Y-83039D01*
X-10361Y-83439D01*
X-10761D01*
X-10361Y-83839D01*
X-10761Y-84239D01*
X-10361D01*
X-9961Y-84639D01*
X-984D02*
X-584Y-84239D01*
X-184D01*
X-584Y-83839D01*
X-184Y-83439D01*
X-584D01*
X-984Y-83039D01*
X-1384Y-83439D01*
X-1784D01*
X-1384Y-83839D01*
X-1784Y-84239D01*
X-1384D01*
X-984Y-84639D01*
X7992D02*
X8392Y-84239D01*
X8792D01*
X8392Y-83839D01*
X8792Y-83439D01*
X8392D01*
X7992Y-83039D01*
X7592Y-83439D01*
X7192D01*
X7592Y-83839D01*
X7192Y-84239D01*
X7592D01*
X7992Y-84639D01*
X16969D02*
X17368Y-84239D01*
X17768D01*
X17368Y-83839D01*
X17768Y-83439D01*
X17368D01*
X16969Y-83039D01*
X16568Y-83439D01*
X16169D01*
X16568Y-83839D01*
X16169Y-84239D01*
X16568D01*
X16969Y-84639D01*
X43970Y127553D02*
Y127153D01*
X44770D01*
Y127553D01*
X45170D01*
Y128353D01*
X44770D01*
Y128753D01*
X43970D01*
Y128353D01*
X43570D01*
Y127553D01*
X43970D01*
X9954D02*
Y127153D01*
X10754D01*
Y127553D01*
X11154D01*
Y128353D01*
X10754D01*
Y128753D01*
X9954D01*
Y128353D01*
X9554D01*
Y127553D01*
X9954D01*
X43570Y110696D02*
X43970D01*
X44370Y111096D01*
X44770Y110696D01*
X45170D01*
Y111096D01*
X44770Y111496D01*
X45170Y111896D01*
Y112296D01*
X44770D01*
X44370Y111896D01*
X43970Y112296D01*
X43570D01*
Y111896D01*
X43970Y111496D01*
X43570Y111096D01*
Y110696D01*
X9554D02*
X9954D01*
X10354Y111096D01*
X10754Y110696D01*
X11154D01*
Y111096D01*
X10754Y111496D01*
X11154Y111896D01*
Y112296D01*
X10754D01*
X10354Y111896D01*
X9954Y112296D01*
X9554D01*
Y111896D01*
X9954Y111496D01*
X9554Y111096D01*
Y110696D01*
X15184Y113465D02*
X15984Y114265D01*
X16784Y113465D01*
X15984Y112665D01*
X15184Y113465D01*
X37940D02*
X38740Y114265D01*
X39540Y113465D01*
X38740Y112665D01*
X37940Y113465D01*
X-30820Y26759D02*
Y28359D01*
X-29220D01*
Y26759D01*
X-30820D01*
X-30420Y27159D02*
Y27959D01*
X-29620D01*
Y27159D01*
X-30420D01*
X-77572Y-70957D02*
Y-69358D01*
X-75972D01*
Y-70957D01*
X-77572D01*
X-77172Y-70557D02*
Y-69757D01*
X-76372D01*
Y-70557D01*
X-77172D01*
X12979Y80283D02*
Y81883D01*
X14580D01*
Y80283D01*
X12979D01*
X13379Y80683D02*
Y81483D01*
X14179D01*
Y80683D01*
X13379D01*
X8865Y80283D02*
Y81883D01*
X10465D01*
Y80283D01*
X8865D01*
X9265Y80683D02*
Y81483D01*
X10065D01*
Y80683D01*
X9265D01*
X17094Y80283D02*
Y81883D01*
X18694D01*
Y80283D01*
X17094D01*
X17494Y80683D02*
Y81483D01*
X18294D01*
Y80683D01*
X17494D01*
X8865Y67724D02*
Y69324D01*
X10465D01*
Y67724D01*
X8865D01*
X9265Y68124D02*
Y68924D01*
X10065D01*
Y68124D01*
X9265D01*
X17094Y67724D02*
Y69324D01*
X18694D01*
Y67724D01*
X17094D01*
X17494Y68124D02*
Y68924D01*
X18294D01*
Y68124D01*
X17494D01*
X12979Y67724D02*
Y69324D01*
X14580D01*
Y67724D01*
X12979D01*
X13379Y68124D02*
Y68924D01*
X14179D01*
Y68124D01*
X13379D01*
X49200Y106602D02*
Y108202D01*
X50800D01*
Y106602D01*
X49200D01*
X49600Y107002D02*
Y107802D01*
X50400D01*
Y107002D01*
X49600D01*
X-190Y110716D02*
Y112316D01*
X1410D01*
Y110716D01*
X-190D01*
X210Y111116D02*
Y111916D01*
X1010D01*
Y111116D01*
X210D01*
X3924Y106602D02*
Y108202D01*
X5524D01*
Y106602D01*
X3924D01*
X4324Y107002D02*
Y107802D01*
X5124D01*
Y107002D01*
X4324D01*
X2665Y99987D02*
Y101587D01*
X4265D01*
Y99987D01*
X2665D01*
X3065Y100387D02*
Y101187D01*
X3865D01*
Y100387D01*
X3065D01*
X117310Y38570D02*
Y40170D01*
X118910D01*
Y38570D01*
X117310D01*
X117710Y38970D02*
Y39770D01*
X118510D01*
Y38970D01*
X117710D01*
X117310Y-800D02*
Y800D01*
X118910D01*
Y-800D01*
X117310D01*
X117710Y-400D02*
Y400D01*
X118510D01*
Y-400D01*
X117710D01*
X117310Y-20485D02*
Y-18885D01*
X118910D01*
Y-20485D01*
X117310D01*
X117710Y-20085D02*
Y-19285D01*
X118510D01*
Y-20085D01*
X117710D01*
X117310Y-40170D02*
Y-38570D01*
X118910D01*
Y-40170D01*
X117310D01*
X117710Y-39770D02*
Y-38970D01*
X118510D01*
Y-39770D01*
X117710D01*
X117310Y-59855D02*
Y-58255D01*
X118910D01*
Y-59855D01*
X117310D01*
X117710Y-59455D02*
Y-58655D01*
X118510D01*
Y-59455D01*
X117710D01*
X77940Y-79540D02*
Y-77940D01*
X79540D01*
Y-79540D01*
X77940D01*
X78340Y-79140D02*
Y-78340D01*
X79140D01*
Y-79140D01*
X78340D01*
X117310Y-79540D02*
Y-77940D01*
X118910D01*
Y-79540D01*
X117310D01*
X117710Y-79140D02*
Y-78340D01*
X118510D01*
Y-79140D01*
X117710D01*
X97625Y-158280D02*
Y-156680D01*
X99225D01*
Y-158280D01*
X97625D01*
X98025Y-157880D02*
Y-157080D01*
X98825D01*
Y-157880D01*
X98025D01*
X-99225Y-158280D02*
Y-156680D01*
X-97625D01*
Y-158280D01*
X-99225D01*
X-98825Y-157880D02*
Y-157080D01*
X-98025D01*
Y-157880D01*
X-98825D01*
X-99225Y58255D02*
Y59855D01*
X-97625D01*
Y58255D01*
X-99225D01*
X-98825Y58655D02*
Y59455D01*
X-98025D01*
Y58655D01*
X-98825D01*
X-118910Y58255D02*
Y59855D01*
X-117310D01*
Y58255D01*
X-118910D01*
X-118510Y58655D02*
Y59455D01*
X-117710D01*
Y58655D01*
X-118510D01*
X-59855Y136995D02*
Y138595D01*
X-58255D01*
Y136995D01*
X-59855D01*
X-59455Y137395D02*
Y138195D01*
X-58655D01*
Y137395D01*
X-59455D01*
X-79540Y136995D02*
Y138595D01*
X-77940D01*
Y136995D01*
X-79540D01*
X-79140Y137395D02*
Y138195D01*
X-78340D01*
Y137395D01*
X-79140D01*
X-79540Y117310D02*
Y118910D01*
X-77940D01*
Y117310D01*
X-79540D01*
X-79140Y117710D02*
Y118510D01*
X-78340D01*
Y117710D01*
X-79140D01*
X-99225Y156680D02*
Y158280D01*
X-97625D01*
Y156680D01*
X-99225D01*
X-98825Y157080D02*
Y157880D01*
X-98025D01*
Y157080D01*
X-98825D01*
X-99225Y136995D02*
Y138595D01*
X-97625D01*
Y136995D01*
X-99225D01*
X-98825Y137395D02*
Y138195D01*
X-98025D01*
Y137395D01*
X-98825D01*
X117310Y58255D02*
Y59855D01*
X118910D01*
Y58255D01*
X117310D01*
X117710Y58655D02*
Y59455D01*
X118510D01*
Y58655D01*
X117710D01*
X117310Y77940D02*
Y79540D01*
X118910D01*
Y77940D01*
X117310D01*
X117710Y78340D02*
Y79140D01*
X118510D01*
Y78340D01*
X117710D01*
X77940Y77940D02*
Y79540D01*
X79540D01*
Y77940D01*
X77940D01*
X78340Y78340D02*
Y79140D01*
X79140D01*
Y78340D01*
X78340D01*
X58255Y136995D02*
Y138595D01*
X59855D01*
Y136995D01*
X58255D01*
X58655Y137395D02*
Y138195D01*
X59455D01*
Y137395D01*
X58655D01*
X77940Y136995D02*
Y138595D01*
X79540D01*
Y136995D01*
X77940D01*
X78340Y137395D02*
Y138195D01*
X79140D01*
Y137395D01*
X78340D01*
X77940Y117310D02*
Y118910D01*
X79540D01*
Y117310D01*
X77940D01*
X78340Y117710D02*
Y118510D01*
X79140D01*
Y117710D01*
X78340D01*
X136995Y97625D02*
Y99225D01*
X138595D01*
Y97625D01*
X136995D01*
X137395Y98025D02*
Y98825D01*
X138195D01*
Y98025D01*
X137395D01*
X156680Y117310D02*
Y118910D01*
X158280D01*
Y117310D01*
X156680D01*
X157080Y117710D02*
Y118510D01*
X157880D01*
Y117710D01*
X157080D01*
X136995Y117310D02*
Y118910D01*
X138595D01*
Y117310D01*
X136995D01*
X137395Y117710D02*
Y118510D01*
X138195D01*
Y117710D01*
X137395D01*
X117310Y117310D02*
Y118910D01*
X118910D01*
Y117310D01*
X117310D01*
X117710Y117710D02*
Y118510D01*
X118510D01*
Y117710D01*
X117710D01*
X97625Y136995D02*
Y138595D01*
X99225D01*
Y136995D01*
X97625D01*
X98025Y137395D02*
Y138195D01*
X98825D01*
Y137395D01*
X98025D01*
X97625Y156680D02*
Y158280D01*
X99225D01*
Y156680D01*
X97625D01*
X98025Y157080D02*
Y157880D01*
X98825D01*
Y157080D01*
X98025D01*
X117310Y136995D02*
Y138595D01*
X118910D01*
Y136995D01*
X117310D01*
X117710Y137395D02*
Y138195D01*
X118510D01*
Y137395D01*
X117710D01*
X136995Y136995D02*
Y138595D01*
X138595D01*
Y136995D01*
X136995D01*
X137395Y137395D02*
Y138195D01*
X138195D01*
Y137395D01*
X137395D01*
X156680Y136995D02*
Y138595D01*
X158280D01*
Y136995D01*
X156680D01*
X157080Y137395D02*
Y138195D01*
X157880D01*
Y137395D01*
X157080D01*
X176365Y136995D02*
Y138595D01*
X177965D01*
Y136995D01*
X176365D01*
X176765Y137395D02*
Y138195D01*
X177565D01*
Y137395D01*
X176765D01*
X176365Y156680D02*
Y158280D01*
X177965D01*
Y156680D01*
X176365D01*
X176765Y157080D02*
Y157880D01*
X177565D01*
Y157080D01*
X176765D01*
X156680Y156680D02*
Y158280D01*
X158280D01*
Y156680D01*
X156680D01*
X157080Y157080D02*
Y157880D01*
X157880D01*
Y157080D01*
X157080D01*
X136995Y156680D02*
Y158280D01*
X138595D01*
Y156680D01*
X136995D01*
X137395Y157080D02*
Y157880D01*
X138195D01*
Y157080D01*
X137395D01*
X117310Y156680D02*
Y158280D01*
X118910D01*
Y156680D01*
X117310D01*
X117710Y157080D02*
Y157880D01*
X118510D01*
Y157080D01*
X117710D01*
X117310Y176365D02*
Y177965D01*
X118910D01*
Y176365D01*
X117310D01*
X117710Y176765D02*
Y177565D01*
X118510D01*
Y176765D01*
X117710D01*
X136995Y176365D02*
Y177965D01*
X138595D01*
Y176365D01*
X136995D01*
X137395Y176765D02*
Y177565D01*
X138195D01*
Y176765D01*
X137395D01*
X136995Y196050D02*
Y197650D01*
X138595D01*
Y196050D01*
X136995D01*
X137395Y196450D02*
Y197250D01*
X138195D01*
Y196450D01*
X137395D01*
X156680Y176365D02*
Y177965D01*
X158280D01*
Y176365D01*
X156680D01*
X157080Y176765D02*
Y177565D01*
X157880D01*
Y176765D01*
X157080D01*
X156680Y196050D02*
Y197650D01*
X158280D01*
Y196050D01*
X156680D01*
X157080Y196450D02*
Y197250D01*
X157880D01*
Y196450D01*
X157080D01*
X156680Y215735D02*
Y217335D01*
X158280D01*
Y215735D01*
X156680D01*
X157080Y216135D02*
Y216935D01*
X157880D01*
Y216135D01*
X157080D01*
X176365Y215735D02*
Y217335D01*
X177965D01*
Y215735D01*
X176365D01*
X176765Y216135D02*
Y216935D01*
X177565D01*
Y216135D01*
X176765D01*
X176365Y176365D02*
Y177965D01*
X177965D01*
Y176365D01*
X176365D01*
X176765Y176765D02*
Y177565D01*
X177565D01*
Y176765D01*
X176765D01*
X215735Y176365D02*
Y177965D01*
X217335D01*
Y176365D01*
X215735D01*
X216135Y176765D02*
Y177565D01*
X216935D01*
Y176765D01*
X216135D01*
X215735Y156680D02*
Y158280D01*
X217335D01*
Y156680D01*
X215735D01*
X216135Y157080D02*
Y157880D01*
X216935D01*
Y157080D01*
X216135D01*
X196050Y156680D02*
Y158280D01*
X197650D01*
Y156680D01*
X196050D01*
X196450Y157080D02*
Y157880D01*
X197250D01*
Y157080D01*
X196450D01*
X215735Y136995D02*
Y138595D01*
X217335D01*
Y136995D01*
X215735D01*
X216135Y137395D02*
Y138195D01*
X216935D01*
Y137395D01*
X216135D01*
X196050Y136995D02*
Y138595D01*
X197650D01*
Y136995D01*
X196050D01*
X196450Y137395D02*
Y138195D01*
X197250D01*
Y137395D01*
X196450D01*
X196050Y117310D02*
Y118910D01*
X197650D01*
Y117310D01*
X196050D01*
X196450Y117710D02*
Y118510D01*
X197250D01*
Y117710D01*
X196450D01*
X196050Y97625D02*
Y99225D01*
X197650D01*
Y97625D01*
X196050D01*
X196450Y98025D02*
Y98825D01*
X197250D01*
Y98025D01*
X196450D01*
X196050Y77940D02*
Y79540D01*
X197650D01*
Y77940D01*
X196050D01*
X196450Y78340D02*
Y79140D01*
X197250D01*
Y78340D01*
X196450D01*
X196050Y58255D02*
Y59855D01*
X197650D01*
Y58255D01*
X196050D01*
X196450Y58655D02*
Y59455D01*
X197250D01*
Y58655D01*
X196450D01*
X196050Y38570D02*
Y40170D01*
X197650D01*
Y38570D01*
X196050D01*
X196450Y38970D02*
Y39770D01*
X197250D01*
Y38970D01*
X196450D01*
X196050Y18885D02*
Y20485D01*
X197650D01*
Y18885D01*
X196050D01*
X196450Y19285D02*
Y20085D01*
X197250D01*
Y19285D01*
X196450D01*
X196050Y-800D02*
Y800D01*
X197650D01*
Y-800D01*
X196050D01*
X196450Y-400D02*
Y400D01*
X197250D01*
Y-400D01*
X196450D01*
X196050Y-20485D02*
Y-18885D01*
X197650D01*
Y-20485D01*
X196050D01*
X196450Y-20085D02*
Y-19285D01*
X197250D01*
Y-20085D01*
X196450D01*
X196050Y-40170D02*
Y-38570D01*
X197650D01*
Y-40170D01*
X196050D01*
X196450Y-39770D02*
Y-38970D01*
X197250D01*
Y-39770D01*
X196450D01*
X196050Y-59855D02*
Y-58255D01*
X197650D01*
Y-59855D01*
X196050D01*
X196450Y-59455D02*
Y-58655D01*
X197250D01*
Y-59455D01*
X196450D01*
X196050Y-79540D02*
Y-77940D01*
X197650D01*
Y-79540D01*
X196050D01*
X196450Y-79140D02*
Y-78340D01*
X197250D01*
Y-79140D01*
X196450D01*
X196050Y-99225D02*
Y-97625D01*
X197650D01*
Y-99225D01*
X196050D01*
X196450Y-98825D02*
Y-98025D01*
X197250D01*
Y-98825D01*
X196450D01*
X215735Y-118910D02*
Y-117310D01*
X217335D01*
Y-118910D01*
X215735D01*
X216135Y-118510D02*
Y-117710D01*
X216935D01*
Y-118510D01*
X216135D01*
X196704Y-121720D02*
Y-120120D01*
X198303D01*
Y-121720D01*
X196704D01*
X197104Y-121320D02*
Y-120520D01*
X197904D01*
Y-121320D01*
X197104D01*
X215735Y-158280D02*
Y-156680D01*
X217335D01*
Y-158280D01*
X215735D01*
X216135Y-157880D02*
Y-157080D01*
X216935D01*
Y-157880D01*
X216135D01*
X215735Y-138595D02*
Y-136995D01*
X217335D01*
Y-138595D01*
X215735D01*
X216135Y-138195D02*
Y-137395D01*
X216935D01*
Y-138195D01*
X216135D01*
X196050Y-138595D02*
Y-136995D01*
X197650D01*
Y-138595D01*
X196050D01*
X196450Y-138195D02*
Y-137395D01*
X197250D01*
Y-138195D01*
X196450D01*
X176365Y-138595D02*
Y-136995D01*
X177965D01*
Y-138595D01*
X176365D01*
X176765Y-138195D02*
Y-137395D01*
X177565D01*
Y-138195D01*
X176765D01*
X176365Y-158280D02*
Y-156680D01*
X177965D01*
Y-158280D01*
X176365D01*
X176765Y-157880D02*
Y-157080D01*
X177565D01*
Y-157880D01*
X176765D01*
X196050Y-158280D02*
Y-156680D01*
X197650D01*
Y-158280D01*
X196050D01*
X196450Y-157880D02*
Y-157080D01*
X197250D01*
Y-157880D01*
X196450D01*
X215735Y-177965D02*
Y-176365D01*
X217335D01*
Y-177965D01*
X215735D01*
X216135Y-177565D02*
Y-176765D01*
X216935D01*
Y-177565D01*
X216135D01*
X176365Y-177965D02*
Y-176365D01*
X177965D01*
Y-177965D01*
X176365D01*
X176765Y-177565D02*
Y-176765D01*
X177565D01*
Y-177565D01*
X176765D01*
X176365Y-217335D02*
Y-215735D01*
X177965D01*
Y-217335D01*
X176365D01*
X176765Y-216935D02*
Y-216135D01*
X177565D01*
Y-216935D01*
X176765D01*
X156680Y-217335D02*
Y-215735D01*
X158280D01*
Y-217335D01*
X156680D01*
X157080Y-216935D02*
Y-216135D01*
X157880D01*
Y-216935D01*
X157080D01*
X156680Y-197650D02*
Y-196050D01*
X158280D01*
Y-197650D01*
X156680D01*
X157080Y-197250D02*
Y-196450D01*
X157880D01*
Y-197250D01*
X157080D01*
X136995Y-197650D02*
Y-196050D01*
X138595D01*
Y-197650D01*
X136995D01*
X137395Y-197250D02*
Y-196450D01*
X138195D01*
Y-197250D01*
X137395D01*
X156680Y-177965D02*
Y-176365D01*
X158280D01*
Y-177965D01*
X156680D01*
X157080Y-177565D02*
Y-176765D01*
X157880D01*
Y-177565D01*
X157080D01*
X156680Y-118910D02*
Y-117310D01*
X158280D01*
Y-118910D01*
X156680D01*
X157080Y-118510D02*
Y-117710D01*
X157880D01*
Y-118510D01*
X157080D01*
X156680Y-138595D02*
Y-136995D01*
X158280D01*
Y-138595D01*
X156680D01*
X157080Y-138195D02*
Y-137395D01*
X157880D01*
Y-138195D01*
X157080D01*
X156680Y-158280D02*
Y-156680D01*
X158280D01*
Y-158280D01*
X156680D01*
X157080Y-157880D02*
Y-157080D01*
X157880D01*
Y-157880D01*
X157080D01*
X136995Y-177965D02*
Y-176365D01*
X138595D01*
Y-177965D01*
X136995D01*
X137395Y-177565D02*
Y-176765D01*
X138195D01*
Y-177565D01*
X137395D01*
X117310Y-177965D02*
Y-176365D01*
X118910D01*
Y-177965D01*
X117310D01*
X117710Y-177565D02*
Y-176765D01*
X118510D01*
Y-177565D01*
X117710D01*
X136995Y-158280D02*
Y-156680D01*
X138595D01*
Y-158280D01*
X136995D01*
X137395Y-157880D02*
Y-157080D01*
X138195D01*
Y-157880D01*
X137395D01*
X117310Y-158280D02*
Y-156680D01*
X118910D01*
Y-158280D01*
X117310D01*
X117710Y-157880D02*
Y-157080D01*
X118510D01*
Y-157880D01*
X117710D01*
X136995Y-138595D02*
Y-136995D01*
X138595D01*
Y-138595D01*
X136995D01*
X137395Y-138195D02*
Y-137395D01*
X138195D01*
Y-138195D01*
X137395D01*
X136995Y-118910D02*
Y-117310D01*
X138595D01*
Y-118910D01*
X136995D01*
X137395Y-118510D02*
Y-117710D01*
X138195D01*
Y-118510D01*
X137395D01*
X136995Y-99225D02*
Y-97625D01*
X138595D01*
Y-99225D01*
X136995D01*
X137395Y-98825D02*
Y-98025D01*
X138195D01*
Y-98825D01*
X137395D01*
X117310Y-138595D02*
Y-136995D01*
X118910D01*
Y-138595D01*
X117310D01*
X117710Y-138195D02*
Y-137395D01*
X118510D01*
Y-138195D01*
X117710D01*
X97625Y-138595D02*
Y-136995D01*
X99225D01*
Y-138595D01*
X97625D01*
X98025Y-138195D02*
Y-137395D01*
X98825D01*
Y-138195D01*
X98025D01*
X77940Y-138595D02*
Y-136995D01*
X79540D01*
Y-138595D01*
X77940D01*
X78340Y-138195D02*
Y-137395D01*
X79140D01*
Y-138195D01*
X78340D01*
X117310Y-118910D02*
Y-117310D01*
X118910D01*
Y-118910D01*
X117310D01*
X117710Y-118510D02*
Y-117710D01*
X118510D01*
Y-118510D01*
X117710D01*
X77940Y-118910D02*
Y-117310D01*
X79540D01*
Y-118910D01*
X77940D01*
X78340Y-118510D02*
Y-117710D01*
X79140D01*
Y-118510D01*
X78340D01*
X58255Y-118910D02*
Y-117310D01*
X59855D01*
Y-118910D01*
X58255D01*
X58655Y-118510D02*
Y-117710D01*
X59455D01*
Y-118510D01*
X58655D01*
X38570Y-118910D02*
Y-117310D01*
X40170D01*
Y-118910D01*
X38570D01*
X38970Y-118510D02*
Y-117710D01*
X39770D01*
Y-118510D01*
X38970D01*
X18885Y-118910D02*
Y-117310D01*
X20485D01*
Y-118910D01*
X18885D01*
X19285Y-118510D02*
Y-117710D01*
X20085D01*
Y-118510D01*
X19285D01*
X-800Y-118910D02*
Y-117310D01*
X800D01*
Y-118910D01*
X-800D01*
X-400Y-118510D02*
Y-117710D01*
X400D01*
Y-118510D01*
X-400D01*
X-40170Y-99225D02*
Y-97625D01*
X-38570D01*
Y-99225D01*
X-40170D01*
X-39770Y-98825D02*
Y-98025D01*
X-38970D01*
Y-98825D01*
X-39770D01*
X-20485Y-118910D02*
Y-117310D01*
X-18885D01*
Y-118910D01*
X-20485D01*
X-20085Y-118510D02*
Y-117710D01*
X-19285D01*
Y-118510D01*
X-20085D01*
X-40170Y-118910D02*
Y-117310D01*
X-38570D01*
Y-118910D01*
X-40170D01*
X-39770Y-118510D02*
Y-117710D01*
X-38970D01*
Y-118510D01*
X-39770D01*
X-59855Y-79540D02*
Y-77940D01*
X-58255D01*
Y-79540D01*
X-59855D01*
X-59455Y-79140D02*
Y-78340D01*
X-58655D01*
Y-79140D01*
X-59455D01*
X-59855Y-99225D02*
Y-97625D01*
X-58255D01*
Y-99225D01*
X-59855D01*
X-59455Y-98825D02*
Y-98025D01*
X-58655D01*
Y-98825D01*
X-59455D01*
X-59855Y-118910D02*
Y-117310D01*
X-58255D01*
Y-118910D01*
X-59855D01*
X-59455Y-118510D02*
Y-117710D01*
X-58655D01*
Y-118510D01*
X-59455D01*
X-59855Y-138595D02*
Y-136995D01*
X-58255D01*
Y-138595D01*
X-59855D01*
X-59455Y-138195D02*
Y-137395D01*
X-58655D01*
Y-138195D01*
X-59455D01*
X-79540Y-138595D02*
Y-136995D01*
X-77940D01*
Y-138595D01*
X-79540D01*
X-79140Y-138195D02*
Y-137395D01*
X-78340D01*
Y-138195D01*
X-79140D01*
X-99225Y-138595D02*
Y-136995D01*
X-97625D01*
Y-138595D01*
X-99225D01*
X-98825Y-138195D02*
Y-137395D01*
X-98025D01*
Y-138195D01*
X-98825D01*
X-79540Y-118910D02*
Y-117310D01*
X-77940D01*
Y-118910D01*
X-79540D01*
X-79140Y-118510D02*
Y-117710D01*
X-78340D01*
Y-118510D01*
X-79140D01*
X-79540Y-79540D02*
Y-77940D01*
X-77940D01*
Y-79540D01*
X-79540D01*
X-79140Y-79140D02*
Y-78340D01*
X-78340D01*
Y-79140D01*
X-79140D01*
X-118910Y-79540D02*
Y-77940D01*
X-117310D01*
Y-79540D01*
X-118910D01*
X-118510Y-79140D02*
Y-78340D01*
X-117710D01*
Y-79140D01*
X-118510D01*
X-138595Y-99225D02*
Y-97625D01*
X-136995D01*
Y-99225D01*
X-138595D01*
X-138195Y-98825D02*
Y-98025D01*
X-137395D01*
Y-98825D01*
X-138195D01*
X-118910Y-118910D02*
Y-117310D01*
X-117310D01*
Y-118910D01*
X-118910D01*
X-118510Y-118510D02*
Y-117710D01*
X-117710D01*
Y-118510D01*
X-118510D01*
X-118910Y-138595D02*
Y-136995D01*
X-117310D01*
Y-138595D01*
X-118910D01*
X-118510Y-138195D02*
Y-137395D01*
X-117710D01*
Y-138195D01*
X-118510D01*
X-118910Y-158280D02*
Y-156680D01*
X-117310D01*
Y-158280D01*
X-118910D01*
X-118510Y-157880D02*
Y-157080D01*
X-117710D01*
Y-157880D01*
X-118510D01*
X-118910Y-177965D02*
Y-176365D01*
X-117310D01*
Y-177965D01*
X-118910D01*
X-118510Y-177565D02*
Y-176765D01*
X-117710D01*
Y-177565D01*
X-118510D01*
X-138595Y-197650D02*
Y-196050D01*
X-136995D01*
Y-197650D01*
X-138595D01*
X-138195Y-197250D02*
Y-196450D01*
X-137395D01*
Y-197250D01*
X-138195D01*
X-138595Y-177965D02*
Y-176365D01*
X-136995D01*
Y-177965D01*
X-138595D01*
X-138195Y-177565D02*
Y-176765D01*
X-137395D01*
Y-177565D01*
X-138195D01*
X-138595Y-158280D02*
Y-156680D01*
X-136995D01*
Y-158280D01*
X-138595D01*
X-138195Y-157880D02*
Y-157080D01*
X-137395D01*
Y-157880D01*
X-138195D01*
X-138595Y-138595D02*
Y-136995D01*
X-136995D01*
Y-138595D01*
X-138595D01*
X-138195Y-138195D02*
Y-137395D01*
X-137395D01*
Y-138195D01*
X-138195D01*
X-138595Y-118910D02*
Y-117310D01*
X-136995D01*
Y-118910D01*
X-138595D01*
X-138195Y-118510D02*
Y-117710D01*
X-137395D01*
Y-118510D01*
X-138195D01*
X-158280Y-118910D02*
Y-117310D01*
X-156680D01*
Y-118910D01*
X-158280D01*
X-157880Y-118510D02*
Y-117710D01*
X-157080D01*
Y-118510D01*
X-157880D01*
X-158280Y-138595D02*
Y-136995D01*
X-156680D01*
Y-138595D01*
X-158280D01*
X-157880Y-138195D02*
Y-137395D01*
X-157080D01*
Y-138195D01*
X-157880D01*
X-158280Y-158280D02*
Y-156680D01*
X-156680D01*
Y-158280D01*
X-158280D01*
X-157880Y-157880D02*
Y-157080D01*
X-157080D01*
Y-157880D01*
X-157880D01*
X-158280Y-177965D02*
Y-176365D01*
X-156680D01*
Y-177965D01*
X-158280D01*
X-157880Y-177565D02*
Y-176765D01*
X-157080D01*
Y-177565D01*
X-157880D01*
X-158280Y-197650D02*
Y-196050D01*
X-156680D01*
Y-197650D01*
X-158280D01*
X-157880Y-197250D02*
Y-196450D01*
X-157080D01*
Y-197250D01*
X-157880D01*
X-158280Y-217335D02*
Y-215735D01*
X-156680D01*
Y-217335D01*
X-158280D01*
X-157880Y-216935D02*
Y-216135D01*
X-157080D01*
Y-216935D01*
X-157880D01*
X-177965Y-217335D02*
Y-215735D01*
X-176365D01*
Y-217335D01*
X-177965D01*
X-177565Y-216935D02*
Y-216135D01*
X-176765D01*
Y-216935D01*
X-177565D01*
X-177965Y-177965D02*
Y-176365D01*
X-176365D01*
Y-177965D01*
X-177965D01*
X-177565Y-177565D02*
Y-176765D01*
X-176765D01*
Y-177565D01*
X-177565D01*
X-177965Y-138595D02*
Y-136995D01*
X-176365D01*
Y-138595D01*
X-177965D01*
X-177565Y-138195D02*
Y-137395D01*
X-176765D01*
Y-138195D01*
X-177565D01*
X-177965Y-158280D02*
Y-156680D01*
X-176365D01*
Y-158280D01*
X-177965D01*
X-177565Y-157880D02*
Y-157080D01*
X-176765D01*
Y-157880D01*
X-177565D01*
X-217335Y-177965D02*
Y-176365D01*
X-215735D01*
Y-177965D01*
X-217335D01*
X-216935Y-177565D02*
Y-176765D01*
X-216135D01*
Y-177565D01*
X-216935D01*
X-197650Y-158280D02*
Y-156680D01*
X-196050D01*
Y-158280D01*
X-197650D01*
X-197250Y-157880D02*
Y-157080D01*
X-196450D01*
Y-157880D01*
X-197250D01*
X-217335Y-158280D02*
Y-156680D01*
X-215735D01*
Y-158280D01*
X-217335D01*
X-216935Y-157880D02*
Y-157080D01*
X-216135D01*
Y-157880D01*
X-216935D01*
X-217335Y-138595D02*
Y-136995D01*
X-215735D01*
Y-138595D01*
X-217335D01*
X-216935Y-138195D02*
Y-137395D01*
X-216135D01*
Y-138195D01*
X-216935D01*
X-197650Y-138595D02*
Y-136995D01*
X-196050D01*
Y-138595D01*
X-197650D01*
X-197250Y-138195D02*
Y-137395D01*
X-196450D01*
Y-138195D01*
X-197250D01*
X-197650Y-118910D02*
Y-117310D01*
X-196050D01*
Y-118910D01*
X-197650D01*
X-197250Y-118510D02*
Y-117710D01*
X-196450D01*
Y-118510D01*
X-197250D01*
X-197650Y-99225D02*
Y-97625D01*
X-196050D01*
Y-99225D01*
X-197650D01*
X-197250Y-98825D02*
Y-98025D01*
X-196450D01*
Y-98825D01*
X-197250D01*
X-197650Y-79540D02*
Y-77940D01*
X-196050D01*
Y-79540D01*
X-197650D01*
X-197250Y-79140D02*
Y-78340D01*
X-196450D01*
Y-79140D01*
X-197250D01*
X-197650Y-59855D02*
Y-58255D01*
X-196050D01*
Y-59855D01*
X-197650D01*
X-197250Y-59455D02*
Y-58655D01*
X-196450D01*
Y-59455D01*
X-197250D01*
X-197650Y-40170D02*
Y-38570D01*
X-196050D01*
Y-40170D01*
X-197650D01*
X-197250Y-39770D02*
Y-38970D01*
X-196450D01*
Y-39770D01*
X-197250D01*
X-197650Y-20485D02*
Y-18885D01*
X-196050D01*
Y-20485D01*
X-197650D01*
X-197250Y-20085D02*
Y-19285D01*
X-196450D01*
Y-20085D01*
X-197250D01*
X-197650Y-800D02*
Y800D01*
X-196050D01*
Y-800D01*
X-197650D01*
X-197250Y-400D02*
Y400D01*
X-196450D01*
Y-400D01*
X-197250D01*
X-197650Y18885D02*
Y20485D01*
X-196050D01*
Y18885D01*
X-197650D01*
X-197250Y19285D02*
Y20085D01*
X-196450D01*
Y19285D01*
X-197250D01*
X-197650Y38570D02*
Y40170D01*
X-196050D01*
Y38570D01*
X-197650D01*
X-197250Y38970D02*
Y39770D01*
X-196450D01*
Y38970D01*
X-197250D01*
X-197650Y58255D02*
Y59855D01*
X-196050D01*
Y58255D01*
X-197650D01*
X-197250Y58655D02*
Y59455D01*
X-196450D01*
Y58655D01*
X-197250D01*
X-197650Y77940D02*
Y79540D01*
X-196050D01*
Y77940D01*
X-197650D01*
X-197250Y78340D02*
Y79140D01*
X-196450D01*
Y78340D01*
X-197250D01*
X-197650Y97625D02*
Y99225D01*
X-196050D01*
Y97625D01*
X-197650D01*
X-197250Y98025D02*
Y98825D01*
X-196450D01*
Y98025D01*
X-197250D01*
X-197650Y117310D02*
Y118910D01*
X-196050D01*
Y117310D01*
X-197650D01*
X-197250Y117710D02*
Y118510D01*
X-196450D01*
Y117710D01*
X-197250D01*
X-217335Y117310D02*
Y118910D01*
X-215735D01*
Y117310D01*
X-217335D01*
X-216935Y117710D02*
Y118510D01*
X-216135D01*
Y117710D01*
X-216935D01*
X-158280Y215735D02*
Y217335D01*
X-156680D01*
Y215735D01*
X-158280D01*
X-157880Y216135D02*
Y216935D01*
X-157080D01*
Y216135D01*
X-157880D01*
X-177965Y215735D02*
Y217335D01*
X-176365D01*
Y215735D01*
X-177965D01*
X-177565Y216135D02*
Y216935D01*
X-176765D01*
Y216135D01*
X-177565D01*
X-138595Y196050D02*
Y197650D01*
X-136995D01*
Y196050D01*
X-138595D01*
X-138195Y196450D02*
Y197250D01*
X-137395D01*
Y196450D01*
X-138195D01*
X-158280Y196050D02*
Y197650D01*
X-156680D01*
Y196050D01*
X-158280D01*
X-157880Y196450D02*
Y197250D01*
X-157080D01*
Y196450D01*
X-157880D01*
X-217335Y176365D02*
Y177965D01*
X-215735D01*
Y176365D01*
X-217335D01*
X-216935Y176765D02*
Y177565D01*
X-216135D01*
Y176765D01*
X-216935D01*
X-197775Y157307D02*
Y158907D01*
X-196175D01*
Y157307D01*
X-197775D01*
X-197375Y157707D02*
Y158507D01*
X-196575D01*
Y157707D01*
X-197375D01*
X-217335Y156680D02*
Y158280D01*
X-215735D01*
Y156680D01*
X-217335D01*
X-216935Y157080D02*
Y157880D01*
X-216135D01*
Y157080D01*
X-216935D01*
X-217335Y136995D02*
Y138595D01*
X-215735D01*
Y136995D01*
X-217335D01*
X-216935Y137395D02*
Y138195D01*
X-216135D01*
Y137395D01*
X-216935D01*
X-197650Y136995D02*
Y138595D01*
X-196050D01*
Y136995D01*
X-197650D01*
X-197250Y137395D02*
Y138195D01*
X-196450D01*
Y137395D01*
X-197250D01*
X-177965Y136995D02*
Y138595D01*
X-176365D01*
Y136995D01*
X-177965D01*
X-177565Y137395D02*
Y138195D01*
X-176765D01*
Y137395D01*
X-177565D01*
X-158280Y136995D02*
Y138595D01*
X-156680D01*
Y136995D01*
X-158280D01*
X-157880Y137395D02*
Y138195D01*
X-157080D01*
Y137395D01*
X-157880D01*
X-158280Y176365D02*
Y177965D01*
X-156680D01*
Y176365D01*
X-158280D01*
X-157880Y176765D02*
Y177565D01*
X-157080D01*
Y176765D01*
X-157880D01*
X-177965Y176365D02*
Y177965D01*
X-176365D01*
Y176365D01*
X-177965D01*
X-177565Y176765D02*
Y177565D01*
X-176765D01*
Y176765D01*
X-177565D01*
X-177965Y156680D02*
Y158280D01*
X-176365D01*
Y156680D01*
X-177965D01*
X-177565Y157080D02*
Y157880D01*
X-176765D01*
Y157080D01*
X-177565D01*
X-158280Y156680D02*
Y158280D01*
X-156680D01*
Y156680D01*
X-158280D01*
X-157880Y157080D02*
Y157880D01*
X-157080D01*
Y157080D01*
X-157880D01*
X-118910Y176365D02*
Y177965D01*
X-117310D01*
Y176365D01*
X-118910D01*
X-118510Y176765D02*
Y177565D01*
X-117710D01*
Y176765D01*
X-118510D01*
X-138595Y176365D02*
Y177965D01*
X-136995D01*
Y176365D01*
X-138595D01*
X-138195Y176765D02*
Y177565D01*
X-137395D01*
Y176765D01*
X-138195D01*
X-138595Y156680D02*
Y158280D01*
X-136995D01*
Y156680D01*
X-138595D01*
X-138195Y157080D02*
Y157880D01*
X-137395D01*
Y157080D01*
X-138195D01*
X-118910Y156680D02*
Y158280D01*
X-117310D01*
Y156680D01*
X-118910D01*
X-118510Y157080D02*
Y157880D01*
X-117710D01*
Y157080D01*
X-118510D01*
X-138595Y136995D02*
Y138595D01*
X-136995D01*
Y136995D01*
X-138595D01*
X-138195Y137395D02*
Y138195D01*
X-137395D01*
Y137395D01*
X-138195D01*
X-118910Y136995D02*
Y138595D01*
X-117310D01*
Y136995D01*
X-118910D01*
X-118510Y137395D02*
Y138195D01*
X-117710D01*
Y137395D01*
X-118510D01*
X-118910Y117310D02*
Y118910D01*
X-117310D01*
Y117310D01*
X-118910D01*
X-118510Y117710D02*
Y118510D01*
X-117710D01*
Y117710D01*
X-118510D01*
X-138595Y117310D02*
Y118910D01*
X-136995D01*
Y117310D01*
X-138595D01*
X-138195Y117710D02*
Y118510D01*
X-137395D01*
Y117710D01*
X-138195D01*
X-138595Y97625D02*
Y99225D01*
X-136995D01*
Y97625D01*
X-138595D01*
X-138195Y98025D02*
Y98825D01*
X-137395D01*
Y98025D01*
X-138195D01*
X-118910Y77940D02*
Y79540D01*
X-117310D01*
Y77940D01*
X-118910D01*
X-118510Y78340D02*
Y79140D01*
X-117710D01*
Y78340D01*
X-118510D01*
X-38300Y-56115D02*
Y-54515D01*
X-36700D01*
Y-56115D01*
X-38300D01*
X-37900Y-55715D02*
Y-54915D01*
X-37100D01*
Y-55715D01*
X-37900D01*
X-42040Y-56016D02*
Y-54417D01*
X-40440D01*
Y-56016D01*
X-42040D01*
X-41640Y-55616D02*
Y-54817D01*
X-40840D01*
Y-55616D01*
X-41640D01*
X-22060Y-43713D02*
Y-42113D01*
X-20460D01*
Y-43713D01*
X-22060D01*
X-21660Y-43313D02*
Y-42513D01*
X-20860D01*
Y-43313D01*
X-21660D01*
X-22135Y-39707D02*
Y-38107D01*
X-20535D01*
Y-39707D01*
X-22135D01*
X-21735Y-39307D02*
Y-38507D01*
X-20935D01*
Y-39307D01*
X-21735D01*
X-38556Y-42040D02*
Y-40440D01*
X-36956D01*
Y-42040D01*
X-38556D01*
X-38156Y-41640D02*
Y-40840D01*
X-37356D01*
Y-41640D01*
X-38156D01*
X-22037Y-35967D02*
Y-34367D01*
X-20437D01*
Y-35967D01*
X-22037D01*
X-21637Y-35567D02*
Y-34767D01*
X-20837D01*
Y-35567D01*
X-21637D01*
X-3950Y-7434D02*
Y-5834D01*
X-2350D01*
Y-7434D01*
X-3950D01*
X-3550Y-7034D02*
Y-6234D01*
X-2750D01*
Y-7034D01*
X-3550D01*
X38570Y8255D02*
Y9855D01*
X40170D01*
Y8255D01*
X38570D01*
X38970Y8655D02*
Y9455D01*
X39770D01*
Y8655D01*
X38970D01*
X21641Y8255D02*
Y9855D01*
X23241D01*
Y8255D01*
X21641D01*
X22041Y8655D02*
Y9455D01*
X22841D01*
Y8655D01*
X22041D01*
X50775Y19279D02*
Y20879D01*
X52375D01*
Y19279D01*
X50775D01*
X51175Y19679D02*
Y20479D01*
X51975D01*
Y19679D01*
X51175D01*
X38570Y12979D02*
Y14580D01*
X40170D01*
Y12979D01*
X38570D01*
X38970Y13379D02*
Y14179D01*
X39770D01*
Y13379D01*
X38970D01*
X22035Y12979D02*
Y14580D01*
X23635D01*
Y12979D01*
X22035D01*
X22435Y13379D02*
Y14179D01*
X23235D01*
Y13379D01*
X22435D01*
X38570Y-1784D02*
Y-184D01*
X40170D01*
Y-1784D01*
X38570D01*
X38970Y-1384D02*
Y-584D01*
X39770D01*
Y-1384D01*
X38970D01*
X38570Y3137D02*
Y4737D01*
X40170D01*
Y3137D01*
X38570D01*
X38970Y3537D02*
Y4337D01*
X39770D01*
Y3537D01*
X38970D01*
X5204Y18098D02*
Y19698D01*
X6804D01*
Y18098D01*
X5204D01*
X5604Y18498D02*
Y19298D01*
X6404D01*
Y18498D01*
X5604D01*
X2054Y18098D02*
Y19698D01*
X3654D01*
Y18098D01*
X2054D01*
X2454Y18498D02*
Y19298D01*
X3254D01*
Y18498D01*
X2454D01*
X8354Y18098D02*
Y19698D01*
X9954D01*
Y18098D01*
X8354D01*
X8754Y18498D02*
Y19298D01*
X9554D01*
Y18498D01*
X8754D01*
X-93713Y-27965D02*
Y-26365D01*
X-92113D01*
Y-27965D01*
X-93713D01*
X-93313Y-27565D02*
Y-26765D01*
X-92513D01*
Y-27565D01*
X-93313D01*
X-73556Y40440D02*
Y42040D01*
X-71956D01*
Y40440D01*
X-73556D01*
X-73156Y40840D02*
Y41640D01*
X-72356D01*
Y40840D01*
X-73156D01*
X-78556Y40440D02*
Y42040D01*
X-76956D01*
Y40440D01*
X-78556D01*
X-78156Y40840D02*
Y41640D01*
X-77356D01*
Y40840D01*
X-78156D01*
X88570Y45263D02*
Y46863D01*
X90170D01*
Y45263D01*
X88570D01*
X88970Y45663D02*
Y46463D01*
X89770D01*
Y45663D01*
X88970D01*
X91011Y37586D02*
Y39186D01*
X92611D01*
Y37586D01*
X91011D01*
X91411Y37986D02*
Y38786D01*
X92211D01*
Y37986D01*
X91411D01*
X91011Y42586D02*
Y44186D01*
X92611D01*
Y42586D01*
X91011D01*
X91411Y42986D02*
Y43786D01*
X92211D01*
Y42986D01*
X91411D01*
X-28605Y51297D02*
Y52896D01*
X-27005D01*
Y51297D01*
X-28605D01*
X-28205Y51696D02*
Y52496D01*
X-27405D01*
Y51696D01*
X-28205D01*
X102743Y45263D02*
Y46863D01*
X104343D01*
Y45263D01*
X102743D01*
X103143Y45663D02*
Y46463D01*
X103943D01*
Y45663D01*
X103143D01*
X77054Y-17257D02*
Y-15657D01*
X78654D01*
Y-17257D01*
X77054D01*
X77454Y-16857D02*
Y-16057D01*
X78254D01*
Y-16857D01*
X77454D01*
X77054Y-43398D02*
Y-41798D01*
X78654D01*
Y-43398D01*
X77054D01*
X77454Y-42998D02*
Y-42198D01*
X78254D01*
Y-42998D01*
X77454D01*
X77054Y-46784D02*
Y-45184D01*
X78654D01*
Y-46784D01*
X77054D01*
X77454Y-46384D02*
Y-45584D01*
X78254D01*
Y-46384D01*
X77454D01*
X77054Y-72926D02*
Y-71326D01*
X78654D01*
Y-72926D01*
X77054D01*
X77454Y-72526D02*
Y-71726D01*
X78254D01*
Y-72526D01*
X77454D01*
X77054Y-13871D02*
Y-12271D01*
X78654D01*
Y-13871D01*
X77054D01*
X77454Y-13471D02*
Y-12671D01*
X78254D01*
Y-13471D01*
X77454D01*
X77054Y12271D02*
Y13871D01*
X78654D01*
Y12271D01*
X77054D01*
X77454Y12671D02*
Y13471D01*
X78254D01*
Y12671D01*
X77454D01*
X-30268Y-23300D02*
Y-21700D01*
X-28668D01*
Y-23300D01*
X-30268D01*
X-29869Y-22900D02*
Y-22100D01*
X-29068D01*
Y-22900D01*
X-29869D01*
X-32788Y66228D02*
Y67828D01*
X-31188D01*
Y66228D01*
X-32788D01*
X-32388Y66628D02*
Y67428D01*
X-31588D01*
Y66628D01*
X-32388D01*
X-18438Y47232D02*
Y48831D01*
X-16838D01*
Y47232D01*
X-18438D01*
X-18038Y47631D02*
Y48432D01*
X-17238D01*
Y47631D01*
X-18038D01*
X-18438Y41326D02*
Y42926D01*
X-16838D01*
Y41326D01*
X-18438D01*
X-18038Y41726D02*
Y42526D01*
X-17238D01*
Y41726D01*
X-18038D01*
X-30460Y81779D02*
Y83379D01*
X-28860D01*
Y81779D01*
X-30460D01*
X-30060Y82179D02*
Y82979D01*
X-29260D01*
Y82179D01*
X-30060D01*
X-98142Y-47946D02*
Y-46346D01*
X-96543D01*
Y-47946D01*
X-98142D01*
X-97742Y-47546D02*
Y-46746D01*
X-96943D01*
Y-47546D01*
X-97742D01*
X-98142Y-42040D02*
Y-40440D01*
X-96543D01*
Y-42040D01*
X-98142D01*
X-97742Y-41640D02*
Y-40840D01*
X-96943D01*
Y-41640D01*
X-97742D01*
X7960Y-54048D02*
Y-52448D01*
X9560D01*
Y-54048D01*
X7960D01*
X8360Y-53648D02*
Y-52848D01*
X9160D01*
Y-53648D01*
X8360D01*
X21050Y76464D02*
Y78064D01*
X22650D01*
Y76464D01*
X21050D01*
X21450Y76864D02*
Y77664D01*
X22250D01*
Y76864D01*
X21450D01*
X32074Y76267D02*
Y77867D01*
X33674D01*
Y76267D01*
X32074D01*
X32474Y76667D02*
Y77467D01*
X33274D01*
Y76667D01*
X32474D01*
X24791Y76365D02*
Y77965D01*
X26391D01*
Y76365D01*
X24791D01*
X25190Y76765D02*
Y77565D01*
X25991D01*
Y76765D01*
X25190D01*
X28334Y76365D02*
Y77965D01*
X29934D01*
Y76365D01*
X28334D01*
X28734Y76765D02*
Y77565D01*
X29534D01*
Y76765D01*
X28734D01*
X-30328Y-28359D02*
Y-26759D01*
X-28728D01*
Y-28359D01*
X-30328D01*
X-29928Y-27959D02*
Y-27159D01*
X-29128D01*
Y-27959D01*
X-29928D01*
X5204Y21739D02*
Y23339D01*
X6804D01*
Y21739D01*
X5204D01*
X5604Y22139D02*
Y22939D01*
X6404D01*
Y22139D01*
X5604D01*
X8354Y21739D02*
Y23339D01*
X9954D01*
Y21739D01*
X8354D01*
X8754Y22139D02*
Y22939D01*
X9554D01*
Y22139D01*
X8754D01*
X2054Y21739D02*
Y23339D01*
X3654D01*
Y21739D01*
X2054D01*
X2454Y22139D02*
Y22939D01*
X3254D01*
Y22139D01*
X2454D01*
X-72335Y-23536D02*
Y-21936D01*
X-70735D01*
Y-23536D01*
X-72335D01*
X-71935Y-23136D02*
Y-22336D01*
X-71135D01*
Y-23136D01*
X-71935D01*
X-67335Y-23536D02*
Y-21936D01*
X-65735D01*
Y-23536D01*
X-67335D01*
X-66935Y-23136D02*
Y-22336D01*
X-66135D01*
Y-23136D01*
X-66935D01*
X40716Y90440D02*
Y92040D01*
X42316D01*
Y90440D01*
X40716D01*
X41116Y90840D02*
Y91640D01*
X41916D01*
Y90840D01*
X41116D01*
X26562Y86484D02*
Y88083D01*
X28162D01*
Y86484D01*
X26562D01*
X26962Y86883D02*
Y87683D01*
X27762D01*
Y86883D01*
X26962D01*
X26562Y96523D02*
Y98123D01*
X28162D01*
Y96523D01*
X26562D01*
X26962Y96923D02*
Y97723D01*
X27762D01*
Y96923D01*
X26962D01*
X40716Y84338D02*
Y85938D01*
X42316D01*
Y84338D01*
X40716D01*
X41116Y84738D02*
Y85538D01*
X41916D01*
Y84738D01*
X41116D01*
X16424Y93984D02*
Y95583D01*
X18024D01*
Y93984D01*
X16424D01*
X16824Y94384D02*
Y95183D01*
X17624D01*
Y94384D01*
X16824D01*
X16424Y99889D02*
Y101489D01*
X18024D01*
Y99889D01*
X16424D01*
X16824Y100289D02*
Y101089D01*
X17624D01*
Y100289D01*
X16824D01*
X13964Y104318D02*
Y105918D01*
X15564D01*
Y104318D01*
X13964D01*
X14364Y104718D02*
Y105518D01*
X15164D01*
Y104718D01*
X14364D01*
X39161Y104318D02*
Y105918D01*
X40761D01*
Y104318D01*
X39161D01*
X39561Y104718D02*
Y105518D01*
X40361D01*
Y104718D01*
X39561D01*
X36011Y104318D02*
Y105918D01*
X37611D01*
Y104318D01*
X36011D01*
X36411Y104718D02*
Y105518D01*
X37211D01*
Y104718D01*
X36411D01*
X17113Y104318D02*
Y105918D01*
X18713D01*
Y104318D01*
X17113D01*
X17513Y104718D02*
Y105518D01*
X18313D01*
Y104718D01*
X17513D01*
X9830Y48216D02*
Y49816D01*
X11430D01*
Y48216D01*
X9830D01*
X10230Y48616D02*
Y49416D01*
X11030D01*
Y48616D01*
X10230D01*
X19968Y49889D02*
Y51489D01*
X21568D01*
Y49889D01*
X19968D01*
X20368Y50289D02*
Y51089D01*
X21168D01*
Y50289D01*
X20368D01*
X13472Y44574D02*
Y46174D01*
X15072D01*
Y44574D01*
X13472D01*
X13872Y44974D02*
Y45774D01*
X14672D01*
Y44974D01*
X13872D01*
X8354Y35125D02*
Y36725D01*
X9954D01*
Y35125D01*
X8354D01*
X8754Y35525D02*
Y36325D01*
X9554D01*
Y35525D01*
X8754D01*
X2054Y35125D02*
Y36725D01*
X3654D01*
Y35125D01*
X2054D01*
X2454Y35525D02*
Y36325D01*
X3254D01*
Y35525D01*
X2454D01*
X-35544Y97724D02*
Y99324D01*
X-33944D01*
Y97724D01*
X-35544D01*
X-35144Y98124D02*
Y98924D01*
X-34344D01*
Y98124D01*
X-35144D01*
X-56016Y64161D02*
Y65761D01*
X-54417D01*
Y64161D01*
X-56016D01*
X-55616Y64561D02*
Y65361D01*
X-54817D01*
Y64561D01*
X-55616D01*
X4220Y-53950D02*
Y-52350D01*
X5820D01*
Y-53950D01*
X4220D01*
X4620Y-53550D02*
Y-52750D01*
X5420D01*
Y-53550D01*
X4620D01*
X-16843Y11700D02*
Y13300D01*
X-15243D01*
Y11700D01*
X-16843D01*
X-16443Y12100D02*
Y12900D01*
X-15643D01*
Y12100D01*
X-16443D01*
X-43197Y81779D02*
Y83379D01*
X-41597D01*
Y81779D01*
X-43197D01*
X-42797Y82179D02*
Y82979D01*
X-41997D01*
Y82179D01*
X-42797D01*
X-17722Y81779D02*
Y83379D01*
X-16122D01*
Y81779D01*
X-17722D01*
X-17322Y82179D02*
Y82979D01*
X-16522D01*
Y82179D01*
X-17322D01*
X-11354Y81779D02*
Y83379D01*
X-9753D01*
Y81779D01*
X-11354D01*
X-10954Y82179D02*
Y82979D01*
X-10153D01*
Y82179D01*
X-10954D01*
X-24091Y81779D02*
Y83379D01*
X-22491D01*
Y81779D01*
X-24091D01*
X-23691Y82179D02*
Y82979D01*
X-22891D01*
Y82179D01*
X-23691D01*
X-36829Y81779D02*
Y83379D01*
X-35229D01*
Y81779D01*
X-36829D01*
X-36429Y82179D02*
Y82979D01*
X-35629D01*
Y82179D01*
X-36429D01*
X-49566Y81779D02*
Y83379D01*
X-47966D01*
Y81779D01*
X-49566D01*
X-49166Y82179D02*
Y82979D01*
X-48366D01*
Y82179D01*
X-49166D01*
X-55918Y81779D02*
Y83379D01*
X-54318D01*
Y81779D01*
X-55918D01*
X-55518Y82179D02*
Y82979D01*
X-54718D01*
Y82179D01*
X-55518D01*
X-114973Y-60839D02*
Y-59239D01*
X-113373D01*
Y-60839D01*
X-114973D01*
X-114573Y-60439D02*
Y-59639D01*
X-113773D01*
Y-60439D01*
X-114573D01*
X-114973Y-54934D02*
Y-53334D01*
X-113373D01*
Y-54934D01*
X-114973D01*
X-114573Y-54534D02*
Y-53734D01*
X-113773D01*
Y-54534D01*
X-114573D01*
X-113005Y-66745D02*
Y-65145D01*
X-111405D01*
Y-66745D01*
X-113005D01*
X-112605Y-66345D02*
Y-65545D01*
X-111805D01*
Y-66345D01*
X-112605D01*
X-107099Y-66745D02*
Y-65145D01*
X-105499D01*
Y-66745D01*
X-107099D01*
X-106699Y-66345D02*
Y-65545D01*
X-105899D01*
Y-66345D01*
X-106699D01*
X-101194Y-66745D02*
Y-65145D01*
X-99594D01*
Y-66745D01*
X-101194D01*
X-100794Y-66345D02*
Y-65545D01*
X-99994D01*
Y-66345D01*
X-100794D01*
X-95288Y-66745D02*
Y-65145D01*
X-93688D01*
Y-66745D01*
X-95288D01*
X-94888Y-66345D02*
Y-65545D01*
X-94088D01*
Y-66345D01*
X-94888D01*
X-95288Y-54934D02*
Y-53334D01*
X-93688D01*
Y-54934D01*
X-95288D01*
X-94888Y-54534D02*
Y-53734D01*
X-94088D01*
Y-54534D01*
X-94888D01*
X-95288Y-60839D02*
Y-59239D01*
X-93688D01*
Y-60839D01*
X-95288D01*
X-94888Y-60439D02*
Y-59639D01*
X-94088D01*
Y-60439D01*
X-94888D01*
X-88398Y-56902D02*
Y-55302D01*
X-86798D01*
Y-56902D01*
X-88398D01*
X-87998Y-56502D02*
Y-55702D01*
X-87198D01*
Y-56502D01*
X-87998D01*
X-88398Y-52965D02*
Y-51365D01*
X-86798D01*
Y-52965D01*
X-88398D01*
X-87998Y-52565D02*
Y-51765D01*
X-87198D01*
Y-52565D01*
X-87998D01*
X-101194Y-60839D02*
Y-59239D01*
X-99594D01*
Y-60839D01*
X-101194D01*
X-100794Y-60439D02*
Y-59639D01*
X-99994D01*
Y-60439D01*
X-100794D01*
X-101194Y-54934D02*
Y-53334D01*
X-99594D01*
Y-54934D01*
X-101194D01*
X-100794Y-54534D02*
Y-53734D01*
X-99994D01*
Y-54534D01*
X-100794D01*
D84*
X89225Y30886D02*
G03*
X89225Y30886I-800J0D01*
G01*
Y53386D02*
G03*
X89225Y53386I-800J0D01*
G01*
X109225Y30886D02*
G03*
X109225Y30886I-800J0D01*
G01*
Y53386D02*
G03*
X109225Y53386I-800J0D01*
G01*
M02*
