G04*
G04 #@! TF.GenerationSoftware,Altium Limited,Altium Designer,22.2.1 (43)*
G04*
G04 Layer_Color=255*
%FSLAX25Y25*%
%MOIN*%
G70*
G04*
G04 #@! TF.SameCoordinates,6F0AF130-F76F-4113-A5DE-7D687C79F967*
G04*
G04*
G04 #@! TF.FilePolarity,Positive*
G04*
G01*
G75*
%ADD19R,0.03347X0.03150*%
%ADD20R,0.03150X0.03347*%
%ADD21R,0.02362X0.03347*%
%ADD22R,0.21654X0.08465*%
%ADD23R,0.06299X0.10236*%
%ADD24R,0.10236X0.06299*%
%ADD25R,0.03543X0.05906*%
%ADD26R,0.05906X0.03543*%
%ADD27R,0.03543X0.03543*%
%ADD28R,0.03150X0.06890*%
%ADD29R,0.03937X0.05906*%
%ADD30R,0.05906X0.05906*%
%ADD31R,0.03150X0.05906*%
%ADD32R,0.05709X0.03937*%
%ADD33R,0.03150X0.05512*%
%ADD34R,0.03937X0.06102*%
%ADD35R,0.02165X0.03937*%
%ADD36R,0.00984X0.04528*%
%ADD67C,0.03100*%
%ADD70C,0.06890*%
%ADD71R,0.06890X0.06890*%
%ADD72C,0.09350*%
%ADD73C,0.03900*%
%ADD74C,0.05937*%
%ADD75C,0.16598*%
%ADD76R,0.05937X0.05937*%
G04:AMPARAMS|DCode=77|XSize=70.87mil|YSize=39.37mil|CornerRadius=9.84mil|HoleSize=0mil|Usage=FLASHONLY|Rotation=270.000|XOffset=0mil|YOffset=0mil|HoleType=Round|Shape=RoundedRectangle|*
%AMROUNDEDRECTD77*
21,1,0.07087,0.01968,0,0,270.0*
21,1,0.05118,0.03937,0,0,270.0*
1,1,0.01968,-0.00984,-0.02559*
1,1,0.01968,-0.00984,0.02559*
1,1,0.01968,0.00984,0.02559*
1,1,0.01968,0.00984,-0.02559*
%
%ADD77ROUNDEDRECTD77*%
%ADD78O,0.03937X0.08268*%
%ADD79C,0.02362*%
D19*
X77854Y8957D02*
D03*
Y2854D02*
D03*
Y-2854D02*
D03*
Y-8957D02*
D03*
Y-20571D02*
D03*
Y-26673D02*
D03*
Y-32382D02*
D03*
Y-38484D02*
D03*
Y-50098D02*
D03*
Y-56201D02*
D03*
Y-61910D02*
D03*
Y-68012D02*
D03*
X34744Y49016D02*
D03*
Y55118D02*
D03*
X14272D02*
D03*
Y49016D02*
D03*
X9154Y26181D02*
D03*
Y32283D02*
D03*
X2854Y26181D02*
D03*
Y32283D02*
D03*
X4724Y111516D02*
D03*
Y117618D02*
D03*
X51279Y-59941D02*
D03*
Y-66043D02*
D03*
X-55118Y71752D02*
D03*
Y77854D02*
D03*
X68996Y-66043D02*
D03*
Y-59941D02*
D03*
X57185Y-59941D02*
D03*
Y-66043D02*
D03*
X-36029Y71752D02*
D03*
Y77854D02*
D03*
X-42397Y71752D02*
D03*
Y77854D02*
D03*
X-48766Y71752D02*
D03*
Y77854D02*
D03*
X-10554Y71752D02*
D03*
Y77854D02*
D03*
X-16922Y71752D02*
D03*
Y77854D02*
D03*
X-23291Y71752D02*
D03*
Y77854D02*
D03*
X10925Y-59842D02*
D03*
Y-65945D02*
D03*
X-24508Y-66043D02*
D03*
Y-59941D02*
D03*
X5020Y-66043D02*
D03*
Y-59941D02*
D03*
X-886Y-66043D02*
D03*
Y-59941D02*
D03*
X-6791Y-66043D02*
D03*
Y-59941D02*
D03*
X-12697Y-66043D02*
D03*
Y-59941D02*
D03*
X-18602Y-66043D02*
D03*
Y-59941D02*
D03*
X63090Y-66043D02*
D03*
Y-59941D02*
D03*
X21752Y-66043D02*
D03*
Y-59941D02*
D03*
X45374Y-66043D02*
D03*
Y-59941D02*
D03*
X39469Y-66043D02*
D03*
Y-59941D02*
D03*
X33563Y-66043D02*
D03*
Y-59941D02*
D03*
X27559Y-66043D02*
D03*
Y-59941D02*
D03*
X-35335D02*
D03*
Y-66043D02*
D03*
X-70768D02*
D03*
Y-59941D02*
D03*
X-82677Y-59941D02*
D03*
Y-66043D02*
D03*
X-41240Y-66043D02*
D03*
Y-59941D02*
D03*
X-47146Y-66043D02*
D03*
Y-59941D02*
D03*
X-53051Y-66043D02*
D03*
Y-59941D02*
D03*
X-58957Y-66043D02*
D03*
Y-59941D02*
D03*
X-64862Y-66043D02*
D03*
Y-59941D02*
D03*
X50000Y117618D02*
D03*
Y111516D02*
D03*
X-29660Y71752D02*
D03*
Y77854D02*
D03*
X-76772Y-66043D02*
D03*
Y-59941D02*
D03*
X37402Y91240D02*
D03*
Y85138D02*
D03*
D20*
X-3150Y0D02*
D03*
X2953D02*
D03*
X15650D02*
D03*
X9547D02*
D03*
X21654Y-71850D02*
D03*
X27756D02*
D03*
X33465D02*
D03*
X39567D02*
D03*
X16929Y-71850D02*
D03*
X10827D02*
D03*
X5118D02*
D03*
X-984D02*
D03*
X-6693D02*
D03*
X-12795D02*
D03*
X-18504D02*
D03*
X-24606D02*
D03*
X63189Y-71850D02*
D03*
X57087D02*
D03*
X51378D02*
D03*
X45276D02*
D03*
X-21752Y48031D02*
D03*
X-27854D02*
D03*
Y42126D02*
D03*
X-21752D02*
D03*
X-29331Y-71850D02*
D03*
X-35433D02*
D03*
X-41142D02*
D03*
X-47244D02*
D03*
X-52953D02*
D03*
X-59055D02*
D03*
X-64764D02*
D03*
X-70866D02*
D03*
X7579Y94882D02*
D03*
X13681D02*
D03*
X-93602Y-47244D02*
D03*
X-87500D02*
D03*
X-93602Y-41339D02*
D03*
X-87500D02*
D03*
X13681Y88976D02*
D03*
X7579D02*
D03*
Y100787D02*
D03*
X13681D02*
D03*
D21*
X31102Y83169D02*
D03*
X27362D02*
D03*
X23622D02*
D03*
Y93209D02*
D03*
X27362D02*
D03*
X31102D02*
D03*
X28248Y47047D02*
D03*
X24508D02*
D03*
X20768D02*
D03*
Y57087D02*
D03*
X24508D02*
D03*
X28248D02*
D03*
D22*
X24508Y36890D02*
D03*
Y21732D02*
D03*
D23*
X-107283Y-42126D02*
D03*
Y-56299D02*
D03*
D24*
X-394Y74803D02*
D03*
X13780D02*
D03*
D25*
X-92756Y-34449D02*
D03*
X-87756D02*
D03*
X-82756D02*
D03*
X-77756D02*
D03*
X-72756D02*
D03*
X-67756D02*
D03*
X-62756D02*
D03*
X-57756D02*
D03*
X-52756D02*
D03*
X-47756D02*
D03*
X-42756D02*
D03*
X-37756D02*
D03*
X-32756D02*
D03*
X-27756D02*
D03*
Y34449D02*
D03*
X-32756D02*
D03*
X-37756D02*
D03*
X-42756D02*
D03*
X-47756D02*
D03*
X-52756D02*
D03*
X-57756D02*
D03*
X-62756D02*
D03*
X-67756D02*
D03*
X-72756D02*
D03*
X-77756D02*
D03*
X-82756D02*
D03*
X-87756D02*
D03*
X-92756D02*
D03*
D26*
X-22835Y-27500D02*
D03*
Y-22500D02*
D03*
Y-17500D02*
D03*
Y-12500D02*
D03*
Y-7500D02*
D03*
Y-2500D02*
D03*
Y2500D02*
D03*
Y7500D02*
D03*
Y12500D02*
D03*
Y17500D02*
D03*
Y22500D02*
D03*
Y27500D02*
D03*
D27*
X-62362Y-5906D02*
D03*
X-67874D02*
D03*
Y-11417D02*
D03*
X-62362D02*
D03*
X-56850D02*
D03*
Y-5906D02*
D03*
Y-394D02*
D03*
X-62362D02*
D03*
X-67874D02*
D03*
D28*
X-43406Y91732D02*
D03*
X-39075D02*
D03*
X-34744D02*
D03*
X-30413D02*
D03*
X-26083D02*
D03*
X-21752D02*
D03*
X-17421D02*
D03*
X-13091D02*
D03*
D29*
X-48130Y92224D02*
D03*
D30*
X-3445D02*
D03*
D31*
X-49114Y122146D02*
D03*
D32*
X-47835Y128051D02*
D03*
D33*
X-2067Y124705D02*
D03*
D34*
X-3642Y134252D02*
D03*
D35*
X39961Y109232D02*
D03*
X14764D02*
D03*
X36811D02*
D03*
X17913D02*
D03*
D36*
X26378D02*
D03*
X28346D02*
D03*
X24409D02*
D03*
X22441D02*
D03*
X20472D02*
D03*
X30315D02*
D03*
X32283D02*
D03*
X34252D02*
D03*
D67*
X100925Y48386D02*
D03*
Y43386D02*
D03*
Y38386D02*
D03*
Y33386D02*
D03*
Y28386D02*
D03*
X95925D02*
D03*
Y33386D02*
D03*
Y38386D02*
D03*
Y43386D02*
D03*
Y48386D02*
D03*
D70*
X98425Y-59252D02*
D03*
X88425D02*
D03*
X98425Y0D02*
D03*
X88425D02*
D03*
X98425Y-29626D02*
D03*
X88425D02*
D03*
D71*
X108425Y-59252D02*
D03*
Y0D02*
D03*
Y-29626D02*
D03*
D72*
X88425Y30886D02*
D03*
Y53386D02*
D03*
X108425Y30886D02*
D03*
Y53386D02*
D03*
D73*
X94429Y23386D02*
D03*
X102421D02*
D03*
X98425Y53386D02*
D03*
D74*
X-18937Y-103839D02*
D03*
X-9961D02*
D03*
X-984D02*
D03*
X7992D02*
D03*
X16969D02*
D03*
X-14449Y-93839D02*
D03*
X-5472D02*
D03*
X3504D02*
D03*
X12480D02*
D03*
X21457D02*
D03*
X-18937Y-83839D02*
D03*
X-9961D02*
D03*
X-984D02*
D03*
X7992D02*
D03*
D75*
X49213Y-93839D02*
D03*
X-49173D02*
D03*
D76*
X16969Y-83839D02*
D03*
D77*
X44370Y127953D02*
D03*
X10354D02*
D03*
D78*
X44370Y111496D02*
D03*
X10354D02*
D03*
D79*
X15984Y113465D02*
D03*
X38740D02*
D03*
M02*
