G04*
G04 #@! TF.GenerationSoftware,Altium Limited,Altium Designer,22.2.1 (43)*
G04*
G04 Layer_Physical_Order=1*
G04 Layer_Color=255*
%FSLAX25Y25*%
%MOIN*%
G70*
G04*
G04 #@! TF.SameCoordinates,854AD7C7-718E-4D2E-BE00-AD7F3FE1A44B*
G04*
G04*
G04 #@! TF.FilePolarity,Positive*
G04*
G01*
G75*
%ADD15C,0.01968*%
%ADD17C,0.01000*%
%ADD19R,0.03347X0.03150*%
%ADD20R,0.03150X0.03347*%
%ADD21R,0.02362X0.03347*%
%ADD22R,0.21654X0.08465*%
%ADD23R,0.06299X0.10236*%
%ADD24R,0.10236X0.06299*%
%ADD25R,0.03543X0.05906*%
%ADD26R,0.05906X0.03543*%
%ADD27R,0.03543X0.03543*%
%ADD28R,0.03150X0.06890*%
%ADD29R,0.03937X0.05906*%
%ADD30R,0.05906X0.05906*%
%ADD31R,0.03150X0.05906*%
%ADD32R,0.05709X0.03937*%
%ADD33R,0.03150X0.05512*%
%ADD34R,0.03937X0.06102*%
%ADD35R,0.02165X0.03937*%
%ADD36R,0.00984X0.04528*%
%ADD67C,0.03100*%
%ADD68C,0.02000*%
%ADD69C,0.02362*%
%ADD70C,0.06890*%
%ADD71R,0.06890X0.06890*%
%ADD72C,0.09350*%
%ADD73C,0.03900*%
%ADD74C,0.05937*%
%ADD75C,0.16598*%
%ADD76R,0.05937X0.05937*%
G04:AMPARAMS|DCode=77|XSize=70.87mil|YSize=39.37mil|CornerRadius=9.84mil|HoleSize=0mil|Usage=FLASHONLY|Rotation=270.000|XOffset=0mil|YOffset=0mil|HoleType=Round|Shape=RoundedRectangle|*
%AMROUNDEDRECTD77*
21,1,0.07087,0.01968,0,0,270.0*
21,1,0.05118,0.03937,0,0,270.0*
1,1,0.01968,-0.00984,-0.02559*
1,1,0.01968,-0.00984,0.02559*
1,1,0.01968,0.00984,0.02559*
1,1,0.01968,0.00984,-0.02559*
%
%ADD77ROUNDEDRECTD77*%
%ADD78O,0.03937X0.08268*%
%ADD79C,0.02362*%
%ADD80C,0.02559*%
G36*
X184206Y228291D02*
X188572Y227775D01*
X192885Y226917D01*
X197116Y225723D01*
X201241Y224201D01*
X205235Y222361D01*
X209071Y220212D01*
X212726Y217770D01*
X216179Y215048D01*
X219408Y212063D01*
X222393Y208834D01*
X225115Y205381D01*
X227557Y201726D01*
X229706Y197889D01*
X231546Y193896D01*
X233068Y189771D01*
X234262Y185540D01*
X235120Y181227D01*
X235636Y176861D01*
X235809Y172468D01*
X235636Y168074D01*
X235120Y163708D01*
X234262Y159396D01*
X233068Y155164D01*
X232392Y153330D01*
D01*
X232217Y152865D01*
X230199Y148568D01*
X227206Y141341D01*
X224550Y133984D01*
X222236Y126512D01*
X220270Y118941D01*
X218655Y111288D01*
X217396Y103568D01*
X216494Y95798D01*
X215953Y87995D01*
X215772Y80176D01*
X215798D01*
Y-80176D01*
X215798Y-80176D01*
X215772D01*
X215953Y-87995D01*
X216494Y-95798D01*
X217396Y-103568D01*
X218655Y-111288D01*
X220270Y-118941D01*
X222236Y-126512D01*
X224550Y-133984D01*
X227206Y-141341D01*
X230199Y-148568D01*
X232217Y-152865D01*
X232392Y-153330D01*
D01*
X233068Y-155164D01*
X234262Y-159396D01*
X235120Y-163708D01*
X235636Y-168074D01*
X235809Y-172468D01*
X235636Y-176861D01*
X235120Y-181228D01*
X234262Y-185540D01*
X233068Y-189771D01*
X231546Y-193897D01*
X229706Y-197889D01*
X227557Y-201726D01*
X225115Y-205381D01*
X222393Y-208834D01*
X219408Y-212063D01*
X216179Y-215048D01*
X212726Y-217770D01*
X209071Y-220212D01*
X205235Y-222361D01*
X201241Y-224201D01*
X197116Y-225723D01*
X192885Y-226917D01*
X188572Y-227775D01*
X184206Y-228291D01*
X179813Y-228464D01*
X175419Y-228291D01*
X171053Y-227775D01*
X166741Y-226917D01*
X162509Y-225723D01*
X158384Y-224201D01*
X154391Y-222361D01*
X150555Y-220212D01*
X146899Y-217770D01*
X143446Y-215048D01*
X140257Y-212100D01*
X140226Y-212054D01*
X84833Y-156661D01*
X84766Y-156616D01*
X82368Y-154383D01*
X78599Y-151346D01*
X74624Y-148586D01*
X70461Y-146116D01*
X66133Y-143950D01*
X61661Y-142097D01*
X57069Y-140569D01*
X52379Y-139372D01*
X47616Y-138513D01*
X42804Y-137995D01*
X37967Y-137823D01*
Y-137846D01*
X-38164D01*
Y-137823D01*
X-43001Y-137995D01*
X-47813Y-138513D01*
X-52576Y-139372D01*
X-57266Y-140569D01*
X-61858Y-142097D01*
X-66330Y-143950D01*
X-70658Y-146116D01*
X-74821Y-148586D01*
X-78796Y-151346D01*
X-82565Y-154383D01*
X-84963Y-156616D01*
X-85030Y-156661D01*
X-140423Y-212054D01*
X-140454Y-212100D01*
X-143643Y-215048D01*
X-147096Y-217770D01*
X-150751Y-220212D01*
X-154588Y-222361D01*
X-158581Y-224201D01*
X-162706Y-225723D01*
X-166937Y-226917D01*
X-171250Y-227775D01*
X-175616Y-228291D01*
X-180009Y-228464D01*
X-184403Y-228291D01*
X-188769Y-227775D01*
X-193082Y-226917D01*
X-197313Y-225723D01*
X-201438Y-224201D01*
X-205431Y-222361D01*
X-209267Y-220212D01*
X-212923Y-217770D01*
X-216376Y-215048D01*
X-219605Y-212063D01*
X-222589Y-208834D01*
X-225311Y-205381D01*
X-227754Y-201726D01*
X-229903Y-197889D01*
X-231743Y-193897D01*
X-233265Y-189771D01*
X-234459Y-185540D01*
X-235316Y-181228D01*
X-235833Y-176861D01*
X-236006Y-172468D01*
X-235833Y-168074D01*
X-235316Y-163708D01*
X-234459Y-159396D01*
X-233265Y-155164D01*
X-232589Y-153330D01*
D01*
X-232413Y-152865D01*
X-230396Y-148568D01*
X-227403Y-141341D01*
X-224746Y-133984D01*
X-222433Y-126512D01*
X-220466Y-118941D01*
X-218852Y-111288D01*
X-217593Y-103568D01*
X-216691Y-95798D01*
X-216150Y-87995D01*
X-215969Y-80176D01*
X-215995D01*
X-215995Y-80176D01*
Y80176D01*
X-215969D01*
X-216150Y87995D01*
X-216691Y95798D01*
X-217593Y103568D01*
X-218852Y111288D01*
X-220466Y118941D01*
X-222433Y126512D01*
X-224746Y133984D01*
X-227403Y141341D01*
X-230396Y148568D01*
X-232413Y152865D01*
X-232589Y153330D01*
D01*
X-233265Y155164D01*
X-234459Y159396D01*
X-235316Y163708D01*
X-235833Y168074D01*
X-236006Y172468D01*
X-235833Y176861D01*
X-235316Y181227D01*
X-234459Y185540D01*
X-233265Y189771D01*
X-231743Y193896D01*
X-229903Y197889D01*
X-227754Y201726D01*
X-225311Y205381D01*
X-222589Y208834D01*
X-219605Y212063D01*
X-216376Y215048D01*
X-212923Y217770D01*
X-209267Y220212D01*
X-205431Y222361D01*
X-201438Y224201D01*
X-197313Y225723D01*
X-193082Y226917D01*
X-188769Y227775D01*
X-184403Y228291D01*
X-180009Y228464D01*
X-175616Y228291D01*
X-171250Y227775D01*
X-166937Y226917D01*
X-162706Y225723D01*
X-158581Y224201D01*
X-154588Y222361D01*
X-150751Y220212D01*
X-147096Y217770D01*
X-143643Y215048D01*
X-140454Y212099D01*
X-140423Y212054D01*
X-85030Y156661D01*
X-84963Y156616D01*
X-82565Y154383D01*
X-78796Y151346D01*
X-74821Y148586D01*
X-70658Y146116D01*
X-66330Y143950D01*
X-61858Y142097D01*
X-57266Y140569D01*
X-52576Y139372D01*
X-47813Y138513D01*
X-43001Y137995D01*
X-38164Y137822D01*
Y137846D01*
X-6592D01*
X-6110Y137803D01*
X-6110Y137346D01*
Y135272D01*
X-6693D01*
X-7083Y135194D01*
X-7414Y134973D01*
X-8723Y133663D01*
X-8944Y133333D01*
X-9022Y132942D01*
Y110136D01*
X-10265Y108894D01*
X-52756D01*
X-53146Y108816D01*
X-53477Y108595D01*
X-60170Y101902D01*
X-60391Y101571D01*
X-60468Y101181D01*
Y72539D01*
X-60391Y72149D01*
X-60170Y71818D01*
X-59382Y71031D01*
X-59052Y70810D01*
X-58661Y70732D01*
X-57291D01*
Y69677D01*
X-56236D01*
Y66458D01*
X-56725Y65969D01*
X-56996Y65315D01*
Y64607D01*
X-56725Y63953D01*
X-56225Y63452D01*
X-55571Y63181D01*
X-54863D01*
X-54208Y63452D01*
X-53708Y63953D01*
X-53437Y64607D01*
Y65315D01*
X-53708Y65969D01*
X-54197Y66458D01*
Y69677D01*
X-52945D01*
Y73827D01*
X-57291D01*
Y72772D01*
X-58239D01*
X-58429Y72962D01*
Y100759D01*
X-52334Y106854D01*
X-9843D01*
X-9452Y106932D01*
X-9122Y107153D01*
X-7281Y108993D01*
X-7060Y109324D01*
X-6983Y109714D01*
Y132520D01*
X-6610Y132893D01*
X-6110Y132686D01*
Y130701D01*
X-1173D01*
X-1173Y137803D01*
X-691Y137846D01*
X37967D01*
Y137822D01*
X42804Y137995D01*
X47616Y138513D01*
X52379Y139372D01*
X57069Y140569D01*
X61661Y142097D01*
X66133Y143950D01*
X70461Y146116D01*
X74624Y148586D01*
X78599Y151346D01*
X82368Y154383D01*
X84766Y156616D01*
X84833Y156661D01*
X140226Y212054D01*
X140257Y212099D01*
X143446Y215048D01*
X146899Y217770D01*
X150555Y220212D01*
X154391Y222361D01*
X158384Y224201D01*
X162509Y225723D01*
X166741Y226917D01*
X171053Y227775D01*
X175419Y228291D01*
X179813Y228464D01*
X184206Y228291D01*
D02*
G37*
%LPC*%
G36*
X196752Y205767D02*
X195012Y205596D01*
X193340Y205089D01*
X191798Y204265D01*
X190447Y203156D01*
X189338Y201804D01*
X188514Y200263D01*
X188006Y198590D01*
X187835Y196850D01*
X188006Y195111D01*
X188514Y193438D01*
X189338Y191896D01*
X190447Y190545D01*
X191798Y189436D01*
X193340Y188612D01*
X195012Y188105D01*
X196752Y187933D01*
X198492Y188105D01*
X200164Y188612D01*
X201706Y189436D01*
X203057Y190545D01*
X204166Y191896D01*
X204990Y193438D01*
X205498Y195111D01*
X205669Y196850D01*
X205498Y198590D01*
X204990Y200263D01*
X204166Y201804D01*
X203057Y203156D01*
X201706Y204265D01*
X200164Y205089D01*
X198492Y205596D01*
X196752Y205767D01*
D02*
G37*
G36*
X-196949D02*
X-198688Y205596D01*
X-200361Y205089D01*
X-201903Y204265D01*
X-203254Y203156D01*
X-204363Y201804D01*
X-205187Y200263D01*
X-205694Y198590D01*
X-205866Y196850D01*
X-205694Y195111D01*
X-205187Y193438D01*
X-204363Y191896D01*
X-203254Y190545D01*
X-201903Y189436D01*
X-200361Y188612D01*
X-198688Y188105D01*
X-196949Y187933D01*
X-195209Y188105D01*
X-193536Y188612D01*
X-191995Y189436D01*
X-190644Y190545D01*
X-189535Y191896D01*
X-188711Y193438D01*
X-188203Y195111D01*
X-188032Y196850D01*
X-188203Y198590D01*
X-188711Y200263D01*
X-189535Y201804D01*
X-190644Y203156D01*
X-191995Y204265D01*
X-193536Y205089D01*
X-195209Y205596D01*
X-196949Y205767D01*
D02*
G37*
G36*
X-44480Y130520D02*
X-47585D01*
Y128301D01*
X-44480D01*
Y130520D01*
D02*
G37*
G36*
X-48085D02*
X-51189D01*
Y128301D01*
X-48085D01*
Y130520D01*
D02*
G37*
G36*
X11339Y132025D02*
X10604D01*
Y128203D01*
X12852D01*
Y130512D01*
X12737Y131091D01*
X12409Y131582D01*
X11918Y131910D01*
X11339Y132025D01*
D02*
G37*
G36*
X10104D02*
X9370D01*
X8791Y131910D01*
X8300Y131582D01*
X7972Y131091D01*
X7857Y130512D01*
Y128203D01*
X10104D01*
Y132025D01*
D02*
G37*
G36*
X45354D02*
X44620D01*
Y128203D01*
X46868D01*
Y130512D01*
X46752Y131091D01*
X46424Y131582D01*
X45933Y131910D01*
X45354Y132025D01*
D02*
G37*
G36*
X44120D02*
X43386D01*
X42807Y131910D01*
X42316Y131582D01*
X41988Y131091D01*
X41873Y130512D01*
Y128203D01*
X44120D01*
Y132025D01*
D02*
G37*
G36*
X-23524Y135876D02*
X-33366D01*
X-33749Y135717D01*
X-33907Y135335D01*
Y127461D01*
X-33749Y127078D01*
X-33366Y126919D01*
X-23524D01*
X-23141Y127078D01*
X-22982Y127461D01*
Y135335D01*
X-23141Y135717D01*
X-23524Y135876D01*
D02*
G37*
G36*
X8Y127961D02*
X-1817D01*
Y124955D01*
X8D01*
Y127961D01*
D02*
G37*
G36*
X-2317D02*
X-4142D01*
Y124955D01*
X-2317D01*
Y127961D01*
D02*
G37*
G36*
X46868Y127703D02*
X44620D01*
Y123880D01*
X45354D01*
X45933Y123996D01*
X46424Y124324D01*
X46752Y124815D01*
X46868Y125394D01*
Y127703D01*
D02*
G37*
G36*
X44120D02*
X41873D01*
Y125394D01*
X41988Y124815D01*
X42316Y124324D01*
X42807Y123996D01*
X43386Y123880D01*
X44120D01*
Y127703D01*
D02*
G37*
G36*
X12852Y127703D02*
X10604D01*
Y123880D01*
X11339D01*
X11918Y123996D01*
X12409Y124324D01*
X12737Y124815D01*
X12852Y125394D01*
Y127703D01*
D02*
G37*
G36*
X10104D02*
X7857D01*
Y125394D01*
X7972Y124815D01*
X8300Y124324D01*
X8791Y123996D01*
X9370Y123880D01*
X10104D01*
Y127703D01*
D02*
G37*
G36*
X-44480Y127801D02*
X-47835D01*
X-51189D01*
Y125583D01*
Y122396D01*
X-47039D01*
Y125583D01*
X-44480D01*
Y127801D01*
D02*
G37*
G36*
X8Y124455D02*
X-1817D01*
Y121449D01*
X8D01*
Y124455D01*
D02*
G37*
G36*
X-2317D02*
X-4142D01*
Y121449D01*
X-2317D01*
Y124455D01*
D02*
G37*
G36*
X175670Y121386D02*
X175657Y121384D01*
X175645Y121386D01*
X175429Y121377D01*
X175416Y121374D01*
X175404Y121376D01*
X175265Y121337D01*
X175124Y121303D01*
X175114Y121296D01*
X175102Y121292D01*
X174909Y121195D01*
X174898Y121188D01*
X174886Y121184D01*
X174775Y121092D01*
X174661Y121003D01*
X174655Y120992D01*
X174645Y120984D01*
X174603Y120932D01*
X139895Y86224D01*
X139894Y86222D01*
X139892Y86221D01*
X139890Y86219D01*
X139888Y86216D01*
X139885Y86214D01*
X139883Y86212D01*
X139881Y86209D01*
X139879Y86207D01*
X139876Y86205D01*
X139874Y86202D01*
X139872Y86200D01*
X138393Y84650D01*
X138379Y84628D01*
X138359Y84612D01*
X135603Y81330D01*
X135591Y81307D01*
X135572Y81290D01*
X133030Y77839D01*
X133019Y77816D01*
X133001Y77797D01*
X130683Y74193D01*
X130674Y74168D01*
X130657Y74149D01*
X128573Y70404D01*
X128565Y70380D01*
X128549Y70359D01*
X126707Y66490D01*
X126700Y66465D01*
X126686Y66443D01*
X125093Y62465D01*
X125088Y62439D01*
X125076Y62417D01*
X123738Y58346D01*
X123735Y58320D01*
X123723Y58297D01*
X122647Y54149D01*
X122645Y54123D01*
X122636Y54099D01*
X121824Y49891D01*
X121824Y49865D01*
X121816Y49841D01*
X121273Y45590D01*
X121275Y45564D01*
X121269Y45539D01*
X120997Y41262D01*
X121000Y41236D01*
X120995Y41211D01*
Y39068D01*
X120995Y39068D01*
Y35201D01*
X120495Y35049D01*
X120415Y35169D01*
X116477Y39107D01*
X116147Y39328D01*
X115756Y39405D01*
X102722D01*
X102663Y39547D01*
X102086Y40124D01*
X101466Y40380D01*
Y41391D01*
X102086Y41648D01*
X102663Y42225D01*
X102975Y42978D01*
Y43794D01*
X102914Y43942D01*
X103256Y44284D01*
X103897D01*
X104551Y44554D01*
X105052Y45055D01*
X105323Y45709D01*
Y46417D01*
X105052Y47071D01*
X104551Y47572D01*
X103897Y47842D01*
X103437D01*
X103149Y47927D01*
X102975Y48295D01*
Y48794D01*
X102663Y49547D01*
X102086Y50124D01*
X101333Y50436D01*
X100517D01*
X99764Y50124D01*
X99187Y49547D01*
X98931Y48927D01*
X97920D01*
X97663Y49547D01*
X97086Y50124D01*
X96333Y50436D01*
X95517D01*
X94764Y50124D01*
X94187Y49547D01*
X93875Y48794D01*
Y47978D01*
X93879Y47970D01*
X92991Y47083D01*
X90867D01*
X90422Y47528D01*
X90427Y47782D01*
X90494Y48065D01*
X90616Y48098D01*
X91910Y48845D01*
X92966Y49901D01*
X93713Y51195D01*
X94100Y52639D01*
Y54133D01*
X93713Y55576D01*
X92966Y56870D01*
X91910Y57927D01*
X90616Y58674D01*
X89172Y59061D01*
X87678D01*
X86235Y58674D01*
X84941Y57927D01*
X83884Y56870D01*
X83137Y55576D01*
X82750Y54133D01*
Y52639D01*
X83137Y51195D01*
X83884Y49901D01*
X84941Y48845D01*
X86235Y48098D01*
X87678Y47711D01*
X87794D01*
X88001Y47211D01*
X87862Y47071D01*
X87590Y46417D01*
Y45709D01*
X87862Y45055D01*
X88362Y44554D01*
X89016Y44284D01*
X89724D01*
X90096Y43896D01*
X90031Y43740D01*
Y43032D01*
X90302Y42378D01*
X90803Y41877D01*
X91457Y41606D01*
X92165D01*
X92819Y41877D01*
X93308Y42366D01*
X94129D01*
X94187Y42225D01*
X94764Y41648D01*
X95384Y41391D01*
Y40380D01*
X94764Y40124D01*
X94187Y39547D01*
X94129Y39405D01*
X93308D01*
X92819Y39894D01*
X92165Y40165D01*
X91457D01*
X90803Y39894D01*
X90302Y39394D01*
X90031Y38740D01*
Y38032D01*
X90302Y37378D01*
X90803Y36877D01*
X91457Y36606D01*
X92165D01*
X92819Y36877D01*
X93308Y37366D01*
X94129D01*
X94187Y37225D01*
X94764Y36648D01*
X95384Y36391D01*
Y34937D01*
X95459Y34757D01*
X95525Y34573D01*
X95537Y34567D01*
X95543Y34554D01*
X95723Y34480D01*
X95899Y34396D01*
X95982Y34392D01*
X96035Y34390D01*
X96078Y34384D01*
X96129Y34373D01*
X96183Y34360D01*
X96246Y34341D01*
X96293Y34326D01*
X96334Y34309D01*
X96382Y34286D01*
X96422Y34264D01*
X96474Y34231D01*
X96474D01*
X96474Y34231D01*
X96523Y34199D01*
X96560Y34171D01*
X96592Y34143D01*
X96637Y34098D01*
X96682Y34052D01*
X96710Y34020D01*
X96738Y33983D01*
X96770Y33934D01*
X96770Y33934D01*
X96770Y33934D01*
X96803Y33883D01*
X96825Y33843D01*
X96848Y33795D01*
X96865Y33754D01*
X96880Y33707D01*
X96899Y33644D01*
X96913Y33590D01*
X96923Y33538D01*
X96929Y33495D01*
X96932Y33442D01*
X96934Y33398D01*
Y33374D01*
X96932Y33330D01*
X96932Y33330D01*
X96929Y33276D01*
X96923Y33233D01*
X96913Y33182D01*
X96899Y33128D01*
X96880Y33065D01*
X96865Y33018D01*
X96848Y32977D01*
X96825Y32929D01*
X96803Y32889D01*
X96770Y32837D01*
Y32837D01*
X96770Y32837D01*
X96738Y32788D01*
X96710Y32751D01*
X96682Y32719D01*
X96637Y32674D01*
X96592Y32629D01*
X96560Y32601D01*
X96523Y32573D01*
X96474Y32541D01*
X96474Y32541D01*
X96474Y32541D01*
X96422Y32508D01*
X96382Y32486D01*
X96334Y32463D01*
X96293Y32445D01*
X96246Y32431D01*
X96183Y32412D01*
X96129Y32398D01*
X96078Y32388D01*
X96035Y32382D01*
X95982Y32379D01*
X95899Y32375D01*
X95723Y32292D01*
X95543Y32217D01*
X95537Y32205D01*
X95525Y32199D01*
X95459Y32015D01*
X95384Y31835D01*
Y29937D01*
X95459Y29757D01*
X95525Y29573D01*
X95537Y29567D01*
X95543Y29554D01*
X95723Y29480D01*
X95899Y29396D01*
X95982Y29392D01*
X96035Y29390D01*
X96078Y29384D01*
X96129Y29373D01*
X96183Y29360D01*
X96246Y29341D01*
X96293Y29326D01*
X96334Y29309D01*
X96382Y29286D01*
X96422Y29264D01*
X96474Y29231D01*
X96474D01*
X96474Y29231D01*
X96523Y29199D01*
X96560Y29171D01*
X96592Y29143D01*
X96637Y29098D01*
X96682Y29052D01*
X96710Y29020D01*
X96738Y28983D01*
X96770Y28934D01*
X96770Y28934D01*
X96770Y28934D01*
X96803Y28883D01*
X96825Y28843D01*
X96848Y28795D01*
X96865Y28754D01*
X96880Y28707D01*
X96899Y28644D01*
X96913Y28590D01*
X96923Y28539D01*
X96929Y28495D01*
X96932Y28442D01*
X96934Y28398D01*
Y28386D01*
X96935Y28384D01*
X96936Y28360D01*
X97009Y28204D01*
X97092Y28003D01*
X97107Y27997D01*
X97112Y27985D01*
X97287Y27922D01*
X97475Y27845D01*
X99375D01*
X99375Y27845D01*
X99375Y27845D01*
X99563Y27923D01*
X99738Y27985D01*
X99744Y27997D01*
X99758Y28003D01*
X99758Y28003D01*
X99758Y28003D01*
X99841Y28204D01*
X99915Y28360D01*
X99916Y28384D01*
X99916Y28386D01*
Y28398D01*
X99919Y28442D01*
X99919Y28442D01*
X99921Y28495D01*
X99927Y28539D01*
X99938Y28590D01*
X99951Y28644D01*
X99970Y28707D01*
X99985Y28754D01*
X100002Y28795D01*
X100025Y28843D01*
X100047Y28883D01*
X100080Y28934D01*
Y28934D01*
X100080Y28934D01*
X100112Y28983D01*
X100140Y29020D01*
X100168Y29052D01*
X100213Y29098D01*
X100259Y29143D01*
X100291Y29171D01*
X100328Y29199D01*
X100377Y29231D01*
X100377Y29231D01*
X100377Y29231D01*
X100428Y29264D01*
X100468Y29286D01*
X100516Y29309D01*
X100557Y29326D01*
X100604Y29341D01*
X100667Y29360D01*
X100721Y29373D01*
X100773Y29384D01*
X100816Y29390D01*
X100869Y29392D01*
X100951Y29396D01*
X101128Y29480D01*
X101308Y29554D01*
X101313Y29567D01*
X101326Y29573D01*
X101392Y29757D01*
X101466Y29937D01*
Y31835D01*
X101392Y32015D01*
X101326Y32199D01*
X101313Y32205D01*
X101308Y32217D01*
X101128Y32292D01*
X100951Y32375D01*
X100869Y32379D01*
X100816Y32382D01*
X100773Y32388D01*
X100721Y32398D01*
X100667Y32412D01*
X100604Y32431D01*
X100557Y32445D01*
X100516Y32463D01*
X100468Y32486D01*
X100428Y32508D01*
X100377Y32541D01*
X100377D01*
X100377Y32541D01*
X100328Y32573D01*
X100291Y32601D01*
X100259Y32629D01*
X100213Y32674D01*
X100168Y32719D01*
X100140Y32751D01*
X100112Y32788D01*
X100080Y32837D01*
X100080Y32837D01*
X100080Y32837D01*
X100047Y32889D01*
X100025Y32929D01*
X100002Y32977D01*
X99985Y33018D01*
X99970Y33065D01*
X99951Y33128D01*
X99938Y33182D01*
X99927Y33233D01*
X99921Y33276D01*
X99919Y33329D01*
X99916Y33374D01*
Y33398D01*
X99919Y33441D01*
X99919Y33441D01*
X99921Y33495D01*
X99927Y33538D01*
X99938Y33590D01*
X99951Y33644D01*
X99970Y33707D01*
X99985Y33754D01*
X100002Y33795D01*
X100025Y33843D01*
X100047Y33883D01*
X100080Y33934D01*
Y33934D01*
X100080Y33934D01*
X100112Y33983D01*
X100140Y34020D01*
X100168Y34052D01*
X100213Y34098D01*
X100259Y34143D01*
X100291Y34171D01*
X100328Y34199D01*
X100377Y34231D01*
X100377Y34231D01*
X100377Y34231D01*
X100428Y34264D01*
X100468Y34286D01*
X100516Y34309D01*
X100557Y34326D01*
X100604Y34341D01*
X100667Y34360D01*
X100721Y34373D01*
X100773Y34384D01*
X100816Y34390D01*
X100869Y34392D01*
X100951Y34396D01*
X101128Y34480D01*
X101308Y34554D01*
X101313Y34567D01*
X101326Y34573D01*
X101392Y34757D01*
X101466Y34937D01*
Y36391D01*
X102086Y36648D01*
X102663Y37225D01*
X102722Y37366D01*
X115334D01*
X118674Y34026D01*
Y22478D01*
X115326Y19130D01*
X84674D01*
X83004Y20800D01*
X82674Y21021D01*
X82284Y21098D01*
X53072D01*
X52583Y21587D01*
X51929Y21858D01*
X51221D01*
X50567Y21587D01*
X50066Y21087D01*
X49795Y20433D01*
Y19725D01*
X50066Y19071D01*
X50567Y18570D01*
X51221Y18299D01*
X51929D01*
X52583Y18570D01*
X53072Y19059D01*
X81861D01*
X83531Y17389D01*
X83862Y17168D01*
X84252Y17091D01*
X115748D01*
X116138Y17168D01*
X116469Y17389D01*
X120415Y21335D01*
X120495Y21455D01*
X120995Y21304D01*
X120995Y-39088D01*
X120995Y-39092D01*
X120996Y-39098D01*
X120995Y-39104D01*
X120995Y-39110D01*
X120996Y-39115D01*
X120996Y-39118D01*
Y-39120D01*
X120995Y-39122D01*
X120996Y-39128D01*
X120996Y-39129D01*
X120999Y-41249D01*
X121004Y-41274D01*
X121001Y-41300D01*
X121277Y-45554D01*
X121284Y-45579D01*
X121282Y-45604D01*
X121826Y-49832D01*
X121834Y-49857D01*
X121834Y-49883D01*
X122644Y-54068D01*
X122653Y-54092D01*
X122655Y-54117D01*
X123727Y-58243D01*
X123738Y-58266D01*
X123741Y-58292D01*
X125072Y-62342D01*
X125085Y-62364D01*
X125089Y-62389D01*
X126673Y-66347D01*
X126687Y-66369D01*
X126693Y-66394D01*
X128523Y-70244D01*
X128539Y-70265D01*
X128547Y-70289D01*
X130616Y-74016D01*
X130633Y-74035D01*
X130642Y-74059D01*
X132943Y-77648D01*
X132961Y-77667D01*
X132971Y-77690D01*
X135494Y-81126D01*
X135513Y-81144D01*
X135525Y-81166D01*
X138260Y-84437D01*
X138280Y-84453D01*
X138293Y-84475D01*
X139687Y-85942D01*
X139699Y-85975D01*
X139730Y-86023D01*
X139761Y-86056D01*
X139782Y-86096D01*
X139818Y-86140D01*
X139853Y-86169D01*
X139878Y-86207D01*
X139897Y-86226D01*
X174604Y-120933D01*
X174646Y-120984D01*
X174654Y-120992D01*
X174660Y-121001D01*
X174775Y-121091D01*
X174887Y-121184D01*
X174898Y-121187D01*
X174907Y-121195D01*
X175098Y-121291D01*
X175109Y-121294D01*
X175118Y-121301D01*
X175259Y-121336D01*
X175399Y-121375D01*
X175411Y-121374D01*
X175422Y-121377D01*
X175635Y-121387D01*
X175647Y-121385D01*
X175658Y-121387D01*
X175801Y-121362D01*
X175945Y-121340D01*
X175955Y-121334D01*
X175966Y-121332D01*
X176165Y-121254D01*
X176175Y-121248D01*
X176186Y-121246D01*
X176306Y-121164D01*
X176429Y-121086D01*
X176436Y-121076D01*
X176445Y-121070D01*
X176520Y-120994D01*
X176521Y-120993D01*
X176521Y-120993D01*
X176522Y-120992D01*
X176523Y-120990D01*
X176525Y-120989D01*
X176525Y-120989D01*
X176526Y-120988D01*
X176526Y-120987D01*
X176528Y-120986D01*
X176529Y-120985D01*
X176530Y-120984D01*
X176531Y-120982D01*
X176532Y-120982D01*
X176532Y-120982D01*
X176533Y-120980D01*
X176534Y-120979D01*
X176534Y-120979D01*
X176535Y-120979D01*
X176535Y-120978D01*
X176536Y-120977D01*
X176537Y-120977D01*
X176538Y-120975D01*
X176539Y-120975D01*
X176539Y-120975D01*
X176539Y-120974D01*
X176540Y-120974D01*
X177450Y-120021D01*
X177471Y-119988D01*
X177500Y-119963D01*
X179132Y-117893D01*
X179149Y-117859D01*
X179176Y-117831D01*
X180603Y-115615D01*
X180617Y-115579D01*
X180641Y-115549D01*
X181851Y-113208D01*
X181861Y-113171D01*
X181883Y-113138D01*
X182864Y-110692D01*
X182871Y-110654D01*
X182889Y-110620D01*
X183632Y-108091D01*
X183636Y-108053D01*
X183651Y-108017D01*
X184150Y-105429D01*
X184150Y-105391D01*
X184161Y-105354D01*
X184412Y-102730D01*
X184408Y-102692D01*
X184415Y-102654D01*
Y-101336D01*
X184415Y-101336D01*
X184415Y101335D01*
Y102653D01*
X184407Y102691D01*
X184411Y102730D01*
X184160Y105354D01*
X184149Y105392D01*
X184149Y105430D01*
X183649Y108019D01*
X183635Y108055D01*
X183631Y108093D01*
X182887Y110623D01*
X182869Y110657D01*
X182862Y110695D01*
X181880Y113142D01*
X181859Y113174D01*
X181848Y113212D01*
X180638Y115554D01*
X180614Y115584D01*
X180599Y115620D01*
X179171Y117837D01*
X179144Y117865D01*
X179127Y117899D01*
X177494Y119969D01*
X177465Y119994D01*
X177444Y120027D01*
X176458Y121058D01*
X176447Y121065D01*
X176440Y121076D01*
X176320Y121155D01*
X176201Y121238D01*
X176189Y121240D01*
X176178Y121247D01*
X175978Y121328D01*
X175965Y121330D01*
X175954Y121337D01*
X175812Y121360D01*
X175670Y121386D01*
D02*
G37*
G36*
X-47039Y121896D02*
X-48864D01*
Y118693D01*
X-47039D01*
Y121896D01*
D02*
G37*
G36*
X-49364D02*
X-51189D01*
Y118693D01*
X-49364D01*
Y121896D01*
D02*
G37*
G36*
X52173Y119693D02*
X47827D01*
Y118638D01*
X34252D01*
X33862Y118560D01*
X33531Y118339D01*
X31563Y116371D01*
X31341Y116040D01*
X31264Y115650D01*
Y114881D01*
X31032Y114727D01*
X30764Y114649D01*
X30508Y114820D01*
X30118Y114898D01*
X26575D01*
X26185Y114820D01*
X25854Y114599D01*
X25657Y114402D01*
X25436Y114071D01*
X25358Y113681D01*
Y111996D01*
X21492D01*
Y115650D01*
X21414Y116040D01*
X21193Y116371D01*
X19225Y118339D01*
X18894Y118560D01*
X18504Y118638D01*
X6898D01*
Y119693D01*
X2551D01*
Y115543D01*
X6898D01*
Y116598D01*
X9904D01*
X9953Y116098D01*
X9391Y115987D01*
X8575Y115441D01*
X8029Y114625D01*
X7837Y113661D01*
Y111746D01*
X10354D01*
Y111496D01*
X10604D01*
Y106864D01*
X11317Y107005D01*
X12134Y107551D01*
X12680Y108368D01*
X12681Y108375D01*
X13181Y108326D01*
Y106764D01*
X14514D01*
Y109232D01*
X15014D01*
Y106764D01*
X16191D01*
Y105610D01*
X16134Y105472D01*
Y104764D01*
X16191Y104626D01*
Y104161D01*
X15373Y103343D01*
X15215Y102961D01*
X11606D01*
Y98714D01*
X11565Y98614D01*
Y97055D01*
X11606Y96956D01*
Y92709D01*
X15656D01*
X15756Y92668D01*
X19094D01*
X19477Y92826D01*
X19636Y93209D01*
Y104626D01*
X19693Y104764D01*
Y105472D01*
X19636Y105610D01*
Y106468D01*
X23390D01*
Y100422D01*
X22901Y99934D01*
X22680Y99603D01*
X22603Y99213D01*
Y95382D01*
X21941D01*
Y91035D01*
X25181D01*
X25303Y91035D01*
X25681D01*
X25803Y91035D01*
X27112D01*
Y93209D01*
Y95382D01*
X25803D01*
X25681Y95382D01*
X25303D01*
X25181Y95382D01*
X24642D01*
Y98790D01*
X25130Y99279D01*
X25351Y99610D01*
X25429Y100000D01*
Y103213D01*
X27657D01*
X28048Y103290D01*
X28378Y103511D01*
X28795Y103928D01*
X29295Y103721D01*
Y100000D01*
X29373Y99610D01*
X29594Y99279D01*
X30083Y98790D01*
Y95736D01*
X29729Y95382D01*
X29043Y95382D01*
X28921Y95382D01*
X27612D01*
Y93209D01*
Y91035D01*
X28921D01*
X29043Y91035D01*
X29421D01*
X29543Y91035D01*
X32783D01*
Y95382D01*
X32122D01*
Y99213D01*
X32044Y99603D01*
X31823Y99934D01*
X31335Y100422D01*
Y106468D01*
X34998D01*
X35237Y105968D01*
X35032Y105472D01*
Y104764D01*
X35302Y104110D01*
X35803Y103610D01*
X36457Y103339D01*
X37165D01*
X37819Y103610D01*
X38320Y104110D01*
X38591Y104764D01*
Y105472D01*
X38324Y106115D01*
Y106764D01*
X39711D01*
Y109232D01*
X40211D01*
Y106764D01*
X41543D01*
Y108326D01*
X42043Y108375D01*
X42045Y108368D01*
X42590Y107551D01*
X43407Y107005D01*
X44120Y106864D01*
Y111496D01*
X44370D01*
Y111746D01*
X46887D01*
Y113661D01*
X46695Y114625D01*
X46150Y115441D01*
X45333Y115987D01*
X44771Y116098D01*
X44820Y116598D01*
X47827D01*
Y115543D01*
X52173D01*
Y119693D01*
D02*
G37*
G36*
X6898Y113591D02*
X4975D01*
Y111766D01*
X6898D01*
Y113591D01*
D02*
G37*
G36*
X52173D02*
X50250D01*
Y111766D01*
X52173D01*
Y113591D01*
D02*
G37*
G36*
X49750D02*
X47827D01*
Y111766D01*
X49750D01*
Y113591D01*
D02*
G37*
G36*
X4474D02*
X2551D01*
Y111766D01*
X4474D01*
Y113591D01*
D02*
G37*
G36*
X-11516Y119340D02*
X-44980D01*
X-45363Y119182D01*
X-45522Y118799D01*
Y110925D01*
X-45363Y110543D01*
X-44980Y110384D01*
X-11516D01*
X-11133Y110543D01*
X-10975Y110925D01*
Y118799D01*
X-11133Y119182D01*
X-11516Y119340D01*
D02*
G37*
G36*
X52173Y111266D02*
X50250D01*
Y109441D01*
X52173D01*
Y111266D01*
D02*
G37*
G36*
X49750D02*
X47827D01*
Y109441D01*
X49750D01*
Y111266D01*
D02*
G37*
G36*
X6898D02*
X4975D01*
Y109441D01*
X6898D01*
Y111266D01*
D02*
G37*
G36*
X4474D02*
X2551D01*
Y109441D01*
X4474D01*
Y111266D01*
D02*
G37*
G36*
X46887Y111246D02*
X44620D01*
Y106864D01*
X45333Y107005D01*
X46150Y107551D01*
X46695Y108368D01*
X46887Y109331D01*
Y111246D01*
D02*
G37*
G36*
X10104Y111246D02*
X7837D01*
Y109331D01*
X8029Y108368D01*
X8575Y107551D01*
X9391Y107005D01*
X10104Y106864D01*
Y111246D01*
D02*
G37*
G36*
X9653Y102961D02*
X7829D01*
Y101037D01*
X9653D01*
Y102961D01*
D02*
G37*
G36*
X7329D02*
X5504D01*
Y101037D01*
X7329D01*
Y102961D01*
D02*
G37*
G36*
X9653Y100537D02*
X7829D01*
Y98614D01*
X9653D01*
Y100537D01*
D02*
G37*
G36*
X7329D02*
X5504D01*
Y98614D01*
X7329D01*
Y100537D01*
D02*
G37*
G36*
X8Y95677D02*
X-3195D01*
Y92474D01*
X8D01*
Y95677D01*
D02*
G37*
G36*
X-48380D02*
X-50598D01*
Y92474D01*
X-48380D01*
Y95677D01*
D02*
G37*
G36*
X-3695D02*
X-6898D01*
Y92474D01*
X-3695D01*
Y95677D01*
D02*
G37*
G36*
X39575Y93315D02*
X37652D01*
Y91490D01*
X39575D01*
Y93315D01*
D02*
G37*
G36*
X37152D02*
X35228D01*
Y91490D01*
X37152D01*
Y93315D01*
D02*
G37*
G36*
X98327Y107342D02*
X96587Y107171D01*
X94914Y106663D01*
X93373Y105839D01*
X92022Y104730D01*
X90913Y103379D01*
X90089Y101838D01*
X89581Y100165D01*
X89410Y98425D01*
X89581Y96686D01*
X90089Y95013D01*
X90913Y93471D01*
X92022Y92120D01*
X93373Y91011D01*
X94914Y90187D01*
X96587Y89680D01*
X98327Y89508D01*
X100066Y89680D01*
X101739Y90187D01*
X103281Y91011D01*
X104632Y92120D01*
X105741Y93471D01*
X106565Y95013D01*
X107072Y96686D01*
X107244Y98425D01*
X107072Y100165D01*
X106565Y101838D01*
X105741Y103379D01*
X104632Y104730D01*
X103281Y105839D01*
X101739Y106663D01*
X100066Y107171D01*
X98327Y107342D01*
D02*
G37*
G36*
X-98524D02*
X-100263Y107171D01*
X-101936Y106663D01*
X-103478Y105839D01*
X-104829Y104730D01*
X-105938Y103379D01*
X-106762Y101838D01*
X-107269Y100165D01*
X-107441Y98425D01*
X-107269Y96686D01*
X-106762Y95013D01*
X-105938Y93471D01*
X-104829Y92120D01*
X-103478Y91011D01*
X-101936Y90187D01*
X-100263Y89680D01*
X-98524Y89508D01*
X-96784Y89680D01*
X-95111Y90187D01*
X-93570Y91011D01*
X-92218Y92120D01*
X-91109Y93471D01*
X-90285Y95013D01*
X-89778Y96686D01*
X-89607Y98425D01*
X-89778Y100165D01*
X-90285Y101838D01*
X-91109Y103379D01*
X-92218Y104730D01*
X-93570Y105839D01*
X-95111Y106663D01*
X-96784Y107171D01*
X-98524Y107342D01*
D02*
G37*
G36*
X15756Y91150D02*
X13931D01*
Y89226D01*
X15756D01*
Y91150D01*
D02*
G37*
G36*
X13431D02*
X11606D01*
Y89226D01*
X13431D01*
Y91150D01*
D02*
G37*
G36*
X39575Y90990D02*
X37652D01*
Y89165D01*
X39575D01*
Y90990D01*
D02*
G37*
G36*
X37152D02*
X35228D01*
Y89165D01*
X37152D01*
Y90990D01*
D02*
G37*
G36*
X8Y91974D02*
X-3195D01*
Y88772D01*
X8D01*
Y91974D01*
D02*
G37*
G36*
X-3695D02*
X-6898D01*
Y88772D01*
X-3695D01*
Y91974D01*
D02*
G37*
G36*
X-48380D02*
X-50598D01*
Y88772D01*
X-48380D01*
Y91974D01*
D02*
G37*
G36*
X15756Y88726D02*
X13931D01*
Y86803D01*
X15756D01*
Y88726D01*
D02*
G37*
G36*
X13431D02*
X11606D01*
Y86803D01*
X13431D01*
Y88726D01*
D02*
G37*
G36*
X39575Y87213D02*
X35228D01*
Y83063D01*
X39575D01*
Y83625D01*
X40519D01*
X41162Y83358D01*
X41870D01*
X42524Y83629D01*
X43024Y84130D01*
X43295Y84784D01*
Y85492D01*
X43024Y86146D01*
X42524Y86646D01*
X41870Y86917D01*
X41162D01*
X40519Y86651D01*
X39575D01*
Y87213D01*
D02*
G37*
G36*
X5504Y97096D02*
X2756D01*
X2373Y96938D01*
X2215Y96555D01*
Y88905D01*
X-5861Y80830D01*
X-6021Y80845D01*
X-6361Y80977D01*
Y84546D01*
X-6438Y84936D01*
X-6659Y85267D01*
X-7547Y86154D01*
X-7878Y86375D01*
X-8268Y86453D01*
X-10601D01*
X-11474Y87326D01*
X-11283Y87787D01*
X-11016D01*
Y95677D01*
X-14846D01*
X-15165Y95677D01*
X-15665Y95677D01*
X-19177D01*
X-19496Y95677D01*
X-19996Y95677D01*
X-23508D01*
X-23827Y95677D01*
X-24327Y95677D01*
X-28157D01*
Y95677D01*
X-28339D01*
Y95677D01*
X-32169D01*
X-32488Y95677D01*
X-32988Y95677D01*
X-34494D01*
Y91732D01*
X-34994D01*
Y95677D01*
X-36500D01*
X-36819Y95677D01*
X-37319Y95677D01*
X-41150D01*
Y95677D01*
X-41331D01*
Y95677D01*
X-45161D01*
X-45480Y95677D01*
X-45980Y95677D01*
X-47880D01*
Y92224D01*
Y88772D01*
X-45661Y88772D01*
X-45480Y88347D01*
Y87787D01*
X-44425D01*
Y86938D01*
X-46292Y85072D01*
X-46513Y84741D01*
X-46590Y84351D01*
Y83282D01*
X-47090Y83183D01*
X-47258Y83587D01*
X-47758Y84087D01*
X-48412Y84358D01*
X-49120D01*
X-49774Y84087D01*
X-50275Y83587D01*
X-50546Y82933D01*
Y82225D01*
X-50275Y81571D01*
X-49786Y81082D01*
Y79929D01*
X-50939D01*
Y75779D01*
X-46593Y75779D01*
X-46590Y75281D01*
Y75271D01*
X-48035Y73827D01*
X-50939D01*
Y69677D01*
X-46593D01*
Y72385D01*
X-45115Y73863D01*
X-44999Y73874D01*
X-44571Y73525D01*
X-44571Y73369D01*
Y69677D01*
X-43775D01*
Y37902D01*
X-44984D01*
X-45028Y37902D01*
X-45484D01*
X-45528Y37902D01*
X-49984D01*
X-50028Y37902D01*
X-50484D01*
X-50528Y37902D01*
X-54984D01*
X-55028Y37902D01*
X-55484D01*
X-55528Y37902D01*
X-59984D01*
X-60027Y37902D01*
X-60484D01*
X-60528Y37902D01*
X-64984D01*
X-65027Y37902D01*
X-65484D01*
X-65528Y37902D01*
X-69984D01*
X-70028Y37902D01*
X-70484D01*
X-70528Y37902D01*
X-71736D01*
Y39743D01*
X-71247Y40232D01*
X-70976Y40886D01*
Y41594D01*
X-71247Y42248D01*
X-71748Y42749D01*
X-72402Y43020D01*
X-73110D01*
X-73764Y42749D01*
X-74265Y42248D01*
X-74535Y41594D01*
Y40886D01*
X-74265Y40232D01*
X-73776Y39743D01*
Y37902D01*
X-74984D01*
X-75028Y37902D01*
X-75484D01*
X-75528Y37902D01*
X-76736D01*
Y39743D01*
X-76247Y40232D01*
X-75976Y40886D01*
Y41594D01*
X-76247Y42248D01*
X-76748Y42749D01*
X-77402Y43020D01*
X-78110D01*
X-78764Y42749D01*
X-79264Y42248D01*
X-79535Y41594D01*
Y40886D01*
X-79264Y40232D01*
X-78776Y39743D01*
Y37902D01*
X-79984D01*
X-80028Y37902D01*
X-80484D01*
X-80528Y37902D01*
X-84984D01*
X-85027Y37902D01*
X-85484D01*
X-85528Y37902D01*
X-89984D01*
X-90027Y37902D01*
X-90484D01*
X-90528Y37902D01*
X-92506D01*
Y34449D01*
Y30996D01*
X-90528D01*
X-90484Y30996D01*
X-90027D01*
X-89984Y30996D01*
X-88775D01*
Y-6516D01*
X-88698Y-6906D01*
X-88477Y-7237D01*
X-73315Y-22399D01*
Y-23090D01*
X-73044Y-23744D01*
X-72543Y-24245D01*
X-71889Y-24516D01*
X-71181D01*
X-70527Y-24245D01*
X-70027Y-23744D01*
X-69756Y-23090D01*
Y-22382D01*
X-70027Y-21728D01*
X-70527Y-21228D01*
X-71181Y-20957D01*
X-71873D01*
X-86736Y-6093D01*
Y30996D01*
X-85528D01*
X-85484Y30996D01*
X-85027D01*
X-84984Y30996D01*
X-83776D01*
Y-6516D01*
X-83698Y-6906D01*
X-83477Y-7237D01*
X-68315Y-22399D01*
Y-23090D01*
X-68044Y-23744D01*
X-67543Y-24245D01*
X-66889Y-24516D01*
X-66181D01*
X-65527Y-24245D01*
X-65027Y-23744D01*
X-64756Y-23090D01*
Y-22382D01*
X-65027Y-21728D01*
X-65527Y-21228D01*
X-66181Y-20957D01*
X-66873D01*
X-81736Y-6093D01*
Y30996D01*
X-80528D01*
X-80484Y30996D01*
X-80028D01*
X-79984Y30996D01*
X-75528D01*
X-75484Y30996D01*
X-75028D01*
X-74984Y30996D01*
X-70528D01*
X-70484Y30996D01*
X-70028D01*
X-69984Y30996D01*
X-65528D01*
X-65484Y30996D01*
X-65027D01*
X-64984Y30996D01*
X-60528D01*
X-60484Y30996D01*
X-60027D01*
X-59984Y30996D01*
X-55528D01*
X-55484Y30996D01*
X-55028D01*
X-54984Y30996D01*
X-50528D01*
X-50484Y30996D01*
X-50028D01*
X-49984Y30996D01*
X-48776D01*
Y30039D01*
X-48698Y29649D01*
X-48477Y29318D01*
X-45997Y26838D01*
X-45666Y26617D01*
X-45276Y26539D01*
X-31517D01*
X-31028Y26050D01*
X-30374Y25780D01*
X-29666D01*
X-29012Y26050D01*
X-28511Y26551D01*
X-28240Y27205D01*
Y27913D01*
X-28511Y28567D01*
X-29012Y29068D01*
X-29666Y29339D01*
X-30374D01*
X-31028Y29068D01*
X-31517Y28579D01*
X-44853D01*
X-46736Y30462D01*
Y30996D01*
X-45528D01*
X-45484Y30996D01*
X-45028D01*
X-44984Y30996D01*
X-40528D01*
X-40484Y30996D01*
X-40028D01*
X-39984Y30996D01*
X-35528D01*
X-35484Y30996D01*
X-35028D01*
X-34984Y30996D01*
X-30528D01*
X-30484Y30996D01*
X-30028D01*
X-29984Y30996D01*
X-25484D01*
Y37902D01*
X-26736D01*
Y39953D01*
X-25780D01*
Y44299D01*
X-26736D01*
Y45858D01*
X-25780D01*
Y50205D01*
X-26292D01*
Y51100D01*
X-26026Y51743D01*
Y52450D01*
X-26296Y53105D01*
X-26797Y53605D01*
X-27451Y53876D01*
X-28159D01*
X-28813Y53605D01*
X-29314Y53105D01*
X-29585Y52450D01*
Y51743D01*
X-29318Y51100D01*
Y50205D01*
X-29929D01*
Y45858D01*
X-28776D01*
Y44299D01*
X-29929D01*
Y39953D01*
X-28776D01*
Y37902D01*
X-29984D01*
X-30028Y37902D01*
X-30484D01*
X-30528Y37902D01*
X-31736D01*
Y60523D01*
X-27924Y64335D01*
X-24803D01*
X-24413Y64412D01*
X-24082Y64633D01*
X-22570Y66145D01*
X-22349Y66476D01*
X-22272Y66866D01*
Y69677D01*
X-21118D01*
Y72385D01*
X-19645Y73858D01*
X-19525Y73871D01*
X-19095Y73525D01*
X-19095Y73373D01*
Y69677D01*
X-14749D01*
Y72385D01*
X-13276Y73858D01*
X-13156Y73871D01*
X-12727Y73525D01*
X-12727Y73373D01*
Y69677D01*
X-8380D01*
Y72385D01*
X-6659Y74106D01*
X-6512Y74327D01*
X-6012Y74213D01*
Y71154D01*
X-6012Y71153D01*
X-6012D01*
X-6047Y70668D01*
X-6053Y70653D01*
Y56496D01*
X-6053Y56496D01*
X-5895Y56113D01*
X-2942Y53161D01*
X-2559Y53002D01*
X-2559Y53002D01*
X12098D01*
X12198Y53043D01*
X16345D01*
X16445Y53002D01*
X23066D01*
X23231Y52502D01*
X22924Y52044D01*
X22794Y51388D01*
Y49578D01*
X22449Y49220D01*
X22294Y49220D01*
X21018D01*
Y47047D01*
Y44874D01*
X22294D01*
X22449Y44874D01*
X22794Y44517D01*
Y41622D01*
X13181D01*
Y32157D01*
X35835D01*
Y41622D01*
X26222D01*
Y44517D01*
X26567Y44874D01*
X26722Y44874D01*
X29929D01*
Y45333D01*
X32776D01*
X33432Y45464D01*
X33988Y45835D01*
X35093Y46941D01*
X36917D01*
Y51091D01*
X33709D01*
X33554Y51459D01*
X33542Y51591D01*
X34995Y53043D01*
X36917D01*
Y57193D01*
X32571D01*
Y55467D01*
X31589Y54486D01*
X30104D01*
X29929Y54913D01*
X29929Y54986D01*
Y57818D01*
X31623Y59512D01*
X37176D01*
X40516Y56172D01*
Y23847D01*
X39420Y22752D01*
X35835D01*
Y26465D01*
X13222D01*
Y26965D01*
X13146Y27149D01*
X13075Y27336D01*
X12754Y27676D01*
X12746Y27680D01*
X12743Y27688D01*
X12292Y28139D01*
X11909Y28297D01*
X11909Y28297D01*
X11327D01*
X11227Y28256D01*
X7080D01*
X6980Y28297D01*
X5028D01*
X4928Y28256D01*
X681D01*
Y24206D01*
X640Y24106D01*
Y17421D01*
X798Y17039D01*
X1181Y16880D01*
X12681D01*
X12696Y16886D01*
X13181Y17000D01*
Y17000D01*
X13181Y17000D01*
X35835D01*
Y20713D01*
X39843D01*
X40233Y20790D01*
X40563Y21011D01*
X42256Y22704D01*
X42477Y23035D01*
X42555Y23425D01*
Y56595D01*
X42477Y56985D01*
X42256Y57315D01*
X38319Y61252D01*
X37989Y61474D01*
X37598Y61551D01*
X31201D01*
X30811Y61474D01*
X30480Y61252D01*
X28487Y59260D01*
X26730D01*
X26567Y59260D01*
X26230Y59620D01*
Y60236D01*
X26072Y60619D01*
X25689Y60777D01*
X15785Y60777D01*
Y62787D01*
X16052Y63054D01*
X39531D01*
X44845Y57739D01*
Y-8957D01*
X44845Y-8957D01*
X44960Y-9536D01*
X45288Y-10027D01*
X48536Y-13275D01*
X48536Y-13275D01*
X49027Y-13603D01*
X49606Y-13718D01*
X49606Y-13718D01*
X64727D01*
X71321Y-20312D01*
Y-57429D01*
X71169Y-57866D01*
X70821Y-57866D01*
X69246D01*
Y-59941D01*
Y-62016D01*
X71169Y-62016D01*
X71321Y-62453D01*
Y-63532D01*
X71169Y-63968D01*
X70821Y-63968D01*
X66823D01*
Y-65024D01*
X65264D01*
Y-63968D01*
X62715D01*
X62638Y-63854D01*
X61300Y-62516D01*
X61507Y-62016D01*
X65264D01*
Y-57866D01*
X64110D01*
Y-21358D01*
X64033Y-20968D01*
X63811Y-20637D01*
X58595Y-15421D01*
X58264Y-15200D01*
X57874Y-15122D01*
X1210D01*
X-5280Y-8633D01*
Y-7448D01*
X-4780Y-7349D01*
X-4658Y-7642D01*
X-4158Y-8143D01*
X-3504Y-8413D01*
X-2796D01*
X-2142Y-8143D01*
X-1641Y-7642D01*
X-1370Y-6988D01*
Y-6280D01*
X-1641Y-5626D01*
X-2130Y-5137D01*
Y-2173D01*
X-1075D01*
Y2173D01*
X-4846D01*
X-5268Y2357D01*
X-5333Y2628D01*
X-5357Y2752D01*
X-5578Y3083D01*
X-10716Y8221D01*
X-11047Y8442D01*
X-11437Y8520D01*
X-19382D01*
Y9728D01*
X-19382Y9772D01*
Y10228D01*
X-19382Y10272D01*
Y11480D01*
X-17540D01*
X-17051Y10991D01*
X-16397Y10721D01*
X-15689D01*
X-15035Y10991D01*
X-14535Y11492D01*
X-14264Y12146D01*
Y12854D01*
X-14535Y13508D01*
X-15035Y14009D01*
X-15689Y14279D01*
X-16397D01*
X-17051Y14009D01*
X-17540Y13520D01*
X-19382D01*
Y14728D01*
X-19382Y14772D01*
Y15228D01*
X-19382Y15272D01*
Y16480D01*
X-13001D01*
X66Y3413D01*
X397Y3192D01*
X787Y3114D01*
X17491D01*
X22310Y-1705D01*
X22641Y-1926D01*
X23031Y-2004D01*
X37873D01*
X38362Y-2493D01*
X39016Y-2764D01*
X39724D01*
X40378Y-2493D01*
X40879Y-1992D01*
X41150Y-1338D01*
Y-630D01*
X40879Y24D01*
X40378Y524D01*
X39724Y795D01*
X39016D01*
X38362Y524D01*
X37873Y35D01*
X23454D01*
X18634Y4855D01*
X18304Y5076D01*
X17913Y5153D01*
X1210D01*
X-11858Y18221D01*
X-12189Y18442D01*
X-12579Y18520D01*
X-19382D01*
Y19728D01*
X-19382Y19772D01*
Y20228D01*
X-19382Y20272D01*
Y21480D01*
X-10127D01*
X4594Y6759D01*
X4925Y6538D01*
X5315Y6461D01*
X18869D01*
X22114Y3216D01*
X22445Y2995D01*
X22835Y2917D01*
X37873D01*
X38362Y2428D01*
X39016Y2158D01*
X39724D01*
X40378Y2428D01*
X40879Y2929D01*
X41150Y3583D01*
Y4291D01*
X40879Y4945D01*
X40378Y5446D01*
X39724Y5717D01*
X39016D01*
X38362Y5446D01*
X37873Y4957D01*
X23257D01*
X20012Y8201D01*
X19681Y8422D01*
X19291Y8500D01*
X5737D01*
X-8984Y23221D01*
X-9314Y23442D01*
X-9705Y23520D01*
X-19382D01*
Y24728D01*
X-19382Y24772D01*
Y25228D01*
X-19382Y25272D01*
Y29772D01*
X-26287D01*
Y25272D01*
X-26287Y25228D01*
Y24772D01*
X-26287Y24728D01*
Y20272D01*
X-26287Y20228D01*
Y19772D01*
X-26287Y19728D01*
Y15272D01*
X-26287Y15228D01*
Y14772D01*
X-26287Y14728D01*
Y10272D01*
X-26287Y10228D01*
Y9772D01*
X-26287Y9728D01*
Y5272D01*
X-26287Y5228D01*
Y4772D01*
X-26287Y4728D01*
Y272D01*
X-26287Y228D01*
Y-228D01*
X-26287Y-272D01*
Y-4772D01*
X-26287D01*
Y-5228D01*
X-26287D01*
Y-9772D01*
X-26287D01*
Y-10228D01*
X-26287D01*
Y-14772D01*
X-26287D01*
Y-15228D01*
X-26287D01*
Y-19728D01*
X-26287Y-19772D01*
Y-20228D01*
X-26287Y-20272D01*
Y-21480D01*
X-27972D01*
X-28460Y-20991D01*
X-29114Y-20720D01*
X-29822D01*
X-30476Y-20991D01*
X-30977Y-21492D01*
X-31248Y-22146D01*
Y-22854D01*
X-30977Y-23508D01*
X-30476Y-24009D01*
X-29822Y-24280D01*
X-29114D01*
X-28460Y-24009D01*
X-27972Y-23520D01*
X-26287D01*
Y-24728D01*
X-26287Y-24772D01*
Y-25228D01*
X-26287Y-25272D01*
Y-26539D01*
X-28030D01*
X-28519Y-26050D01*
X-29174Y-25780D01*
X-29882D01*
X-30536Y-26050D01*
X-31036Y-26551D01*
X-31307Y-27205D01*
Y-27913D01*
X-31036Y-28567D01*
X-30536Y-29068D01*
X-29882Y-29339D01*
X-29174D01*
X-28519Y-29068D01*
X-28030Y-28579D01*
X-26287D01*
Y-29772D01*
X-19689D01*
X-19382Y-29772D01*
X-19189Y-30192D01*
Y-30795D01*
X-19111Y-31185D01*
X-18890Y-31516D01*
X-11102Y-39304D01*
X-10771Y-39525D01*
X-10381Y-39602D01*
X23200D01*
X26539Y-42942D01*
Y-57866D01*
X25386D01*
Y-62016D01*
X29732D01*
Y-57866D01*
X28579D01*
Y-42520D01*
X28501Y-42129D01*
X28280Y-41799D01*
X24343Y-37862D01*
X24012Y-37641D01*
X23622Y-37563D01*
X-9959D01*
X-17150Y-30372D01*
Y-26732D01*
X-16650Y-26524D01*
X-8595Y-34579D01*
X-8264Y-34800D01*
X-7874Y-34878D01*
X29105D01*
X32543Y-38316D01*
Y-57866D01*
X31390D01*
Y-62016D01*
X35736D01*
Y-57866D01*
X34583D01*
Y-37894D01*
X34505Y-37503D01*
X34284Y-37173D01*
X30248Y-33137D01*
X29918Y-32916D01*
X29528Y-32839D01*
X-7452D01*
X-15150Y-25141D01*
Y-22039D01*
X-14650Y-21832D01*
X-6233Y-30248D01*
X-5902Y-30470D01*
X-5512Y-30547D01*
X34617D01*
X38449Y-34379D01*
Y-57866D01*
X37295D01*
Y-62016D01*
X41642D01*
Y-57866D01*
X40488D01*
Y-33957D01*
X40411Y-33566D01*
X40189Y-33236D01*
X35760Y-28807D01*
X35430Y-28586D01*
X35039Y-28508D01*
X-5090D01*
X-13150Y-20448D01*
Y-17444D01*
X-12650Y-17237D01*
X-3969Y-25918D01*
X-3638Y-26139D01*
X-3248Y-26216D01*
X40916D01*
X44354Y-29655D01*
Y-57866D01*
X43201D01*
Y-62016D01*
X47547D01*
Y-57866D01*
X46394D01*
Y-29232D01*
X46316Y-28842D01*
X46095Y-28511D01*
X42060Y-24476D01*
X41729Y-24255D01*
X41339Y-24177D01*
X-2826D01*
X-11185Y-15818D01*
Y-7480D01*
X-11263Y-7090D01*
X-11484Y-6759D01*
X-16464Y-1779D01*
X-16795Y-1558D01*
X-17185Y-1480D01*
X-19382D01*
Y-272D01*
X-19382Y-228D01*
Y228D01*
X-19382Y272D01*
Y1480D01*
X-13946D01*
X-10468Y-1997D01*
Y-12598D01*
X-10391Y-12989D01*
X-10170Y-13319D01*
X-2296Y-21193D01*
X-1965Y-21414D01*
X-1575Y-21492D01*
X45641D01*
X50260Y-26111D01*
Y-57866D01*
X49106D01*
Y-62016D01*
X53453D01*
Y-57866D01*
X52299D01*
Y-25689D01*
X52222Y-25299D01*
X52000Y-24968D01*
X46784Y-19751D01*
X46453Y-19531D01*
X46063Y-19453D01*
X-1153D01*
X-8429Y-12176D01*
Y-1575D01*
X-8507Y-1185D01*
X-8728Y-854D01*
X-12803Y3221D01*
X-13133Y3442D01*
X-13524Y3520D01*
X-19382D01*
Y4728D01*
X-19382Y4772D01*
Y5228D01*
X-19382Y5272D01*
Y6480D01*
X-11859D01*
X-7319Y1940D01*
Y-9055D01*
X-7241Y-9445D01*
X-7020Y-9776D01*
X66Y-16863D01*
X397Y-17084D01*
X787Y-17161D01*
X57452D01*
X62071Y-21781D01*
Y-57866D01*
X60917D01*
Y-61426D01*
X60417Y-61633D01*
X59358Y-60574D01*
Y-57866D01*
X55012D01*
Y-62016D01*
X57916D01*
X59377Y-63476D01*
X59162Y-63968D01*
X58940Y-63968D01*
X55012D01*
Y-65024D01*
X53453D01*
Y-63968D01*
X49106D01*
Y-67528D01*
X48606Y-67735D01*
X47547Y-66676D01*
Y-63968D01*
X43201D01*
Y-68118D01*
X46105D01*
X47164Y-69177D01*
X46957Y-69677D01*
X43201D01*
Y-70831D01*
X41642D01*
Y-69677D01*
X40488D01*
Y-68118D01*
X41642D01*
Y-63968D01*
X37295D01*
Y-68118D01*
X38449D01*
Y-69677D01*
X37492D01*
Y-74024D01*
X41642D01*
Y-72870D01*
X43201D01*
Y-74024D01*
X47350D01*
Y-70070D01*
X47850Y-69863D01*
X49303Y-71316D01*
Y-74024D01*
X53453D01*
Y-72870D01*
X55012D01*
Y-74024D01*
X59161D01*
Y-70130D01*
X59161Y-69873D01*
X59654Y-69659D01*
X61114Y-71119D01*
Y-74024D01*
X65264D01*
Y-69677D01*
X62556D01*
X61459Y-68580D01*
X61650Y-68118D01*
X65264D01*
Y-67063D01*
X66823D01*
Y-68118D01*
X67878D01*
Y-75365D01*
X65523Y-77721D01*
X13091D01*
X12700Y-77798D01*
X12370Y-78019D01*
X9617Y-80772D01*
X9331Y-80606D01*
X8449Y-80370D01*
X7536D01*
X6653Y-80606D01*
X5862Y-81063D01*
X5217Y-81709D01*
X4760Y-82500D01*
X4524Y-83382D01*
Y-84295D01*
X4760Y-85177D01*
X5217Y-85968D01*
X5862Y-86614D01*
X6653Y-87071D01*
X6559Y-87563D01*
X449D01*
X355Y-87071D01*
X1146Y-86614D01*
X1791Y-85968D01*
X2248Y-85177D01*
X2484Y-84295D01*
Y-83382D01*
X2248Y-82500D01*
X2083Y-82214D01*
X7489Y-76807D01*
X15945D01*
X16335Y-76729D01*
X16666Y-76508D01*
X17650Y-75524D01*
X17871Y-75193D01*
X17949Y-74803D01*
Y-74024D01*
X19004D01*
Y-69677D01*
X16198D01*
X13098Y-66578D01*
Y-63870D01*
X8752D01*
Y-65024D01*
X7193D01*
Y-63968D01*
X2847D01*
Y-67528D01*
X2347Y-67735D01*
X1287Y-66676D01*
Y-63968D01*
X-3059D01*
Y-68118D01*
X-155D01*
X905Y-69177D01*
X697Y-69677D01*
X-3059D01*
Y-70831D01*
X-4618D01*
Y-69677D01*
X-5673D01*
Y-68118D01*
X-4618D01*
Y-63968D01*
X-8965D01*
Y-68118D01*
X-7712D01*
Y-69677D01*
X-8768D01*
Y-74024D01*
X-4618D01*
Y-72870D01*
X-3059D01*
Y-74024D01*
X1091D01*
Y-70070D01*
X1591Y-69863D01*
X3043Y-71316D01*
Y-74024D01*
X7193D01*
Y-72870D01*
X8752D01*
Y-74024D01*
X12902D01*
X12902Y-70055D01*
Y-70036D01*
D01*
X12902Y-69972D01*
X13011Y-69927D01*
X13402Y-69765D01*
X14854Y-71218D01*
Y-74024D01*
X15311D01*
X15548Y-74524D01*
X15359Y-74768D01*
X7067D01*
X6677Y-74845D01*
X6346Y-75066D01*
X641Y-80772D01*
X354Y-80606D01*
X-528Y-80370D01*
X-1441D01*
X-2323Y-80606D01*
X-3114Y-81063D01*
X-3760Y-81709D01*
X-4216Y-82500D01*
X-4453Y-83382D01*
Y-84295D01*
X-4216Y-85177D01*
X-3760Y-85968D01*
X-3114Y-86614D01*
X-2323Y-87071D01*
X-2417Y-87563D01*
X-8528D01*
X-8622Y-87071D01*
X-7831Y-86614D01*
X-7185Y-85968D01*
X-6729Y-85177D01*
X-6492Y-84295D01*
Y-83382D01*
X-6729Y-82500D01*
X-7185Y-81709D01*
X-7831Y-81063D01*
X-8622Y-80606D01*
X-9504Y-80370D01*
X-10417D01*
X-11299Y-80606D01*
X-12090Y-81063D01*
X-12736Y-81709D01*
X-13193Y-82500D01*
X-13429Y-83382D01*
Y-84295D01*
X-13193Y-85177D01*
X-12736Y-85968D01*
X-12090Y-86614D01*
X-11299Y-87071D01*
X-11394Y-87563D01*
X-17504D01*
X-17598Y-87071D01*
X-16807Y-86614D01*
X-16161Y-85968D01*
X-15705Y-85177D01*
X-15469Y-84295D01*
Y-84089D01*
X-22406D01*
Y-84295D01*
X-22169Y-85177D01*
X-21712Y-85968D01*
X-21067Y-86614D01*
X-20276Y-87071D01*
X-20370Y-87563D01*
X-26153D01*
X-28311Y-85404D01*
Y-74024D01*
X-27256D01*
Y-69677D01*
X-30160D01*
X-33161Y-66676D01*
Y-63968D01*
X-37508D01*
Y-65024D01*
X-39067D01*
Y-63968D01*
X-43413D01*
Y-67528D01*
X-43913Y-67735D01*
X-44972Y-66676D01*
Y-63968D01*
X-49319D01*
Y-68118D01*
X-46414D01*
X-45355Y-69177D01*
X-45562Y-69677D01*
X-49319D01*
Y-70831D01*
X-50878D01*
Y-69677D01*
X-52032D01*
Y-68118D01*
X-50878D01*
Y-63968D01*
X-55224D01*
Y-68118D01*
X-54071D01*
Y-69677D01*
X-55028D01*
Y-74024D01*
X-50878D01*
Y-72870D01*
X-49319D01*
Y-74024D01*
X-45169D01*
Y-70070D01*
X-44669Y-69863D01*
X-43216Y-71316D01*
Y-74024D01*
X-39067D01*
Y-72870D01*
X-37508D01*
Y-74024D01*
X-33358D01*
Y-70070D01*
X-32858Y-69863D01*
X-31405Y-71316D01*
Y-74024D01*
X-30350D01*
Y-85827D01*
X-30273Y-86217D01*
X-30052Y-86548D01*
X-27296Y-89304D01*
X-26965Y-89525D01*
X-26575Y-89602D01*
X12224D01*
X12615Y-89525D01*
X12945Y-89304D01*
X14942Y-87307D01*
X20437D01*
Y-80370D01*
X14049D01*
X13929Y-80248D01*
X13752Y-79870D01*
X13813Y-79760D01*
X65945D01*
X66335Y-79682D01*
X66666Y-79461D01*
X69619Y-76508D01*
X69840Y-76178D01*
X69917Y-75787D01*
Y-68472D01*
X70271Y-68118D01*
X71169Y-68118D01*
X71321Y-68555D01*
Y-95535D01*
X60987Y-105869D01*
X33685D01*
X25565Y-97749D01*
X25074Y-97421D01*
X24495Y-97306D01*
X24495Y-97306D01*
X23389D01*
X23255Y-96806D01*
X23586Y-96614D01*
X24232Y-95968D01*
X24689Y-95177D01*
X24925Y-94295D01*
Y-94089D01*
X17988D01*
Y-94295D01*
X18225Y-95177D01*
X18681Y-95968D01*
X19327Y-96614D01*
X19659Y-96806D01*
X19525Y-97306D01*
X14412D01*
X14278Y-96806D01*
X14610Y-96614D01*
X15256Y-95968D01*
X15712Y-95177D01*
X15949Y-94295D01*
Y-94089D01*
X9012D01*
Y-94295D01*
X9248Y-95177D01*
X9705Y-95968D01*
X10351Y-96614D01*
X10682Y-96806D01*
X10548Y-97306D01*
X5436D01*
X5302Y-96806D01*
X5634Y-96614D01*
X6279Y-95968D01*
X6736Y-95177D01*
X6972Y-94295D01*
Y-94089D01*
X35D01*
Y-94295D01*
X272Y-95177D01*
X728Y-95968D01*
X1374Y-96614D01*
X1706Y-96806D01*
X1572Y-97306D01*
X135D01*
X-2188Y-94983D01*
X-2004Y-94295D01*
Y-93382D01*
X-2240Y-92500D01*
X-2697Y-91709D01*
X-3343Y-91063D01*
X-4134Y-90606D01*
X-5016Y-90370D01*
X-5929D01*
X-6811Y-90606D01*
X-7602Y-91063D01*
X-8248Y-91709D01*
X-8705Y-92500D01*
X-8941Y-93382D01*
Y-94295D01*
X-8705Y-95177D01*
X-8248Y-95968D01*
X-7602Y-96614D01*
X-6811Y-97071D01*
X-5929Y-97307D01*
X-5016D01*
X-4328Y-97123D01*
X-1562Y-99889D01*
X-1562Y-99889D01*
X-1656Y-100428D01*
X-2323Y-100606D01*
X-3114Y-101063D01*
X-3760Y-101709D01*
X-4216Y-102500D01*
X-4453Y-103382D01*
Y-104295D01*
X-4216Y-105177D01*
X-3760Y-105968D01*
X-3114Y-106614D01*
X-2323Y-107071D01*
X-1441Y-107307D01*
X-528D01*
X354Y-107071D01*
X1146Y-106614D01*
X1791Y-105968D01*
X2248Y-105177D01*
X2484Y-104295D01*
Y-103382D01*
X2248Y-102500D01*
X1791Y-101709D01*
X1146Y-101063D01*
X746Y-100832D01*
X880Y-100332D01*
X6128D01*
X6262Y-100832D01*
X5862Y-101063D01*
X5217Y-101709D01*
X4760Y-102500D01*
X4524Y-103382D01*
Y-104295D01*
X4760Y-105177D01*
X5217Y-105968D01*
X5862Y-106614D01*
X6653Y-107071D01*
X7536Y-107307D01*
X8449D01*
X9331Y-107071D01*
X10122Y-106614D01*
X10768Y-105968D01*
X11224Y-105177D01*
X11461Y-104295D01*
Y-103382D01*
X11224Y-102500D01*
X10768Y-101709D01*
X10122Y-101063D01*
X9722Y-100832D01*
X9856Y-100332D01*
X15105D01*
X15239Y-100832D01*
X14839Y-101063D01*
X14193Y-101709D01*
X13736Y-102500D01*
X13500Y-103382D01*
Y-104295D01*
X13736Y-105177D01*
X14193Y-105968D01*
X14839Y-106614D01*
X15630Y-107071D01*
X16512Y-107307D01*
X17425D01*
X18307Y-107071D01*
X19098Y-106614D01*
X19744Y-105968D01*
X20201Y-105177D01*
X20437Y-104295D01*
Y-103382D01*
X20201Y-102500D01*
X19744Y-101709D01*
X19098Y-101063D01*
X18698Y-100832D01*
X18832Y-100332D01*
X23868D01*
X31988Y-108452D01*
X31988Y-108452D01*
X32479Y-108780D01*
X33058Y-108895D01*
X33058Y-108895D01*
X61614D01*
X61614Y-108895D01*
X62193Y-108780D01*
X62684Y-108452D01*
X73905Y-97232D01*
X74233Y-96741D01*
X74348Y-96161D01*
X74348Y-96161D01*
Y-19685D01*
X74348Y-19685D01*
X74233Y-19106D01*
X73905Y-18615D01*
X66424Y-11135D01*
X65934Y-10807D01*
X65354Y-10691D01*
X65354Y-10691D01*
X50233D01*
X47872Y-8330D01*
Y58366D01*
X47872Y58366D01*
X47756Y58945D01*
X47428Y59436D01*
X47428Y59436D01*
X41228Y65637D01*
X40737Y65965D01*
X40157Y66080D01*
X40157Y66080D01*
X15425D01*
X14846Y65965D01*
X14355Y65637D01*
X14355Y65637D01*
X13202Y64484D01*
X12874Y63993D01*
X12758Y63414D01*
X12758Y63414D01*
Y60777D01*
X8590D01*
X5266Y64102D01*
Y70653D01*
X5260Y70668D01*
X5224Y71153D01*
X5224Y71154D01*
X5224Y71154D01*
Y78453D01*
X5224Y78453D01*
X5224D01*
X5260Y78938D01*
X5266Y78953D01*
Y82650D01*
X8574Y85958D01*
X8615Y86058D01*
X8692Y86134D01*
Y86242D01*
X8733Y86341D01*
X8880Y86614D01*
X9086Y86803D01*
X9653D01*
Y91050D01*
X9695Y91150D01*
Y92709D01*
X9653Y92808D01*
Y97055D01*
X5603D01*
X5504Y97096D01*
D02*
G37*
G36*
X-54764Y84358D02*
X-55472D01*
X-56126Y84087D01*
X-56627Y83587D01*
X-56898Y82933D01*
Y82225D01*
X-56627Y81571D01*
X-56138Y81082D01*
Y79929D01*
X-57291D01*
Y75779D01*
X-52945D01*
Y79929D01*
X-54098D01*
Y81082D01*
X-53610Y81571D01*
X-53339Y82225D01*
Y82933D01*
X-53610Y83587D01*
X-54110Y84087D01*
X-54764Y84358D01*
D02*
G37*
G36*
X27716Y89063D02*
X27008D01*
X26354Y88792D01*
X25854Y88292D01*
X25583Y87638D01*
Y86930D01*
X25849Y86287D01*
Y85510D01*
X25681Y85343D01*
X25303D01*
X25181Y85343D01*
X21941D01*
Y80996D01*
X22603D01*
Y79134D01*
X22680Y78744D01*
X22901Y78413D01*
X23811Y77503D01*
Y76811D01*
X24082Y76157D01*
X24582Y75657D01*
X25237Y75386D01*
X25945D01*
X26599Y75657D01*
X27099Y76157D01*
X27112Y76189D01*
X27612D01*
X27625Y76157D01*
X28126Y75657D01*
X28780Y75386D01*
X29488D01*
X30142Y75657D01*
X30643Y76157D01*
X30913Y76811D01*
Y77503D01*
X31823Y78413D01*
X32044Y78744D01*
X32122Y79134D01*
Y80996D01*
X32783D01*
Y85343D01*
X29543D01*
X29421Y85343D01*
X29043D01*
X28875Y85510D01*
Y86287D01*
X29142Y86930D01*
Y87638D01*
X28871Y88292D01*
X28370Y88792D01*
X27716Y89063D01*
D02*
G37*
G36*
X19398Y78453D02*
X14029D01*
Y75053D01*
X19398D01*
Y78453D01*
D02*
G37*
G36*
X13530D02*
X8161D01*
Y75053D01*
X13530D01*
Y78453D01*
D02*
G37*
G36*
X19398Y74553D02*
X14029D01*
Y71153D01*
X19398D01*
Y74553D01*
D02*
G37*
G36*
X13530D02*
X8161D01*
Y71153D01*
X13530D01*
Y74553D01*
D02*
G37*
G36*
X98814Y56336D02*
X98037D01*
X97286Y56135D01*
X96614Y55746D01*
X96065Y55197D01*
X95676Y54524D01*
X95475Y53774D01*
Y52997D01*
X95676Y52247D01*
X96065Y51574D01*
X96614Y51025D01*
X97286Y50637D01*
X98037Y50436D01*
X98814D01*
X99564Y50637D01*
X100237Y51025D01*
X100786Y51574D01*
X101174Y52247D01*
X101375Y52997D01*
Y53774D01*
X101174Y54524D01*
X100786Y55197D01*
X100237Y55746D01*
X99564Y56135D01*
X98814Y56336D01*
D02*
G37*
G36*
X16445Y51091D02*
X14522D01*
Y49266D01*
X16445D01*
Y51091D01*
D02*
G37*
G36*
X14022D02*
X12098D01*
Y49266D01*
X14022D01*
Y51091D01*
D02*
G37*
G36*
X-19677Y50205D02*
X-21502D01*
Y48281D01*
X-19677D01*
Y50205D01*
D02*
G37*
G36*
X-22002D02*
X-23827D01*
Y48281D01*
X-22002D01*
Y50205D01*
D02*
G37*
G36*
X109172Y59061D02*
X107678D01*
X106235Y58674D01*
X104941Y57927D01*
X103884Y56870D01*
X103137Y55576D01*
X102750Y54133D01*
Y52639D01*
X103137Y51195D01*
X103884Y49901D01*
X104941Y48845D01*
X106235Y48098D01*
X107678Y47711D01*
X109172D01*
X110616Y48098D01*
X111910Y48845D01*
X112966Y49901D01*
X113714Y51195D01*
X114100Y52639D01*
Y54133D01*
X113714Y55576D01*
X112966Y56870D01*
X111910Y57927D01*
X110616Y58674D01*
X109172Y59061D01*
D02*
G37*
G36*
X20518Y49220D02*
X19087D01*
Y47297D01*
X20518D01*
Y49220D01*
D02*
G37*
G36*
X16445Y48766D02*
X14522D01*
Y46941D01*
X16445D01*
Y48766D01*
D02*
G37*
G36*
X14022D02*
X12098D01*
Y46941D01*
X14022D01*
Y48766D01*
D02*
G37*
G36*
X-19677Y47782D02*
X-21502D01*
Y45858D01*
X-19677D01*
Y47782D01*
D02*
G37*
G36*
X-22002D02*
X-23827D01*
Y45858D01*
X-22002D01*
Y47782D01*
D02*
G37*
G36*
X20518Y46797D02*
X19087D01*
Y44874D01*
X20518D01*
Y46797D01*
D02*
G37*
G36*
X-19677Y44299D02*
X-23827D01*
Y39953D01*
X-19677D01*
Y40613D01*
X-18634D01*
X-17992Y40347D01*
X-17284D01*
X-16630Y40617D01*
X-16129Y41118D01*
X-15858Y41772D01*
Y42480D01*
X-16129Y43134D01*
X-16630Y43635D01*
X-17284Y43905D01*
X-17992D01*
X-18634Y43639D01*
X-19677D01*
Y44299D01*
D02*
G37*
G36*
X-93006Y37902D02*
X-95028D01*
Y34699D01*
X-93006D01*
Y37902D01*
D02*
G37*
G36*
X11327Y34358D02*
X9404D01*
Y32533D01*
X11327D01*
Y34358D01*
D02*
G37*
G36*
X8904D02*
X6980D01*
Y32533D01*
X8904D01*
Y34358D01*
D02*
G37*
G36*
X5028D02*
X3104D01*
Y32533D01*
X5028D01*
Y34358D01*
D02*
G37*
G36*
X2604D02*
X681D01*
Y32533D01*
X2604D01*
Y34358D01*
D02*
G37*
G36*
X-93006Y34199D02*
X-95028D01*
Y30996D01*
X-93006D01*
Y34199D01*
D02*
G37*
G36*
X11327Y32034D02*
X9404D01*
Y30209D01*
X11327D01*
Y32034D01*
D02*
G37*
G36*
X8904D02*
X6980D01*
Y30209D01*
X8904D01*
Y32034D01*
D02*
G37*
G36*
X5028D02*
X3104D01*
Y30209D01*
X5028D01*
Y32034D01*
D02*
G37*
G36*
X2604D02*
X681D01*
Y30209D01*
X2604D01*
Y32034D01*
D02*
G37*
G36*
X109172Y36561D02*
X107678D01*
X106235Y36174D01*
X104941Y35427D01*
X103884Y34370D01*
X103137Y33076D01*
X102750Y31633D01*
Y30139D01*
X103137Y28695D01*
X103884Y27401D01*
X104941Y26345D01*
X106235Y25598D01*
X107678Y25211D01*
X109172D01*
X110616Y25598D01*
X111910Y26345D01*
X112966Y27401D01*
X113714Y28695D01*
X114100Y30139D01*
Y31633D01*
X113714Y33076D01*
X112966Y34370D01*
X111910Y35427D01*
X110616Y36174D01*
X109172Y36561D01*
D02*
G37*
G36*
X89172D02*
X87678D01*
X86235Y36174D01*
X84941Y35427D01*
X83884Y34370D01*
X83137Y33076D01*
X82750Y31633D01*
Y30139D01*
X83137Y28695D01*
X83884Y27401D01*
X84941Y26345D01*
X86235Y25598D01*
X87678Y25211D01*
X89172D01*
X90616Y25598D01*
X91910Y26345D01*
X92966Y27401D01*
X93713Y28695D01*
X94100Y30139D01*
Y31633D01*
X93713Y33076D01*
X92966Y34370D01*
X91910Y35427D01*
X90616Y36174D01*
X89172Y36561D01*
D02*
G37*
G36*
X102810Y26336D02*
X102033D01*
X101283Y26135D01*
X100610Y25746D01*
X100061Y25197D01*
X99672Y24524D01*
X99471Y23774D01*
Y22997D01*
X99672Y22247D01*
X100061Y21575D01*
X100610Y21025D01*
X101283Y20637D01*
X102033Y20436D01*
X102810D01*
X103560Y20637D01*
X104233Y21025D01*
X104782Y21575D01*
X105170Y22247D01*
X105371Y22997D01*
Y23774D01*
X105170Y24524D01*
X104782Y25197D01*
X104233Y25746D01*
X103560Y26135D01*
X102810Y26336D01*
D02*
G37*
G36*
X94818D02*
X94041D01*
X93291Y26135D01*
X92618Y25746D01*
X92069Y25197D01*
X91680Y24524D01*
X91479Y23774D01*
Y22997D01*
X91680Y22247D01*
X92069Y21575D01*
X92618Y21025D01*
X93291Y20637D01*
X94041Y20436D01*
X94818D01*
X95568Y20637D01*
X96241Y21025D01*
X96790Y21575D01*
X97178Y22247D01*
X97379Y22997D01*
Y23774D01*
X97178Y24524D01*
X96790Y25197D01*
X96241Y25746D01*
X95568Y26135D01*
X94818Y26336D01*
D02*
G37*
G36*
X39724Y15559D02*
X39016D01*
X38362Y15288D01*
X37873Y14799D01*
X24332D01*
X23843Y15288D01*
X23189Y15559D01*
X22481D01*
X21827Y15288D01*
X21326Y14787D01*
X21055Y14133D01*
Y13426D01*
X21326Y12772D01*
X21827Y12271D01*
X22481Y12000D01*
X23189D01*
X23843Y12271D01*
X24332Y12760D01*
X37873D01*
X38362Y12271D01*
X39016Y12000D01*
X39724D01*
X40378Y12271D01*
X40879Y12772D01*
X41150Y13426D01*
Y14133D01*
X40879Y14787D01*
X40378Y15288D01*
X39724Y15559D01*
D02*
G37*
G36*
Y10835D02*
X39016D01*
X38362Y10564D01*
X37873Y10075D01*
X23938D01*
X23449Y10564D01*
X22795Y10835D01*
X22087D01*
X21433Y10564D01*
X20932Y10063D01*
X20661Y9409D01*
Y8701D01*
X20932Y8047D01*
X21433Y7547D01*
X22087Y7276D01*
X22795D01*
X23449Y7547D01*
X23938Y8036D01*
X37873D01*
X38362Y7547D01*
X39016Y7276D01*
X39724D01*
X40378Y7547D01*
X40879Y8047D01*
X41150Y8701D01*
Y9409D01*
X40879Y10063D01*
X40378Y10564D01*
X39724Y10835D01*
D02*
G37*
G36*
X78208Y14850D02*
X77500D01*
X76846Y14580D01*
X76346Y14079D01*
X76075Y13425D01*
Y12717D01*
X76341Y12074D01*
Y11032D01*
X75681D01*
Y6882D01*
X80028D01*
Y11032D01*
X79368D01*
Y12074D01*
X79634Y12717D01*
Y13425D01*
X79363Y14079D01*
X78862Y14580D01*
X78208Y14850D01*
D02*
G37*
G36*
X11622Y2173D02*
X7473D01*
Y1513D01*
X5028D01*
Y2173D01*
X878D01*
Y-2173D01*
X5028D01*
Y-1513D01*
X7473D01*
Y-2173D01*
X11622D01*
Y2173D01*
D02*
G37*
G36*
X17724D02*
X15900D01*
Y250D01*
X17724D01*
Y2173D01*
D02*
G37*
G36*
X15400D02*
X13575D01*
Y250D01*
X15400D01*
Y2173D01*
D02*
G37*
G36*
X88945Y3945D02*
X88675D01*
Y250D01*
X92370D01*
Y519D01*
X92101Y1523D01*
X91582Y2422D01*
X90847Y3157D01*
X89948Y3676D01*
X88945Y3945D01*
D02*
G37*
G36*
X88175D02*
X87906D01*
X86902Y3676D01*
X86003Y3157D01*
X85268Y2422D01*
X84749Y1523D01*
X84480Y519D01*
Y250D01*
X88175D01*
Y3945D01*
D02*
G37*
G36*
X-54579Y1878D02*
X-56600D01*
Y-144D01*
X-54579D01*
Y1878D01*
D02*
G37*
G36*
X-65602D02*
X-67624D01*
Y-144D01*
X-65602D01*
Y1878D01*
D02*
G37*
G36*
X-60091D02*
X-62112D01*
Y-144D01*
X-60091D01*
Y1878D01*
D02*
G37*
G36*
X-62612D02*
X-64634D01*
Y-144D01*
X-62612D01*
Y1878D01*
D02*
G37*
G36*
X-68124D02*
X-70146D01*
Y-144D01*
X-68124D01*
Y1878D01*
D02*
G37*
G36*
X-57100D02*
X-59122D01*
Y-144D01*
X-57100D01*
Y1878D01*
D02*
G37*
G36*
X17724Y-250D02*
X15900D01*
Y-2173D01*
X17724D01*
Y-250D01*
D02*
G37*
G36*
X15400D02*
X13575D01*
Y-2173D01*
X15400D01*
Y-250D01*
D02*
G37*
G36*
X-54579Y-644D02*
X-56600D01*
Y-2665D01*
X-54579D01*
Y-644D01*
D02*
G37*
G36*
X-57100D02*
X-59122D01*
Y-2665D01*
X-57100D01*
Y-644D01*
D02*
G37*
G36*
X-60091D02*
X-62112D01*
Y-2665D01*
X-60091D01*
Y-644D01*
D02*
G37*
G36*
X-62612D02*
X-64634D01*
Y-2665D01*
X-62612D01*
Y-644D01*
D02*
G37*
G36*
X-65602D02*
X-67624D01*
Y-2665D01*
X-65602D01*
Y-644D01*
D02*
G37*
G36*
X-68124D02*
X-70146D01*
Y-2665D01*
X-68124D01*
Y-644D01*
D02*
G37*
G36*
X112370Y3945D02*
X104480D01*
Y-3945D01*
X112370D01*
Y3945D01*
D02*
G37*
G36*
X80028Y4929D02*
X75681D01*
Y779D01*
X76835D01*
Y-779D01*
X75681D01*
Y-4929D01*
X80028D01*
Y-3981D01*
X80528Y-3918D01*
X83236Y-6627D01*
X83566Y-6848D01*
X83957Y-6925D01*
X92520D01*
X92910Y-6848D01*
X93241Y-6627D01*
X96451Y-3416D01*
X96903Y-3676D01*
X97906Y-3945D01*
X98945D01*
X99948Y-3676D01*
X100847Y-3157D01*
X101582Y-2422D01*
X102101Y-1523D01*
X102370Y-519D01*
Y519D01*
X102101Y1523D01*
X101582Y2422D01*
X100847Y3157D01*
X99948Y3676D01*
X98945Y3945D01*
X97906D01*
X96903Y3676D01*
X96003Y3157D01*
X95268Y2422D01*
X94749Y1523D01*
X94480Y519D01*
Y-519D01*
X94749Y-1523D01*
X95010Y-1974D01*
X92097Y-4886D01*
X84379D01*
X81626Y-2133D01*
X81296Y-1912D01*
X80905Y-1835D01*
X80028D01*
Y-779D01*
X78874D01*
Y779D01*
X80028D01*
Y4929D01*
D02*
G37*
G36*
X92370Y-250D02*
X88675D01*
Y-3945D01*
X88945D01*
X89948Y-3676D01*
X90847Y-3157D01*
X91582Y-2422D01*
X92101Y-1523D01*
X92370Y-519D01*
Y-250D01*
D02*
G37*
G36*
X88175D02*
X84480D01*
Y-519D01*
X84749Y-1523D01*
X85268Y-2422D01*
X86003Y-3157D01*
X86902Y-3676D01*
X87906Y-3945D01*
X88175D01*
Y-250D01*
D02*
G37*
G36*
X-54579Y-3634D02*
X-56600D01*
Y-5655D01*
X-54579D01*
Y-3634D01*
D02*
G37*
G36*
X-65602D02*
X-67624D01*
Y-5655D01*
X-65602D01*
Y-3634D01*
D02*
G37*
G36*
X-60091D02*
X-62112D01*
Y-5655D01*
X-60091D01*
Y-3634D01*
D02*
G37*
G36*
X-62612D02*
X-64634D01*
Y-5655D01*
X-62612D01*
Y-3634D01*
D02*
G37*
G36*
X-68124D02*
X-70146D01*
Y-5655D01*
X-68124D01*
Y-3634D01*
D02*
G37*
G36*
X-57100D02*
X-59122D01*
Y-5655D01*
X-57100D01*
Y-3634D01*
D02*
G37*
G36*
X-54579Y-6155D02*
X-56600D01*
Y-8177D01*
X-54579D01*
Y-6155D01*
D02*
G37*
G36*
X-57100D02*
X-59122D01*
Y-8177D01*
X-57100D01*
Y-6155D01*
D02*
G37*
G36*
X-60091D02*
X-62112D01*
Y-8177D01*
X-60091D01*
Y-6155D01*
D02*
G37*
G36*
X-62612D02*
X-64634D01*
Y-8177D01*
X-62612D01*
Y-6155D01*
D02*
G37*
G36*
X-65602D02*
X-67624D01*
Y-8177D01*
X-65602D01*
Y-6155D01*
D02*
G37*
G36*
X-68124D02*
X-70146D01*
Y-8177D01*
X-68124D01*
Y-6155D01*
D02*
G37*
G36*
X80028Y-6882D02*
X78104D01*
Y-8707D01*
X80028D01*
Y-6882D01*
D02*
G37*
G36*
X77604D02*
X75681D01*
Y-8707D01*
X77604D01*
Y-6882D01*
D02*
G37*
G36*
X80028Y-9207D02*
X78104D01*
Y-11032D01*
X80028D01*
Y-9207D01*
D02*
G37*
G36*
X77604D02*
X75681D01*
Y-11032D01*
X77604D01*
Y-9207D01*
D02*
G37*
G36*
X-54579Y-9146D02*
X-56600D01*
Y-11167D01*
X-54579D01*
Y-9146D01*
D02*
G37*
G36*
X-65602D02*
X-67624D01*
Y-11167D01*
X-65602D01*
Y-9146D01*
D02*
G37*
G36*
X-60091D02*
X-62112D01*
Y-11167D01*
X-60091D01*
Y-9146D01*
D02*
G37*
G36*
X-62612D02*
X-64634D01*
Y-11167D01*
X-62612D01*
Y-9146D01*
D02*
G37*
G36*
X-68124D02*
X-70146D01*
Y-11167D01*
X-68124D01*
Y-9146D01*
D02*
G37*
G36*
X-57100D02*
X-59122D01*
Y-11167D01*
X-57100D01*
Y-9146D01*
D02*
G37*
G36*
X-54579Y-11667D02*
X-56600D01*
Y-13689D01*
X-54579D01*
Y-11667D01*
D02*
G37*
G36*
X-57100D02*
X-59122D01*
Y-13689D01*
X-57100D01*
Y-11667D01*
D02*
G37*
G36*
X-60091D02*
X-62112D01*
Y-13689D01*
X-60091D01*
Y-11667D01*
D02*
G37*
G36*
X-62612D02*
X-64634D01*
Y-13689D01*
X-62612D01*
Y-11667D01*
D02*
G37*
G36*
X-65602D02*
X-67624D01*
Y-13689D01*
X-65602D01*
Y-11667D01*
D02*
G37*
G36*
X-68124D02*
X-70146D01*
Y-13689D01*
X-68124D01*
Y-11667D01*
D02*
G37*
G36*
X78208Y-14677D02*
X77500D01*
X76846Y-14948D01*
X76346Y-15449D01*
X76075Y-16103D01*
Y-16811D01*
X76341Y-17453D01*
Y-18496D01*
X75681D01*
Y-22646D01*
X80028D01*
Y-18496D01*
X79368D01*
Y-17453D01*
X79634Y-16811D01*
Y-16103D01*
X79363Y-15449D01*
X78862Y-14948D01*
X78208Y-14677D01*
D02*
G37*
G36*
X88945Y-25681D02*
X88675D01*
Y-29376D01*
X92370D01*
Y-29107D01*
X92101Y-28103D01*
X91582Y-27204D01*
X90847Y-26469D01*
X89948Y-25950D01*
X88945Y-25681D01*
D02*
G37*
G36*
X88175D02*
X87906D01*
X86902Y-25950D01*
X86003Y-26469D01*
X85268Y-27204D01*
X84749Y-28103D01*
X84480Y-29107D01*
Y-29376D01*
X88175D01*
Y-25681D01*
D02*
G37*
G36*
X-92559Y-25386D02*
X-93267D01*
X-93921Y-25657D01*
X-94422Y-26157D01*
X-94693Y-26811D01*
Y-27519D01*
X-94422Y-28173D01*
X-93921Y-28674D01*
X-93267Y-28945D01*
X-92559D01*
X-91905Y-28674D01*
X-91416Y-28185D01*
X-84281D01*
X-83776Y-28690D01*
Y-30996D01*
X-84984D01*
X-85027Y-30996D01*
X-85484D01*
X-85528Y-30996D01*
X-89984D01*
Y-30496D01*
X-91772D01*
Y-34449D01*
Y-38402D01*
X-90108D01*
Y-50169D01*
X-90579Y-50640D01*
X-103634D01*
X-103733Y-50681D01*
X-110834D01*
X-110933Y-50640D01*
X-116142D01*
X-116524Y-50798D01*
X-116683Y-51181D01*
Y-67913D01*
X-116524Y-68296D01*
X-116142Y-68455D01*
X-85630D01*
X-85247Y-68296D01*
X-84850Y-68118D01*
X-80504D01*
Y-63968D01*
X-84850D01*
X-85089Y-63567D01*
Y-62417D01*
X-84850Y-62016D01*
X-84589Y-62016D01*
X-80504D01*
Y-60961D01*
X-78945D01*
Y-62016D01*
X-74598D01*
Y-57866D01*
X-78945D01*
Y-58921D01*
X-80504D01*
Y-57866D01*
X-81736D01*
Y-37902D01*
X-80528D01*
X-80484Y-37902D01*
X-80028D01*
X-79984Y-37902D01*
X-78776D01*
Y-43861D01*
X-78698Y-44252D01*
X-78477Y-44583D01*
X-65882Y-57178D01*
Y-57866D01*
X-67035D01*
Y-62016D01*
X-62689D01*
Y-57866D01*
X-63843D01*
Y-56755D01*
X-63920Y-56365D01*
X-64141Y-56034D01*
X-76736Y-43439D01*
Y-37902D01*
X-75528D01*
X-75484Y-37902D01*
X-75028D01*
X-74984Y-37902D01*
X-73776D01*
Y-42008D01*
X-73698Y-42398D01*
X-73477Y-42729D01*
X-59976Y-56229D01*
Y-57866D01*
X-61130D01*
Y-62016D01*
X-56783D01*
Y-57866D01*
X-57937D01*
Y-55807D01*
X-58015Y-55417D01*
X-58236Y-55086D01*
X-71736Y-41585D01*
Y-37902D01*
X-70528D01*
X-70484Y-37902D01*
X-70028D01*
X-69984Y-37902D01*
X-68775D01*
Y-41988D01*
X-68698Y-42378D01*
X-68477Y-42709D01*
X-54071Y-57115D01*
Y-57866D01*
X-55224D01*
Y-62016D01*
X-50878D01*
Y-57866D01*
X-52032D01*
Y-56693D01*
X-52109Y-56303D01*
X-52330Y-55972D01*
X-66736Y-41566D01*
Y-37902D01*
X-65528D01*
X-65484Y-37902D01*
X-65027D01*
X-64984Y-37902D01*
X-63775D01*
Y-40886D01*
X-63698Y-41276D01*
X-63477Y-41607D01*
X-48165Y-56918D01*
Y-57866D01*
X-49319D01*
Y-62016D01*
X-44972D01*
Y-57866D01*
X-46126D01*
Y-56496D01*
X-46204Y-56106D01*
X-46425Y-55775D01*
X-61736Y-40464D01*
Y-37902D01*
X-60528D01*
X-60484Y-37902D01*
X-60027D01*
X-59984Y-37902D01*
X-58776D01*
Y-41457D01*
X-58698Y-41847D01*
X-58477Y-42178D01*
X-47571Y-53083D01*
X-47241Y-53304D01*
X-46850Y-53382D01*
X-42629D01*
X-42422Y-53882D01*
X-42749Y-54208D01*
X-43020Y-54862D01*
Y-55571D01*
X-42749Y-56225D01*
X-42260Y-56714D01*
Y-57866D01*
X-43413D01*
Y-62016D01*
X-39067D01*
Y-57866D01*
X-40221D01*
Y-56714D01*
X-39732Y-56225D01*
X-39461Y-55571D01*
Y-54862D01*
X-39732Y-54208D01*
X-40058Y-53882D01*
X-39851Y-53382D01*
X-21879D01*
X-19720Y-55540D01*
Y-57866D01*
X-20776D01*
Y-62016D01*
X-16429D01*
Y-57866D01*
X-17681D01*
Y-55118D01*
X-17759Y-54728D01*
X-17980Y-54397D01*
X-20736Y-51641D01*
X-20918Y-51520D01*
X-20766Y-51020D01*
X-17352D01*
X-13716Y-54655D01*
Y-57866D01*
X-14870D01*
Y-62016D01*
X-10524D01*
Y-57866D01*
X-11677D01*
Y-54232D01*
X-11755Y-53842D01*
X-11976Y-53511D01*
X-15936Y-49551D01*
X-15729Y-49051D01*
X-11446D01*
X-7811Y-52686D01*
Y-57866D01*
X-8965D01*
Y-62016D01*
X-4618D01*
Y-57866D01*
X-5772D01*
Y-52264D01*
X-5849Y-51874D01*
X-6070Y-51543D01*
X-10303Y-47311D01*
X-10633Y-47089D01*
X-11024Y-47012D01*
X-42346D01*
X-46736Y-42622D01*
Y-37902D01*
X-45528D01*
X-45484Y-37902D01*
X-45028D01*
X-44984Y-37902D01*
X-43775D01*
Y-40709D01*
X-43698Y-41099D01*
X-43477Y-41430D01*
X-38970Y-45937D01*
X-38639Y-46158D01*
X-38249Y-46235D01*
X-7372D01*
X-1905Y-51702D01*
Y-57866D01*
X-3059D01*
Y-62016D01*
X1287D01*
Y-57866D01*
X134D01*
Y-51279D01*
X56Y-50889D01*
X-165Y-50559D01*
X-6229Y-44495D01*
X-6560Y-44274D01*
X-6950Y-44196D01*
X-19373D01*
X-19658Y-43696D01*
X-19480Y-43267D01*
Y-42559D01*
X-19751Y-41905D01*
X-20252Y-41405D01*
X-20870Y-41149D01*
X-20898Y-40976D01*
X-20880Y-40645D01*
X-20327Y-40416D01*
X-19827Y-39915D01*
X-19556Y-39261D01*
Y-38553D01*
X-19827Y-37899D01*
X-20327Y-37399D01*
X-20981Y-37128D01*
X-21689D01*
X-22343Y-37399D01*
X-22844Y-37899D01*
X-23115Y-38553D01*
Y-39245D01*
X-23662Y-39792D01*
X-26736D01*
Y-37902D01*
X-25484D01*
Y-30996D01*
X-29984D01*
X-30028Y-30996D01*
X-30484D01*
X-30528Y-30996D01*
X-34984D01*
X-35028Y-30996D01*
X-35484D01*
X-35528Y-30996D01*
X-39984D01*
X-40028Y-30996D01*
X-40484D01*
X-40528Y-30996D01*
X-44984D01*
X-45028Y-30996D01*
X-45484D01*
X-45528Y-30996D01*
X-50028D01*
Y-30996D01*
X-50484D01*
Y-30996D01*
X-54984D01*
X-55028Y-30996D01*
X-55484D01*
X-55528Y-30996D01*
X-59984D01*
X-60027Y-30996D01*
X-60484D01*
X-60528Y-30996D01*
X-64984D01*
X-65027Y-30996D01*
X-65484D01*
X-65528Y-30996D01*
X-69984D01*
X-70028Y-30996D01*
X-70484D01*
X-70528Y-30996D01*
X-74984D01*
X-75028Y-30996D01*
X-75484D01*
X-75528Y-30996D01*
X-79984D01*
X-80028Y-30996D01*
X-80484D01*
X-80528Y-30996D01*
X-81736D01*
Y-28268D01*
X-81814Y-27878D01*
X-82035Y-27547D01*
X-83137Y-26444D01*
X-83468Y-26223D01*
X-83858Y-26146D01*
X-91416D01*
X-91905Y-25657D01*
X-92559Y-25386D01*
D02*
G37*
G36*
X112370Y-25681D02*
X104480D01*
Y-33571D01*
X112370D01*
Y-25681D01*
D02*
G37*
G36*
X80028Y-24598D02*
X75681D01*
Y-28748D01*
X76835D01*
Y-30307D01*
X75681D01*
Y-34457D01*
X80028D01*
Y-33746D01*
X80528Y-33544D01*
X83137Y-36154D01*
X83468Y-36375D01*
X83858Y-36453D01*
X92520D01*
X92910Y-36375D01*
X93241Y-36154D01*
X96389Y-33006D01*
X96903Y-33302D01*
X97906Y-33571D01*
X98945D01*
X99948Y-33302D01*
X100847Y-32783D01*
X101582Y-32048D01*
X102101Y-31149D01*
X102370Y-30145D01*
Y-29107D01*
X102101Y-28103D01*
X101582Y-27204D01*
X100847Y-26469D01*
X99948Y-25950D01*
X98945Y-25681D01*
X97906D01*
X96903Y-25950D01*
X96003Y-26469D01*
X95268Y-27204D01*
X94749Y-28103D01*
X94480Y-29107D01*
Y-30145D01*
X94749Y-31149D01*
X94973Y-31537D01*
X92097Y-34413D01*
X84281D01*
X81528Y-31661D01*
X81197Y-31440D01*
X80807Y-31362D01*
X80028D01*
Y-30307D01*
X78874D01*
Y-28748D01*
X80028D01*
Y-24598D01*
D02*
G37*
G36*
X92370Y-29876D02*
X88675D01*
Y-33571D01*
X88945D01*
X89948Y-33302D01*
X90847Y-32783D01*
X91582Y-32048D01*
X92101Y-31149D01*
X92370Y-30145D01*
Y-29876D01*
D02*
G37*
G36*
X88175D02*
X84480D01*
Y-30145D01*
X84749Y-31149D01*
X85268Y-32048D01*
X86003Y-32783D01*
X86902Y-33302D01*
X87906Y-33571D01*
X88175D01*
Y-29876D01*
D02*
G37*
G36*
X80028Y-36410D02*
X78104D01*
Y-38234D01*
X80028D01*
Y-36410D01*
D02*
G37*
G36*
X77604D02*
X75681D01*
Y-38234D01*
X77604D01*
Y-36410D01*
D02*
G37*
G36*
X-175867Y121386D02*
X-176009Y121360D01*
X-176151Y121337D01*
X-176162Y121330D01*
X-176175Y121328D01*
X-176375Y121247D01*
X-176386Y121240D01*
X-176398Y121238D01*
X-176516Y121155D01*
X-176637Y121076D01*
X-176644Y121065D01*
X-176655Y121058D01*
X-176729Y120980D01*
X-177641Y120027D01*
X-177661Y119994D01*
X-177691Y119969D01*
X-179323Y117899D01*
X-179341Y117865D01*
X-179368Y117837D01*
X-180796Y115620D01*
X-180810Y115584D01*
X-180834Y115554D01*
X-182045Y113212D01*
X-182056Y113174D01*
X-182077Y113142D01*
X-183059Y110695D01*
X-183066Y110657D01*
X-183084Y110623D01*
X-183828Y108093D01*
X-183832Y108055D01*
X-183846Y108019D01*
X-184346Y105430D01*
X-184346Y105392D01*
X-184357Y105354D01*
X-184608Y102730D01*
X-184604Y102691D01*
X-184612Y102653D01*
Y101335D01*
X-184612Y-101336D01*
Y-102654D01*
X-184605Y-102692D01*
X-184609Y-102730D01*
X-184358Y-105354D01*
X-184347Y-105391D01*
X-184347Y-105429D01*
X-183847Y-108017D01*
X-183833Y-108053D01*
X-183829Y-108091D01*
X-183086Y-110620D01*
X-183068Y-110654D01*
X-183061Y-110692D01*
X-182080Y-113138D01*
X-182058Y-113171D01*
X-182048Y-113208D01*
X-180838Y-115549D01*
X-180814Y-115579D01*
X-180800Y-115615D01*
X-179373Y-117831D01*
X-179346Y-117859D01*
X-179329Y-117893D01*
X-177697Y-119963D01*
X-177668Y-119988D01*
X-177647Y-120021D01*
X-176736Y-120974D01*
X-176736Y-120974D01*
X-176735Y-120975D01*
X-176735Y-120975D01*
X-176735Y-120975D01*
X-176734Y-120976D01*
X-176734Y-120976D01*
X-176734Y-120977D01*
X-176733Y-120977D01*
X-176732Y-120978D01*
X-176732Y-120979D01*
X-176731Y-120979D01*
X-176731Y-120979D01*
X-176730Y-120980D01*
X-176730Y-120980D01*
X-176729Y-120982D01*
X-176728Y-120982D01*
X-176728Y-120982D01*
X-176727Y-120984D01*
X-176725Y-120985D01*
X-176725Y-120986D01*
X-176723Y-120987D01*
X-176723Y-120988D01*
X-176722Y-120989D01*
X-176722Y-120989D01*
X-176720Y-120990D01*
X-176719Y-120992D01*
X-176718Y-120993D01*
X-176717Y-120993D01*
X-176717Y-120994D01*
X-176642Y-121070D01*
X-176633Y-121076D01*
X-176626Y-121086D01*
X-176503Y-121164D01*
X-176383Y-121246D01*
X-176372Y-121248D01*
X-176362Y-121254D01*
X-176163Y-121332D01*
X-176152Y-121334D01*
X-176142Y-121340D01*
X-175998Y-121362D01*
X-175855Y-121387D01*
X-175844Y-121385D01*
X-175832Y-121387D01*
X-175619Y-121377D01*
X-175608Y-121374D01*
X-175596Y-121375D01*
X-175456Y-121336D01*
X-175314Y-121301D01*
X-175305Y-121294D01*
X-175294Y-121291D01*
X-175103Y-121195D01*
X-175095Y-121187D01*
X-175084Y-121184D01*
X-174972Y-121091D01*
X-174857Y-121001D01*
X-174851Y-120992D01*
X-174843Y-120984D01*
X-174801Y-120933D01*
X-140092Y-86225D01*
X-140075Y-86207D01*
X-140049Y-86169D01*
X-140014Y-86140D01*
X-139979Y-86096D01*
X-139958Y-86056D01*
X-139926Y-86023D01*
X-139896Y-85975D01*
X-139883Y-85942D01*
X-138490Y-84475D01*
X-138477Y-84453D01*
X-138456Y-84437D01*
X-135722Y-81166D01*
X-135710Y-81144D01*
X-135691Y-81126D01*
X-133168Y-77690D01*
X-133157Y-77667D01*
X-133140Y-77648D01*
X-130839Y-74059D01*
X-130830Y-74035D01*
X-130813Y-74016D01*
X-128744Y-70289D01*
X-128736Y-70265D01*
X-128720Y-70244D01*
X-126890Y-66394D01*
X-126884Y-66369D01*
X-126870Y-66347D01*
X-125286Y-62389D01*
X-125282Y-62364D01*
X-125269Y-62342D01*
X-123938Y-58292D01*
X-123935Y-58266D01*
X-123924Y-58243D01*
X-122852Y-54117D01*
X-122850Y-54092D01*
X-122840Y-54068D01*
X-122031Y-49883D01*
X-122031Y-49857D01*
X-122023Y-49832D01*
X-121479Y-45604D01*
X-121481Y-45579D01*
X-121474Y-45554D01*
X-121198Y-41300D01*
X-121201Y-41274D01*
X-121196Y-41249D01*
X-121193Y-39129D01*
X-121192Y-39128D01*
X-121192Y-39122D01*
X-121193Y-39120D01*
Y-39118D01*
X-121193Y-39117D01*
X-121193Y-39116D01*
X-121193Y-39115D01*
X-121192Y-39110D01*
X-121192Y-39104D01*
X-121193Y-39098D01*
X-121192Y-39092D01*
X-121192Y-39088D01*
Y-35974D01*
X-96457D01*
X-96074Y-35816D01*
X-96027Y-35704D01*
X-95527Y-35803D01*
Y-38402D01*
X-93740D01*
Y-34449D01*
Y-30496D01*
X-95416D01*
X-95527Y-30496D01*
X-95916Y-30226D01*
Y35433D01*
X-96074Y35816D01*
X-96457Y35974D01*
X-121192D01*
Y39068D01*
X-121192Y39068D01*
Y41211D01*
X-121197Y41236D01*
X-121194Y41262D01*
X-121465Y45539D01*
X-121472Y45564D01*
X-121470Y45590D01*
X-122013Y49841D01*
X-122021Y49865D01*
X-122021Y49891D01*
X-122832Y54099D01*
X-122842Y54123D01*
X-122844Y54149D01*
X-123920Y58297D01*
X-123932Y58320D01*
X-123935Y58346D01*
X-125272Y62417D01*
X-125285Y62439D01*
X-125290Y62465D01*
X-126883Y66443D01*
X-126897Y66465D01*
X-126904Y66490D01*
X-128746Y70359D01*
X-128762Y70380D01*
X-128770Y70404D01*
X-130854Y74149D01*
X-130871Y74168D01*
X-130880Y74193D01*
X-133198Y77797D01*
X-133216Y77816D01*
X-133227Y77839D01*
X-135768Y81290D01*
X-135787Y81307D01*
X-135800Y81330D01*
X-138556Y84612D01*
X-138576Y84628D01*
X-138590Y84650D01*
X-140069Y86200D01*
X-140071Y86202D01*
X-140073Y86205D01*
X-140075Y86207D01*
X-140078Y86209D01*
X-140080Y86212D01*
X-140082Y86214D01*
X-140085Y86216D01*
X-140087Y86219D01*
X-140089Y86221D01*
X-140091Y86222D01*
X-140092Y86224D01*
X-174800Y120932D01*
X-174842Y120984D01*
X-174852Y120992D01*
X-174858Y121003D01*
X-174972Y121092D01*
X-175083Y121184D01*
X-175095Y121188D01*
X-175105Y121195D01*
X-175299Y121292D01*
X-175311Y121296D01*
X-175321Y121303D01*
X-175461Y121337D01*
X-175601Y121376D01*
X-175613Y121374D01*
X-175626Y121377D01*
X-175841Y121386D01*
X-175854Y121384D01*
X-175867Y121386D01*
D02*
G37*
G36*
X80028Y-38734D02*
X78104D01*
Y-40559D01*
X80028D01*
Y-38734D01*
D02*
G37*
G36*
X77604D02*
X75681D01*
Y-40559D01*
X77604D01*
Y-38734D01*
D02*
G37*
G36*
X-91528Y-39165D02*
X-93352D01*
Y-41089D01*
X-91528D01*
Y-39165D01*
D02*
G37*
G36*
X-93852D02*
X-95677D01*
Y-41089D01*
X-93852D01*
Y-39165D01*
D02*
G37*
G36*
X-103634Y-36508D02*
X-107033D01*
Y-41876D01*
X-103634D01*
Y-36508D01*
D02*
G37*
G36*
X-107533D02*
X-110933D01*
Y-41876D01*
X-107533D01*
Y-36508D01*
D02*
G37*
G36*
X-91528Y-41589D02*
X-93352D01*
Y-43512D01*
X-91528D01*
Y-41589D01*
D02*
G37*
G36*
X-93852D02*
X-95677D01*
Y-43512D01*
X-93852D01*
Y-41589D01*
D02*
G37*
G36*
X-91528Y-45071D02*
X-93352D01*
Y-46994D01*
X-91528D01*
Y-45071D01*
D02*
G37*
G36*
X-93852D02*
X-95677D01*
Y-46994D01*
X-93852D01*
Y-45071D01*
D02*
G37*
G36*
X-103634Y-42376D02*
X-107033D01*
Y-47744D01*
X-103634D01*
Y-42376D01*
D02*
G37*
G36*
X-107533D02*
X-110933D01*
Y-47744D01*
X-107533D01*
Y-42376D01*
D02*
G37*
G36*
X-91528Y-47494D02*
X-93352D01*
Y-49417D01*
X-91528D01*
Y-47494D01*
D02*
G37*
G36*
X-93852D02*
X-95677D01*
Y-49417D01*
X-93852D01*
Y-47494D01*
D02*
G37*
G36*
X78208Y-44205D02*
X77500D01*
X76846Y-44476D01*
X76346Y-44976D01*
X76075Y-45630D01*
Y-46338D01*
X76341Y-46981D01*
Y-48024D01*
X75681D01*
Y-52173D01*
X80028D01*
Y-48024D01*
X79368D01*
Y-46981D01*
X79634Y-46338D01*
Y-45630D01*
X79363Y-44976D01*
X78862Y-44476D01*
X78208Y-44205D01*
D02*
G37*
G36*
X88945Y-55307D02*
X88675D01*
Y-59002D01*
X92370D01*
Y-58733D01*
X92101Y-57729D01*
X91582Y-56830D01*
X90847Y-56095D01*
X89948Y-55576D01*
X88945Y-55307D01*
D02*
G37*
G36*
X88175D02*
X87906D01*
X86902Y-55576D01*
X86003Y-56095D01*
X85268Y-56830D01*
X84749Y-57729D01*
X84480Y-58733D01*
Y-59002D01*
X88175D01*
Y-55307D01*
D02*
G37*
G36*
X13098Y-57768D02*
X11175D01*
Y-59592D01*
X13098D01*
Y-57768D01*
D02*
G37*
G36*
X10675D02*
X8752D01*
Y-59592D01*
X10675D01*
Y-57768D01*
D02*
G37*
G36*
X-33161Y-57866D02*
X-35085D01*
Y-59691D01*
X-33161D01*
Y-57866D01*
D02*
G37*
G36*
X-35585D02*
X-37508D01*
Y-59691D01*
X-35585D01*
Y-57866D01*
D02*
G37*
G36*
X68746D02*
X66823D01*
Y-59691D01*
X68746D01*
Y-57866D01*
D02*
G37*
G36*
X23925D02*
X22002D01*
Y-59691D01*
X23925D01*
Y-57866D01*
D02*
G37*
G36*
X21502D02*
X19579D01*
Y-59691D01*
X21502D01*
Y-57866D01*
D02*
G37*
G36*
X-22335D02*
X-24258D01*
Y-59691D01*
X-22335D01*
Y-57866D01*
D02*
G37*
G36*
X-24758D02*
X-26681D01*
Y-59691D01*
X-24758D01*
Y-57866D01*
D02*
G37*
G36*
X-68594D02*
X-70518D01*
Y-59691D01*
X-68594D01*
Y-57866D01*
D02*
G37*
G36*
X-71018D02*
X-72941D01*
Y-59691D01*
X-71018D01*
Y-57866D01*
D02*
G37*
G36*
X13098Y-60093D02*
X11175D01*
Y-61917D01*
X13098D01*
Y-60093D01*
D02*
G37*
G36*
X10675D02*
X8752D01*
Y-61917D01*
X10675D01*
Y-60093D01*
D02*
G37*
G36*
X23925Y-60191D02*
X22002D01*
Y-62016D01*
X23925D01*
Y-60191D01*
D02*
G37*
G36*
X21502D02*
X19579D01*
Y-62016D01*
X21502D01*
Y-60191D01*
D02*
G37*
G36*
X5374Y-51370D02*
X4666D01*
X4012Y-51641D01*
X3511Y-52142D01*
X3240Y-52796D01*
Y-53504D01*
X3511Y-54158D01*
X4000Y-54647D01*
Y-57866D01*
X2847D01*
Y-62016D01*
X7193D01*
Y-57866D01*
X6039D01*
Y-54647D01*
X6528Y-54158D01*
X6799Y-53504D01*
Y-52796D01*
X6528Y-52142D01*
X6028Y-51641D01*
X5374Y-51370D01*
D02*
G37*
G36*
X-22335Y-60191D02*
X-24258D01*
Y-62016D01*
X-22335D01*
Y-60191D01*
D02*
G37*
G36*
X-24758D02*
X-26681D01*
Y-62016D01*
X-24758D01*
Y-60191D01*
D02*
G37*
G36*
X-33161Y-60191D02*
X-35085D01*
Y-62016D01*
X-33161D01*
Y-60191D01*
D02*
G37*
G36*
X-35585D02*
X-37508D01*
Y-62016D01*
X-35585D01*
Y-60191D01*
D02*
G37*
G36*
X-68594Y-60191D02*
X-70518D01*
Y-62016D01*
X-68594D01*
Y-60191D01*
D02*
G37*
G36*
X-71018D02*
X-72941D01*
Y-62016D01*
X-71018D01*
Y-60191D01*
D02*
G37*
G36*
X68746D02*
X66823D01*
Y-62016D01*
X68746D01*
Y-60191D01*
D02*
G37*
G36*
X112370Y-55307D02*
X104480D01*
Y-63197D01*
X112370D01*
Y-55307D01*
D02*
G37*
G36*
X80028Y-54126D02*
X75681D01*
Y-58276D01*
X76835D01*
Y-59835D01*
X75681D01*
Y-63984D01*
X80028D01*
Y-63036D01*
X80528Y-62973D01*
X83236Y-65682D01*
X83566Y-65903D01*
X83957Y-65980D01*
X92520D01*
X92910Y-65903D01*
X93241Y-65682D01*
X96327Y-62596D01*
X96903Y-62928D01*
X97906Y-63197D01*
X98945D01*
X99948Y-62928D01*
X100847Y-62409D01*
X101582Y-61674D01*
X102101Y-60775D01*
X102370Y-59771D01*
Y-58733D01*
X102101Y-57729D01*
X101582Y-56830D01*
X100847Y-56095D01*
X99948Y-55576D01*
X98945Y-55307D01*
X97906D01*
X96903Y-55576D01*
X96003Y-56095D01*
X95268Y-56830D01*
X94749Y-57729D01*
X94480Y-58733D01*
Y-59771D01*
X94749Y-60775D01*
X94937Y-61101D01*
X92097Y-63941D01*
X84379D01*
X81626Y-61189D01*
X81296Y-60967D01*
X80905Y-60890D01*
X80028D01*
Y-59835D01*
X78874D01*
Y-58276D01*
X80028D01*
Y-54126D01*
D02*
G37*
G36*
X92370Y-59502D02*
X88675D01*
Y-63197D01*
X88945D01*
X89948Y-62928D01*
X90847Y-62409D01*
X91582Y-61674D01*
X92101Y-60775D01*
X92370Y-59771D01*
Y-59502D01*
D02*
G37*
G36*
X88175D02*
X84480D01*
Y-59771D01*
X84749Y-60775D01*
X85268Y-61674D01*
X86003Y-62409D01*
X86902Y-62928D01*
X87906Y-63197D01*
X88175D01*
Y-59502D01*
D02*
G37*
G36*
X29732Y-63968D02*
X25386D01*
Y-65024D01*
X23925D01*
Y-63968D01*
X19579D01*
Y-68118D01*
X20732D01*
Y-69677D01*
X19579D01*
Y-74024D01*
X23728D01*
Y-69677D01*
X22772D01*
Y-68118D01*
X23925D01*
Y-67063D01*
X25386D01*
Y-68118D01*
X29732D01*
Y-63968D01*
D02*
G37*
G36*
X-16429D02*
X-20776D01*
Y-65024D01*
X-22335D01*
Y-63968D01*
X-26681D01*
Y-68118D01*
X-25626D01*
Y-69677D01*
X-26681D01*
Y-74024D01*
X-22532D01*
Y-69677D01*
X-23587D01*
Y-68118D01*
X-22335D01*
Y-67063D01*
X-20776D01*
Y-68118D01*
X-16429D01*
Y-63968D01*
D02*
G37*
G36*
X-62689D02*
X-67035D01*
Y-65024D01*
X-68594D01*
Y-63968D01*
X-72941D01*
Y-68118D01*
X-71787D01*
Y-69677D01*
X-72941D01*
Y-74024D01*
X-68791D01*
Y-69677D01*
X-69748D01*
Y-68118D01*
X-68594D01*
Y-67063D01*
X-67035D01*
Y-68118D01*
X-62689D01*
Y-63968D01*
D02*
G37*
G36*
X-74598Y-63968D02*
X-76522D01*
Y-65793D01*
X-74598D01*
Y-63968D01*
D02*
G37*
G36*
X-77022D02*
X-78945D01*
Y-65793D01*
X-77022D01*
Y-63968D01*
D02*
G37*
G36*
X80028Y-65937D02*
X78104D01*
Y-67762D01*
X80028D01*
Y-65937D01*
D02*
G37*
G36*
X77604D02*
X75681D01*
Y-67762D01*
X77604D01*
Y-65937D01*
D02*
G37*
G36*
X-74598Y-66293D02*
X-76522D01*
Y-68118D01*
X-74598D01*
Y-66293D01*
D02*
G37*
G36*
X-77022D02*
X-78945D01*
Y-68118D01*
X-77022D01*
Y-66293D01*
D02*
G37*
G36*
X80028Y-68262D02*
X78104D01*
Y-70087D01*
X80028D01*
Y-68262D01*
D02*
G37*
G36*
X77604D02*
X75681D01*
Y-70087D01*
X77604D01*
Y-68262D01*
D02*
G37*
G36*
X-10524Y-63968D02*
X-14870D01*
Y-68118D01*
X-13716D01*
Y-69677D01*
X-14870D01*
Y-70831D01*
X-16429D01*
Y-69677D01*
X-20579D01*
Y-74024D01*
X-16429D01*
Y-72870D01*
X-14870D01*
Y-74024D01*
X-10721D01*
Y-69677D01*
X-11677D01*
Y-68118D01*
X-10524D01*
Y-63968D01*
D02*
G37*
G36*
X35736D02*
X31390D01*
Y-68118D01*
X32543D01*
Y-69677D01*
X31390D01*
Y-70831D01*
X29831D01*
Y-69677D01*
X25681D01*
Y-74024D01*
X29831D01*
Y-72870D01*
X31390D01*
Y-74024D01*
X35539D01*
Y-69677D01*
X34583D01*
Y-68118D01*
X35736D01*
Y-63968D01*
D02*
G37*
G36*
X-56783D02*
X-61130D01*
Y-68118D01*
X-59976D01*
Y-69677D01*
X-61130D01*
Y-70831D01*
X-62689D01*
Y-69677D01*
X-66839D01*
Y-74024D01*
X-62689D01*
Y-72870D01*
X-61130D01*
Y-74024D01*
X-56980D01*
Y-69677D01*
X-57937D01*
Y-68118D01*
X-56783D01*
Y-63968D01*
D02*
G37*
G36*
X-18480Y-80370D02*
X-18687D01*
Y-83589D01*
X-15469D01*
Y-83382D01*
X-15705Y-82500D01*
X-16161Y-81709D01*
X-16807Y-81063D01*
X-17598Y-80606D01*
X-18480Y-80370D01*
D02*
G37*
G36*
X-19187D02*
X-19394D01*
X-20276Y-80606D01*
X-21067Y-81063D01*
X-21712Y-81709D01*
X-22169Y-82500D01*
X-22406Y-83382D01*
Y-83589D01*
X-19187D01*
Y-80370D01*
D02*
G37*
G36*
X50079Y-85039D02*
X49463D01*
Y-93589D01*
X58012D01*
Y-92972D01*
X57674Y-91272D01*
X57010Y-89671D01*
X56047Y-88229D01*
X54822Y-87004D01*
X53381Y-86041D01*
X51779Y-85378D01*
X50079Y-85039D01*
D02*
G37*
G36*
X48963D02*
X48346D01*
X46646Y-85378D01*
X45045Y-86041D01*
X43603Y-87004D01*
X42378Y-88229D01*
X41415Y-89671D01*
X40751Y-91272D01*
X40413Y-92972D01*
Y-93589D01*
X48963D01*
Y-85039D01*
D02*
G37*
G36*
X21913Y-90370D02*
X21707D01*
Y-93589D01*
X24925D01*
Y-93382D01*
X24689Y-92500D01*
X24232Y-91709D01*
X23586Y-91063D01*
X22795Y-90606D01*
X21913Y-90370D01*
D02*
G37*
G36*
X21207D02*
X21000D01*
X20118Y-90606D01*
X19327Y-91063D01*
X18681Y-91709D01*
X18225Y-92500D01*
X17988Y-93382D01*
Y-93589D01*
X21207D01*
Y-90370D01*
D02*
G37*
G36*
X12937D02*
X12730D01*
Y-93589D01*
X15949D01*
Y-93382D01*
X15712Y-92500D01*
X15256Y-91709D01*
X14610Y-91063D01*
X13819Y-90606D01*
X12937Y-90370D01*
D02*
G37*
G36*
X12230D02*
X12024D01*
X11141Y-90606D01*
X10351Y-91063D01*
X9705Y-91709D01*
X9248Y-92500D01*
X9012Y-93382D01*
Y-93589D01*
X12230D01*
Y-90370D01*
D02*
G37*
G36*
X3961D02*
X3754D01*
Y-93589D01*
X6972D01*
Y-93382D01*
X6736Y-92500D01*
X6279Y-91709D01*
X5634Y-91063D01*
X4843Y-90606D01*
X3961Y-90370D01*
D02*
G37*
G36*
X3254D02*
X3047D01*
X2165Y-90606D01*
X1374Y-91063D01*
X728Y-91709D01*
X272Y-92500D01*
X35Y-93382D01*
Y-93589D01*
X3254D01*
Y-90370D01*
D02*
G37*
G36*
X-13992D02*
X-14199D01*
Y-93589D01*
X-10980D01*
Y-93382D01*
X-11217Y-92500D01*
X-11673Y-91709D01*
X-12319Y-91063D01*
X-13110Y-90606D01*
X-13992Y-90370D01*
D02*
G37*
G36*
X-14699D02*
X-14905D01*
X-15788Y-90606D01*
X-16578Y-91063D01*
X-17224Y-91709D01*
X-17681Y-92500D01*
X-17917Y-93382D01*
Y-93589D01*
X-14699D01*
Y-90370D01*
D02*
G37*
G36*
X-48307Y-85039D02*
X-48923D01*
Y-93589D01*
X-40374D01*
Y-92972D01*
X-40712Y-91272D01*
X-41375Y-89671D01*
X-42338Y-88229D01*
X-43564Y-87004D01*
X-45005Y-86041D01*
X-46607Y-85378D01*
X-48307Y-85039D01*
D02*
G37*
G36*
X-49423D02*
X-50040D01*
X-51740Y-85378D01*
X-53341Y-86041D01*
X-54782Y-87004D01*
X-56008Y-88229D01*
X-56971Y-89671D01*
X-57634Y-91272D01*
X-57972Y-92972D01*
Y-93589D01*
X-49423D01*
Y-85039D01*
D02*
G37*
G36*
X-10980Y-94089D02*
X-14199D01*
Y-97307D01*
X-13992D01*
X-13110Y-97071D01*
X-12319Y-96614D01*
X-11673Y-95968D01*
X-11217Y-95177D01*
X-10980Y-94295D01*
Y-94089D01*
D02*
G37*
G36*
X-14699D02*
X-17917D01*
Y-94295D01*
X-17681Y-95177D01*
X-17224Y-95968D01*
X-16578Y-96614D01*
X-15788Y-97071D01*
X-14905Y-97307D01*
X-14699D01*
Y-94089D01*
D02*
G37*
G36*
X58012D02*
X49463D01*
Y-102638D01*
X50079D01*
X51779Y-102300D01*
X53381Y-101636D01*
X54822Y-100673D01*
X56047Y-99448D01*
X57010Y-98007D01*
X57674Y-96405D01*
X58012Y-94705D01*
Y-94089D01*
D02*
G37*
G36*
X48963D02*
X40413D01*
Y-94705D01*
X40751Y-96405D01*
X41415Y-98007D01*
X42378Y-99448D01*
X43603Y-100673D01*
X45045Y-101636D01*
X46646Y-102300D01*
X48346Y-102638D01*
X48963D01*
Y-94089D01*
D02*
G37*
G36*
X-40374D02*
X-48923D01*
Y-102638D01*
X-48307D01*
X-46607Y-102300D01*
X-45005Y-101636D01*
X-43564Y-100673D01*
X-42338Y-99448D01*
X-41375Y-98007D01*
X-40712Y-96405D01*
X-40374Y-94705D01*
Y-94089D01*
D02*
G37*
G36*
X-49423D02*
X-57972D01*
Y-94705D01*
X-57634Y-96405D01*
X-56971Y-98007D01*
X-56008Y-99448D01*
X-54782Y-100673D01*
X-53341Y-101636D01*
X-51740Y-102300D01*
X-50040Y-102638D01*
X-49423D01*
Y-94089D01*
D02*
G37*
G36*
X-9504Y-100370D02*
X-10417D01*
X-11299Y-100606D01*
X-12090Y-101063D01*
X-12736Y-101709D01*
X-13193Y-102500D01*
X-13429Y-103382D01*
Y-104295D01*
X-13193Y-105177D01*
X-12736Y-105968D01*
X-12090Y-106614D01*
X-11299Y-107071D01*
X-10417Y-107307D01*
X-9504D01*
X-8622Y-107071D01*
X-7831Y-106614D01*
X-7185Y-105968D01*
X-6729Y-105177D01*
X-6492Y-104295D01*
Y-103382D01*
X-6729Y-102500D01*
X-7185Y-101709D01*
X-7831Y-101063D01*
X-8622Y-100606D01*
X-9504Y-100370D01*
D02*
G37*
G36*
X-18480D02*
X-19394D01*
X-20276Y-100606D01*
X-21067Y-101063D01*
X-21712Y-101709D01*
X-22169Y-102500D01*
X-22406Y-103382D01*
Y-104295D01*
X-22169Y-105177D01*
X-21712Y-105968D01*
X-21067Y-106614D01*
X-20276Y-107071D01*
X-19394Y-107307D01*
X-18480D01*
X-17598Y-107071D01*
X-16807Y-106614D01*
X-16161Y-105968D01*
X-15705Y-105177D01*
X-15469Y-104295D01*
Y-103382D01*
X-15705Y-102500D01*
X-16161Y-101709D01*
X-16807Y-101063D01*
X-17598Y-100606D01*
X-18480Y-100370D01*
D02*
G37*
G36*
X98327Y-89508D02*
X96587Y-89680D01*
X94914Y-90187D01*
X93373Y-91011D01*
X92022Y-92120D01*
X90913Y-93471D01*
X90089Y-95013D01*
X89581Y-96686D01*
X89410Y-98425D01*
X89581Y-100165D01*
X90089Y-101838D01*
X90913Y-103379D01*
X92022Y-104730D01*
X93373Y-105839D01*
X94914Y-106663D01*
X96587Y-107171D01*
X98327Y-107342D01*
X100066Y-107171D01*
X101739Y-106663D01*
X103281Y-105839D01*
X104632Y-104730D01*
X105741Y-103379D01*
X106565Y-101838D01*
X107072Y-100165D01*
X107244Y-98425D01*
X107072Y-96686D01*
X106565Y-95013D01*
X105741Y-93471D01*
X104632Y-92120D01*
X103281Y-91011D01*
X101739Y-90187D01*
X100066Y-89680D01*
X98327Y-89508D01*
D02*
G37*
G36*
X-98524D02*
X-100263Y-89680D01*
X-101936Y-90187D01*
X-103478Y-91011D01*
X-104829Y-92120D01*
X-105938Y-93471D01*
X-106762Y-95013D01*
X-107269Y-96686D01*
X-107441Y-98425D01*
X-107269Y-100165D01*
X-106762Y-101838D01*
X-105938Y-103379D01*
X-104829Y-104730D01*
X-103478Y-105839D01*
X-101936Y-106663D01*
X-100263Y-107171D01*
X-98524Y-107342D01*
X-96784Y-107171D01*
X-95111Y-106663D01*
X-93570Y-105839D01*
X-92218Y-104730D01*
X-91109Y-103379D01*
X-90285Y-101838D01*
X-89778Y-100165D01*
X-89607Y-98425D01*
X-89778Y-96686D01*
X-90285Y-95013D01*
X-91109Y-93471D01*
X-92218Y-92120D01*
X-93570Y-91011D01*
X-95111Y-90187D01*
X-96784Y-89680D01*
X-98524Y-89508D01*
D02*
G37*
G36*
X196752Y-187933D02*
X195012Y-188105D01*
X193340Y-188612D01*
X191798Y-189436D01*
X190447Y-190545D01*
X189338Y-191896D01*
X188514Y-193438D01*
X188006Y-195111D01*
X187835Y-196850D01*
X188006Y-198590D01*
X188514Y-200263D01*
X189338Y-201804D01*
X190447Y-203156D01*
X191798Y-204265D01*
X193340Y-205089D01*
X195012Y-205596D01*
X196752Y-205767D01*
X198492Y-205596D01*
X200164Y-205089D01*
X201706Y-204265D01*
X203057Y-203156D01*
X204166Y-201804D01*
X204990Y-200263D01*
X205498Y-198590D01*
X205669Y-196850D01*
X205498Y-195111D01*
X204990Y-193438D01*
X204166Y-191896D01*
X203057Y-190545D01*
X201706Y-189436D01*
X200164Y-188612D01*
X198492Y-188105D01*
X196752Y-187933D01*
D02*
G37*
G36*
X-196949Y-187933D02*
X-198688Y-188105D01*
X-200361Y-188612D01*
X-201903Y-189436D01*
X-203254Y-190545D01*
X-204363Y-191896D01*
X-205187Y-193438D01*
X-205694Y-195111D01*
X-205866Y-196850D01*
X-205694Y-198590D01*
X-205187Y-200263D01*
X-204363Y-201804D01*
X-203254Y-203156D01*
X-201903Y-204265D01*
X-200361Y-205089D01*
X-198688Y-205596D01*
X-196949Y-205767D01*
X-195209Y-205596D01*
X-193536Y-205089D01*
X-191995Y-204265D01*
X-190644Y-203156D01*
X-189535Y-201804D01*
X-188711Y-200263D01*
X-188203Y-198590D01*
X-188032Y-196850D01*
X-188203Y-195111D01*
X-188711Y-193438D01*
X-189535Y-191896D01*
X-190644Y-190545D01*
X-191995Y-189436D01*
X-193536Y-188612D01*
X-195209Y-188105D01*
X-196949Y-187933D01*
D02*
G37*
%LPD*%
G36*
X18163Y106764D02*
X19094D01*
Y93209D01*
X15756D01*
Y94632D01*
X13681D01*
Y94882D01*
X13431D01*
Y97055D01*
X12106D01*
Y98614D01*
X13431D01*
Y100787D01*
X13681D01*
Y101037D01*
X15756D01*
Y102961D01*
X16732Y103937D01*
Y106764D01*
X17663D01*
Y109232D01*
X18163D01*
Y106764D01*
D02*
G37*
%LPC*%
G36*
X15756Y100537D02*
X13931D01*
Y98614D01*
X15756D01*
Y100537D01*
D02*
G37*
G36*
Y97055D02*
X13931D01*
Y95132D01*
X15756D01*
Y97055D01*
D02*
G37*
%LPD*%
G36*
X-22673Y85039D02*
X-22619Y84768D01*
X-22850Y84471D01*
X-22860Y84460D01*
X-23002Y84358D01*
X-23645D01*
X-24299Y84087D01*
X-24800Y83587D01*
X-25071Y82933D01*
Y82225D01*
X-24800Y81571D01*
X-24311Y81082D01*
Y79929D01*
X-25464D01*
Y75779D01*
X-21137D01*
Y75249D01*
X-22560Y73827D01*
X-25464D01*
Y69677D01*
X-24311D01*
Y67289D01*
X-25225Y66374D01*
X-28346D01*
X-28737Y66296D01*
X-29067Y66075D01*
X-33477Y61666D01*
X-33698Y61335D01*
X-33775Y60945D01*
Y37902D01*
X-34984D01*
X-35028Y37902D01*
X-35484D01*
X-35528Y37902D01*
X-36736D01*
Y63397D01*
X-35500Y64633D01*
X-35278Y64964D01*
X-35201Y65354D01*
Y69677D01*
X-33855D01*
Y72385D01*
X-32276Y73964D01*
X-31833Y73700D01*
X-31833Y73373D01*
Y72002D01*
X-29910D01*
Y73827D01*
X-31351D01*
X-31721Y73827D01*
X-32046Y74239D01*
X-31913Y74437D01*
X-31836Y74827D01*
Y75281D01*
X-31833Y75779D01*
X-27487D01*
Y79929D01*
X-28640D01*
Y81082D01*
X-28151Y81571D01*
X-27880Y82225D01*
Y82916D01*
X-25362Y85435D01*
X-25141Y85766D01*
X-25063Y86156D01*
Y87434D01*
X-24710Y87787D01*
X-24008Y87787D01*
X-23508Y87787D01*
X-22673D01*
Y85039D01*
D02*
G37*
G36*
X5504Y95132D02*
X7579D01*
Y94882D01*
X7829D01*
Y92709D01*
X9154D01*
Y91150D01*
X7829D01*
Y88976D01*
Y86803D01*
X8000D01*
X8192Y86341D01*
X4724Y82874D01*
Y78953D01*
X606D01*
Y74803D01*
Y70653D01*
X4724D01*
Y63878D01*
X8366Y60236D01*
X12598D01*
X25689Y60236D01*
Y59260D01*
X24758D01*
Y57087D01*
X24258D01*
Y59260D01*
X22949D01*
X22827Y59260D01*
X22449D01*
X22327Y59260D01*
X21018D01*
Y57087D01*
Y54913D01*
X22327D01*
X22449Y54913D01*
X22827D01*
X22949Y54913D01*
X24536D01*
X24727Y54452D01*
X23819Y53543D01*
X16445D01*
Y54868D01*
X14272D01*
X12098D01*
Y53543D01*
X-2559D01*
X-5512Y56496D01*
Y70653D01*
X-1394D01*
Y74803D01*
Y78953D01*
X-5512D01*
Y80413D01*
X2756Y88681D01*
Y96555D01*
X5504D01*
Y95132D01*
D02*
G37*
G36*
X12360Y27305D02*
X12681Y26965D01*
X12681D01*
X12681Y26965D01*
Y22732D01*
X24508D01*
Y20732D01*
X12681D01*
Y17421D01*
X1181D01*
Y24106D01*
X2604D01*
Y26181D01*
X2854D01*
Y26431D01*
X5028D01*
Y27756D01*
X6980D01*
Y26431D01*
X11327D01*
Y27756D01*
X11909D01*
X12360Y27305D01*
D02*
G37*
%LPC*%
G36*
X-29410Y73827D02*
Y72002D01*
X-27487D01*
Y73827D01*
X-29410D01*
D02*
G37*
G36*
X-27487Y71502D02*
X-29410D01*
Y69677D01*
X-27487D01*
Y71502D01*
D02*
G37*
G36*
X-29910D02*
X-31833D01*
Y69677D01*
X-29910D01*
Y71502D01*
D02*
G37*
G36*
X7329Y94632D02*
X5504D01*
Y92709D01*
X7329D01*
Y94632D01*
D02*
G37*
G36*
X7329Y91150D02*
X5504D01*
Y89226D01*
X7329D01*
Y91150D01*
D02*
G37*
G36*
Y88726D02*
X5504D01*
Y86803D01*
X7329D01*
Y88726D01*
D02*
G37*
G36*
X20518Y59260D02*
X19087D01*
Y57337D01*
X20518D01*
Y59260D01*
D02*
G37*
G36*
X16445Y57193D02*
X14522D01*
Y55368D01*
X16445D01*
Y57193D01*
D02*
G37*
G36*
X14022D02*
X12098D01*
Y55368D01*
X14022D01*
Y57193D01*
D02*
G37*
G36*
X20518Y56837D02*
X19087D01*
Y54913D01*
X20518D01*
Y56837D01*
D02*
G37*
G36*
X11327Y25931D02*
X9404D01*
Y24106D01*
X11327D01*
Y25931D01*
D02*
G37*
G36*
X8904D02*
X6980D01*
Y24106D01*
X8904D01*
Y25931D01*
D02*
G37*
G36*
X5028D02*
X3104D01*
Y24106D01*
X5028D01*
Y25931D01*
D02*
G37*
%LPD*%
G36*
X-87506Y-37902D02*
X-85630D01*
Y-67913D01*
X-116142D01*
Y-51181D01*
X-110933D01*
Y-56049D01*
X-107283D01*
X-103634D01*
Y-51181D01*
X-90354D01*
X-89567Y-50394D01*
Y-37902D01*
X-88006D01*
Y-34449D01*
X-87506D01*
Y-37902D01*
D02*
G37*
%LPC*%
G36*
X-103634Y-56549D02*
X-107034D01*
Y-61917D01*
X-103634D01*
Y-56549D01*
D02*
G37*
G36*
X-107534D02*
X-110933D01*
Y-61917D01*
X-107534D01*
Y-56549D01*
D02*
G37*
%LPD*%
D15*
X20768Y57087D02*
X24508D01*
X15425Y64567D02*
X40157D01*
X14272Y58760D02*
Y63414D01*
X15425Y64567D01*
X14272Y55118D02*
Y58760D01*
X14272D02*
X17224D01*
X24311Y57776D02*
X24508Y57579D01*
Y57087D02*
Y57579D01*
X-93012Y-40748D02*
Y-34705D01*
X-92756Y-34449D01*
X-93602Y-41339D02*
X-93012Y-40748D01*
X72835Y-96161D02*
Y-19685D01*
X49606Y-12205D02*
X65354D01*
X72835Y-19685D01*
X46358Y-8957D02*
X49606Y-12205D01*
X46358Y-8957D02*
Y58366D01*
X-27805Y47982D02*
Y52096D01*
X77854Y-20571D02*
Y-16457D01*
Y8957D02*
Y13071D01*
Y-13071D02*
Y-8957D01*
Y-50098D02*
Y-45984D01*
Y-42598D02*
Y-38484D01*
Y-72126D02*
Y-68012D01*
X61614Y-107382D02*
X72835Y-96161D01*
X2953Y0D02*
X9547D01*
X33058Y-107382D02*
X61614D01*
X40157Y64567D02*
X46358Y58366D01*
X-21752Y48031D02*
X-17638D01*
X-21752Y42126D02*
X-17638D01*
X37402Y91240D02*
X41516D01*
X27362Y83169D02*
Y87283D01*
Y93209D02*
Y97323D01*
X3504Y-93839D02*
X12480D01*
X-492Y-98819D02*
X24495D01*
X33058Y-107382D01*
X-5472Y-93839D02*
X-492Y-98819D01*
X37402Y85138D02*
X41516D01*
X14764Y105118D02*
Y109232D01*
X39961Y105118D02*
Y109232D01*
X36811Y105118D02*
Y109232D01*
X17913Y105118D02*
Y109232D01*
Y105118D02*
X17913Y105118D01*
X10630Y49016D02*
X14272D01*
X20768Y47047D02*
Y50689D01*
X14272Y45374D02*
Y49016D01*
X9154Y32283D02*
Y35925D01*
X2854Y32283D02*
Y35925D01*
D17*
X77854Y-2854D02*
X80905D01*
X83957Y-64961D02*
X92520D01*
X83957Y-5906D02*
X92520D01*
X80905Y-2854D02*
X83957Y-5906D01*
X80807Y-32382D02*
X83858Y-35433D01*
X92520D01*
X77854Y-61910D02*
X80905D01*
X83957Y-64961D01*
X77854Y-32382D02*
X80807D01*
X5315Y7480D02*
X19291D01*
X23031Y-984D02*
X39370D01*
X787Y4134D02*
X17913D01*
X22835Y3937D02*
X39370D01*
X19291Y7480D02*
X22835Y3937D01*
X17913Y4134D02*
X23031Y-984D01*
X93413Y46063D02*
X95736Y48386D01*
X95925D01*
X89370Y46063D02*
X93413D01*
X-45276Y27559D02*
X-30020D01*
X-72756Y-42008D02*
X-58957Y-55807D01*
Y-59941D02*
Y-55807D01*
X-72756Y-42008D02*
Y-34449D01*
X-67756Y-41988D02*
X-53051Y-56693D01*
Y-59941D02*
Y-56693D01*
X-67756Y-41988D02*
Y-34449D01*
X-47146Y-59941D02*
Y-56496D01*
X-62756Y-40886D02*
X-47146Y-56496D01*
X-62756Y-40886D02*
Y-34449D01*
X-64862Y-59941D02*
Y-56755D01*
X-77756Y-43861D02*
Y-34449D01*
Y-43861D02*
X-64862Y-56755D01*
X-17185Y-2500D02*
X-12205Y-7480D01*
Y-16240D02*
X-3248Y-25197D01*
X-12205Y-16240D02*
Y-7480D01*
X-11437Y7500D02*
X-6299Y2362D01*
Y-9055D02*
X787Y-16142D01*
X-6299Y-9055D02*
Y2362D01*
X-52756Y-42520D02*
X-45276Y-50000D01*
X-16929D01*
X-52756Y-42520D02*
Y-34449D01*
X-16929Y-50000D02*
X-12697Y-54232D01*
X-46850Y-52362D02*
X-21457D01*
X-18701Y-55118D01*
X-57756Y-41457D02*
X-46850Y-52362D01*
X-41240Y-59941D02*
Y-55216D01*
X-47756Y-43044D02*
X-42768Y-48031D01*
X-11024D01*
X-6791Y-52264D01*
X-42756Y-40709D02*
X-38249Y-45215D01*
X-6950D01*
X-42756Y-40709D02*
Y-34449D01*
X-32756Y-40472D02*
X-30315Y-42913D01*
X-21260D01*
X-27756Y-40226D02*
Y-34449D01*
X-6950Y-45215D02*
X-886Y-51279D01*
X-27756Y-40226D02*
X-27170Y-40812D01*
X-23240D02*
X-21335Y-38907D01*
X-27170Y-40812D02*
X-23240D01*
X-37756Y-41240D02*
Y-34449D01*
X-57756Y-41457D02*
Y-34449D01*
X-9449Y-12598D02*
Y-1575D01*
Y-12598D02*
X-1575Y-20472D01*
X-13524Y2500D02*
X-9449Y-1575D01*
X-22835Y2500D02*
X-13524D01*
X-22835Y7500D02*
X-11437D01*
X-3248Y-25197D02*
X41339D01*
X45374Y-29232D01*
X-10381Y-38583D02*
X23622D01*
X27559Y-59941D02*
Y-42520D01*
X23622Y-38583D02*
X27559Y-42520D01*
X-18169Y-30795D02*
X-10381Y-38583D01*
X33563Y-59941D02*
Y-37894D01*
X29528Y-33858D02*
X33563Y-37894D01*
X-7874Y-33858D02*
X29528D01*
X-16169Y-25563D02*
X-7874Y-33858D01*
X-16169Y-25563D02*
Y-14343D01*
X39469Y-59941D02*
Y-33957D01*
X-5512Y-29528D02*
X35039D01*
X39469Y-33957D01*
X-14169Y-20870D02*
X-5512Y-29528D01*
X-14169Y-20870D02*
Y-10437D01*
X45374Y-59941D02*
Y-29232D01*
X-1575Y-20472D02*
X46063D01*
X51279Y-59941D02*
Y-25689D01*
X46063Y-20472D02*
X51279Y-25689D01*
X787Y-16142D02*
X57874D01*
X63090Y-21358D01*
Y-59941D02*
Y-21358D01*
X-3150Y-6634D02*
Y0D01*
X-12579Y17500D02*
X787Y4134D01*
X-9705Y22500D02*
X5315Y7480D01*
X22441Y9055D02*
X39370D01*
X119694Y22056D02*
Y34448D01*
X84252Y18110D02*
X115748D01*
X119694Y22056D01*
X115756Y38386D02*
X119694Y34448D01*
X101969Y38386D02*
X115756D01*
X51575Y20079D02*
X82284D01*
X84252Y18110D01*
X22835Y13780D02*
X39370D01*
X-27756Y34449D02*
Y47933D01*
X-22835Y17500D02*
X-12579D01*
X-22835Y22500D02*
X-9705D01*
X-82756Y-59862D02*
Y-28268D01*
X-92913Y-27165D02*
X-83858D01*
X-82756Y-28268D01*
X-72756Y34449D02*
Y41240D01*
X-77756Y34449D02*
Y41240D01*
X91811Y38386D02*
X95925D01*
X91811Y43386D02*
X95925D01*
X100925Y43395D02*
X103543Y46013D01*
X100925Y48386D02*
X101073D01*
X103396Y46063D02*
X103543D01*
X100925Y43386D02*
Y43395D01*
X103543Y46013D02*
Y46063D01*
X101073Y48386D02*
X103396Y46063D01*
X92520Y-35433D02*
X98425Y-29528D01*
X92520Y-64961D02*
X98425Y-59055D01*
X77854Y-2854D02*
Y2854D01*
Y-32382D02*
Y-26673D01*
X92520Y-5906D02*
X98425Y0D01*
X77854Y-61910D02*
Y-56201D01*
X28248Y57579D02*
X31201Y60532D01*
X37598D01*
X28248Y57087D02*
Y57579D01*
X-47756Y30039D02*
X-45276Y27559D01*
X-47756Y30039D02*
Y34449D01*
X-29469Y-22500D02*
X-22835D01*
X41535Y23425D02*
Y56595D01*
X37598Y60532D02*
X41535Y56595D01*
X-26083Y86156D02*
Y91732D01*
X-29660Y82579D02*
X-26083Y86156D01*
X-32855Y83286D02*
X-30413Y85728D01*
Y91732D01*
X-32855Y74827D02*
Y83286D01*
X-29660Y77854D02*
Y82579D01*
X-58661Y71752D02*
X-55118D01*
X-59449Y72539D02*
X-58661Y71752D01*
X-59449Y72539D02*
Y101181D01*
X-62362Y-5906D02*
Y-394D01*
Y-5906D02*
X-56850D01*
X-67874D02*
X-62362D01*
Y-11417D02*
Y-5906D01*
X23622Y79134D02*
Y83169D01*
Y79134D02*
X25591Y77165D01*
X29134D02*
X31102Y79134D01*
Y83169D01*
X-22894Y-27559D02*
X-22835Y-27500D01*
X-29528Y-27559D02*
X-22894D01*
X-32756Y-40472D02*
Y-34449D01*
X-87756Y-6516D02*
X-71535Y-22736D01*
X-82756Y-6516D02*
X-66535Y-22736D01*
X-87756Y-6516D02*
Y34449D01*
X-82756Y-6516D02*
Y34449D01*
X26378Y113681D02*
X26575Y113878D01*
X30118D01*
X30315Y109232D02*
Y113681D01*
X30118Y113878D02*
X30315Y113681D01*
X26378Y109232D02*
Y113681D01*
X27657Y104232D02*
X28346Y104921D01*
X24409Y100000D02*
Y109232D01*
X24892Y104232D02*
X27657D01*
X28346Y104921D02*
Y109232D01*
X30315Y100000D02*
Y109232D01*
Y100000D02*
X31102Y99213D01*
Y93209D02*
Y99213D01*
X23622Y93209D02*
Y99213D01*
X24409Y100000D01*
X34252Y117618D02*
X50000D01*
X32283Y115650D02*
X34252Y117618D01*
X32283Y109232D02*
Y115650D01*
X-89370Y-65650D02*
X-88976Y-66043D01*
X-82677D01*
X20472Y109232D02*
Y115650D01*
X18504Y117618D02*
X20472Y115650D01*
X4724Y117618D02*
X18504D01*
X2854Y32283D02*
X2854Y32283D01*
X24508Y21732D02*
X39843D01*
X41535Y23425D01*
X-18012Y-12500D02*
X-16169Y-14343D01*
X-17106Y-7500D02*
X-14169Y-10437D01*
X-18917Y-17500D02*
X-18169Y-18248D01*
Y-30795D02*
Y-18248D01*
X-22835Y-17500D02*
X-18917D01*
X-34744Y91732D02*
Y98524D01*
X-55216Y64961D02*
Y71752D01*
X5020Y-59941D02*
Y-53150D01*
X-22835Y12500D02*
X-16043D01*
X-45571Y74849D02*
Y84351D01*
X-43406Y86516D02*
Y91732D01*
X-45571Y84351D02*
X-43406Y86516D01*
X-42397Y77854D02*
Y82579D01*
X-17135Y87017D02*
Y91446D01*
X-13749Y74827D02*
Y83631D01*
X-17135Y87017D02*
X-13749Y83631D01*
X-16922Y77854D02*
Y82579D01*
X-10554Y77854D02*
Y82579D01*
X-23291Y77854D02*
Y82579D01*
X-36029Y77854D02*
Y82579D01*
X-48766Y77854D02*
Y82579D01*
X-55118Y77854D02*
Y82579D01*
X15945Y-75787D02*
X16929Y-74803D01*
Y-71752D01*
X7067Y-75787D02*
X15945D01*
X-27854Y48031D02*
X-27756Y47933D01*
X-22835Y-12500D02*
X-18012D01*
X-22835Y-7500D02*
X-17106D01*
X-22835Y-2500D02*
X-17185D01*
X-82677Y-59941D02*
X-76772D01*
X-82756Y-59862D02*
X-82677Y-59941D01*
X-886Y-59941D02*
Y-51279D01*
X-6791Y-59941D02*
Y-52264D01*
X-47756Y-43044D02*
Y-34449D01*
X-12697Y-59941D02*
Y-54232D01*
X-18701Y-59842D02*
Y-55118D01*
Y-59842D02*
X-18602Y-59941D01*
X57283Y-59941D02*
X61917Y-64575D01*
Y-64969D02*
Y-64575D01*
Y-64969D02*
X62992Y-66043D01*
X57185Y-59941D02*
X57283D01*
X62992Y-66043D02*
X63090D01*
X68996D02*
X68996Y-66043D01*
X68898Y-66142D02*
X68996Y-66043D01*
X63090D02*
X68996D01*
X68898Y-75787D02*
Y-66142D01*
X13091Y-78740D02*
X65945D01*
X68898Y-75787D01*
X7992Y-83839D02*
X13091Y-78740D01*
X5020Y-66043D02*
X10827D01*
X10925Y-65945D01*
X15756Y-70677D02*
X15854D01*
X16929Y-71752D01*
X10925Y-65945D02*
X11024D01*
X15756Y-70677D01*
X-984Y-83839D02*
X7067Y-75787D01*
X-29331Y-85827D02*
X-26575Y-88583D01*
X-29331Y-85827D02*
Y-71850D01*
X-26575Y-88583D02*
X12224D01*
X16969Y-83839D01*
X57185Y-66043D02*
X57185Y-66043D01*
X51279Y-66043D02*
X57185D01*
X63189Y-71850D02*
Y-71752D01*
X58555Y-67118D02*
X63189Y-71752D01*
X58260Y-67118D02*
X58555D01*
X57185Y-66043D02*
X58260Y-67118D01*
X51378Y-71850D02*
X57087D01*
X45472Y-66043D02*
X50106Y-70677D01*
X45374Y-66043D02*
X45472D01*
X50106Y-70677D02*
X50303D01*
X51378Y-71752D01*
Y-71850D02*
Y-71752D01*
X39567Y-71850D02*
X45276D01*
X39469Y-71752D02*
X39567Y-71850D01*
X39469Y-71752D02*
Y-66043D01*
X33563Y-71752D02*
Y-66043D01*
X33465Y-71850D02*
X33563Y-71752D01*
X27756Y-71850D02*
X33465D01*
X21752Y-66043D02*
X27559D01*
X21752Y-71752D02*
Y-66043D01*
X21654Y-71850D02*
X21752Y-71752D01*
X5118Y-71850D02*
X10827D01*
X-6693D02*
X-984D01*
X3846Y-70677D02*
X4043D01*
X-886Y-66043D02*
X-787D01*
X3846Y-70677D01*
X4043D02*
X5118Y-71752D01*
Y-71850D02*
Y-71752D01*
X-6693Y-71850D02*
Y-66142D01*
X-6791Y-66043D02*
X-6693Y-66142D01*
X-12697Y-71752D02*
Y-66043D01*
X-12795Y-71850D02*
X-12697Y-71752D01*
X-18504Y-71850D02*
X-12795D01*
X-24508Y-66043D02*
X-18602D01*
X-24606Y-66142D02*
X-24508Y-66043D01*
X-24606Y-71850D02*
Y-66142D01*
X-35236Y-66043D02*
X-30602Y-70677D01*
X-30406D01*
X-29331Y-71752D01*
X-35335Y-66043D02*
X-35236D01*
X-29331Y-71850D02*
Y-71752D01*
X-41142Y-71850D02*
X-35433D01*
X-41240Y-66043D02*
X-35335D01*
X-47047D02*
X-42413Y-70677D01*
X-42217D02*
X-41142Y-71752D01*
X-47146Y-66043D02*
X-47047D01*
X-42413Y-70677D02*
X-42217D01*
X-41142Y-71850D02*
Y-71752D01*
X-52953Y-71850D02*
X-47244D01*
X-53051Y-71752D02*
X-52953Y-71850D01*
X-53051Y-71752D02*
Y-66043D01*
X-58957Y-71752D02*
Y-66043D01*
X-59055Y-71850D02*
X-58957Y-71752D01*
X-64764Y-71850D02*
X-59055D01*
X-70768Y-66043D02*
X-64862D01*
X-70866Y-71850D02*
X-70768Y-71752D01*
Y-66043D01*
X-52756Y107874D02*
X-9843D01*
X-59449Y101181D02*
X-52756Y107874D01*
X-8002Y132942D02*
X-6693Y134252D01*
X-8002Y109714D02*
Y132942D01*
X-6693Y134252D02*
X-3642D01*
X-9843Y107874D02*
X-8002Y109714D01*
X-23291Y66866D02*
Y71752D01*
X-24803Y65354D02*
X-23291Y66866D01*
X-28346Y65354D02*
X-24803D01*
X-32756Y60945D02*
X-28346Y65354D01*
X-32756Y34449D02*
Y60945D01*
X-36220Y65354D02*
Y71560D01*
X-36029Y71752D01*
X-37756Y34449D02*
Y63819D01*
X-36220Y65354D01*
X-42756Y34449D02*
Y71295D01*
X-48668Y71752D02*
X-45571Y74849D01*
X-8268Y85433D02*
X-7380Y84546D01*
X-12992Y87402D02*
X-11024Y85433D01*
X-8268D01*
X-7380Y74827D02*
Y84546D01*
X-21654Y85039D02*
Y91634D01*
X-20118Y74827D02*
Y83504D01*
X-21654Y85039D02*
X-20118Y83504D01*
X-21752Y91732D02*
X-21654Y91634D01*
X-13091Y91732D02*
X-12992Y91634D01*
Y87402D02*
Y91634D01*
X-17421Y91732D02*
X-17135Y91446D01*
X-39224Y91583D02*
X-39075Y91732D01*
X-39224Y74827D02*
Y91583D01*
X-10455Y71752D02*
X-7380Y74827D01*
X-16824Y71752D02*
X-13749Y74827D01*
X-23193Y71752D02*
X-20118Y74827D01*
X-35930Y71752D02*
X-32855Y74827D01*
X-42756Y71295D02*
X-39224Y74827D01*
X-48766Y71752D02*
X-48668D01*
D19*
X77854Y8957D02*
D03*
Y2854D02*
D03*
Y-2854D02*
D03*
Y-8957D02*
D03*
Y-20571D02*
D03*
Y-26673D02*
D03*
Y-32382D02*
D03*
Y-38484D02*
D03*
Y-50098D02*
D03*
Y-56201D02*
D03*
Y-61910D02*
D03*
Y-68012D02*
D03*
X34744Y49016D02*
D03*
Y55118D02*
D03*
X14272D02*
D03*
Y49016D02*
D03*
X9154Y26181D02*
D03*
Y32283D02*
D03*
X2854Y26181D02*
D03*
Y32283D02*
D03*
X4724Y111516D02*
D03*
Y117618D02*
D03*
X51279Y-59941D02*
D03*
Y-66043D02*
D03*
X-55118Y71752D02*
D03*
Y77854D02*
D03*
X68996Y-66043D02*
D03*
Y-59941D02*
D03*
X57185Y-59941D02*
D03*
Y-66043D02*
D03*
X-36029Y71752D02*
D03*
Y77854D02*
D03*
X-42397Y71752D02*
D03*
Y77854D02*
D03*
X-48766Y71752D02*
D03*
Y77854D02*
D03*
X-10554Y71752D02*
D03*
Y77854D02*
D03*
X-16922Y71752D02*
D03*
Y77854D02*
D03*
X-23291Y71752D02*
D03*
Y77854D02*
D03*
X10925Y-59842D02*
D03*
Y-65945D02*
D03*
X-24508Y-66043D02*
D03*
Y-59941D02*
D03*
X5020Y-66043D02*
D03*
Y-59941D02*
D03*
X-886Y-66043D02*
D03*
Y-59941D02*
D03*
X-6791Y-66043D02*
D03*
Y-59941D02*
D03*
X-12697Y-66043D02*
D03*
Y-59941D02*
D03*
X-18602Y-66043D02*
D03*
Y-59941D02*
D03*
X63090Y-66043D02*
D03*
Y-59941D02*
D03*
X21752Y-66043D02*
D03*
Y-59941D02*
D03*
X45374Y-66043D02*
D03*
Y-59941D02*
D03*
X39469Y-66043D02*
D03*
Y-59941D02*
D03*
X33563Y-66043D02*
D03*
Y-59941D02*
D03*
X27559Y-66043D02*
D03*
Y-59941D02*
D03*
X-35335D02*
D03*
Y-66043D02*
D03*
X-70768D02*
D03*
Y-59941D02*
D03*
X-82677Y-59941D02*
D03*
Y-66043D02*
D03*
X-41240Y-66043D02*
D03*
Y-59941D02*
D03*
X-47146Y-66043D02*
D03*
Y-59941D02*
D03*
X-53051Y-66043D02*
D03*
Y-59941D02*
D03*
X-58957Y-66043D02*
D03*
Y-59941D02*
D03*
X-64862Y-66043D02*
D03*
Y-59941D02*
D03*
X50000Y117618D02*
D03*
Y111516D02*
D03*
X-29660Y71752D02*
D03*
Y77854D02*
D03*
X-76772Y-66043D02*
D03*
Y-59941D02*
D03*
X37402Y91240D02*
D03*
Y85138D02*
D03*
D20*
X-3150Y0D02*
D03*
X2953D02*
D03*
X15650D02*
D03*
X9547D02*
D03*
X21654Y-71850D02*
D03*
X27756D02*
D03*
X33465D02*
D03*
X39567D02*
D03*
X16929Y-71850D02*
D03*
X10827D02*
D03*
X5118D02*
D03*
X-984D02*
D03*
X-6693D02*
D03*
X-12795D02*
D03*
X-18504D02*
D03*
X-24606D02*
D03*
X63189Y-71850D02*
D03*
X57087D02*
D03*
X51378D02*
D03*
X45276D02*
D03*
X-21752Y48031D02*
D03*
X-27854D02*
D03*
Y42126D02*
D03*
X-21752D02*
D03*
X-29331Y-71850D02*
D03*
X-35433D02*
D03*
X-41142D02*
D03*
X-47244D02*
D03*
X-52953D02*
D03*
X-59055D02*
D03*
X-64764D02*
D03*
X-70866D02*
D03*
X7579Y94882D02*
D03*
X13681D02*
D03*
X-93602Y-47244D02*
D03*
X-87500D02*
D03*
X-93602Y-41339D02*
D03*
X-87500D02*
D03*
X13681Y88976D02*
D03*
X7579D02*
D03*
Y100787D02*
D03*
X13681D02*
D03*
D21*
X31102Y83169D02*
D03*
X27362D02*
D03*
X23622D02*
D03*
Y93209D02*
D03*
X27362D02*
D03*
X31102D02*
D03*
X28248Y47047D02*
D03*
X24508D02*
D03*
X20768D02*
D03*
Y57087D02*
D03*
X24508D02*
D03*
X28248D02*
D03*
D22*
X24508Y36890D02*
D03*
Y21732D02*
D03*
D23*
X-107283Y-42126D02*
D03*
Y-56299D02*
D03*
D24*
X-394Y74803D02*
D03*
X13780D02*
D03*
D25*
X-92756Y-34449D02*
D03*
X-87756D02*
D03*
X-82756D02*
D03*
X-77756D02*
D03*
X-72756D02*
D03*
X-67756D02*
D03*
X-62756D02*
D03*
X-57756D02*
D03*
X-52756D02*
D03*
X-47756D02*
D03*
X-42756D02*
D03*
X-37756D02*
D03*
X-32756D02*
D03*
X-27756D02*
D03*
Y34449D02*
D03*
X-32756D02*
D03*
X-37756D02*
D03*
X-42756D02*
D03*
X-47756D02*
D03*
X-52756D02*
D03*
X-57756D02*
D03*
X-62756D02*
D03*
X-67756D02*
D03*
X-72756D02*
D03*
X-77756D02*
D03*
X-82756D02*
D03*
X-87756D02*
D03*
X-92756D02*
D03*
D26*
X-22835Y-27500D02*
D03*
Y-22500D02*
D03*
Y-17500D02*
D03*
Y-12500D02*
D03*
Y-7500D02*
D03*
Y-2500D02*
D03*
Y2500D02*
D03*
Y7500D02*
D03*
Y12500D02*
D03*
Y17500D02*
D03*
Y22500D02*
D03*
Y27500D02*
D03*
D27*
X-62362Y-5906D02*
D03*
X-67874D02*
D03*
Y-11417D02*
D03*
X-62362D02*
D03*
X-56850D02*
D03*
Y-5906D02*
D03*
Y-394D02*
D03*
X-62362D02*
D03*
X-67874D02*
D03*
D28*
X-43406Y91732D02*
D03*
X-39075D02*
D03*
X-34744D02*
D03*
X-30413D02*
D03*
X-26083D02*
D03*
X-21752D02*
D03*
X-17421D02*
D03*
X-13091D02*
D03*
D29*
X-48130Y92224D02*
D03*
D30*
X-3445D02*
D03*
D31*
X-49114Y122146D02*
D03*
D32*
X-47835Y128051D02*
D03*
D33*
X-2067Y124705D02*
D03*
D34*
X-3642Y134252D02*
D03*
D35*
X39961Y109232D02*
D03*
X14764D02*
D03*
X36811D02*
D03*
X17913D02*
D03*
D36*
X26378D02*
D03*
X28346D02*
D03*
X24409D02*
D03*
X22441D02*
D03*
X20472D02*
D03*
X30315D02*
D03*
X32283D02*
D03*
X34252D02*
D03*
D67*
X100925Y48386D02*
D03*
Y43386D02*
D03*
Y38386D02*
D03*
Y33386D02*
D03*
Y28386D02*
D03*
X95925D02*
D03*
Y33386D02*
D03*
Y38386D02*
D03*
Y43386D02*
D03*
Y48386D02*
D03*
D68*
X-87756Y-41083D02*
Y-34449D01*
Y-41083D02*
X-87500Y-41339D01*
Y-47244D02*
Y-41339D01*
D69*
X25892Y52772D02*
X32299D01*
X24508Y36890D02*
Y51388D01*
X25892Y52772D01*
X32299D02*
X34252Y54724D01*
Y48622D02*
X34646Y49016D01*
X34744D01*
X28248Y47047D02*
X32776D01*
X34252Y48524D01*
Y48622D01*
Y54724D02*
X34350D01*
X34744Y55118D01*
D70*
X98425Y-59252D02*
D03*
X88425D02*
D03*
X98425Y0D02*
D03*
X88425D02*
D03*
X98425Y-29626D02*
D03*
X88425D02*
D03*
D71*
X108425Y-59252D02*
D03*
Y0D02*
D03*
Y-29626D02*
D03*
D72*
X88425Y30886D02*
D03*
Y53386D02*
D03*
X108425Y30886D02*
D03*
Y53386D02*
D03*
D73*
X94429Y23386D02*
D03*
X102421D02*
D03*
X98425Y53386D02*
D03*
D74*
X-18937Y-103839D02*
D03*
X-9961D02*
D03*
X-984D02*
D03*
X7992D02*
D03*
X16969D02*
D03*
X-14449Y-93839D02*
D03*
X-5472D02*
D03*
X3504D02*
D03*
X12480D02*
D03*
X21457D02*
D03*
X-18937Y-83839D02*
D03*
X-9961D02*
D03*
X-984D02*
D03*
X7992D02*
D03*
D75*
X49213Y-93839D02*
D03*
X-49173D02*
D03*
D76*
X16969Y-83839D02*
D03*
D77*
X44370Y127953D02*
D03*
X10354D02*
D03*
D78*
X44370Y111496D02*
D03*
X10354D02*
D03*
D79*
X15984Y113465D02*
D03*
X38740D02*
D03*
D80*
X-30020Y27559D02*
D03*
X-76772Y-70157D02*
D03*
X13780Y81083D02*
D03*
X9665Y81083D02*
D03*
X17894Y81083D02*
D03*
X9665Y68524D02*
D03*
X17894Y68524D02*
D03*
X13780Y68524D02*
D03*
X50000Y107402D02*
D03*
X610Y111516D02*
D03*
X4724Y107402D02*
D03*
X3465Y100787D02*
D03*
X118110Y39370D02*
D03*
Y0D02*
D03*
Y-19685D02*
D03*
Y-39370D02*
D03*
Y-59055D02*
D03*
X78740Y-78740D02*
D03*
X118110D02*
D03*
X98425Y-157480D02*
D03*
X-98425D02*
D03*
Y59055D02*
D03*
X-118110D02*
D03*
X-59055Y137795D02*
D03*
X-78740D02*
D03*
Y118110D02*
D03*
X-98425Y157480D02*
D03*
Y137795D02*
D03*
X118110Y59055D02*
D03*
Y78740D02*
D03*
X78740D02*
D03*
X59055Y137795D02*
D03*
X78740D02*
D03*
Y118110D02*
D03*
X137795Y98425D02*
D03*
X157480Y118110D02*
D03*
X137795D02*
D03*
X118110D02*
D03*
X98425Y137795D02*
D03*
Y157480D02*
D03*
X118110Y137795D02*
D03*
X137795D02*
D03*
X157480D02*
D03*
X177165D02*
D03*
Y157480D02*
D03*
X157480D02*
D03*
X137795D02*
D03*
X118110D02*
D03*
Y177165D02*
D03*
X137795D02*
D03*
Y196850D02*
D03*
X157480Y177165D02*
D03*
Y196850D02*
D03*
Y216535D02*
D03*
X177165D02*
D03*
Y177165D02*
D03*
X216535D02*
D03*
Y157480D02*
D03*
X196850D02*
D03*
X216535Y137795D02*
D03*
X196850D02*
D03*
Y118110D02*
D03*
Y98425D02*
D03*
Y78740D02*
D03*
Y59055D02*
D03*
Y39370D02*
D03*
Y19685D02*
D03*
Y0D02*
D03*
Y-19685D02*
D03*
Y-39370D02*
D03*
Y-59055D02*
D03*
Y-78740D02*
D03*
Y-98425D02*
D03*
X216535Y-118110D02*
D03*
X197503Y-120920D02*
D03*
X216535Y-157480D02*
D03*
Y-137795D02*
D03*
X196850D02*
D03*
X177165D02*
D03*
Y-157480D02*
D03*
X196850D02*
D03*
X216535Y-177165D02*
D03*
X177165D02*
D03*
Y-216535D02*
D03*
X157480D02*
D03*
Y-196850D02*
D03*
X137795D02*
D03*
X157480Y-177165D02*
D03*
Y-118110D02*
D03*
Y-137795D02*
D03*
Y-157480D02*
D03*
X137795Y-177165D02*
D03*
X118110D02*
D03*
X137795Y-157480D02*
D03*
X118110D02*
D03*
X137795Y-137795D02*
D03*
Y-118110D02*
D03*
Y-98425D02*
D03*
X118110Y-137795D02*
D03*
X98425D02*
D03*
X78740D02*
D03*
X118110Y-118110D02*
D03*
X78740D02*
D03*
X59055D02*
D03*
X39370D02*
D03*
X19685D02*
D03*
X0D02*
D03*
X-39370Y-98425D02*
D03*
X-19685Y-118110D02*
D03*
X-39370D02*
D03*
X-59055Y-78740D02*
D03*
Y-98425D02*
D03*
Y-118110D02*
D03*
Y-137795D02*
D03*
X-78740D02*
D03*
X-98425D02*
D03*
X-78740Y-118110D02*
D03*
Y-78740D02*
D03*
X-118110D02*
D03*
X-137795Y-98425D02*
D03*
X-118110Y-118110D02*
D03*
Y-137795D02*
D03*
Y-157480D02*
D03*
Y-177165D02*
D03*
X-137795Y-196850D02*
D03*
Y-177165D02*
D03*
Y-157480D02*
D03*
Y-137795D02*
D03*
Y-118110D02*
D03*
X-157480D02*
D03*
Y-137795D02*
D03*
Y-157480D02*
D03*
Y-177165D02*
D03*
Y-196850D02*
D03*
Y-216535D02*
D03*
X-177165D02*
D03*
Y-177165D02*
D03*
Y-137795D02*
D03*
Y-157480D02*
D03*
X-216535Y-177165D02*
D03*
X-196850Y-157480D02*
D03*
X-216535D02*
D03*
Y-137795D02*
D03*
X-196850D02*
D03*
Y-118110D02*
D03*
Y-98425D02*
D03*
Y-78740D02*
D03*
Y-59055D02*
D03*
Y-39370D02*
D03*
Y-19685D02*
D03*
Y0D02*
D03*
Y19685D02*
D03*
Y39370D02*
D03*
Y59055D02*
D03*
Y78740D02*
D03*
Y98425D02*
D03*
Y118110D02*
D03*
X-216535D02*
D03*
X-157480Y216535D02*
D03*
X-177165D02*
D03*
X-137795Y196850D02*
D03*
X-157480D02*
D03*
X-216535Y177165D02*
D03*
X-196975Y158107D02*
D03*
X-216535Y157480D02*
D03*
Y137795D02*
D03*
X-196850D02*
D03*
X-177165D02*
D03*
X-157480D02*
D03*
Y177165D02*
D03*
X-177165D02*
D03*
Y157480D02*
D03*
X-157480D02*
D03*
X-118110Y177165D02*
D03*
X-137795D02*
D03*
Y157480D02*
D03*
X-118110D02*
D03*
X-137795Y137795D02*
D03*
X-118110D02*
D03*
Y118110D02*
D03*
X-137795D02*
D03*
Y98425D02*
D03*
X-118110Y78740D02*
D03*
X-37500Y-55315D02*
D03*
X-41240Y-55216D02*
D03*
X-21260Y-42913D02*
D03*
X-21335Y-38907D02*
D03*
X-37756Y-41240D02*
D03*
X-21237Y-35167D02*
D03*
X-3150Y-6634D02*
D03*
X39370Y9055D02*
D03*
X22441D02*
D03*
X51575Y20079D02*
D03*
X39370Y13780D02*
D03*
X22835D02*
D03*
X39370Y-984D02*
D03*
Y3937D02*
D03*
X6004Y18898D02*
D03*
X2854D02*
D03*
X9154D02*
D03*
X-92913Y-27165D02*
D03*
X-72756Y41240D02*
D03*
X-77756D02*
D03*
X89370Y46063D02*
D03*
X91811Y38386D02*
D03*
Y43386D02*
D03*
X-27805Y52096D02*
D03*
X103543Y46063D02*
D03*
X77854Y-16457D02*
D03*
X77854Y-42598D02*
D03*
X77854Y-45984D02*
D03*
X77854Y-72126D02*
D03*
Y-13071D02*
D03*
X77854Y13071D02*
D03*
X-29469Y-22500D02*
D03*
X-31988Y67028D02*
D03*
X-17638Y48031D02*
D03*
Y42126D02*
D03*
X-29660Y82579D02*
D03*
X-97342Y-47146D02*
D03*
Y-41240D02*
D03*
X8760Y-53248D02*
D03*
X21850Y77264D02*
D03*
X32874Y77067D02*
D03*
X25591Y77165D02*
D03*
X29134D02*
D03*
X-29528Y-27559D02*
D03*
X6004Y22539D02*
D03*
X9154D02*
D03*
X2854D02*
D03*
X-71535Y-22736D02*
D03*
X-66535D02*
D03*
X41516Y91240D02*
D03*
X27362Y87283D02*
D03*
Y97323D02*
D03*
X41516Y85138D02*
D03*
X17224Y94784D02*
D03*
Y100689D02*
D03*
X14764Y105118D02*
D03*
X39961D02*
D03*
X36811D02*
D03*
X17913D02*
D03*
X10630Y49016D02*
D03*
X20768Y50689D02*
D03*
X14272Y45374D02*
D03*
X9154Y35925D02*
D03*
X2854D02*
D03*
X-34744Y98524D02*
D03*
X-55216Y64961D02*
D03*
X5020Y-53150D02*
D03*
X-16043Y12500D02*
D03*
X-42397Y82579D02*
D03*
X-16922D02*
D03*
X-10554D02*
D03*
X-23291D02*
D03*
X-36029D02*
D03*
X-48766D02*
D03*
X-55118D02*
D03*
X-114173Y-60039D02*
D03*
Y-54134D02*
D03*
X-112205Y-65945D02*
D03*
X-106299D02*
D03*
X-100394D02*
D03*
X-94488D02*
D03*
Y-54134D02*
D03*
Y-60039D02*
D03*
X-87598Y-56102D02*
D03*
Y-52165D02*
D03*
X-100394Y-60039D02*
D03*
Y-54134D02*
D03*
M02*
