G04*
G04 #@! TF.GenerationSoftware,Altium Limited,Altium Designer,22.2.1 (43)*
G04*
G04 Layer_Color=2752767*
%FSLAX25Y25*%
%MOIN*%
G70*
G04*
G04 #@! TF.SameCoordinates,AEC69C2F-8FEC-4199-912A-1D5750F5D6A4*
G04*
G04*
G04 #@! TF.FilePolarity,Positive*
G04*
G01*
G75*
%ADD14C,0.00200*%
D14*
X58255Y-118910D02*
Y-117310D01*
X59855D01*
Y-118910D01*
X58255D01*
X38570D02*
Y-117310D01*
X40170D01*
Y-118910D01*
X38570D01*
X18885D02*
Y-117310D01*
X20485D01*
Y-118910D01*
X18885D01*
X-800D02*
Y-117310D01*
X800D01*
Y-118910D01*
X-800D01*
X-20485D02*
Y-117310D01*
X-18885D01*
Y-118910D01*
X-20485D01*
X-40170D02*
Y-117310D01*
X-38570D01*
Y-118910D01*
X-40170D01*
X-59855D02*
Y-117310D01*
X-58255D01*
Y-118910D01*
X-59855D01*
X38570Y117310D02*
Y118910D01*
X40170D01*
Y117310D01*
X38570D01*
X18885D02*
Y118910D01*
X20485D01*
Y117310D01*
X18885D01*
X-800D02*
Y118910D01*
X800D01*
Y117310D01*
X-800D01*
X-20485D02*
Y118910D01*
X-18885D01*
Y117310D01*
X-20485D01*
X-40170D02*
Y118910D01*
X-38570D01*
Y117310D01*
X-40170D01*
X-59855D02*
Y118910D01*
X-58255D01*
Y117310D01*
X-59855D01*
X-99225Y-158280D02*
Y-156680D01*
X-97625D01*
Y-158280D01*
X-99225D01*
X-138595Y-197650D02*
Y-196050D01*
X-136995D01*
Y-197650D01*
X-138595D01*
X-118910Y-177965D02*
Y-176365D01*
X-117310D01*
Y-177965D01*
X-118910D01*
X-138595D02*
Y-176365D01*
X-136995D01*
Y-177965D01*
X-138595D01*
X-118910Y-158280D02*
Y-156680D01*
X-117310D01*
Y-158280D01*
X-118910D01*
X-138595D02*
Y-156680D01*
X-136995D01*
Y-158280D01*
X-138595D01*
X-118910Y-138595D02*
Y-136995D01*
X-117310D01*
Y-138595D01*
X-118910D01*
X-138595D02*
Y-136995D01*
X-136995D01*
Y-138595D01*
X-138595D01*
Y-118910D02*
Y-117310D01*
X-136995D01*
Y-118910D01*
X-138595D01*
Y-99225D02*
Y-97625D01*
X-136995D01*
Y-99225D01*
X-138595D01*
X-118910Y-118910D02*
Y-117310D01*
X-117310D01*
Y-118910D01*
X-118910D01*
X-99225Y-138595D02*
Y-136995D01*
X-97625D01*
Y-138595D01*
X-99225D01*
X-79540D02*
Y-136995D01*
X-77940D01*
Y-138595D01*
X-79540D01*
X97625Y-158280D02*
Y-156680D01*
X99225D01*
Y-158280D01*
X97625D01*
X117310Y-177965D02*
Y-176365D01*
X118910D01*
Y-177965D01*
X117310D01*
X77940Y-138595D02*
Y-136995D01*
X79540D01*
Y-138595D01*
X77940D01*
X117310Y-158280D02*
Y-156680D01*
X118910D01*
Y-158280D01*
X117310D01*
X97625Y-138595D02*
Y-136995D01*
X99225D01*
Y-138595D01*
X97625D01*
X117310D02*
Y-136995D01*
X118910D01*
Y-138595D01*
X117310D01*
Y-118910D02*
Y-117310D01*
X118910D01*
Y-118910D01*
X117310D01*
Y-79540D02*
Y-77940D01*
X118910D01*
Y-79540D01*
X117310D01*
Y-59855D02*
Y-58255D01*
X118910D01*
Y-59855D01*
X117310D01*
Y-40170D02*
Y-38570D01*
X118910D01*
Y-40170D01*
X117310D01*
Y-20485D02*
Y-18885D01*
X118910D01*
Y-20485D01*
X117310D01*
Y-800D02*
Y800D01*
X118910D01*
Y-800D01*
X117310D01*
Y18885D02*
Y20485D01*
X118910D01*
Y18885D01*
X117310D01*
Y38570D02*
Y40170D01*
X118910D01*
Y38570D01*
X117310D01*
Y58255D02*
Y59855D01*
X118910D01*
Y58255D01*
X117310D01*
Y77940D02*
Y79540D01*
X118910D01*
Y77940D01*
X117310D01*
X97625Y-59855D02*
Y-58255D01*
X99225D01*
Y-59855D01*
X97625D01*
Y-40170D02*
Y-38570D01*
X99225D01*
Y-40170D01*
X97625D01*
Y-20485D02*
Y-18885D01*
X99225D01*
Y-20485D01*
X97625D01*
Y-800D02*
Y800D01*
X99225D01*
Y-800D01*
X97625D01*
Y18885D02*
Y20485D01*
X99225D01*
Y18885D01*
X97625D01*
Y38570D02*
Y40170D01*
X99225D01*
Y38570D01*
X97625D01*
Y58255D02*
Y59855D01*
X99225D01*
Y58255D01*
X97625D01*
X77940Y-79540D02*
Y-77940D01*
X79540D01*
Y-79540D01*
X77940D01*
Y-59855D02*
Y-58255D01*
X79540D01*
Y-59855D01*
X77940D01*
Y-40170D02*
Y-38570D01*
X79540D01*
Y-40170D01*
X77940D01*
Y-20485D02*
Y-18885D01*
X79540D01*
Y-20485D01*
X77940D01*
Y-800D02*
Y800D01*
X79540D01*
Y-800D01*
X77940D01*
Y18885D02*
Y20485D01*
X79540D01*
Y18885D01*
X77940D01*
Y38570D02*
Y40170D01*
X79540D01*
Y38570D01*
X77940D01*
Y58255D02*
Y59855D01*
X79540D01*
Y58255D01*
X77940D01*
Y77940D02*
Y79540D01*
X79540D01*
Y77940D01*
X77940D01*
X-118910D02*
Y79540D01*
X-117310D01*
Y77940D01*
X-118910D01*
Y58255D02*
Y59855D01*
X-117310D01*
Y58255D01*
X-118910D01*
Y38570D02*
Y40170D01*
X-117310D01*
Y38570D01*
X-118910D01*
Y18885D02*
Y20485D01*
X-117310D01*
Y18885D01*
X-118910D01*
Y-800D02*
Y800D01*
X-117310D01*
Y-800D01*
X-118910D01*
Y-20485D02*
Y-18885D01*
X-117310D01*
Y-20485D01*
X-118910D01*
Y-40170D02*
Y-38570D01*
X-117310D01*
Y-40170D01*
X-118910D01*
Y-59855D02*
Y-58255D01*
X-117310D01*
Y-59855D01*
X-118910D01*
Y-79540D02*
Y-77940D01*
X-117310D01*
Y-79540D01*
X-118910D01*
X-99225Y58255D02*
Y59855D01*
X-97625D01*
Y58255D01*
X-99225D01*
Y38570D02*
Y40170D01*
X-97625D01*
Y38570D01*
X-99225D01*
Y18885D02*
Y20485D01*
X-97625D01*
Y18885D01*
X-99225D01*
Y-800D02*
Y800D01*
X-97625D01*
Y-800D01*
X-99225D01*
Y-20485D02*
Y-18885D01*
X-97625D01*
Y-20485D01*
X-99225D01*
Y-40170D02*
Y-38570D01*
X-97625D01*
Y-40170D01*
X-99225D01*
Y-59855D02*
Y-58255D01*
X-97625D01*
Y-59855D01*
X-99225D01*
X-79540Y-118910D02*
Y-117310D01*
X-77940D01*
Y-118910D01*
X-79540D01*
X-40170Y-99225D02*
Y-97625D01*
X-38570D01*
Y-99225D01*
X-40170D01*
X-59855D02*
Y-97625D01*
X-58255D01*
Y-99225D01*
X-59855D01*
X18885D02*
Y-97625D01*
X20485D01*
Y-99225D01*
X18885D01*
X-800D02*
Y-97625D01*
X800D01*
Y-99225D01*
X-800D01*
X-20485D02*
Y-97625D01*
X-18885D01*
Y-99225D01*
X-20485D01*
X58255D02*
Y-97625D01*
X59855D01*
Y-99225D01*
X58255D01*
X38570D02*
Y-97625D01*
X40170D01*
Y-99225D01*
X38570D01*
X-40170Y-79540D02*
Y-77940D01*
X-38570D01*
Y-79540D01*
X-40170D01*
X-59855D02*
Y-77940D01*
X-58255D01*
Y-79540D01*
X-59855D01*
X-79540D02*
Y-77940D01*
X-77940D01*
Y-79540D01*
X-79540D01*
X18885D02*
Y-77940D01*
X20485D01*
Y-79540D01*
X18885D01*
X-800D02*
Y-77940D01*
X800D01*
Y-79540D01*
X-800D01*
X-20485D02*
Y-77940D01*
X-18885D01*
Y-79540D01*
X-20485D01*
X58255D02*
Y-77940D01*
X59855D01*
Y-79540D01*
X58255D01*
X38570D02*
Y-77940D01*
X40170D01*
Y-79540D01*
X38570D01*
X-40170Y-59855D02*
Y-58255D01*
X-38570D01*
Y-59855D01*
X-40170D01*
X-59855D02*
Y-58255D01*
X-58255D01*
Y-59855D01*
X-59855D01*
X-79540D02*
Y-58255D01*
X-77940D01*
Y-59855D01*
X-79540D01*
X18885D02*
Y-58255D01*
X20485D01*
Y-59855D01*
X18885D01*
X-800D02*
Y-58255D01*
X800D01*
Y-59855D01*
X-800D01*
X-20485D02*
Y-58255D01*
X-18885D01*
Y-59855D01*
X-20485D01*
X58255D02*
Y-58255D01*
X59855D01*
Y-59855D01*
X58255D01*
X38570D02*
Y-58255D01*
X40170D01*
Y-59855D01*
X38570D01*
X-40170Y-40170D02*
Y-38570D01*
X-38570D01*
Y-40170D01*
X-40170D01*
X-59855D02*
Y-38570D01*
X-58255D01*
Y-40170D01*
X-59855D01*
X-79540D02*
Y-38570D01*
X-77940D01*
Y-40170D01*
X-79540D01*
X18885D02*
Y-38570D01*
X20485D01*
Y-40170D01*
X18885D01*
X-800D02*
Y-38570D01*
X800D01*
Y-40170D01*
X-800D01*
X-20485D02*
Y-38570D01*
X-18885D01*
Y-40170D01*
X-20485D01*
X58255D02*
Y-38570D01*
X59855D01*
Y-40170D01*
X58255D01*
X38570D02*
Y-38570D01*
X40170D01*
Y-40170D01*
X38570D01*
X-40170Y-20485D02*
Y-18885D01*
X-38570D01*
Y-20485D01*
X-40170D01*
X-59855D02*
Y-18885D01*
X-58255D01*
Y-20485D01*
X-59855D01*
X-79540D02*
Y-18885D01*
X-77940D01*
Y-20485D01*
X-79540D01*
X18885D02*
Y-18885D01*
X20485D01*
Y-20485D01*
X18885D01*
X-800D02*
Y-18885D01*
X800D01*
Y-20485D01*
X-800D01*
X-20485D02*
Y-18885D01*
X-18885D01*
Y-20485D01*
X-20485D01*
X58255D02*
Y-18885D01*
X59855D01*
Y-20485D01*
X58255D01*
X38570D02*
Y-18885D01*
X40170D01*
Y-20485D01*
X38570D01*
X-40170Y-800D02*
Y800D01*
X-38570D01*
Y-800D01*
X-40170D01*
X-59855D02*
Y800D01*
X-58255D01*
Y-800D01*
X-59855D01*
X-79540D02*
Y800D01*
X-77940D01*
Y-800D01*
X-79540D01*
X18885D02*
Y800D01*
X20485D01*
Y-800D01*
X18885D01*
X-800D02*
Y800D01*
X800D01*
Y-800D01*
X-800D01*
X-20485D02*
Y800D01*
X-18885D01*
Y-800D01*
X-20485D01*
X58255D02*
Y800D01*
X59855D01*
Y-800D01*
X58255D01*
X38570D02*
Y800D01*
X40170D01*
Y-800D01*
X38570D01*
X-40170Y18885D02*
Y20485D01*
X-38570D01*
Y18885D01*
X-40170D01*
X-59855D02*
Y20485D01*
X-58255D01*
Y18885D01*
X-59855D01*
X-79540D02*
Y20485D01*
X-77940D01*
Y18885D01*
X-79540D01*
X18885D02*
Y20485D01*
X20485D01*
Y18885D01*
X18885D01*
X-800D02*
Y20485D01*
X800D01*
Y18885D01*
X-800D01*
X-20485D02*
Y20485D01*
X-18885D01*
Y18885D01*
X-20485D01*
X58255D02*
Y20485D01*
X59855D01*
Y18885D01*
X58255D01*
X38570D02*
Y20485D01*
X40170D01*
Y18885D01*
X38570D01*
X-40170Y38570D02*
Y40170D01*
X-38570D01*
Y38570D01*
X-40170D01*
X-59855D02*
Y40170D01*
X-58255D01*
Y38570D01*
X-59855D01*
X-79540D02*
Y40170D01*
X-77940D01*
Y38570D01*
X-79540D01*
X18885D02*
Y40170D01*
X20485D01*
Y38570D01*
X18885D01*
X-800D02*
Y40170D01*
X800D01*
Y38570D01*
X-800D01*
X-20485D02*
Y40170D01*
X-18885D01*
Y38570D01*
X-20485D01*
X58255D02*
Y40170D01*
X59855D01*
Y38570D01*
X58255D01*
X38570D02*
Y40170D01*
X40170D01*
Y38570D01*
X38570D01*
X-40170Y58255D02*
Y59855D01*
X-38570D01*
Y58255D01*
X-40170D01*
X-59855D02*
Y59855D01*
X-58255D01*
Y58255D01*
X-59855D01*
X-79540D02*
Y59855D01*
X-77940D01*
Y58255D01*
X-79540D01*
X18885D02*
Y59855D01*
X20485D01*
Y58255D01*
X18885D01*
X-800D02*
Y59855D01*
X800D01*
Y58255D01*
X-800D01*
X-20485D02*
Y59855D01*
X-18885D01*
Y58255D01*
X-20485D01*
X58255D02*
Y59855D01*
X59855D01*
Y58255D01*
X58255D01*
X38570D02*
Y59855D01*
X40170D01*
Y58255D01*
X38570D01*
X-40170Y77940D02*
Y79540D01*
X-38570D01*
Y77940D01*
X-40170D01*
X-59855D02*
Y79540D01*
X-58255D01*
Y77940D01*
X-59855D01*
X-79540D02*
Y79540D01*
X-77940D01*
Y77940D01*
X-79540D01*
X18885D02*
Y79540D01*
X20485D01*
Y77940D01*
X18885D01*
X-800D02*
Y79540D01*
X800D01*
Y77940D01*
X-800D01*
X-20485D02*
Y79540D01*
X-18885D01*
Y77940D01*
X-20485D01*
X58255D02*
Y79540D01*
X59855D01*
Y77940D01*
X58255D01*
X38570D02*
Y79540D01*
X40170D01*
Y77940D01*
X38570D01*
X18885Y97625D02*
Y99225D01*
X20485D01*
Y97625D01*
X18885D01*
X38570D02*
Y99225D01*
X40170D01*
Y97625D01*
X38570D01*
X58255D02*
Y99225D01*
X59855D01*
Y97625D01*
X58255D01*
X-40170D02*
Y99225D01*
X-38570D01*
Y97625D01*
X-40170D01*
X-20485D02*
Y99225D01*
X-18885D01*
Y97625D01*
X-20485D01*
X-800D02*
Y99225D01*
X800D01*
Y97625D01*
X-800D01*
X-59855D02*
Y99225D01*
X-58255D01*
Y97625D01*
X-59855D01*
X-118910Y136995D02*
Y138595D01*
X-117310D01*
Y136995D01*
X-118910D01*
Y156680D02*
Y158280D01*
X-117310D01*
Y156680D01*
X-118910D01*
Y176365D02*
Y177965D01*
X-117310D01*
Y176365D01*
X-118910D01*
X-138595Y136995D02*
Y138595D01*
X-136995D01*
Y136995D01*
X-138595D01*
Y156680D02*
Y158280D01*
X-136995D01*
Y156680D01*
X-138595D01*
Y176365D02*
Y177965D01*
X-136995D01*
Y176365D01*
X-138595D01*
Y117310D02*
Y118910D01*
X-136995D01*
Y117310D01*
X-138595D01*
X-158280D02*
Y118910D01*
X-156680D01*
Y117310D01*
X-158280D01*
X58255D02*
Y118910D01*
X59855D01*
Y117310D01*
X58255D01*
X117310D02*
Y118910D01*
X118910D01*
Y117310D01*
X117310D01*
X77940D02*
Y118910D01*
X79540D01*
Y117310D01*
X77940D01*
X117310Y136995D02*
Y138595D01*
X118910D01*
Y136995D01*
X117310D01*
X97625D02*
Y138595D01*
X99225D01*
Y136995D01*
X97625D01*
X77940D02*
Y138595D01*
X79540D01*
Y136995D01*
X77940D01*
X136995Y97625D02*
Y99225D01*
X138595D01*
Y97625D01*
X136995D01*
X156680Y117310D02*
Y118910D01*
X158280D01*
Y117310D01*
X156680D01*
X136995D02*
Y118910D01*
X138595D01*
Y117310D01*
X136995D01*
Y136995D02*
Y138595D01*
X138595D01*
Y136995D01*
X136995D01*
X156680D02*
Y138595D01*
X158280D01*
Y136995D01*
X156680D01*
X176365D02*
Y138595D01*
X177965D01*
Y136995D01*
X176365D01*
Y156680D02*
Y158280D01*
X177965D01*
Y156680D01*
X176365D01*
X156680D02*
Y158280D01*
X158280D01*
Y156680D01*
X156680D01*
X136995D02*
Y158280D01*
X138595D01*
Y156680D01*
X136995D01*
Y176365D02*
Y177965D01*
X138595D01*
Y176365D01*
X136995D01*
Y196050D02*
Y197650D01*
X138595D01*
Y196050D01*
X136995D01*
X156680Y176365D02*
Y177965D01*
X158280D01*
Y176365D01*
X156680D01*
Y196050D02*
Y197650D01*
X158280D01*
Y196050D01*
X156680D01*
Y215735D02*
Y217335D01*
X158280D01*
Y215735D01*
X156680D01*
X176365D02*
Y217335D01*
X177965D01*
Y215735D01*
X176365D01*
Y176365D02*
Y177965D01*
X177965D01*
Y176365D01*
X176365D01*
X215735D02*
Y177965D01*
X217335D01*
Y176365D01*
X215735D01*
Y156680D02*
Y158280D01*
X217335D01*
Y156680D01*
X215735D01*
X196050D02*
Y158280D01*
X197650D01*
Y156680D01*
X196050D01*
X215735Y136995D02*
Y138595D01*
X217335D01*
Y136995D01*
X215735D01*
X196050D02*
Y138595D01*
X197650D01*
Y136995D01*
X196050D01*
Y117310D02*
Y118910D01*
X197650D01*
Y117310D01*
X196050D01*
Y97625D02*
Y99225D01*
X197650D01*
Y97625D01*
X196050D01*
Y77940D02*
Y79540D01*
X197650D01*
Y77940D01*
X196050D01*
Y58255D02*
Y59855D01*
X197650D01*
Y58255D01*
X196050D01*
Y38570D02*
Y40170D01*
X197650D01*
Y38570D01*
X196050D01*
Y18885D02*
Y20485D01*
X197650D01*
Y18885D01*
X196050D01*
Y-800D02*
Y800D01*
X197650D01*
Y-800D01*
X196050D01*
Y-20485D02*
Y-18885D01*
X197650D01*
Y-20485D01*
X196050D01*
Y-40170D02*
Y-38570D01*
X197650D01*
Y-40170D01*
X196050D01*
Y-59855D02*
Y-58255D01*
X197650D01*
Y-59855D01*
X196050D01*
Y-79540D02*
Y-77940D01*
X197650D01*
Y-79540D01*
X196050D01*
Y-99225D02*
Y-97625D01*
X197650D01*
Y-99225D01*
X196050D01*
X215735Y-118910D02*
Y-117310D01*
X217335D01*
Y-118910D01*
X215735D01*
X196704Y-121720D02*
Y-120120D01*
X198303D01*
Y-121720D01*
X196704D01*
X215735Y-158280D02*
Y-156680D01*
X217335D01*
Y-158280D01*
X215735D01*
Y-138595D02*
Y-136995D01*
X217335D01*
Y-138595D01*
X215735D01*
X196050D02*
Y-136995D01*
X197650D01*
Y-138595D01*
X196050D01*
X176365D02*
Y-136995D01*
X177965D01*
Y-138595D01*
X176365D01*
Y-158280D02*
Y-156680D01*
X177965D01*
Y-158280D01*
X176365D01*
X196050D02*
Y-156680D01*
X197650D01*
Y-158280D01*
X196050D01*
X215735Y-177965D02*
Y-176365D01*
X217335D01*
Y-177965D01*
X215735D01*
X176365D02*
Y-176365D01*
X177965D01*
Y-177965D01*
X176365D01*
Y-217335D02*
Y-215735D01*
X177965D01*
Y-217335D01*
X176365D01*
X156680D02*
Y-215735D01*
X158280D01*
Y-217335D01*
X156680D01*
Y-197650D02*
Y-196050D01*
X158280D01*
Y-197650D01*
X156680D01*
X136995D02*
Y-196050D01*
X138595D01*
Y-197650D01*
X136995D01*
X156680Y-177965D02*
Y-176365D01*
X158280D01*
Y-177965D01*
X156680D01*
Y-118910D02*
Y-117310D01*
X158280D01*
Y-118910D01*
X156680D01*
Y-138595D02*
Y-136995D01*
X158280D01*
Y-138595D01*
X156680D01*
Y-158280D02*
Y-156680D01*
X158280D01*
Y-158280D01*
X156680D01*
X136995Y-177965D02*
Y-176365D01*
X138595D01*
Y-177965D01*
X136995D01*
Y-158280D02*
Y-156680D01*
X138595D01*
Y-158280D01*
X136995D01*
Y-138595D02*
Y-136995D01*
X138595D01*
Y-138595D01*
X136995D01*
Y-118910D02*
Y-117310D01*
X138595D01*
Y-118910D01*
X136995D01*
Y-99225D02*
Y-97625D01*
X138595D01*
Y-99225D01*
X136995D01*
X-158280Y-118910D02*
Y-117310D01*
X-156680D01*
Y-118910D01*
X-158280D01*
Y-138595D02*
Y-136995D01*
X-156680D01*
Y-138595D01*
X-158280D01*
Y-158280D02*
Y-156680D01*
X-156680D01*
Y-158280D01*
X-158280D01*
Y-177965D02*
Y-176365D01*
X-156680D01*
Y-177965D01*
X-158280D01*
Y-197650D02*
Y-196050D01*
X-156680D01*
Y-197650D01*
X-158280D01*
Y-217335D02*
Y-215735D01*
X-156680D01*
Y-217335D01*
X-158280D01*
X-177965D02*
Y-215735D01*
X-176365D01*
Y-217335D01*
X-177965D01*
Y-177965D02*
Y-176365D01*
X-176365D01*
Y-177965D01*
X-177965D01*
Y-138595D02*
Y-136995D01*
X-176365D01*
Y-138595D01*
X-177965D01*
Y-158280D02*
Y-156680D01*
X-176365D01*
Y-158280D01*
X-177965D01*
X-217335Y-177965D02*
Y-176365D01*
X-215735D01*
Y-177965D01*
X-217335D01*
X-197650Y-158280D02*
Y-156680D01*
X-196050D01*
Y-158280D01*
X-197650D01*
X-217335D02*
Y-156680D01*
X-215735D01*
Y-158280D01*
X-217335D01*
Y-138595D02*
Y-136995D01*
X-215735D01*
Y-138595D01*
X-217335D01*
X-197650D02*
Y-136995D01*
X-196050D01*
Y-138595D01*
X-197650D01*
Y-118910D02*
Y-117310D01*
X-196050D01*
Y-118910D01*
X-197650D01*
Y-99225D02*
Y-97625D01*
X-196050D01*
Y-99225D01*
X-197650D01*
Y-79540D02*
Y-77940D01*
X-196050D01*
Y-79540D01*
X-197650D01*
Y-59855D02*
Y-58255D01*
X-196050D01*
Y-59855D01*
X-197650D01*
Y-40170D02*
Y-38570D01*
X-196050D01*
Y-40170D01*
X-197650D01*
Y-20485D02*
Y-18885D01*
X-196050D01*
Y-20485D01*
X-197650D01*
Y-800D02*
Y800D01*
X-196050D01*
Y-800D01*
X-197650D01*
Y18885D02*
Y20485D01*
X-196050D01*
Y18885D01*
X-197650D01*
Y38570D02*
Y40170D01*
X-196050D01*
Y38570D01*
X-197650D01*
Y58255D02*
Y59855D01*
X-196050D01*
Y58255D01*
X-197650D01*
Y77940D02*
Y79540D01*
X-196050D01*
Y77940D01*
X-197650D01*
Y97625D02*
Y99225D01*
X-196050D01*
Y97625D01*
X-197650D01*
Y117310D02*
Y118910D01*
X-196050D01*
Y117310D01*
X-197650D01*
X-217335D02*
Y118910D01*
X-215735D01*
Y117310D01*
X-217335D01*
X-158280Y215735D02*
Y217335D01*
X-156680D01*
Y215735D01*
X-158280D01*
X-177965D02*
Y217335D01*
X-176365D01*
Y215735D01*
X-177965D01*
X-158280Y196050D02*
Y197650D01*
X-156680D01*
Y196050D01*
X-158280D01*
X-217335Y176365D02*
Y177965D01*
X-215735D01*
Y176365D01*
X-217335D01*
X-197775Y157307D02*
Y158907D01*
X-196175D01*
Y157307D01*
X-197775D01*
X-217335Y156680D02*
Y158280D01*
X-215735D01*
Y156680D01*
X-217335D01*
Y136995D02*
Y138595D01*
X-215735D01*
Y136995D01*
X-217335D01*
X-197650D02*
Y138595D01*
X-196050D01*
Y136995D01*
X-197650D01*
X-177965D02*
Y138595D01*
X-176365D01*
Y136995D01*
X-177965D01*
X-158280D02*
Y138595D01*
X-156680D01*
Y136995D01*
X-158280D01*
Y176365D02*
Y177965D01*
X-156680D01*
Y176365D01*
X-158280D01*
X-177965D02*
Y177965D01*
X-176365D01*
Y176365D01*
X-177965D01*
Y156680D02*
Y158280D01*
X-176365D01*
Y156680D01*
X-177965D01*
X-158280D02*
Y158280D01*
X-156680D01*
Y156680D01*
X-158280D01*
M02*
