M48
;Layer_Color=9474304
;FILE_FORMAT=4:4
METRIC,LZ
;TYPE=PLATED
T1F00S00C0.5000
%
T01
X004Y-0055
X0045
X-004
X-0045
X-004Y-005
Y-0045
Y-004
Y-0035
Y-003
X-0035Y-003
Y-0035
Y-004
Y-0045
Y-005
X-003Y-0045
Y-004
X-0025
Y-0035
X-003
Y-003
Y-002
Y-0015
X-0025
X-0035Y-0025
X-005Y-0025
Y-003
Y-0035
Y-004
X-0045
Y-0035
Y-0045
X-0055
Y-004
Y-0035
X-005Y-002
Y-0015
X-002Y-0015
Y-002
X-0015
Y-0025
Y-003
X-001
X-0005
Y-0025
X-001
Y-002
X-0005
Y-0015
X-001
X-0015
X0
Y-002
Y-0025
Y-003
X0005
X001
Y-0025
X0005
Y-002
X001
Y-0015
X0005
X0015
Y-002
Y-0025
Y-003
X-002
Y-0035
X002
X0025
Y-004
X003
Y-0045
X0035Y-0045
X004
X0045
Y-004
Y-0035
X005
X00501659Y-00307137
X0055Y-003
Y-0035
Y-004
X005
X0055Y-0045
X004Y-005
X0035
Y-004
X004
Y-0035
X0035
Y-003
X004
X0035Y-0025
X003Y-003
Y-0035
Y-002
Y-0015
X0025
X002
Y-002
X005Y-002
Y-0015
Y-0025
Y-001
Y-0005
Y0
Y0005
Y001
Y0015
Y002
Y0025
X0035
X003Y002
Y0015
Y001
Y0005
Y0
Y-0005
Y-001
X0025
Y-0005
Y0
Y0005
Y001
Y0015
X002
Y001
Y0005
Y0
Y-0005
Y-001
Y002
X0015
Y0015
Y001
Y0005
Y0
Y-0005
Y-001
X001
X0005
Y-0005
X001
Y0
X0005
Y0005
X001
Y001
X0005
Y0015
X001
Y002
X0005
X0
Y0015
Y001
Y0005
Y0
Y-0005
Y-001
X-0005
X-001
Y-0005
X-0005
Y0
X-001
Y0005
X-0005
Y001
X-001
Y0015
X-0005
Y002
X-001
X-0015
Y0015
Y001
Y0005
Y0
Y-0005
Y-001
X-002
Y-0005
Y0
Y0005
Y001
Y0015
Y002
X-0015Y0025
X-001
X-0005
X0
X0005
X001
X0015
X-0025Y0015
Y001
Y0005
Y0
Y-0005
Y-001
X-003
Y-0005
Y0
Y0005
Y001
Y0015
Y002
X-005Y002
Y0015
Y001
Y0005
Y0
Y-0005
Y-001
Y0025
Y003
X-0055
Y0035
Y004
Y0045
X-00500316Y00401591
X-005Y0035
X-0045
Y004
Y0045
X-004
Y005
Y0055
X-0045
X-004Y004
Y0035
X-004Y003
X-0035
Y0035
X-003
Y004
Y0045
X-0035
Y004
X-0015Y003
X-001
X-0005
X0
X0005
X001
X0015
X002
Y0035
X0025
X003
X0035
X004
Y004
X0035
Y0045
X004
Y005
X0035
X004Y0055
X0045
Y0045
Y004
Y0035
X005
Y004
X0055
Y0035
Y0045
X005Y003
X004
X0035
X003
M30
