G04*
G04 #@! TF.GenerationSoftware,Altium Limited,Altium Designer,22.2.1 (43)*
G04*
G04 Layer_Color=2752767*
%FSLAX25Y25*%
%MOIN*%
G70*
G04*
G04 #@! TF.SameCoordinates,9388D860-640C-4D59-96FC-9271E4276608*
G04*
G04*
G04 #@! TF.FilePolarity,Positive*
G04*
G01*
G75*
%ADD82C,0.00200*%
%ADD83C,0.00267*%
D82*
X87625Y-800D02*
Y800D01*
X89225D01*
Y-800D01*
X87625D01*
X107625D02*
Y800D01*
X109225D01*
Y-800D01*
X107625D01*
X97625D02*
Y800D01*
X99225D01*
Y-800D01*
X97625D01*
Y-60052D02*
Y-58452D01*
X99225D01*
Y-60052D01*
X97625D01*
X107625D02*
Y-58452D01*
X109225D01*
Y-60052D01*
X107625D01*
X87625D02*
Y-58452D01*
X89225D01*
Y-60052D01*
X87625D01*
X97625Y-30426D02*
Y-28826D01*
X99225D01*
Y-30426D01*
X97625D01*
X107625D02*
Y-28826D01*
X109225D01*
Y-30426D01*
X107625D01*
X87625D02*
Y-28826D01*
X89225D01*
Y-30426D01*
X87625D01*
X49213Y-94639D02*
X48413Y-93039D01*
X50013D01*
X49213Y-94639D01*
X-49173D02*
X-49973Y-93039D01*
X-48373D01*
X-49173Y-94639D01*
X44370Y127153D02*
X44770Y127553D01*
X45170D01*
X44770Y127953D01*
X45170Y128353D01*
X44770D01*
X44370Y128753D01*
X43970Y128353D01*
X43570D01*
X43970Y127953D01*
X43570Y127553D01*
X43970D01*
X44370Y127153D01*
X10354D02*
X10754Y127553D01*
X11154D01*
X10754Y127953D01*
X11154Y128353D01*
X10754D01*
X10354Y128753D01*
X9954Y128353D01*
X9554D01*
X9954Y127953D01*
X9554Y127553D01*
X9954D01*
X10354Y127153D01*
X43570Y110696D02*
X43970Y111496D01*
X43570Y112296D01*
X44370Y111896D01*
X45170Y112296D01*
X44770Y111496D01*
X45170Y110696D01*
X44370Y111096D01*
X43570Y110696D01*
X9554D02*
X9954Y111496D01*
X9554Y112296D01*
X10354Y111896D01*
X11154Y112296D01*
X10754Y111496D01*
X11154Y110696D01*
X10354Y111096D01*
X9554Y110696D01*
X15584Y113065D02*
Y112665D01*
X16384D01*
Y113065D01*
X16784D01*
Y113865D01*
X16384D01*
Y114265D01*
X15584D01*
Y113865D01*
X15184D01*
Y113065D01*
X15584D01*
X38340D02*
Y112665D01*
X39140D01*
Y113065D01*
X39540D01*
Y113865D01*
X39140D01*
Y114265D01*
X38340D01*
Y113865D01*
X37940D01*
Y113065D01*
X38340D01*
X13964Y100775D02*
X14364D01*
X14764Y101175D01*
X15164Y100775D01*
X15564D01*
Y101175D01*
X15164Y101575D01*
X15564Y101975D01*
Y102375D01*
X15164D01*
X14764Y101975D01*
X14364Y102375D01*
X13964D01*
Y101975D01*
X14364Y101575D01*
X13964Y101175D01*
Y100775D01*
X-113595Y-66233D02*
X-113195D01*
X-112795Y-65833D01*
X-112395Y-66233D01*
X-111995D01*
Y-65833D01*
X-112395Y-65433D01*
X-111995Y-65033D01*
Y-64633D01*
X-112395D01*
X-112795Y-65033D01*
X-113195Y-64633D01*
X-113595D01*
Y-65033D01*
X-113195Y-65433D01*
X-113595Y-65833D01*
Y-66233D01*
X-109481Y-66233D02*
X-109081D01*
X-108681Y-65833D01*
X-108281Y-66233D01*
X-107881D01*
Y-65833D01*
X-108281Y-65433D01*
X-107881Y-65033D01*
Y-64633D01*
X-108281D01*
X-108681Y-65033D01*
X-109081Y-64633D01*
X-109481D01*
Y-65033D01*
X-109081Y-65433D01*
X-109481Y-65833D01*
Y-66233D01*
X-117709Y-66233D02*
X-117309D01*
X-116909Y-65833D01*
X-116509Y-66233D01*
X-116109D01*
Y-65833D01*
X-116509Y-65433D01*
X-116109Y-65033D01*
Y-64633D01*
X-116509D01*
X-116909Y-65033D01*
X-117309Y-64633D01*
X-117709D01*
Y-65033D01*
X-117309Y-65433D01*
X-117709Y-65833D01*
Y-66233D01*
X-109481Y-53674D02*
X-109081D01*
X-108681Y-53274D01*
X-108281Y-53674D01*
X-107881D01*
Y-53274D01*
X-108281Y-52874D01*
X-107881Y-52474D01*
Y-52074D01*
X-108281D01*
X-108681Y-52474D01*
X-109081Y-52074D01*
X-109481D01*
Y-52474D01*
X-109081Y-52874D01*
X-109481Y-53274D01*
Y-53674D01*
X-117710Y-53674D02*
X-117309D01*
X-116910Y-53274D01*
X-116509Y-53674D01*
X-116110D01*
Y-53274D01*
X-116509Y-52874D01*
X-116110Y-52474D01*
Y-52074D01*
X-116509D01*
X-116910Y-52474D01*
X-117309Y-52074D01*
X-117710D01*
Y-52474D01*
X-117309Y-52874D01*
X-117710Y-53274D01*
Y-53674D01*
X-113595Y-53674D02*
X-113195D01*
X-112795Y-53274D01*
X-112395Y-53674D01*
X-111995D01*
Y-53274D01*
X-112395Y-52874D01*
X-111995Y-52474D01*
Y-52074D01*
X-112395D01*
X-112795Y-52474D01*
X-113195Y-52074D01*
X-113595D01*
Y-52474D01*
X-113195Y-52874D01*
X-113595Y-53274D01*
Y-53674D01*
X59439Y39688D02*
X59839D01*
X60239Y40088D01*
X60639Y39688D01*
X61039D01*
Y40088D01*
X60639Y40488D01*
X61039Y40888D01*
Y41288D01*
X60639D01*
X60239Y40888D01*
X59839Y41288D01*
X59439D01*
Y40888D01*
X59839Y40488D01*
X59439Y40088D01*
Y39688D01*
X50176Y39751D02*
X50576D01*
X50976Y40151D01*
X51376Y39751D01*
X51776D01*
Y40151D01*
X51376Y40551D01*
X51776Y40951D01*
Y41351D01*
X51376D01*
X50976Y40951D01*
X50576Y41351D01*
X50176D01*
Y40951D01*
X50576Y40551D01*
X50176Y40151D01*
Y39751D01*
X59354Y51858D02*
X59754D01*
X60154Y52258D01*
X60553Y51858D01*
X60953D01*
Y52258D01*
X60553Y52658D01*
X60953Y53057D01*
Y53457D01*
X60553D01*
X60154Y53057D01*
X59754Y53457D01*
X59354D01*
Y53057D01*
X59754Y52658D01*
X59354Y52258D01*
Y51858D01*
X50176D02*
X50576D01*
X50976Y52258D01*
X51376Y51858D01*
X51776D01*
Y52258D01*
X51376Y52658D01*
X51776Y53057D01*
Y53457D01*
X51376D01*
X50976Y53057D01*
X50576Y53457D01*
X50176D01*
Y53057D01*
X50576Y52658D01*
X50176Y52258D01*
Y51858D01*
X56295D02*
X56695D01*
X57095Y52258D01*
X57494Y51858D01*
X57894D01*
Y52258D01*
X57494Y52658D01*
X57894Y53057D01*
Y53457D01*
X57494D01*
X57095Y53057D01*
X56695Y53457D01*
X56295D01*
Y53057D01*
X56695Y52658D01*
X56295Y52258D01*
Y51858D01*
X53235D02*
X53635D01*
X54035Y52258D01*
X54435Y51858D01*
X54835D01*
Y52258D01*
X54435Y52658D01*
X54835Y53057D01*
Y53457D01*
X54435D01*
X54035Y53057D01*
X53635Y53457D01*
X53235D01*
Y53057D01*
X53635Y52658D01*
X53235Y52258D01*
Y51858D01*
X56380Y39688D02*
X56780D01*
X57180Y40088D01*
X57580Y39688D01*
X57980D01*
Y40088D01*
X57580Y40488D01*
X57980Y40888D01*
Y41288D01*
X57580D01*
X57180Y40888D01*
X56780Y41288D01*
X56380D01*
Y40888D01*
X56780Y40488D01*
X56380Y40088D01*
Y39688D01*
X53235Y39751D02*
X53635D01*
X54035Y40151D01*
X54435Y39751D01*
X54835D01*
Y40151D01*
X54435Y40551D01*
X54835Y40951D01*
Y41351D01*
X54435D01*
X54035Y40951D01*
X53635Y41351D01*
X53235D01*
Y40951D01*
X53635Y40551D01*
X53235Y40151D01*
Y39751D01*
X-28261Y67310D02*
X-27861D01*
X-27461Y67710D01*
X-27061Y67310D01*
X-26661D01*
Y67710D01*
X-27061Y68110D01*
X-26661Y68510D01*
Y68910D01*
X-27061D01*
X-27461Y68510D01*
X-27861Y68910D01*
X-28261D01*
Y68510D01*
X-27861Y68110D01*
X-28261Y67710D01*
Y67310D01*
X-99172Y-53924D02*
X-98772D01*
X-98372Y-53524D01*
X-97972Y-53924D01*
X-97572D01*
Y-53524D01*
X-97972Y-53124D01*
X-97572Y-52724D01*
Y-52324D01*
X-97972D01*
X-98372Y-52724D01*
X-98772Y-52324D01*
X-99172D01*
Y-52724D01*
X-98772Y-53124D01*
X-99172Y-53524D01*
Y-53924D01*
X-103286Y-53924D02*
X-102886D01*
X-102486Y-53524D01*
X-102086Y-53924D01*
X-101686D01*
Y-53524D01*
X-102086Y-53124D01*
X-101686Y-52724D01*
Y-52324D01*
X-102086D01*
X-102486Y-52724D01*
X-102886Y-52324D01*
X-103286D01*
Y-52724D01*
X-102886Y-53124D01*
X-103286Y-53524D01*
Y-53924D01*
X-95058Y-53924D02*
X-94658D01*
X-94258Y-53524D01*
X-93858Y-53924D01*
X-93458D01*
Y-53524D01*
X-93858Y-53124D01*
X-93458Y-52724D01*
Y-52324D01*
X-93858D01*
X-94258Y-52724D01*
X-94658Y-52324D01*
X-95058D01*
Y-52724D01*
X-94658Y-53124D01*
X-95058Y-53524D01*
Y-53924D01*
X-103286Y-66483D02*
X-102886D01*
X-102486Y-66083D01*
X-102086Y-66483D01*
X-101686D01*
Y-66083D01*
X-102086Y-65683D01*
X-101686Y-65283D01*
Y-64883D01*
X-102086D01*
X-102486Y-65283D01*
X-102886Y-64883D01*
X-103286D01*
Y-65283D01*
X-102886Y-65683D01*
X-103286Y-66083D01*
Y-66483D01*
X-95058Y-66483D02*
X-94658D01*
X-94258Y-66083D01*
X-93858Y-66483D01*
X-93458D01*
Y-66083D01*
X-93858Y-65683D01*
X-93458Y-65283D01*
Y-64883D01*
X-93858D01*
X-94258Y-65283D01*
X-94658Y-64883D01*
X-95058D01*
Y-65283D01*
X-94658Y-65683D01*
X-95058Y-66083D01*
Y-66483D01*
X-99172Y-66483D02*
X-98772D01*
X-98372Y-66083D01*
X-97972Y-66483D01*
X-97572D01*
Y-66083D01*
X-97972Y-65683D01*
X-97572Y-65283D01*
Y-64883D01*
X-97972D01*
X-98372Y-65283D01*
X-98772Y-64883D01*
X-99172D01*
Y-65283D01*
X-98772Y-65683D01*
X-99172Y-66083D01*
Y-66483D01*
X19968Y42606D02*
X20368D01*
X20768Y43005D01*
X21168Y42606D01*
X21568D01*
Y43005D01*
X21168Y43406D01*
X21568Y43806D01*
Y44205D01*
X21168D01*
X20768Y43806D01*
X20368Y44205D01*
X19968D01*
Y43806D01*
X20368Y43406D01*
X19968Y43005D01*
Y42606D01*
X-52375Y64161D02*
X-51975D01*
X-51575Y64561D01*
X-51175Y64161D01*
X-50775D01*
Y64561D01*
X-51175Y64961D01*
X-50775Y65361D01*
Y65761D01*
X-51175D01*
X-51575Y65361D01*
X-51975Y65761D01*
X-52375D01*
Y65361D01*
X-51975Y64961D01*
X-52375Y64561D01*
Y64161D01*
X-43327Y64161D02*
X-42926D01*
X-42527Y64561D01*
X-42127Y64161D01*
X-41726D01*
Y64561D01*
X-42127Y64961D01*
X-41726Y65361D01*
Y65761D01*
X-42127D01*
X-42527Y65361D01*
X-42926Y65761D01*
X-43327D01*
Y65361D01*
X-42926Y64961D01*
X-43327Y64561D01*
Y64161D01*
X-32985Y63767D02*
X-32585D01*
X-32185Y64167D01*
X-31785Y63767D01*
X-31385D01*
Y64167D01*
X-31785Y64567D01*
X-31385Y64967D01*
Y65367D01*
X-31785D01*
X-32185Y64967D01*
X-32585Y65367D01*
X-32985D01*
Y64967D01*
X-32585Y64567D01*
X-32985Y64167D01*
Y63767D01*
X10913Y100775D02*
X11313D01*
X11713Y101175D01*
X12113Y100775D01*
X12513D01*
Y101175D01*
X12113Y101575D01*
X12513Y101975D01*
Y102375D01*
X12113D01*
X11713Y101975D01*
X11313Y102375D01*
X10913D01*
Y101975D01*
X11313Y101575D01*
X10913Y101175D01*
Y100775D01*
X17015D02*
X17415D01*
X17815Y101175D01*
X18215Y100775D01*
X18615D01*
Y101175D01*
X18215Y101575D01*
X18615Y101975D01*
Y102375D01*
X18215D01*
X17815Y101975D01*
X17415Y102375D01*
X17015D01*
Y101975D01*
X17415Y101575D01*
X17015Y101175D01*
Y100775D01*
X-88398Y-66745D02*
X-87998D01*
X-87598Y-66345D01*
X-87198Y-66745D01*
X-86798D01*
Y-66345D01*
X-87198Y-65945D01*
X-86798Y-65545D01*
Y-65145D01*
X-87198D01*
X-87598Y-65545D01*
X-87998Y-65145D01*
X-88398D01*
Y-65545D01*
X-87998Y-65945D01*
X-88398Y-66345D01*
Y-66745D01*
X77054Y-13871D02*
X77454D01*
X77854Y-13471D01*
X78254Y-13871D01*
X78654D01*
Y-13471D01*
X78254Y-13071D01*
X78654Y-12671D01*
Y-12271D01*
X78254D01*
X77854Y-12671D01*
X77454Y-12271D01*
X77054D01*
Y-12671D01*
X77454Y-13071D01*
X77054Y-13471D01*
Y-13871D01*
X-17213Y124747D02*
X-16813D01*
X-16413Y125147D01*
X-16013Y124747D01*
X-15613D01*
Y125147D01*
X-16013Y125547D01*
X-15613Y125947D01*
Y126347D01*
X-16013D01*
X-16413Y125947D01*
X-16813Y126347D01*
X-17213D01*
Y125947D01*
X-16813Y125547D01*
X-17213Y125147D01*
Y124747D01*
X77054Y-73024D02*
X77454D01*
X77854Y-72624D01*
X78254Y-73024D01*
X78654D01*
Y-72624D01*
X78254Y-72224D01*
X78654Y-71824D01*
Y-71424D01*
X78254D01*
X77854Y-71824D01*
X77454Y-71424D01*
X77054D01*
Y-71824D01*
X77454Y-72224D01*
X77054Y-72624D01*
Y-73024D01*
X-11483Y81562D02*
X-11083D01*
X-10683Y81962D01*
X-10283Y81562D01*
X-9883D01*
Y81962D01*
X-10283Y82362D01*
X-9883Y82762D01*
Y83162D01*
X-10283D01*
X-10683Y82762D01*
X-11083Y83162D01*
X-11483D01*
Y82762D01*
X-11083Y82362D01*
X-11483Y81962D01*
Y81562D01*
X77271Y17113D02*
X77671D01*
X78071Y17513D01*
X78471Y17113D01*
X78871D01*
Y17513D01*
X78471Y17913D01*
X78871Y18313D01*
Y18713D01*
X78471D01*
X78071Y18313D01*
X77671Y18713D01*
X77271D01*
Y18313D01*
X77671Y17913D01*
X77271Y17513D01*
Y17113D01*
X87159Y12999D02*
X87559D01*
X87959Y13399D01*
X88359Y12999D01*
X88759D01*
Y13399D01*
X88359Y13799D01*
X88759Y14199D01*
Y14599D01*
X88359D01*
X87959Y14199D01*
X87559Y14599D01*
X87159D01*
Y14199D01*
X87559Y13799D01*
X87159Y13399D01*
Y12999D01*
X-88398Y-54934D02*
X-87998D01*
X-87598Y-54534D01*
X-87198Y-54934D01*
X-86798D01*
Y-54534D01*
X-87198Y-54134D01*
X-86798Y-53734D01*
Y-53334D01*
X-87198D01*
X-87598Y-53734D01*
X-87998Y-53334D01*
X-88398D01*
Y-53734D01*
X-87998Y-54134D01*
X-88398Y-54534D01*
Y-54934D01*
X-24220Y81562D02*
X-23820D01*
X-23420Y81962D01*
X-23020Y81562D01*
X-22620D01*
Y81962D01*
X-23020Y82362D01*
X-22620Y82762D01*
Y83162D01*
X-23020D01*
X-23420Y82762D01*
X-23820Y83162D01*
X-24220D01*
Y82762D01*
X-23820Y82362D01*
X-24220Y81962D01*
Y81562D01*
X-25875Y124747D02*
X-25475D01*
X-25075Y125147D01*
X-24675Y124747D01*
X-24275D01*
Y125147D01*
X-24675Y125547D01*
X-24275Y125947D01*
Y126347D01*
X-24675D01*
X-25075Y125947D01*
X-25475Y126347D01*
X-25875D01*
Y125947D01*
X-25475Y125547D01*
X-25875Y125147D01*
Y124747D01*
X-43327Y81562D02*
X-42926D01*
X-42527Y81962D01*
X-42127Y81562D01*
X-41726D01*
Y81962D01*
X-42127Y82362D01*
X-41726Y82762D01*
Y83162D01*
X-42127D01*
X-42527Y82762D01*
X-42926Y83162D01*
X-43327D01*
Y82762D01*
X-42926Y82362D01*
X-43327Y81962D01*
Y81562D01*
X72940Y8157D02*
X73340D01*
X73740Y8557D01*
X74140Y8157D01*
X74540D01*
Y8557D01*
X74140Y8957D01*
X74540Y9357D01*
Y9757D01*
X74140D01*
X73740Y9357D01*
X73340Y9757D01*
X72940D01*
Y9357D01*
X73340Y8957D01*
X72940Y8557D01*
Y8157D01*
X40716Y84338D02*
X41116D01*
X41516Y84738D01*
X41916Y84338D01*
X42316D01*
Y84738D01*
X41916Y85138D01*
X42316Y85538D01*
Y85938D01*
X41916D01*
X41516Y85538D01*
X41116Y85938D01*
X40716D01*
Y85538D01*
X41116Y85138D01*
X40716Y84738D01*
Y84338D01*
X-49695Y81562D02*
X-49295D01*
X-48895Y81962D01*
X-48495Y81562D01*
X-48095D01*
Y81962D01*
X-48495Y82362D01*
X-48095Y82762D01*
Y83162D01*
X-48495D01*
X-48895Y82762D01*
X-49295Y83162D01*
X-49695D01*
Y82762D01*
X-49295Y82362D01*
X-49695Y81962D01*
Y81562D01*
X-73556Y40440D02*
X-73156D01*
X-72756Y40840D01*
X-72356Y40440D01*
X-71956D01*
Y40840D01*
X-72356Y41240D01*
X-71956Y41640D01*
Y42040D01*
X-72356D01*
X-72756Y41640D01*
X-73156Y42040D01*
X-73556D01*
Y41640D01*
X-73156Y41240D01*
X-73556Y40840D01*
Y40440D01*
X81779Y63964D02*
X82179D01*
X82579Y64364D01*
X82979Y63964D01*
X83379D01*
Y64364D01*
X82979Y64764D01*
X83379Y65164D01*
Y65564D01*
X82979D01*
X82579Y65164D01*
X82179Y65564D01*
X81779D01*
Y65164D01*
X82179Y64764D01*
X81779Y64364D01*
Y63964D01*
X19968Y49889D02*
X20368D01*
X20768Y50289D01*
X21168Y49889D01*
X21568D01*
Y50289D01*
X21168Y50689D01*
X21568Y51089D01*
Y51489D01*
X21168D01*
X20768Y51089D01*
X20368Y51489D01*
X19968D01*
Y51089D01*
X20368Y50689D01*
X19968Y50289D01*
Y49889D01*
X85421Y63964D02*
X85821D01*
X86221Y64364D01*
X86620Y63964D01*
X87020D01*
Y64364D01*
X86620Y64764D01*
X87020Y65164D01*
Y65564D01*
X86620D01*
X86221Y65164D01*
X85821Y65564D01*
X85421D01*
Y65164D01*
X85821Y64764D01*
X85421Y64364D01*
Y63964D01*
X-78556Y40440D02*
X-78156D01*
X-77756Y40840D01*
X-77356Y40440D01*
X-76956D01*
Y40840D01*
X-77356Y41240D01*
X-76956Y41640D01*
Y42040D01*
X-77356D01*
X-77756Y41640D01*
X-78156Y42040D01*
X-78556D01*
Y41640D01*
X-78156Y41240D01*
X-78556Y40840D01*
Y40440D01*
X8354Y35125D02*
X8754D01*
X9154Y35525D01*
X9554Y35125D01*
X9954D01*
Y35525D01*
X9554Y35925D01*
X9954Y36325D01*
Y36725D01*
X9554D01*
X9154Y36325D01*
X8754Y36725D01*
X8354D01*
Y36325D01*
X8754Y35925D01*
X8354Y35525D01*
Y35125D01*
X-17852Y81562D02*
X-17451D01*
X-17052Y81962D01*
X-16651Y81562D01*
X-16251D01*
Y81962D01*
X-16651Y82362D01*
X-16251Y82762D01*
Y83162D01*
X-16651D01*
X-17052Y82762D01*
X-17451Y83162D01*
X-17852D01*
Y82762D01*
X-17451Y82362D01*
X-17852Y81962D01*
Y81562D01*
X-36958D02*
X-36558D01*
X-36158Y81962D01*
X-35758Y81562D01*
X-35358D01*
Y81962D01*
X-35758Y82362D01*
X-35358Y82762D01*
Y83162D01*
X-35758D01*
X-36158Y82762D01*
X-36558Y83162D01*
X-36958D01*
Y82762D01*
X-36558Y82362D01*
X-36958Y81962D01*
Y81562D01*
X-88398Y-62808D02*
X-87998D01*
X-87598Y-62408D01*
X-87198Y-62808D01*
X-86798D01*
Y-62408D01*
X-87198Y-62008D01*
X-86798Y-61608D01*
Y-61208D01*
X-87198D01*
X-87598Y-61608D01*
X-87998Y-61208D01*
X-88398D01*
Y-61608D01*
X-87998Y-62008D01*
X-88398Y-62408D01*
Y-62808D01*
X72940Y-3753D02*
X73340D01*
X73740Y-3353D01*
X74140Y-3753D01*
X74540D01*
Y-3353D01*
X74140Y-2953D01*
X74540Y-2553D01*
Y-2153D01*
X74140D01*
X73740Y-2553D01*
X73340Y-2153D01*
X72940D01*
Y-2553D01*
X73340Y-2953D01*
X72940Y-3353D01*
Y-3753D01*
X81169Y-33182D02*
X81568D01*
X81968Y-32782D01*
X82368Y-33182D01*
X82768D01*
Y-32782D01*
X82368Y-32382D01*
X82768Y-31982D01*
Y-31582D01*
X82368D01*
X81968Y-31982D01*
X81568Y-31582D01*
X81169D01*
Y-31982D01*
X81568Y-32382D01*
X81169Y-32782D01*
Y-33182D01*
Y-62808D02*
X81568D01*
X81968Y-62408D01*
X82368Y-62808D01*
X82768D01*
Y-62408D01*
X82368Y-62008D01*
X82768Y-61608D01*
Y-61208D01*
X82368D01*
X81968Y-61608D01*
X81568Y-61208D01*
X81169D01*
Y-61608D01*
X81568Y-62008D01*
X81169Y-62408D01*
Y-62808D01*
Y-21371D02*
X81568D01*
X81968Y-20971D01*
X82368Y-21371D01*
X82768D01*
Y-20971D01*
X82368Y-20571D01*
X82768Y-20171D01*
Y-19771D01*
X82368D01*
X81968Y-20171D01*
X81568Y-19771D01*
X81169D01*
Y-20171D01*
X81568Y-20571D01*
X81169Y-20971D01*
Y-21371D01*
X92934Y12999D02*
X93334D01*
X93734Y13399D01*
X94134Y12999D01*
X94534D01*
Y13399D01*
X94134Y13799D01*
X94534Y14199D01*
Y14599D01*
X94134D01*
X93734Y14199D01*
X93334Y14599D01*
X92934D01*
Y14199D01*
X93334Y13799D01*
X92934Y13399D01*
Y12999D01*
X-67828Y23019D02*
X-67428D01*
X-67028Y23419D01*
X-66628Y23019D01*
X-66228D01*
Y23419D01*
X-66628Y23819D01*
X-66228Y24219D01*
Y24619D01*
X-66628D01*
X-67028Y24219D01*
X-67428Y24619D01*
X-67828D01*
Y24219D01*
X-67428Y23819D01*
X-67828Y23419D01*
Y23019D01*
X-36233Y26759D02*
X-35833D01*
X-35433Y27159D01*
X-35033Y26759D01*
X-34633D01*
Y27159D01*
X-35033Y27559D01*
X-34633Y27959D01*
Y28359D01*
X-35033D01*
X-35433Y27959D01*
X-35833Y28359D01*
X-36233D01*
Y27959D01*
X-35833Y27559D01*
X-36233Y27159D01*
Y26759D01*
X71838Y60239D02*
X72238D01*
X72638Y60639D01*
X73038Y60239D01*
X73438D01*
Y60639D01*
X73038Y61039D01*
X73438Y61439D01*
Y61839D01*
X73038D01*
X72638Y61439D01*
X72238Y61839D01*
X71838D01*
Y61439D01*
X72238Y61039D01*
X71838Y60639D01*
Y60239D01*
X63964Y75480D02*
X64364D01*
X64764Y75880D01*
X65164Y75480D01*
X65564D01*
Y75880D01*
X65164Y76279D01*
X65564Y76679D01*
Y77079D01*
X65164D01*
X64764Y76679D01*
X64364Y77079D01*
X63964D01*
Y76679D01*
X64364Y76279D01*
X63964Y75880D01*
Y75480D01*
X73216Y39259D02*
X73616D01*
X74016Y39659D01*
X74416Y39259D01*
X74816D01*
Y39659D01*
X74416Y40059D01*
X74816Y40459D01*
Y40859D01*
X74416D01*
X74016Y40459D01*
X73616Y40859D01*
X73216D01*
Y40459D01*
X73616Y40059D01*
X73216Y39659D01*
Y39259D01*
Y42212D02*
X73616D01*
X74016Y42612D01*
X74416Y42212D01*
X74816D01*
Y42612D01*
X74416Y43012D01*
X74816Y43412D01*
Y43812D01*
X74416D01*
X74016Y43412D01*
X73616Y43812D01*
X73216D01*
Y43412D01*
X73616Y43012D01*
X73216Y42612D01*
Y42212D01*
X96326Y30302D02*
X96726D01*
X97126Y30702D01*
X97526Y30302D01*
X97926D01*
Y30702D01*
X97526Y31102D01*
X97926Y31502D01*
Y31902D01*
X97526D01*
X97126Y31502D01*
X96726Y31902D01*
X96326D01*
Y31502D01*
X96726Y31102D01*
X96326Y30702D01*
Y30302D01*
X77054Y-46883D02*
X77454D01*
X77854Y-46483D01*
X78254Y-46883D01*
X78654D01*
Y-46483D01*
X78254Y-46083D01*
X78654Y-45683D01*
Y-45283D01*
X78254D01*
X77854Y-45683D01*
X77454Y-45283D01*
X77054D01*
Y-45683D01*
X77454Y-46083D01*
X77054Y-46483D01*
Y-46883D01*
X-17851Y67274D02*
X-17451D01*
X-17051Y67674D01*
X-16651Y67274D01*
X-16251D01*
Y67674D01*
X-16651Y68075D01*
X-16251Y68475D01*
Y68875D01*
X-16651D01*
X-17051Y68475D01*
X-17451Y68875D01*
X-17851D01*
Y68475D01*
X-17451Y68075D01*
X-17851Y67674D01*
Y67274D01*
X-28261Y63865D02*
X-27861D01*
X-27461Y64265D01*
X-27061Y63865D01*
X-26661D01*
Y64265D01*
X-27061Y64665D01*
X-26661Y65065D01*
Y65465D01*
X-27061D01*
X-27461Y65065D01*
X-27861Y65465D01*
X-28261D01*
Y65065D01*
X-27861Y64665D01*
X-28261Y64265D01*
Y63865D01*
X-37020Y67212D02*
X-36621D01*
X-36220Y67612D01*
X-35820Y67212D01*
X-35421D01*
Y67612D01*
X-35820Y68012D01*
X-35421Y68412D01*
Y68812D01*
X-35820D01*
X-36220Y68412D01*
X-36621Y68812D01*
X-37020D01*
Y68412D01*
X-36621Y68012D01*
X-37020Y67612D01*
Y67212D01*
X-33556Y42330D02*
X-33156D01*
X-32756Y42730D01*
X-32356Y42330D01*
X-31956D01*
Y42730D01*
X-32356Y43130D01*
X-31956Y43530D01*
Y43930D01*
X-32356D01*
X-32756Y43530D01*
X-33156Y43930D01*
X-33556D01*
Y43530D01*
X-33156Y43130D01*
X-33556Y42730D01*
Y42330D01*
X-8228Y83649D02*
X-7828D01*
X-7428Y84049D01*
X-7028Y83649D01*
X-6628D01*
Y84049D01*
X-7028Y84449D01*
X-6628Y84849D01*
Y85249D01*
X-7028D01*
X-7428Y84849D01*
X-7828Y85249D01*
X-8228D01*
Y84849D01*
X-7828Y84449D01*
X-8228Y84049D01*
Y83649D01*
X-14597D02*
X-14197D01*
X-13797Y84049D01*
X-13397Y83649D01*
X-12997D01*
Y84049D01*
X-13397Y84449D01*
X-12997Y84849D01*
Y85249D01*
X-13397D01*
X-13797Y84849D01*
X-14197Y85249D01*
X-14597D01*
Y84849D01*
X-14197Y84449D01*
X-14597Y84049D01*
Y83649D01*
X-20965D02*
X-20565D01*
X-20165Y84049D01*
X-19765Y83649D01*
X-19365D01*
Y84049D01*
X-19765Y84449D01*
X-19365Y84849D01*
Y85249D01*
X-19765D01*
X-20165Y84849D01*
X-20565Y85249D01*
X-20965D01*
Y84849D01*
X-20565Y84449D01*
X-20965Y84049D01*
Y83649D01*
X-33703D02*
X-33303D01*
X-32903Y84049D01*
X-32503Y83649D01*
X-32103D01*
Y84049D01*
X-32503Y84449D01*
X-32103Y84849D01*
Y85249D01*
X-32503D01*
X-32903Y84849D01*
X-33303Y85249D01*
X-33703D01*
Y84849D01*
X-33303Y84449D01*
X-33703Y84049D01*
Y83649D01*
X-39973D02*
X-39573D01*
X-39173Y84049D01*
X-38773Y83649D01*
X-38373D01*
Y84049D01*
X-38773Y84449D01*
X-38373Y84849D01*
Y85249D01*
X-38773D01*
X-39173Y84849D01*
X-39573Y85249D01*
X-39973D01*
Y84849D01*
X-39573Y84449D01*
X-39973Y84049D01*
Y83649D01*
X-8560Y113783D02*
X-8160D01*
X-7760Y114183D01*
X-7360Y113783D01*
X-6960D01*
Y114183D01*
X-7360Y114583D01*
X-6960Y114983D01*
Y115383D01*
X-7360D01*
X-7760Y114983D01*
X-8160Y115383D01*
X-8560D01*
Y114983D01*
X-8160Y114583D01*
X-8560Y114183D01*
Y113783D01*
X-12890D02*
X-12491D01*
X-12091Y114183D01*
X-11691Y113783D01*
X-11291D01*
Y114183D01*
X-11691Y114583D01*
X-11291Y114983D01*
Y115383D01*
X-11691D01*
X-12091Y114983D01*
X-12491Y115383D01*
X-12890D01*
Y114983D01*
X-12491Y114583D01*
X-12890Y114183D01*
Y113783D01*
X-21552D02*
X-21152D01*
X-20752Y114183D01*
X-20352Y113783D01*
X-19952D01*
Y114183D01*
X-20352Y114583D01*
X-19952Y114983D01*
Y115383D01*
X-20352D01*
X-20752Y114983D01*
X-21152Y115383D01*
X-21552D01*
Y114983D01*
X-21152Y114583D01*
X-21552Y114183D01*
Y113783D01*
X-30213D02*
X-29813D01*
X-29413Y114183D01*
X-29013Y113783D01*
X-28613D01*
Y114183D01*
X-29013Y114583D01*
X-28613Y114983D01*
Y115383D01*
X-29013D01*
X-29413Y114983D01*
X-29813Y115383D01*
X-30213D01*
Y114983D01*
X-29813Y114583D01*
X-30213Y114183D01*
Y113783D01*
X-34544D02*
X-34144D01*
X-33744Y114183D01*
X-33344Y113783D01*
X-32944D01*
Y114183D01*
X-33344Y114583D01*
X-32944Y114983D01*
Y115383D01*
X-33344D01*
X-33744Y114983D01*
X-34144Y115383D01*
X-34544D01*
Y114983D01*
X-34144Y114583D01*
X-34544Y114183D01*
Y113783D01*
X-77572Y-70957D02*
X-77172D01*
X-76772Y-70557D01*
X-76372Y-70957D01*
X-75972D01*
Y-70557D01*
X-76372Y-70157D01*
X-75972Y-69757D01*
Y-69358D01*
X-76372D01*
X-76772Y-69757D01*
X-77172Y-69358D01*
X-77572D01*
Y-69757D01*
X-77172Y-70157D01*
X-77572Y-70557D01*
Y-70957D01*
X12979Y80283D02*
X13379D01*
X13780Y80683D01*
X14179Y80283D01*
X14580D01*
Y80683D01*
X14179Y81083D01*
X14580Y81483D01*
Y81883D01*
X14179D01*
X13780Y81483D01*
X13379Y81883D01*
X12979D01*
Y81483D01*
X13379Y81083D01*
X12979Y80683D01*
Y80283D01*
X8865Y80283D02*
X9265D01*
X9665Y80683D01*
X10065Y80283D01*
X10465D01*
Y80683D01*
X10065Y81083D01*
X10465Y81483D01*
Y81883D01*
X10065D01*
X9665Y81483D01*
X9265Y81883D01*
X8865D01*
Y81483D01*
X9265Y81083D01*
X8865Y80683D01*
Y80283D01*
X17094Y80283D02*
X17494D01*
X17894Y80683D01*
X18294Y80283D01*
X18694D01*
Y80683D01*
X18294Y81083D01*
X18694Y81483D01*
Y81883D01*
X18294D01*
X17894Y81483D01*
X17494Y81883D01*
X17094D01*
Y81483D01*
X17494Y81083D01*
X17094Y80683D01*
Y80283D01*
X8865Y67724D02*
X9265D01*
X9665Y68124D01*
X10065Y67724D01*
X10465D01*
Y68124D01*
X10065Y68524D01*
X10465Y68924D01*
Y69324D01*
X10065D01*
X9665Y68924D01*
X9265Y69324D01*
X8865D01*
Y68924D01*
X9265Y68524D01*
X8865Y68124D01*
Y67724D01*
X17094Y67724D02*
X17494D01*
X17894Y68124D01*
X18294Y67724D01*
X18694D01*
Y68124D01*
X18294Y68524D01*
X18694Y68924D01*
Y69324D01*
X18294D01*
X17894Y68924D01*
X17494Y69324D01*
X17094D01*
Y68924D01*
X17494Y68524D01*
X17094Y68124D01*
Y67724D01*
X12979Y67724D02*
X13379D01*
X13780Y68124D01*
X14179Y67724D01*
X14580D01*
Y68124D01*
X14179Y68524D01*
X14580Y68924D01*
Y69324D01*
X14179D01*
X13780Y68924D01*
X13379Y69324D01*
X12979D01*
Y68924D01*
X13379Y68524D01*
X12979Y68124D01*
Y67724D01*
X49200Y106602D02*
X49600D01*
X50000Y107002D01*
X50400Y106602D01*
X50800D01*
Y107002D01*
X50400Y107402D01*
X50800Y107802D01*
Y108202D01*
X50400D01*
X50000Y107802D01*
X49600Y108202D01*
X49200D01*
Y107802D01*
X49600Y107402D01*
X49200Y107002D01*
Y106602D01*
X3924D02*
X4324D01*
X4724Y107002D01*
X5124Y106602D01*
X5524D01*
Y107002D01*
X5124Y107402D01*
X5524Y107802D01*
Y108202D01*
X5124D01*
X4724Y107802D01*
X4324Y108202D01*
X3924D01*
Y107802D01*
X4324Y107402D01*
X3924Y107002D01*
Y106602D01*
X117310Y-800D02*
X117710D01*
X118110Y-400D01*
X118510Y-800D01*
X118910D01*
Y-400D01*
X118510Y0D01*
X118910Y400D01*
Y800D01*
X118510D01*
X118110Y400D01*
X117710Y800D01*
X117310D01*
Y400D01*
X117710Y0D01*
X117310Y-400D01*
Y-800D01*
Y-20485D02*
X117710D01*
X118110Y-20085D01*
X118510Y-20485D01*
X118910D01*
Y-20085D01*
X118510Y-19685D01*
X118910Y-19285D01*
Y-18885D01*
X118510D01*
X118110Y-19285D01*
X117710Y-18885D01*
X117310D01*
Y-19285D01*
X117710Y-19685D01*
X117310Y-20085D01*
Y-20485D01*
Y-40170D02*
X117710D01*
X118110Y-39770D01*
X118510Y-40170D01*
X118910D01*
Y-39770D01*
X118510Y-39370D01*
X118910Y-38970D01*
Y-38570D01*
X118510D01*
X118110Y-38970D01*
X117710Y-38570D01*
X117310D01*
Y-38970D01*
X117710Y-39370D01*
X117310Y-39770D01*
Y-40170D01*
Y-59855D02*
X117710D01*
X118110Y-59455D01*
X118510Y-59855D01*
X118910D01*
Y-59455D01*
X118510Y-59055D01*
X118910Y-58655D01*
Y-58255D01*
X118510D01*
X118110Y-58655D01*
X117710Y-58255D01*
X117310D01*
Y-58655D01*
X117710Y-59055D01*
X117310Y-59455D01*
Y-59855D01*
Y-79540D02*
X117710D01*
X118110Y-79140D01*
X118510Y-79540D01*
X118910D01*
Y-79140D01*
X118510Y-78740D01*
X118910Y-78340D01*
Y-77940D01*
X118510D01*
X118110Y-78340D01*
X117710Y-77940D01*
X117310D01*
Y-78340D01*
X117710Y-78740D01*
X117310Y-79140D01*
Y-79540D01*
X97625Y-158280D02*
X98025D01*
X98425Y-157880D01*
X98825Y-158280D01*
X99225D01*
Y-157880D01*
X98825Y-157480D01*
X99225Y-157080D01*
Y-156680D01*
X98825D01*
X98425Y-157080D01*
X98025Y-156680D01*
X97625D01*
Y-157080D01*
X98025Y-157480D01*
X97625Y-157880D01*
Y-158280D01*
X-99225D02*
X-98825D01*
X-98425Y-157880D01*
X-98025Y-158280D01*
X-97625D01*
Y-157880D01*
X-98025Y-157480D01*
X-97625Y-157080D01*
Y-156680D01*
X-98025D01*
X-98425Y-157080D01*
X-98825Y-156680D01*
X-99225D01*
Y-157080D01*
X-98825Y-157480D01*
X-99225Y-157880D01*
Y-158280D01*
Y58255D02*
X-98825D01*
X-98425Y58655D01*
X-98025Y58255D01*
X-97625D01*
Y58655D01*
X-98025Y59055D01*
X-97625Y59455D01*
Y59855D01*
X-98025D01*
X-98425Y59455D01*
X-98825Y59855D01*
X-99225D01*
Y59455D01*
X-98825Y59055D01*
X-99225Y58655D01*
Y58255D01*
X-118910D02*
X-118510D01*
X-118110Y58655D01*
X-117710Y58255D01*
X-117310D01*
Y58655D01*
X-117710Y59055D01*
X-117310Y59455D01*
Y59855D01*
X-117710D01*
X-118110Y59455D01*
X-118510Y59855D01*
X-118910D01*
Y59455D01*
X-118510Y59055D01*
X-118910Y58655D01*
Y58255D01*
X-59855Y136995D02*
X-59455D01*
X-59055Y137395D01*
X-58655Y136995D01*
X-58255D01*
Y137395D01*
X-58655Y137795D01*
X-58255Y138195D01*
Y138595D01*
X-58655D01*
X-59055Y138195D01*
X-59455Y138595D01*
X-59855D01*
Y138195D01*
X-59455Y137795D01*
X-59855Y137395D01*
Y136995D01*
X-79540D02*
X-79140D01*
X-78740Y137395D01*
X-78340Y136995D01*
X-77940D01*
Y137395D01*
X-78340Y137795D01*
X-77940Y138195D01*
Y138595D01*
X-78340D01*
X-78740Y138195D01*
X-79140Y138595D01*
X-79540D01*
Y138195D01*
X-79140Y137795D01*
X-79540Y137395D01*
Y136995D01*
Y117310D02*
X-79140D01*
X-78740Y117710D01*
X-78340Y117310D01*
X-77940D01*
Y117710D01*
X-78340Y118110D01*
X-77940Y118510D01*
Y118910D01*
X-78340D01*
X-78740Y118510D01*
X-79140Y118910D01*
X-79540D01*
Y118510D01*
X-79140Y118110D01*
X-79540Y117710D01*
Y117310D01*
X-99225Y156680D02*
X-98825D01*
X-98425Y157080D01*
X-98025Y156680D01*
X-97625D01*
Y157080D01*
X-98025Y157480D01*
X-97625Y157880D01*
Y158280D01*
X-98025D01*
X-98425Y157880D01*
X-98825Y158280D01*
X-99225D01*
Y157880D01*
X-98825Y157480D01*
X-99225Y157080D01*
Y156680D01*
Y136995D02*
X-98825D01*
X-98425Y137395D01*
X-98025Y136995D01*
X-97625D01*
Y137395D01*
X-98025Y137795D01*
X-97625Y138195D01*
Y138595D01*
X-98025D01*
X-98425Y138195D01*
X-98825Y138595D01*
X-99225D01*
Y138195D01*
X-98825Y137795D01*
X-99225Y137395D01*
Y136995D01*
X117310Y58255D02*
X117710D01*
X118110Y58655D01*
X118510Y58255D01*
X118910D01*
Y58655D01*
X118510Y59055D01*
X118910Y59455D01*
Y59855D01*
X118510D01*
X118110Y59455D01*
X117710Y59855D01*
X117310D01*
Y59455D01*
X117710Y59055D01*
X117310Y58655D01*
Y58255D01*
Y77940D02*
X117710D01*
X118110Y78340D01*
X118510Y77940D01*
X118910D01*
Y78340D01*
X118510Y78740D01*
X118910Y79140D01*
Y79540D01*
X118510D01*
X118110Y79140D01*
X117710Y79540D01*
X117310D01*
Y79140D01*
X117710Y78740D01*
X117310Y78340D01*
Y77940D01*
X58255Y136995D02*
X58655D01*
X59055Y137395D01*
X59455Y136995D01*
X59855D01*
Y137395D01*
X59455Y137795D01*
X59855Y138195D01*
Y138595D01*
X59455D01*
X59055Y138195D01*
X58655Y138595D01*
X58255D01*
Y138195D01*
X58655Y137795D01*
X58255Y137395D01*
Y136995D01*
X77940D02*
X78340D01*
X78740Y137395D01*
X79140Y136995D01*
X79540D01*
Y137395D01*
X79140Y137795D01*
X79540Y138195D01*
Y138595D01*
X79140D01*
X78740Y138195D01*
X78340Y138595D01*
X77940D01*
Y138195D01*
X78340Y137795D01*
X77940Y137395D01*
Y136995D01*
Y117310D02*
X78340D01*
X78740Y117710D01*
X79140Y117310D01*
X79540D01*
Y117710D01*
X79140Y118110D01*
X79540Y118510D01*
Y118910D01*
X79140D01*
X78740Y118510D01*
X78340Y118910D01*
X77940D01*
Y118510D01*
X78340Y118110D01*
X77940Y117710D01*
Y117310D01*
X136995Y97625D02*
X137395D01*
X137795Y98025D01*
X138195Y97625D01*
X138595D01*
Y98025D01*
X138195Y98425D01*
X138595Y98825D01*
Y99225D01*
X138195D01*
X137795Y98825D01*
X137395Y99225D01*
X136995D01*
Y98825D01*
X137395Y98425D01*
X136995Y98025D01*
Y97625D01*
X156680Y117310D02*
X157080D01*
X157480Y117710D01*
X157880Y117310D01*
X158280D01*
Y117710D01*
X157880Y118110D01*
X158280Y118510D01*
Y118910D01*
X157880D01*
X157480Y118510D01*
X157080Y118910D01*
X156680D01*
Y118510D01*
X157080Y118110D01*
X156680Y117710D01*
Y117310D01*
X136995D02*
X137395D01*
X137795Y117710D01*
X138195Y117310D01*
X138595D01*
Y117710D01*
X138195Y118110D01*
X138595Y118510D01*
Y118910D01*
X138195D01*
X137795Y118510D01*
X137395Y118910D01*
X136995D01*
Y118510D01*
X137395Y118110D01*
X136995Y117710D01*
Y117310D01*
X117310D02*
X117710D01*
X118110Y117710D01*
X118510Y117310D01*
X118910D01*
Y117710D01*
X118510Y118110D01*
X118910Y118510D01*
Y118910D01*
X118510D01*
X118110Y118510D01*
X117710Y118910D01*
X117310D01*
Y118510D01*
X117710Y118110D01*
X117310Y117710D01*
Y117310D01*
X97625Y136995D02*
X98025D01*
X98425Y137395D01*
X98825Y136995D01*
X99225D01*
Y137395D01*
X98825Y137795D01*
X99225Y138195D01*
Y138595D01*
X98825D01*
X98425Y138195D01*
X98025Y138595D01*
X97625D01*
Y138195D01*
X98025Y137795D01*
X97625Y137395D01*
Y136995D01*
Y156680D02*
X98025D01*
X98425Y157080D01*
X98825Y156680D01*
X99225D01*
Y157080D01*
X98825Y157480D01*
X99225Y157880D01*
Y158280D01*
X98825D01*
X98425Y157880D01*
X98025Y158280D01*
X97625D01*
Y157880D01*
X98025Y157480D01*
X97625Y157080D01*
Y156680D01*
X117310Y136995D02*
X117710D01*
X118110Y137395D01*
X118510Y136995D01*
X118910D01*
Y137395D01*
X118510Y137795D01*
X118910Y138195D01*
Y138595D01*
X118510D01*
X118110Y138195D01*
X117710Y138595D01*
X117310D01*
Y138195D01*
X117710Y137795D01*
X117310Y137395D01*
Y136995D01*
X136995D02*
X137395D01*
X137795Y137395D01*
X138195Y136995D01*
X138595D01*
Y137395D01*
X138195Y137795D01*
X138595Y138195D01*
Y138595D01*
X138195D01*
X137795Y138195D01*
X137395Y138595D01*
X136995D01*
Y138195D01*
X137395Y137795D01*
X136995Y137395D01*
Y136995D01*
X156680D02*
X157080D01*
X157480Y137395D01*
X157880Y136995D01*
X158280D01*
Y137395D01*
X157880Y137795D01*
X158280Y138195D01*
Y138595D01*
X157880D01*
X157480Y138195D01*
X157080Y138595D01*
X156680D01*
Y138195D01*
X157080Y137795D01*
X156680Y137395D01*
Y136995D01*
X176365D02*
X176765D01*
X177165Y137395D01*
X177565Y136995D01*
X177965D01*
Y137395D01*
X177565Y137795D01*
X177965Y138195D01*
Y138595D01*
X177565D01*
X177165Y138195D01*
X176765Y138595D01*
X176365D01*
Y138195D01*
X176765Y137795D01*
X176365Y137395D01*
Y136995D01*
Y156680D02*
X176765D01*
X177165Y157080D01*
X177565Y156680D01*
X177965D01*
Y157080D01*
X177565Y157480D01*
X177965Y157880D01*
Y158280D01*
X177565D01*
X177165Y157880D01*
X176765Y158280D01*
X176365D01*
Y157880D01*
X176765Y157480D01*
X176365Y157080D01*
Y156680D01*
X156680D02*
X157080D01*
X157480Y157080D01*
X157880Y156680D01*
X158280D01*
Y157080D01*
X157880Y157480D01*
X158280Y157880D01*
Y158280D01*
X157880D01*
X157480Y157880D01*
X157080Y158280D01*
X156680D01*
Y157880D01*
X157080Y157480D01*
X156680Y157080D01*
Y156680D01*
X136995D02*
X137395D01*
X137795Y157080D01*
X138195Y156680D01*
X138595D01*
Y157080D01*
X138195Y157480D01*
X138595Y157880D01*
Y158280D01*
X138195D01*
X137795Y157880D01*
X137395Y158280D01*
X136995D01*
Y157880D01*
X137395Y157480D01*
X136995Y157080D01*
Y156680D01*
X117310D02*
X117710D01*
X118110Y157080D01*
X118510Y156680D01*
X118910D01*
Y157080D01*
X118510Y157480D01*
X118910Y157880D01*
Y158280D01*
X118510D01*
X118110Y157880D01*
X117710Y158280D01*
X117310D01*
Y157880D01*
X117710Y157480D01*
X117310Y157080D01*
Y156680D01*
Y176365D02*
X117710D01*
X118110Y176765D01*
X118510Y176365D01*
X118910D01*
Y176765D01*
X118510Y177165D01*
X118910Y177565D01*
Y177965D01*
X118510D01*
X118110Y177565D01*
X117710Y177965D01*
X117310D01*
Y177565D01*
X117710Y177165D01*
X117310Y176765D01*
Y176365D01*
X136995D02*
X137395D01*
X137795Y176765D01*
X138195Y176365D01*
X138595D01*
Y176765D01*
X138195Y177165D01*
X138595Y177565D01*
Y177965D01*
X138195D01*
X137795Y177565D01*
X137395Y177965D01*
X136995D01*
Y177565D01*
X137395Y177165D01*
X136995Y176765D01*
Y176365D01*
Y196050D02*
X137395D01*
X137795Y196450D01*
X138195Y196050D01*
X138595D01*
Y196450D01*
X138195Y196850D01*
X138595Y197250D01*
Y197650D01*
X138195D01*
X137795Y197250D01*
X137395Y197650D01*
X136995D01*
Y197250D01*
X137395Y196850D01*
X136995Y196450D01*
Y196050D01*
X156680Y176365D02*
X157080D01*
X157480Y176765D01*
X157880Y176365D01*
X158280D01*
Y176765D01*
X157880Y177165D01*
X158280Y177565D01*
Y177965D01*
X157880D01*
X157480Y177565D01*
X157080Y177965D01*
X156680D01*
Y177565D01*
X157080Y177165D01*
X156680Y176765D01*
Y176365D01*
Y196050D02*
X157080D01*
X157480Y196450D01*
X157880Y196050D01*
X158280D01*
Y196450D01*
X157880Y196850D01*
X158280Y197250D01*
Y197650D01*
X157880D01*
X157480Y197250D01*
X157080Y197650D01*
X156680D01*
Y197250D01*
X157080Y196850D01*
X156680Y196450D01*
Y196050D01*
Y215735D02*
X157080D01*
X157480Y216135D01*
X157880Y215735D01*
X158280D01*
Y216135D01*
X157880Y216535D01*
X158280Y216935D01*
Y217335D01*
X157880D01*
X157480Y216935D01*
X157080Y217335D01*
X156680D01*
Y216935D01*
X157080Y216535D01*
X156680Y216135D01*
Y215735D01*
X176365D02*
X176765D01*
X177165Y216135D01*
X177565Y215735D01*
X177965D01*
Y216135D01*
X177565Y216535D01*
X177965Y216935D01*
Y217335D01*
X177565D01*
X177165Y216935D01*
X176765Y217335D01*
X176365D01*
Y216935D01*
X176765Y216535D01*
X176365Y216135D01*
Y215735D01*
Y176365D02*
X176765D01*
X177165Y176765D01*
X177565Y176365D01*
X177965D01*
Y176765D01*
X177565Y177165D01*
X177965Y177565D01*
Y177965D01*
X177565D01*
X177165Y177565D01*
X176765Y177965D01*
X176365D01*
Y177565D01*
X176765Y177165D01*
X176365Y176765D01*
Y176365D01*
X215735D02*
X216135D01*
X216535Y176765D01*
X216935Y176365D01*
X217335D01*
Y176765D01*
X216935Y177165D01*
X217335Y177565D01*
Y177965D01*
X216935D01*
X216535Y177565D01*
X216135Y177965D01*
X215735D01*
Y177565D01*
X216135Y177165D01*
X215735Y176765D01*
Y176365D01*
Y156680D02*
X216135D01*
X216535Y157080D01*
X216935Y156680D01*
X217335D01*
Y157080D01*
X216935Y157480D01*
X217335Y157880D01*
Y158280D01*
X216935D01*
X216535Y157880D01*
X216135Y158280D01*
X215735D01*
Y157880D01*
X216135Y157480D01*
X215735Y157080D01*
Y156680D01*
X196050D02*
X196450D01*
X196850Y157080D01*
X197250Y156680D01*
X197650D01*
Y157080D01*
X197250Y157480D01*
X197650Y157880D01*
Y158280D01*
X197250D01*
X196850Y157880D01*
X196450Y158280D01*
X196050D01*
Y157880D01*
X196450Y157480D01*
X196050Y157080D01*
Y156680D01*
X215735Y136995D02*
X216135D01*
X216535Y137395D01*
X216935Y136995D01*
X217335D01*
Y137395D01*
X216935Y137795D01*
X217335Y138195D01*
Y138595D01*
X216935D01*
X216535Y138195D01*
X216135Y138595D01*
X215735D01*
Y138195D01*
X216135Y137795D01*
X215735Y137395D01*
Y136995D01*
X196050D02*
X196450D01*
X196850Y137395D01*
X197250Y136995D01*
X197650D01*
Y137395D01*
X197250Y137795D01*
X197650Y138195D01*
Y138595D01*
X197250D01*
X196850Y138195D01*
X196450Y138595D01*
X196050D01*
Y138195D01*
X196450Y137795D01*
X196050Y137395D01*
Y136995D01*
Y117310D02*
X196450D01*
X196850Y117710D01*
X197250Y117310D01*
X197650D01*
Y117710D01*
X197250Y118110D01*
X197650Y118510D01*
Y118910D01*
X197250D01*
X196850Y118510D01*
X196450Y118910D01*
X196050D01*
Y118510D01*
X196450Y118110D01*
X196050Y117710D01*
Y117310D01*
Y97625D02*
X196450D01*
X196850Y98025D01*
X197250Y97625D01*
X197650D01*
Y98025D01*
X197250Y98425D01*
X197650Y98825D01*
Y99225D01*
X197250D01*
X196850Y98825D01*
X196450Y99225D01*
X196050D01*
Y98825D01*
X196450Y98425D01*
X196050Y98025D01*
Y97625D01*
Y77940D02*
X196450D01*
X196850Y78340D01*
X197250Y77940D01*
X197650D01*
Y78340D01*
X197250Y78740D01*
X197650Y79140D01*
Y79540D01*
X197250D01*
X196850Y79140D01*
X196450Y79540D01*
X196050D01*
Y79140D01*
X196450Y78740D01*
X196050Y78340D01*
Y77940D01*
Y58255D02*
X196450D01*
X196850Y58655D01*
X197250Y58255D01*
X197650D01*
Y58655D01*
X197250Y59055D01*
X197650Y59455D01*
Y59855D01*
X197250D01*
X196850Y59455D01*
X196450Y59855D01*
X196050D01*
Y59455D01*
X196450Y59055D01*
X196050Y58655D01*
Y58255D01*
Y38570D02*
X196450D01*
X196850Y38970D01*
X197250Y38570D01*
X197650D01*
Y38970D01*
X197250Y39370D01*
X197650Y39770D01*
Y40170D01*
X197250D01*
X196850Y39770D01*
X196450Y40170D01*
X196050D01*
Y39770D01*
X196450Y39370D01*
X196050Y38970D01*
Y38570D01*
Y18885D02*
X196450D01*
X196850Y19285D01*
X197250Y18885D01*
X197650D01*
Y19285D01*
X197250Y19685D01*
X197650Y20085D01*
Y20485D01*
X197250D01*
X196850Y20085D01*
X196450Y20485D01*
X196050D01*
Y20085D01*
X196450Y19685D01*
X196050Y19285D01*
Y18885D01*
Y-800D02*
X196450D01*
X196850Y-400D01*
X197250Y-800D01*
X197650D01*
Y-400D01*
X197250Y0D01*
X197650Y400D01*
Y800D01*
X197250D01*
X196850Y400D01*
X196450Y800D01*
X196050D01*
Y400D01*
X196450Y0D01*
X196050Y-400D01*
Y-800D01*
Y-20485D02*
X196450D01*
X196850Y-20085D01*
X197250Y-20485D01*
X197650D01*
Y-20085D01*
X197250Y-19685D01*
X197650Y-19285D01*
Y-18885D01*
X197250D01*
X196850Y-19285D01*
X196450Y-18885D01*
X196050D01*
Y-19285D01*
X196450Y-19685D01*
X196050Y-20085D01*
Y-20485D01*
Y-40170D02*
X196450D01*
X196850Y-39770D01*
X197250Y-40170D01*
X197650D01*
Y-39770D01*
X197250Y-39370D01*
X197650Y-38970D01*
Y-38570D01*
X197250D01*
X196850Y-38970D01*
X196450Y-38570D01*
X196050D01*
Y-38970D01*
X196450Y-39370D01*
X196050Y-39770D01*
Y-40170D01*
Y-59855D02*
X196450D01*
X196850Y-59455D01*
X197250Y-59855D01*
X197650D01*
Y-59455D01*
X197250Y-59055D01*
X197650Y-58655D01*
Y-58255D01*
X197250D01*
X196850Y-58655D01*
X196450Y-58255D01*
X196050D01*
Y-58655D01*
X196450Y-59055D01*
X196050Y-59455D01*
Y-59855D01*
Y-79540D02*
X196450D01*
X196850Y-79140D01*
X197250Y-79540D01*
X197650D01*
Y-79140D01*
X197250Y-78740D01*
X197650Y-78340D01*
Y-77940D01*
X197250D01*
X196850Y-78340D01*
X196450Y-77940D01*
X196050D01*
Y-78340D01*
X196450Y-78740D01*
X196050Y-79140D01*
Y-79540D01*
Y-99225D02*
X196450D01*
X196850Y-98825D01*
X197250Y-99225D01*
X197650D01*
Y-98825D01*
X197250Y-98425D01*
X197650Y-98025D01*
Y-97625D01*
X197250D01*
X196850Y-98025D01*
X196450Y-97625D01*
X196050D01*
Y-98025D01*
X196450Y-98425D01*
X196050Y-98825D01*
Y-99225D01*
X215735Y-118910D02*
X216135D01*
X216535Y-118510D01*
X216935Y-118910D01*
X217335D01*
Y-118510D01*
X216935Y-118110D01*
X217335Y-117710D01*
Y-117310D01*
X216935D01*
X216535Y-117710D01*
X216135Y-117310D01*
X215735D01*
Y-117710D01*
X216135Y-118110D01*
X215735Y-118510D01*
Y-118910D01*
X196704Y-121720D02*
X197104D01*
X197503Y-121320D01*
X197904Y-121720D01*
X198303D01*
Y-121320D01*
X197904Y-120920D01*
X198303Y-120520D01*
Y-120120D01*
X197904D01*
X197503Y-120520D01*
X197104Y-120120D01*
X196704D01*
Y-120520D01*
X197104Y-120920D01*
X196704Y-121320D01*
Y-121720D01*
X215735Y-158280D02*
X216135D01*
X216535Y-157880D01*
X216935Y-158280D01*
X217335D01*
Y-157880D01*
X216935Y-157480D01*
X217335Y-157080D01*
Y-156680D01*
X216935D01*
X216535Y-157080D01*
X216135Y-156680D01*
X215735D01*
Y-157080D01*
X216135Y-157480D01*
X215735Y-157880D01*
Y-158280D01*
Y-138595D02*
X216135D01*
X216535Y-138195D01*
X216935Y-138595D01*
X217335D01*
Y-138195D01*
X216935Y-137795D01*
X217335Y-137395D01*
Y-136995D01*
X216935D01*
X216535Y-137395D01*
X216135Y-136995D01*
X215735D01*
Y-137395D01*
X216135Y-137795D01*
X215735Y-138195D01*
Y-138595D01*
X196050D02*
X196450D01*
X196850Y-138195D01*
X197250Y-138595D01*
X197650D01*
Y-138195D01*
X197250Y-137795D01*
X197650Y-137395D01*
Y-136995D01*
X197250D01*
X196850Y-137395D01*
X196450Y-136995D01*
X196050D01*
Y-137395D01*
X196450Y-137795D01*
X196050Y-138195D01*
Y-138595D01*
X176365D02*
X176765D01*
X177165Y-138195D01*
X177565Y-138595D01*
X177965D01*
Y-138195D01*
X177565Y-137795D01*
X177965Y-137395D01*
Y-136995D01*
X177565D01*
X177165Y-137395D01*
X176765Y-136995D01*
X176365D01*
Y-137395D01*
X176765Y-137795D01*
X176365Y-138195D01*
Y-138595D01*
Y-158280D02*
X176765D01*
X177165Y-157880D01*
X177565Y-158280D01*
X177965D01*
Y-157880D01*
X177565Y-157480D01*
X177965Y-157080D01*
Y-156680D01*
X177565D01*
X177165Y-157080D01*
X176765Y-156680D01*
X176365D01*
Y-157080D01*
X176765Y-157480D01*
X176365Y-157880D01*
Y-158280D01*
X196050D02*
X196450D01*
X196850Y-157880D01*
X197250Y-158280D01*
X197650D01*
Y-157880D01*
X197250Y-157480D01*
X197650Y-157080D01*
Y-156680D01*
X197250D01*
X196850Y-157080D01*
X196450Y-156680D01*
X196050D01*
Y-157080D01*
X196450Y-157480D01*
X196050Y-157880D01*
Y-158280D01*
X215735Y-177965D02*
X216135D01*
X216535Y-177565D01*
X216935Y-177965D01*
X217335D01*
Y-177565D01*
X216935Y-177165D01*
X217335Y-176765D01*
Y-176365D01*
X216935D01*
X216535Y-176765D01*
X216135Y-176365D01*
X215735D01*
Y-176765D01*
X216135Y-177165D01*
X215735Y-177565D01*
Y-177965D01*
X176365D02*
X176765D01*
X177165Y-177565D01*
X177565Y-177965D01*
X177965D01*
Y-177565D01*
X177565Y-177165D01*
X177965Y-176765D01*
Y-176365D01*
X177565D01*
X177165Y-176765D01*
X176765Y-176365D01*
X176365D01*
Y-176765D01*
X176765Y-177165D01*
X176365Y-177565D01*
Y-177965D01*
Y-217335D02*
X176765D01*
X177165Y-216935D01*
X177565Y-217335D01*
X177965D01*
Y-216935D01*
X177565Y-216535D01*
X177965Y-216135D01*
Y-215735D01*
X177565D01*
X177165Y-216135D01*
X176765Y-215735D01*
X176365D01*
Y-216135D01*
X176765Y-216535D01*
X176365Y-216935D01*
Y-217335D01*
X156680D02*
X157080D01*
X157480Y-216935D01*
X157880Y-217335D01*
X158280D01*
Y-216935D01*
X157880Y-216535D01*
X158280Y-216135D01*
Y-215735D01*
X157880D01*
X157480Y-216135D01*
X157080Y-215735D01*
X156680D01*
Y-216135D01*
X157080Y-216535D01*
X156680Y-216935D01*
Y-217335D01*
Y-197650D02*
X157080D01*
X157480Y-197250D01*
X157880Y-197650D01*
X158280D01*
Y-197250D01*
X157880Y-196850D01*
X158280Y-196450D01*
Y-196050D01*
X157880D01*
X157480Y-196450D01*
X157080Y-196050D01*
X156680D01*
Y-196450D01*
X157080Y-196850D01*
X156680Y-197250D01*
Y-197650D01*
X136995D02*
X137395D01*
X137795Y-197250D01*
X138195Y-197650D01*
X138595D01*
Y-197250D01*
X138195Y-196850D01*
X138595Y-196450D01*
Y-196050D01*
X138195D01*
X137795Y-196450D01*
X137395Y-196050D01*
X136995D01*
Y-196450D01*
X137395Y-196850D01*
X136995Y-197250D01*
Y-197650D01*
X156680Y-177965D02*
X157080D01*
X157480Y-177565D01*
X157880Y-177965D01*
X158280D01*
Y-177565D01*
X157880Y-177165D01*
X158280Y-176765D01*
Y-176365D01*
X157880D01*
X157480Y-176765D01*
X157080Y-176365D01*
X156680D01*
Y-176765D01*
X157080Y-177165D01*
X156680Y-177565D01*
Y-177965D01*
Y-118910D02*
X157080D01*
X157480Y-118510D01*
X157880Y-118910D01*
X158280D01*
Y-118510D01*
X157880Y-118110D01*
X158280Y-117710D01*
Y-117310D01*
X157880D01*
X157480Y-117710D01*
X157080Y-117310D01*
X156680D01*
Y-117710D01*
X157080Y-118110D01*
X156680Y-118510D01*
Y-118910D01*
Y-138595D02*
X157080D01*
X157480Y-138195D01*
X157880Y-138595D01*
X158280D01*
Y-138195D01*
X157880Y-137795D01*
X158280Y-137395D01*
Y-136995D01*
X157880D01*
X157480Y-137395D01*
X157080Y-136995D01*
X156680D01*
Y-137395D01*
X157080Y-137795D01*
X156680Y-138195D01*
Y-138595D01*
Y-158280D02*
X157080D01*
X157480Y-157880D01*
X157880Y-158280D01*
X158280D01*
Y-157880D01*
X157880Y-157480D01*
X158280Y-157080D01*
Y-156680D01*
X157880D01*
X157480Y-157080D01*
X157080Y-156680D01*
X156680D01*
Y-157080D01*
X157080Y-157480D01*
X156680Y-157880D01*
Y-158280D01*
X136995Y-177965D02*
X137395D01*
X137795Y-177565D01*
X138195Y-177965D01*
X138595D01*
Y-177565D01*
X138195Y-177165D01*
X138595Y-176765D01*
Y-176365D01*
X138195D01*
X137795Y-176765D01*
X137395Y-176365D01*
X136995D01*
Y-176765D01*
X137395Y-177165D01*
X136995Y-177565D01*
Y-177965D01*
X117310D02*
X117710D01*
X118110Y-177565D01*
X118510Y-177965D01*
X118910D01*
Y-177565D01*
X118510Y-177165D01*
X118910Y-176765D01*
Y-176365D01*
X118510D01*
X118110Y-176765D01*
X117710Y-176365D01*
X117310D01*
Y-176765D01*
X117710Y-177165D01*
X117310Y-177565D01*
Y-177965D01*
X136995Y-158280D02*
X137395D01*
X137795Y-157880D01*
X138195Y-158280D01*
X138595D01*
Y-157880D01*
X138195Y-157480D01*
X138595Y-157080D01*
Y-156680D01*
X138195D01*
X137795Y-157080D01*
X137395Y-156680D01*
X136995D01*
Y-157080D01*
X137395Y-157480D01*
X136995Y-157880D01*
Y-158280D01*
X117310D02*
X117710D01*
X118110Y-157880D01*
X118510Y-158280D01*
X118910D01*
Y-157880D01*
X118510Y-157480D01*
X118910Y-157080D01*
Y-156680D01*
X118510D01*
X118110Y-157080D01*
X117710Y-156680D01*
X117310D01*
Y-157080D01*
X117710Y-157480D01*
X117310Y-157880D01*
Y-158280D01*
X136995Y-138595D02*
X137395D01*
X137795Y-138195D01*
X138195Y-138595D01*
X138595D01*
Y-138195D01*
X138195Y-137795D01*
X138595Y-137395D01*
Y-136995D01*
X138195D01*
X137795Y-137395D01*
X137395Y-136995D01*
X136995D01*
Y-137395D01*
X137395Y-137795D01*
X136995Y-138195D01*
Y-138595D01*
Y-118910D02*
X137395D01*
X137795Y-118510D01*
X138195Y-118910D01*
X138595D01*
Y-118510D01*
X138195Y-118110D01*
X138595Y-117710D01*
Y-117310D01*
X138195D01*
X137795Y-117710D01*
X137395Y-117310D01*
X136995D01*
Y-117710D01*
X137395Y-118110D01*
X136995Y-118510D01*
Y-118910D01*
Y-99225D02*
X137395D01*
X137795Y-98825D01*
X138195Y-99225D01*
X138595D01*
Y-98825D01*
X138195Y-98425D01*
X138595Y-98025D01*
Y-97625D01*
X138195D01*
X137795Y-98025D01*
X137395Y-97625D01*
X136995D01*
Y-98025D01*
X137395Y-98425D01*
X136995Y-98825D01*
Y-99225D01*
X117310Y-138595D02*
X117710D01*
X118110Y-138195D01*
X118510Y-138595D01*
X118910D01*
Y-138195D01*
X118510Y-137795D01*
X118910Y-137395D01*
Y-136995D01*
X118510D01*
X118110Y-137395D01*
X117710Y-136995D01*
X117310D01*
Y-137395D01*
X117710Y-137795D01*
X117310Y-138195D01*
Y-138595D01*
X97625D02*
X98025D01*
X98425Y-138195D01*
X98825Y-138595D01*
X99225D01*
Y-138195D01*
X98825Y-137795D01*
X99225Y-137395D01*
Y-136995D01*
X98825D01*
X98425Y-137395D01*
X98025Y-136995D01*
X97625D01*
Y-137395D01*
X98025Y-137795D01*
X97625Y-138195D01*
Y-138595D01*
X77940D02*
X78340D01*
X78740Y-138195D01*
X79140Y-138595D01*
X79540D01*
Y-138195D01*
X79140Y-137795D01*
X79540Y-137395D01*
Y-136995D01*
X79140D01*
X78740Y-137395D01*
X78340Y-136995D01*
X77940D01*
Y-137395D01*
X78340Y-137795D01*
X77940Y-138195D01*
Y-138595D01*
X117310Y-118910D02*
X117710D01*
X118110Y-118510D01*
X118510Y-118910D01*
X118910D01*
Y-118510D01*
X118510Y-118110D01*
X118910Y-117710D01*
Y-117310D01*
X118510D01*
X118110Y-117710D01*
X117710Y-117310D01*
X117310D01*
Y-117710D01*
X117710Y-118110D01*
X117310Y-118510D01*
Y-118910D01*
X77940D02*
X78340D01*
X78740Y-118510D01*
X79140Y-118910D01*
X79540D01*
Y-118510D01*
X79140Y-118110D01*
X79540Y-117710D01*
Y-117310D01*
X79140D01*
X78740Y-117710D01*
X78340Y-117310D01*
X77940D01*
Y-117710D01*
X78340Y-118110D01*
X77940Y-118510D01*
Y-118910D01*
X58255D02*
X58655D01*
X59055Y-118510D01*
X59455Y-118910D01*
X59855D01*
Y-118510D01*
X59455Y-118110D01*
X59855Y-117710D01*
Y-117310D01*
X59455D01*
X59055Y-117710D01*
X58655Y-117310D01*
X58255D01*
Y-117710D01*
X58655Y-118110D01*
X58255Y-118510D01*
Y-118910D01*
X38570D02*
X38970D01*
X39370Y-118510D01*
X39770Y-118910D01*
X40170D01*
Y-118510D01*
X39770Y-118110D01*
X40170Y-117710D01*
Y-117310D01*
X39770D01*
X39370Y-117710D01*
X38970Y-117310D01*
X38570D01*
Y-117710D01*
X38970Y-118110D01*
X38570Y-118510D01*
Y-118910D01*
X18885D02*
X19285D01*
X19685Y-118510D01*
X20085Y-118910D01*
X20485D01*
Y-118510D01*
X20085Y-118110D01*
X20485Y-117710D01*
Y-117310D01*
X20085D01*
X19685Y-117710D01*
X19285Y-117310D01*
X18885D01*
Y-117710D01*
X19285Y-118110D01*
X18885Y-118510D01*
Y-118910D01*
X-800D02*
X-400D01*
X0Y-118510D01*
X400Y-118910D01*
X800D01*
Y-118510D01*
X400Y-118110D01*
X800Y-117710D01*
Y-117310D01*
X400D01*
X0Y-117710D01*
X-400Y-117310D01*
X-800D01*
Y-117710D01*
X-400Y-118110D01*
X-800Y-118510D01*
Y-118910D01*
X-40170Y-99225D02*
X-39770D01*
X-39370Y-98825D01*
X-38970Y-99225D01*
X-38570D01*
Y-98825D01*
X-38970Y-98425D01*
X-38570Y-98025D01*
Y-97625D01*
X-38970D01*
X-39370Y-98025D01*
X-39770Y-97625D01*
X-40170D01*
Y-98025D01*
X-39770Y-98425D01*
X-40170Y-98825D01*
Y-99225D01*
X-20485Y-118910D02*
X-20085D01*
X-19685Y-118510D01*
X-19285Y-118910D01*
X-18885D01*
Y-118510D01*
X-19285Y-118110D01*
X-18885Y-117710D01*
Y-117310D01*
X-19285D01*
X-19685Y-117710D01*
X-20085Y-117310D01*
X-20485D01*
Y-117710D01*
X-20085Y-118110D01*
X-20485Y-118510D01*
Y-118910D01*
X-40170D02*
X-39770D01*
X-39370Y-118510D01*
X-38970Y-118910D01*
X-38570D01*
Y-118510D01*
X-38970Y-118110D01*
X-38570Y-117710D01*
Y-117310D01*
X-38970D01*
X-39370Y-117710D01*
X-39770Y-117310D01*
X-40170D01*
Y-117710D01*
X-39770Y-118110D01*
X-40170Y-118510D01*
Y-118910D01*
X-59855Y-79540D02*
X-59455D01*
X-59055Y-79140D01*
X-58655Y-79540D01*
X-58255D01*
Y-79140D01*
X-58655Y-78740D01*
X-58255Y-78340D01*
Y-77940D01*
X-58655D01*
X-59055Y-78340D01*
X-59455Y-77940D01*
X-59855D01*
Y-78340D01*
X-59455Y-78740D01*
X-59855Y-79140D01*
Y-79540D01*
Y-99225D02*
X-59455D01*
X-59055Y-98825D01*
X-58655Y-99225D01*
X-58255D01*
Y-98825D01*
X-58655Y-98425D01*
X-58255Y-98025D01*
Y-97625D01*
X-58655D01*
X-59055Y-98025D01*
X-59455Y-97625D01*
X-59855D01*
Y-98025D01*
X-59455Y-98425D01*
X-59855Y-98825D01*
Y-99225D01*
Y-118910D02*
X-59455D01*
X-59055Y-118510D01*
X-58655Y-118910D01*
X-58255D01*
Y-118510D01*
X-58655Y-118110D01*
X-58255Y-117710D01*
Y-117310D01*
X-58655D01*
X-59055Y-117710D01*
X-59455Y-117310D01*
X-59855D01*
Y-117710D01*
X-59455Y-118110D01*
X-59855Y-118510D01*
Y-118910D01*
Y-138595D02*
X-59455D01*
X-59055Y-138195D01*
X-58655Y-138595D01*
X-58255D01*
Y-138195D01*
X-58655Y-137795D01*
X-58255Y-137395D01*
Y-136995D01*
X-58655D01*
X-59055Y-137395D01*
X-59455Y-136995D01*
X-59855D01*
Y-137395D01*
X-59455Y-137795D01*
X-59855Y-138195D01*
Y-138595D01*
X-79540D02*
X-79140D01*
X-78740Y-138195D01*
X-78340Y-138595D01*
X-77940D01*
Y-138195D01*
X-78340Y-137795D01*
X-77940Y-137395D01*
Y-136995D01*
X-78340D01*
X-78740Y-137395D01*
X-79140Y-136995D01*
X-79540D01*
Y-137395D01*
X-79140Y-137795D01*
X-79540Y-138195D01*
Y-138595D01*
X-99225D02*
X-98825D01*
X-98425Y-138195D01*
X-98025Y-138595D01*
X-97625D01*
Y-138195D01*
X-98025Y-137795D01*
X-97625Y-137395D01*
Y-136995D01*
X-98025D01*
X-98425Y-137395D01*
X-98825Y-136995D01*
X-99225D01*
Y-137395D01*
X-98825Y-137795D01*
X-99225Y-138195D01*
Y-138595D01*
X-79540Y-118910D02*
X-79140D01*
X-78740Y-118510D01*
X-78340Y-118910D01*
X-77940D01*
Y-118510D01*
X-78340Y-118110D01*
X-77940Y-117710D01*
Y-117310D01*
X-78340D01*
X-78740Y-117710D01*
X-79140Y-117310D01*
X-79540D01*
Y-117710D01*
X-79140Y-118110D01*
X-79540Y-118510D01*
Y-118910D01*
Y-79540D02*
X-79140D01*
X-78740Y-79140D01*
X-78340Y-79540D01*
X-77940D01*
Y-79140D01*
X-78340Y-78740D01*
X-77940Y-78340D01*
Y-77940D01*
X-78340D01*
X-78740Y-78340D01*
X-79140Y-77940D01*
X-79540D01*
Y-78340D01*
X-79140Y-78740D01*
X-79540Y-79140D01*
Y-79540D01*
X-118910D02*
X-118510D01*
X-118110Y-79140D01*
X-117710Y-79540D01*
X-117310D01*
Y-79140D01*
X-117710Y-78740D01*
X-117310Y-78340D01*
Y-77940D01*
X-117710D01*
X-118110Y-78340D01*
X-118510Y-77940D01*
X-118910D01*
Y-78340D01*
X-118510Y-78740D01*
X-118910Y-79140D01*
Y-79540D01*
X-138595Y-99225D02*
X-138195D01*
X-137795Y-98825D01*
X-137395Y-99225D01*
X-136995D01*
Y-98825D01*
X-137395Y-98425D01*
X-136995Y-98025D01*
Y-97625D01*
X-137395D01*
X-137795Y-98025D01*
X-138195Y-97625D01*
X-138595D01*
Y-98025D01*
X-138195Y-98425D01*
X-138595Y-98825D01*
Y-99225D01*
X-118910Y-118910D02*
X-118510D01*
X-118110Y-118510D01*
X-117710Y-118910D01*
X-117310D01*
Y-118510D01*
X-117710Y-118110D01*
X-117310Y-117710D01*
Y-117310D01*
X-117710D01*
X-118110Y-117710D01*
X-118510Y-117310D01*
X-118910D01*
Y-117710D01*
X-118510Y-118110D01*
X-118910Y-118510D01*
Y-118910D01*
Y-138595D02*
X-118510D01*
X-118110Y-138195D01*
X-117710Y-138595D01*
X-117310D01*
Y-138195D01*
X-117710Y-137795D01*
X-117310Y-137395D01*
Y-136995D01*
X-117710D01*
X-118110Y-137395D01*
X-118510Y-136995D01*
X-118910D01*
Y-137395D01*
X-118510Y-137795D01*
X-118910Y-138195D01*
Y-138595D01*
Y-158280D02*
X-118510D01*
X-118110Y-157880D01*
X-117710Y-158280D01*
X-117310D01*
Y-157880D01*
X-117710Y-157480D01*
X-117310Y-157080D01*
Y-156680D01*
X-117710D01*
X-118110Y-157080D01*
X-118510Y-156680D01*
X-118910D01*
Y-157080D01*
X-118510Y-157480D01*
X-118910Y-157880D01*
Y-158280D01*
Y-177965D02*
X-118510D01*
X-118110Y-177565D01*
X-117710Y-177965D01*
X-117310D01*
Y-177565D01*
X-117710Y-177165D01*
X-117310Y-176765D01*
Y-176365D01*
X-117710D01*
X-118110Y-176765D01*
X-118510Y-176365D01*
X-118910D01*
Y-176765D01*
X-118510Y-177165D01*
X-118910Y-177565D01*
Y-177965D01*
X-138595Y-197650D02*
X-138195D01*
X-137795Y-197250D01*
X-137395Y-197650D01*
X-136995D01*
Y-197250D01*
X-137395Y-196850D01*
X-136995Y-196450D01*
Y-196050D01*
X-137395D01*
X-137795Y-196450D01*
X-138195Y-196050D01*
X-138595D01*
Y-196450D01*
X-138195Y-196850D01*
X-138595Y-197250D01*
Y-197650D01*
Y-177965D02*
X-138195D01*
X-137795Y-177565D01*
X-137395Y-177965D01*
X-136995D01*
Y-177565D01*
X-137395Y-177165D01*
X-136995Y-176765D01*
Y-176365D01*
X-137395D01*
X-137795Y-176765D01*
X-138195Y-176365D01*
X-138595D01*
Y-176765D01*
X-138195Y-177165D01*
X-138595Y-177565D01*
Y-177965D01*
Y-158280D02*
X-138195D01*
X-137795Y-157880D01*
X-137395Y-158280D01*
X-136995D01*
Y-157880D01*
X-137395Y-157480D01*
X-136995Y-157080D01*
Y-156680D01*
X-137395D01*
X-137795Y-157080D01*
X-138195Y-156680D01*
X-138595D01*
Y-157080D01*
X-138195Y-157480D01*
X-138595Y-157880D01*
Y-158280D01*
Y-138595D02*
X-138195D01*
X-137795Y-138195D01*
X-137395Y-138595D01*
X-136995D01*
Y-138195D01*
X-137395Y-137795D01*
X-136995Y-137395D01*
Y-136995D01*
X-137395D01*
X-137795Y-137395D01*
X-138195Y-136995D01*
X-138595D01*
Y-137395D01*
X-138195Y-137795D01*
X-138595Y-138195D01*
Y-138595D01*
Y-118910D02*
X-138195D01*
X-137795Y-118510D01*
X-137395Y-118910D01*
X-136995D01*
Y-118510D01*
X-137395Y-118110D01*
X-136995Y-117710D01*
Y-117310D01*
X-137395D01*
X-137795Y-117710D01*
X-138195Y-117310D01*
X-138595D01*
Y-117710D01*
X-138195Y-118110D01*
X-138595Y-118510D01*
Y-118910D01*
X-158280D02*
X-157880D01*
X-157480Y-118510D01*
X-157080Y-118910D01*
X-156680D01*
Y-118510D01*
X-157080Y-118110D01*
X-156680Y-117710D01*
Y-117310D01*
X-157080D01*
X-157480Y-117710D01*
X-157880Y-117310D01*
X-158280D01*
Y-117710D01*
X-157880Y-118110D01*
X-158280Y-118510D01*
Y-118910D01*
Y-138595D02*
X-157880D01*
X-157480Y-138195D01*
X-157080Y-138595D01*
X-156680D01*
Y-138195D01*
X-157080Y-137795D01*
X-156680Y-137395D01*
Y-136995D01*
X-157080D01*
X-157480Y-137395D01*
X-157880Y-136995D01*
X-158280D01*
Y-137395D01*
X-157880Y-137795D01*
X-158280Y-138195D01*
Y-138595D01*
Y-158280D02*
X-157880D01*
X-157480Y-157880D01*
X-157080Y-158280D01*
X-156680D01*
Y-157880D01*
X-157080Y-157480D01*
X-156680Y-157080D01*
Y-156680D01*
X-157080D01*
X-157480Y-157080D01*
X-157880Y-156680D01*
X-158280D01*
Y-157080D01*
X-157880Y-157480D01*
X-158280Y-157880D01*
Y-158280D01*
Y-177965D02*
X-157880D01*
X-157480Y-177565D01*
X-157080Y-177965D01*
X-156680D01*
Y-177565D01*
X-157080Y-177165D01*
X-156680Y-176765D01*
Y-176365D01*
X-157080D01*
X-157480Y-176765D01*
X-157880Y-176365D01*
X-158280D01*
Y-176765D01*
X-157880Y-177165D01*
X-158280Y-177565D01*
Y-177965D01*
Y-197650D02*
X-157880D01*
X-157480Y-197250D01*
X-157080Y-197650D01*
X-156680D01*
Y-197250D01*
X-157080Y-196850D01*
X-156680Y-196450D01*
Y-196050D01*
X-157080D01*
X-157480Y-196450D01*
X-157880Y-196050D01*
X-158280D01*
Y-196450D01*
X-157880Y-196850D01*
X-158280Y-197250D01*
Y-197650D01*
Y-217335D02*
X-157880D01*
X-157480Y-216935D01*
X-157080Y-217335D01*
X-156680D01*
Y-216935D01*
X-157080Y-216535D01*
X-156680Y-216135D01*
Y-215735D01*
X-157080D01*
X-157480Y-216135D01*
X-157880Y-215735D01*
X-158280D01*
Y-216135D01*
X-157880Y-216535D01*
X-158280Y-216935D01*
Y-217335D01*
X-177965D02*
X-177565D01*
X-177165Y-216935D01*
X-176765Y-217335D01*
X-176365D01*
Y-216935D01*
X-176765Y-216535D01*
X-176365Y-216135D01*
Y-215735D01*
X-176765D01*
X-177165Y-216135D01*
X-177565Y-215735D01*
X-177965D01*
Y-216135D01*
X-177565Y-216535D01*
X-177965Y-216935D01*
Y-217335D01*
Y-177965D02*
X-177565D01*
X-177165Y-177565D01*
X-176765Y-177965D01*
X-176365D01*
Y-177565D01*
X-176765Y-177165D01*
X-176365Y-176765D01*
Y-176365D01*
X-176765D01*
X-177165Y-176765D01*
X-177565Y-176365D01*
X-177965D01*
Y-176765D01*
X-177565Y-177165D01*
X-177965Y-177565D01*
Y-177965D01*
Y-138595D02*
X-177565D01*
X-177165Y-138195D01*
X-176765Y-138595D01*
X-176365D01*
Y-138195D01*
X-176765Y-137795D01*
X-176365Y-137395D01*
Y-136995D01*
X-176765D01*
X-177165Y-137395D01*
X-177565Y-136995D01*
X-177965D01*
Y-137395D01*
X-177565Y-137795D01*
X-177965Y-138195D01*
Y-138595D01*
Y-158280D02*
X-177565D01*
X-177165Y-157880D01*
X-176765Y-158280D01*
X-176365D01*
Y-157880D01*
X-176765Y-157480D01*
X-176365Y-157080D01*
Y-156680D01*
X-176765D01*
X-177165Y-157080D01*
X-177565Y-156680D01*
X-177965D01*
Y-157080D01*
X-177565Y-157480D01*
X-177965Y-157880D01*
Y-158280D01*
X-217335Y-177965D02*
X-216935D01*
X-216535Y-177565D01*
X-216135Y-177965D01*
X-215735D01*
Y-177565D01*
X-216135Y-177165D01*
X-215735Y-176765D01*
Y-176365D01*
X-216135D01*
X-216535Y-176765D01*
X-216935Y-176365D01*
X-217335D01*
Y-176765D01*
X-216935Y-177165D01*
X-217335Y-177565D01*
Y-177965D01*
X-197650Y-158280D02*
X-197250D01*
X-196850Y-157880D01*
X-196450Y-158280D01*
X-196050D01*
Y-157880D01*
X-196450Y-157480D01*
X-196050Y-157080D01*
Y-156680D01*
X-196450D01*
X-196850Y-157080D01*
X-197250Y-156680D01*
X-197650D01*
Y-157080D01*
X-197250Y-157480D01*
X-197650Y-157880D01*
Y-158280D01*
X-217335D02*
X-216935D01*
X-216535Y-157880D01*
X-216135Y-158280D01*
X-215735D01*
Y-157880D01*
X-216135Y-157480D01*
X-215735Y-157080D01*
Y-156680D01*
X-216135D01*
X-216535Y-157080D01*
X-216935Y-156680D01*
X-217335D01*
Y-157080D01*
X-216935Y-157480D01*
X-217335Y-157880D01*
Y-158280D01*
Y-138595D02*
X-216935D01*
X-216535Y-138195D01*
X-216135Y-138595D01*
X-215735D01*
Y-138195D01*
X-216135Y-137795D01*
X-215735Y-137395D01*
Y-136995D01*
X-216135D01*
X-216535Y-137395D01*
X-216935Y-136995D01*
X-217335D01*
Y-137395D01*
X-216935Y-137795D01*
X-217335Y-138195D01*
Y-138595D01*
X-197650D02*
X-197250D01*
X-196850Y-138195D01*
X-196450Y-138595D01*
X-196050D01*
Y-138195D01*
X-196450Y-137795D01*
X-196050Y-137395D01*
Y-136995D01*
X-196450D01*
X-196850Y-137395D01*
X-197250Y-136995D01*
X-197650D01*
Y-137395D01*
X-197250Y-137795D01*
X-197650Y-138195D01*
Y-138595D01*
Y-118910D02*
X-197250D01*
X-196850Y-118510D01*
X-196450Y-118910D01*
X-196050D01*
Y-118510D01*
X-196450Y-118110D01*
X-196050Y-117710D01*
Y-117310D01*
X-196450D01*
X-196850Y-117710D01*
X-197250Y-117310D01*
X-197650D01*
Y-117710D01*
X-197250Y-118110D01*
X-197650Y-118510D01*
Y-118910D01*
Y-99225D02*
X-197250D01*
X-196850Y-98825D01*
X-196450Y-99225D01*
X-196050D01*
Y-98825D01*
X-196450Y-98425D01*
X-196050Y-98025D01*
Y-97625D01*
X-196450D01*
X-196850Y-98025D01*
X-197250Y-97625D01*
X-197650D01*
Y-98025D01*
X-197250Y-98425D01*
X-197650Y-98825D01*
Y-99225D01*
Y-79540D02*
X-197250D01*
X-196850Y-79140D01*
X-196450Y-79540D01*
X-196050D01*
Y-79140D01*
X-196450Y-78740D01*
X-196050Y-78340D01*
Y-77940D01*
X-196450D01*
X-196850Y-78340D01*
X-197250Y-77940D01*
X-197650D01*
Y-78340D01*
X-197250Y-78740D01*
X-197650Y-79140D01*
Y-79540D01*
Y-59855D02*
X-197250D01*
X-196850Y-59455D01*
X-196450Y-59855D01*
X-196050D01*
Y-59455D01*
X-196450Y-59055D01*
X-196050Y-58655D01*
Y-58255D01*
X-196450D01*
X-196850Y-58655D01*
X-197250Y-58255D01*
X-197650D01*
Y-58655D01*
X-197250Y-59055D01*
X-197650Y-59455D01*
Y-59855D01*
Y-40170D02*
X-197250D01*
X-196850Y-39770D01*
X-196450Y-40170D01*
X-196050D01*
Y-39770D01*
X-196450Y-39370D01*
X-196050Y-38970D01*
Y-38570D01*
X-196450D01*
X-196850Y-38970D01*
X-197250Y-38570D01*
X-197650D01*
Y-38970D01*
X-197250Y-39370D01*
X-197650Y-39770D01*
Y-40170D01*
Y-20485D02*
X-197250D01*
X-196850Y-20085D01*
X-196450Y-20485D01*
X-196050D01*
Y-20085D01*
X-196450Y-19685D01*
X-196050Y-19285D01*
Y-18885D01*
X-196450D01*
X-196850Y-19285D01*
X-197250Y-18885D01*
X-197650D01*
Y-19285D01*
X-197250Y-19685D01*
X-197650Y-20085D01*
Y-20485D01*
Y-800D02*
X-197250D01*
X-196850Y-400D01*
X-196450Y-800D01*
X-196050D01*
Y-400D01*
X-196450Y0D01*
X-196050Y400D01*
Y800D01*
X-196450D01*
X-196850Y400D01*
X-197250Y800D01*
X-197650D01*
Y400D01*
X-197250Y0D01*
X-197650Y-400D01*
Y-800D01*
Y18885D02*
X-197250D01*
X-196850Y19285D01*
X-196450Y18885D01*
X-196050D01*
Y19285D01*
X-196450Y19685D01*
X-196050Y20085D01*
Y20485D01*
X-196450D01*
X-196850Y20085D01*
X-197250Y20485D01*
X-197650D01*
Y20085D01*
X-197250Y19685D01*
X-197650Y19285D01*
Y18885D01*
Y38570D02*
X-197250D01*
X-196850Y38970D01*
X-196450Y38570D01*
X-196050D01*
Y38970D01*
X-196450Y39370D01*
X-196050Y39770D01*
Y40170D01*
X-196450D01*
X-196850Y39770D01*
X-197250Y40170D01*
X-197650D01*
Y39770D01*
X-197250Y39370D01*
X-197650Y38970D01*
Y38570D01*
Y58255D02*
X-197250D01*
X-196850Y58655D01*
X-196450Y58255D01*
X-196050D01*
Y58655D01*
X-196450Y59055D01*
X-196050Y59455D01*
Y59855D01*
X-196450D01*
X-196850Y59455D01*
X-197250Y59855D01*
X-197650D01*
Y59455D01*
X-197250Y59055D01*
X-197650Y58655D01*
Y58255D01*
Y77940D02*
X-197250D01*
X-196850Y78340D01*
X-196450Y77940D01*
X-196050D01*
Y78340D01*
X-196450Y78740D01*
X-196050Y79140D01*
Y79540D01*
X-196450D01*
X-196850Y79140D01*
X-197250Y79540D01*
X-197650D01*
Y79140D01*
X-197250Y78740D01*
X-197650Y78340D01*
Y77940D01*
Y97625D02*
X-197250D01*
X-196850Y98025D01*
X-196450Y97625D01*
X-196050D01*
Y98025D01*
X-196450Y98425D01*
X-196050Y98825D01*
Y99225D01*
X-196450D01*
X-196850Y98825D01*
X-197250Y99225D01*
X-197650D01*
Y98825D01*
X-197250Y98425D01*
X-197650Y98025D01*
Y97625D01*
Y117310D02*
X-197250D01*
X-196850Y117710D01*
X-196450Y117310D01*
X-196050D01*
Y117710D01*
X-196450Y118110D01*
X-196050Y118510D01*
Y118910D01*
X-196450D01*
X-196850Y118510D01*
X-197250Y118910D01*
X-197650D01*
Y118510D01*
X-197250Y118110D01*
X-197650Y117710D01*
Y117310D01*
X-217335D02*
X-216935D01*
X-216535Y117710D01*
X-216135Y117310D01*
X-215735D01*
Y117710D01*
X-216135Y118110D01*
X-215735Y118510D01*
Y118910D01*
X-216135D01*
X-216535Y118510D01*
X-216935Y118910D01*
X-217335D01*
Y118510D01*
X-216935Y118110D01*
X-217335Y117710D01*
Y117310D01*
X-158280Y215735D02*
X-157880D01*
X-157480Y216135D01*
X-157080Y215735D01*
X-156680D01*
Y216135D01*
X-157080Y216535D01*
X-156680Y216935D01*
Y217335D01*
X-157080D01*
X-157480Y216935D01*
X-157880Y217335D01*
X-158280D01*
Y216935D01*
X-157880Y216535D01*
X-158280Y216135D01*
Y215735D01*
X-177965D02*
X-177565D01*
X-177165Y216135D01*
X-176765Y215735D01*
X-176365D01*
Y216135D01*
X-176765Y216535D01*
X-176365Y216935D01*
Y217335D01*
X-176765D01*
X-177165Y216935D01*
X-177565Y217335D01*
X-177965D01*
Y216935D01*
X-177565Y216535D01*
X-177965Y216135D01*
Y215735D01*
X-138595Y196050D02*
X-138195D01*
X-137795Y196450D01*
X-137395Y196050D01*
X-136995D01*
Y196450D01*
X-137395Y196850D01*
X-136995Y197250D01*
Y197650D01*
X-137395D01*
X-137795Y197250D01*
X-138195Y197650D01*
X-138595D01*
Y197250D01*
X-138195Y196850D01*
X-138595Y196450D01*
Y196050D01*
X-158280D02*
X-157880D01*
X-157480Y196450D01*
X-157080Y196050D01*
X-156680D01*
Y196450D01*
X-157080Y196850D01*
X-156680Y197250D01*
Y197650D01*
X-157080D01*
X-157480Y197250D01*
X-157880Y197650D01*
X-158280D01*
Y197250D01*
X-157880Y196850D01*
X-158280Y196450D01*
Y196050D01*
X-217335Y176365D02*
X-216935D01*
X-216535Y176765D01*
X-216135Y176365D01*
X-215735D01*
Y176765D01*
X-216135Y177165D01*
X-215735Y177565D01*
Y177965D01*
X-216135D01*
X-216535Y177565D01*
X-216935Y177965D01*
X-217335D01*
Y177565D01*
X-216935Y177165D01*
X-217335Y176765D01*
Y176365D01*
X-197775Y157307D02*
X-197375D01*
X-196975Y157707D01*
X-196575Y157307D01*
X-196175D01*
Y157707D01*
X-196575Y158107D01*
X-196175Y158507D01*
Y158907D01*
X-196575D01*
X-196975Y158507D01*
X-197375Y158907D01*
X-197775D01*
Y158507D01*
X-197375Y158107D01*
X-197775Y157707D01*
Y157307D01*
X-217335Y156680D02*
X-216935D01*
X-216535Y157080D01*
X-216135Y156680D01*
X-215735D01*
Y157080D01*
X-216135Y157480D01*
X-215735Y157880D01*
Y158280D01*
X-216135D01*
X-216535Y157880D01*
X-216935Y158280D01*
X-217335D01*
Y157880D01*
X-216935Y157480D01*
X-217335Y157080D01*
Y156680D01*
Y136995D02*
X-216935D01*
X-216535Y137395D01*
X-216135Y136995D01*
X-215735D01*
Y137395D01*
X-216135Y137795D01*
X-215735Y138195D01*
Y138595D01*
X-216135D01*
X-216535Y138195D01*
X-216935Y138595D01*
X-217335D01*
Y138195D01*
X-216935Y137795D01*
X-217335Y137395D01*
Y136995D01*
X-197650D02*
X-197250D01*
X-196850Y137395D01*
X-196450Y136995D01*
X-196050D01*
Y137395D01*
X-196450Y137795D01*
X-196050Y138195D01*
Y138595D01*
X-196450D01*
X-196850Y138195D01*
X-197250Y138595D01*
X-197650D01*
Y138195D01*
X-197250Y137795D01*
X-197650Y137395D01*
Y136995D01*
X-177965D02*
X-177565D01*
X-177165Y137395D01*
X-176765Y136995D01*
X-176365D01*
Y137395D01*
X-176765Y137795D01*
X-176365Y138195D01*
Y138595D01*
X-176765D01*
X-177165Y138195D01*
X-177565Y138595D01*
X-177965D01*
Y138195D01*
X-177565Y137795D01*
X-177965Y137395D01*
Y136995D01*
X-158280D02*
X-157880D01*
X-157480Y137395D01*
X-157080Y136995D01*
X-156680D01*
Y137395D01*
X-157080Y137795D01*
X-156680Y138195D01*
Y138595D01*
X-157080D01*
X-157480Y138195D01*
X-157880Y138595D01*
X-158280D01*
Y138195D01*
X-157880Y137795D01*
X-158280Y137395D01*
Y136995D01*
Y176365D02*
X-157880D01*
X-157480Y176765D01*
X-157080Y176365D01*
X-156680D01*
Y176765D01*
X-157080Y177165D01*
X-156680Y177565D01*
Y177965D01*
X-157080D01*
X-157480Y177565D01*
X-157880Y177965D01*
X-158280D01*
Y177565D01*
X-157880Y177165D01*
X-158280Y176765D01*
Y176365D01*
X-177965D02*
X-177565D01*
X-177165Y176765D01*
X-176765Y176365D01*
X-176365D01*
Y176765D01*
X-176765Y177165D01*
X-176365Y177565D01*
Y177965D01*
X-176765D01*
X-177165Y177565D01*
X-177565Y177965D01*
X-177965D01*
Y177565D01*
X-177565Y177165D01*
X-177965Y176765D01*
Y176365D01*
Y156680D02*
X-177565D01*
X-177165Y157080D01*
X-176765Y156680D01*
X-176365D01*
Y157080D01*
X-176765Y157480D01*
X-176365Y157880D01*
Y158280D01*
X-176765D01*
X-177165Y157880D01*
X-177565Y158280D01*
X-177965D01*
Y157880D01*
X-177565Y157480D01*
X-177965Y157080D01*
Y156680D01*
X-158280D02*
X-157880D01*
X-157480Y157080D01*
X-157080Y156680D01*
X-156680D01*
Y157080D01*
X-157080Y157480D01*
X-156680Y157880D01*
Y158280D01*
X-157080D01*
X-157480Y157880D01*
X-157880Y158280D01*
X-158280D01*
Y157880D01*
X-157880Y157480D01*
X-158280Y157080D01*
Y156680D01*
X-118910Y176365D02*
X-118510D01*
X-118110Y176765D01*
X-117710Y176365D01*
X-117310D01*
Y176765D01*
X-117710Y177165D01*
X-117310Y177565D01*
Y177965D01*
X-117710D01*
X-118110Y177565D01*
X-118510Y177965D01*
X-118910D01*
Y177565D01*
X-118510Y177165D01*
X-118910Y176765D01*
Y176365D01*
X-138595D02*
X-138195D01*
X-137795Y176765D01*
X-137395Y176365D01*
X-136995D01*
Y176765D01*
X-137395Y177165D01*
X-136995Y177565D01*
Y177965D01*
X-137395D01*
X-137795Y177565D01*
X-138195Y177965D01*
X-138595D01*
Y177565D01*
X-138195Y177165D01*
X-138595Y176765D01*
Y176365D01*
Y156680D02*
X-138195D01*
X-137795Y157080D01*
X-137395Y156680D01*
X-136995D01*
Y157080D01*
X-137395Y157480D01*
X-136995Y157880D01*
Y158280D01*
X-137395D01*
X-137795Y157880D01*
X-138195Y158280D01*
X-138595D01*
Y157880D01*
X-138195Y157480D01*
X-138595Y157080D01*
Y156680D01*
X-118910D02*
X-118510D01*
X-118110Y157080D01*
X-117710Y156680D01*
X-117310D01*
Y157080D01*
X-117710Y157480D01*
X-117310Y157880D01*
Y158280D01*
X-117710D01*
X-118110Y157880D01*
X-118510Y158280D01*
X-118910D01*
Y157880D01*
X-118510Y157480D01*
X-118910Y157080D01*
Y156680D01*
X-138595Y136995D02*
X-138195D01*
X-137795Y137395D01*
X-137395Y136995D01*
X-136995D01*
Y137395D01*
X-137395Y137795D01*
X-136995Y138195D01*
Y138595D01*
X-137395D01*
X-137795Y138195D01*
X-138195Y138595D01*
X-138595D01*
Y138195D01*
X-138195Y137795D01*
X-138595Y137395D01*
Y136995D01*
X-118910D02*
X-118510D01*
X-118110Y137395D01*
X-117710Y136995D01*
X-117310D01*
Y137395D01*
X-117710Y137795D01*
X-117310Y138195D01*
Y138595D01*
X-117710D01*
X-118110Y138195D01*
X-118510Y138595D01*
X-118910D01*
Y138195D01*
X-118510Y137795D01*
X-118910Y137395D01*
Y136995D01*
Y117310D02*
X-118510D01*
X-118110Y117710D01*
X-117710Y117310D01*
X-117310D01*
Y117710D01*
X-117710Y118110D01*
X-117310Y118510D01*
Y118910D01*
X-117710D01*
X-118110Y118510D01*
X-118510Y118910D01*
X-118910D01*
Y118510D01*
X-118510Y118110D01*
X-118910Y117710D01*
Y117310D01*
X-138595D02*
X-138195D01*
X-137795Y117710D01*
X-137395Y117310D01*
X-136995D01*
Y117710D01*
X-137395Y118110D01*
X-136995Y118510D01*
Y118910D01*
X-137395D01*
X-137795Y118510D01*
X-138195Y118910D01*
X-138595D01*
Y118510D01*
X-138195Y118110D01*
X-138595Y117710D01*
Y117310D01*
Y97625D02*
X-138195D01*
X-137795Y98025D01*
X-137395Y97625D01*
X-136995D01*
Y98025D01*
X-137395Y98425D01*
X-136995Y98825D01*
Y99225D01*
X-137395D01*
X-137795Y98825D01*
X-138195Y99225D01*
X-138595D01*
Y98825D01*
X-138195Y98425D01*
X-138595Y98025D01*
Y97625D01*
X-118910Y77940D02*
X-118510D01*
X-118110Y78340D01*
X-117710Y77940D01*
X-117310D01*
Y78340D01*
X-117710Y78740D01*
X-117310Y79140D01*
Y79540D01*
X-117710D01*
X-118110Y79140D01*
X-118510Y79540D01*
X-118910D01*
Y79140D01*
X-118510Y78740D01*
X-118910Y78340D01*
Y77940D01*
X-38300Y-56115D02*
X-37900D01*
X-37500Y-55715D01*
X-37100Y-56115D01*
X-36700D01*
Y-55715D01*
X-37100Y-55315D01*
X-36700Y-54915D01*
Y-54515D01*
X-37100D01*
X-37500Y-54915D01*
X-37900Y-54515D01*
X-38300D01*
Y-54915D01*
X-37900Y-55315D01*
X-38300Y-55715D01*
Y-56115D01*
X-42040Y-56016D02*
X-41640D01*
X-41240Y-55616D01*
X-40840Y-56016D01*
X-40440D01*
Y-55616D01*
X-40840Y-55216D01*
X-40440Y-54817D01*
Y-54417D01*
X-40840D01*
X-41240Y-54817D01*
X-41640Y-54417D01*
X-42040D01*
Y-54817D01*
X-41640Y-55216D01*
X-42040Y-55616D01*
Y-56016D01*
X-38556Y-42040D02*
X-38156D01*
X-37756Y-41640D01*
X-37356Y-42040D01*
X-36956D01*
Y-41640D01*
X-37356Y-41240D01*
X-36956Y-40840D01*
Y-40440D01*
X-37356D01*
X-37756Y-40840D01*
X-38156Y-40440D01*
X-38556D01*
Y-40840D01*
X-38156Y-41240D01*
X-38556Y-41640D01*
Y-42040D01*
X-22037Y-35967D02*
X-21637D01*
X-21237Y-35567D01*
X-20837Y-35967D01*
X-20437D01*
Y-35567D01*
X-20837Y-35167D01*
X-20437Y-34767D01*
Y-34367D01*
X-20837D01*
X-21237Y-34767D01*
X-21637Y-34367D01*
X-22037D01*
Y-34767D01*
X-21637Y-35167D01*
X-22037Y-35567D01*
Y-35967D01*
X-3950Y-7434D02*
X-3550D01*
X-3150Y-7034D01*
X-2750Y-7434D01*
X-2350D01*
Y-7034D01*
X-2750Y-6634D01*
X-2350Y-6234D01*
Y-5834D01*
X-2750D01*
X-3150Y-6234D01*
X-3550Y-5834D01*
X-3950D01*
Y-6234D01*
X-3550Y-6634D01*
X-3950Y-7034D01*
Y-7434D01*
X38570Y8255D02*
X38970D01*
X39370Y8655D01*
X39770Y8255D01*
X40170D01*
Y8655D01*
X39770Y9055D01*
X40170Y9455D01*
Y9855D01*
X39770D01*
X39370Y9455D01*
X38970Y9855D01*
X38570D01*
Y9455D01*
X38970Y9055D01*
X38570Y8655D01*
Y8255D01*
X21641D02*
X22041D01*
X22441Y8655D01*
X22841Y8255D01*
X23241D01*
Y8655D01*
X22841Y9055D01*
X23241Y9455D01*
Y9855D01*
X22841D01*
X22441Y9455D01*
X22041Y9855D01*
X21641D01*
Y9455D01*
X22041Y9055D01*
X21641Y8655D01*
Y8255D01*
X38570Y-1784D02*
X38970D01*
X39370Y-1384D01*
X39770Y-1784D01*
X40170D01*
Y-1384D01*
X39770Y-984D01*
X40170Y-584D01*
Y-184D01*
X39770D01*
X39370Y-584D01*
X38970Y-184D01*
X38570D01*
Y-584D01*
X38970Y-984D01*
X38570Y-1384D01*
Y-1784D01*
Y3137D02*
X38970D01*
X39370Y3537D01*
X39770Y3137D01*
X40170D01*
Y3537D01*
X39770Y3937D01*
X40170Y4337D01*
Y4737D01*
X39770D01*
X39370Y4337D01*
X38970Y4737D01*
X38570D01*
Y4337D01*
X38970Y3937D01*
X38570Y3537D01*
Y3137D01*
X5204Y18098D02*
X5604D01*
X6004Y18498D01*
X6404Y18098D01*
X6804D01*
Y18498D01*
X6404Y18898D01*
X6804Y19298D01*
Y19698D01*
X6404D01*
X6004Y19298D01*
X5604Y19698D01*
X5204D01*
Y19298D01*
X5604Y18898D01*
X5204Y18498D01*
Y18098D01*
X2054D02*
X2454D01*
X2854Y18498D01*
X3254Y18098D01*
X3654D01*
Y18498D01*
X3254Y18898D01*
X3654Y19298D01*
Y19698D01*
X3254D01*
X2854Y19298D01*
X2454Y19698D01*
X2054D01*
Y19298D01*
X2454Y18898D01*
X2054Y18498D01*
Y18098D01*
X8354D02*
X8754D01*
X9154Y18498D01*
X9554Y18098D01*
X9954D01*
Y18498D01*
X9554Y18898D01*
X9954Y19298D01*
Y19698D01*
X9554D01*
X9154Y19298D01*
X8754Y19698D01*
X8354D01*
Y19298D01*
X8754Y18898D01*
X8354Y18498D01*
Y18098D01*
X-93713Y-27965D02*
X-93313D01*
X-92913Y-27565D01*
X-92513Y-27965D01*
X-92113D01*
Y-27565D01*
X-92513Y-27165D01*
X-92113Y-26765D01*
Y-26365D01*
X-92513D01*
X-92913Y-26765D01*
X-93313Y-26365D01*
X-93713D01*
Y-26765D01*
X-93313Y-27165D01*
X-93713Y-27565D01*
Y-27965D01*
X-30268Y-23300D02*
X-29869D01*
X-29469Y-22900D01*
X-29068Y-23300D01*
X-28668D01*
Y-22900D01*
X-29068Y-22500D01*
X-28668Y-22100D01*
Y-21700D01*
X-29068D01*
X-29469Y-22100D01*
X-29869Y-21700D01*
X-30268D01*
Y-22100D01*
X-29869Y-22500D01*
X-30268Y-22900D01*
Y-23300D01*
X-98142Y-47946D02*
X-97742D01*
X-97342Y-47546D01*
X-96943Y-47946D01*
X-96543D01*
Y-47546D01*
X-96943Y-47146D01*
X-96543Y-46746D01*
Y-46346D01*
X-96943D01*
X-97342Y-46746D01*
X-97742Y-46346D01*
X-98142D01*
Y-46746D01*
X-97742Y-47146D01*
X-98142Y-47546D01*
Y-47946D01*
Y-42040D02*
X-97742D01*
X-97342Y-41640D01*
X-96943Y-42040D01*
X-96543D01*
Y-41640D01*
X-96943Y-41240D01*
X-96543Y-40840D01*
Y-40440D01*
X-96943D01*
X-97342Y-40840D01*
X-97742Y-40440D01*
X-98142D01*
Y-40840D01*
X-97742Y-41240D01*
X-98142Y-41640D01*
Y-42040D01*
X7960Y-54048D02*
X8360D01*
X8760Y-53648D01*
X9160Y-54048D01*
X9560D01*
Y-53648D01*
X9160Y-53248D01*
X9560Y-52848D01*
Y-52448D01*
X9160D01*
X8760Y-52848D01*
X8360Y-52448D01*
X7960D01*
Y-52848D01*
X8360Y-53248D01*
X7960Y-53648D01*
Y-54048D01*
X-30328Y-28359D02*
X-29928D01*
X-29528Y-27959D01*
X-29128Y-28359D01*
X-28728D01*
Y-27959D01*
X-29128Y-27559D01*
X-28728Y-27159D01*
Y-26759D01*
X-29128D01*
X-29528Y-27159D01*
X-29928Y-26759D01*
X-30328D01*
Y-27159D01*
X-29928Y-27559D01*
X-30328Y-27959D01*
Y-28359D01*
X5204Y21739D02*
X5604D01*
X6004Y22139D01*
X6404Y21739D01*
X6804D01*
Y22139D01*
X6404Y22539D01*
X6804Y22939D01*
Y23339D01*
X6404D01*
X6004Y22939D01*
X5604Y23339D01*
X5204D01*
Y22939D01*
X5604Y22539D01*
X5204Y22139D01*
Y21739D01*
X8354D02*
X8754D01*
X9154Y22139D01*
X9554Y21739D01*
X9954D01*
Y22139D01*
X9554Y22539D01*
X9954Y22939D01*
Y23339D01*
X9554D01*
X9154Y22939D01*
X8754Y23339D01*
X8354D01*
Y22939D01*
X8754Y22539D01*
X8354Y22139D01*
Y21739D01*
X2054D02*
X2454D01*
X2854Y22139D01*
X3254Y21739D01*
X3654D01*
Y22139D01*
X3254Y22539D01*
X3654Y22939D01*
Y23339D01*
X3254D01*
X2854Y22939D01*
X2454Y23339D01*
X2054D01*
Y22939D01*
X2454Y22539D01*
X2054Y22139D01*
Y21739D01*
X-72335Y-23536D02*
X-71935D01*
X-71535Y-23136D01*
X-71135Y-23536D01*
X-70735D01*
Y-23136D01*
X-71135Y-22736D01*
X-70735Y-22336D01*
Y-21936D01*
X-71135D01*
X-71535Y-22336D01*
X-71935Y-21936D01*
X-72335D01*
Y-22336D01*
X-71935Y-22736D01*
X-72335Y-23136D01*
Y-23536D01*
X-67335D02*
X-66935D01*
X-66535Y-23136D01*
X-66135Y-23536D01*
X-65735D01*
Y-23136D01*
X-66135Y-22736D01*
X-65735Y-22336D01*
Y-21936D01*
X-66135D01*
X-66535Y-22336D01*
X-66935Y-21936D01*
X-67335D01*
Y-22336D01*
X-66935Y-22736D01*
X-67335Y-23136D01*
Y-23536D01*
X40716Y90440D02*
X41116D01*
X41516Y90840D01*
X41916Y90440D01*
X42316D01*
Y90840D01*
X41916Y91240D01*
X42316Y91640D01*
Y92040D01*
X41916D01*
X41516Y91640D01*
X41116Y92040D01*
X40716D01*
Y91640D01*
X41116Y91240D01*
X40716Y90840D01*
Y90440D01*
X13964Y104318D02*
X14364D01*
X14764Y104718D01*
X15164Y104318D01*
X15564D01*
Y104718D01*
X15164Y105118D01*
X15564Y105518D01*
Y105918D01*
X15164D01*
X14764Y105518D01*
X14364Y105918D01*
X13964D01*
Y105518D01*
X14364Y105118D01*
X13964Y104718D01*
Y104318D01*
X39161D02*
X39561D01*
X39961Y104718D01*
X40361Y104318D01*
X40761D01*
Y104718D01*
X40361Y105118D01*
X40761Y105518D01*
Y105918D01*
X40361D01*
X39961Y105518D01*
X39561Y105918D01*
X39161D01*
Y105518D01*
X39561Y105118D01*
X39161Y104718D01*
Y104318D01*
X36011D02*
X36411D01*
X36811Y104718D01*
X37211Y104318D01*
X37611D01*
Y104718D01*
X37211Y105118D01*
X37611Y105518D01*
Y105918D01*
X37211D01*
X36811Y105518D01*
X36411Y105918D01*
X36011D01*
Y105518D01*
X36411Y105118D01*
X36011Y104718D01*
Y104318D01*
X9830Y48216D02*
X10230D01*
X10630Y48616D01*
X11030Y48216D01*
X11430D01*
Y48616D01*
X11030Y49016D01*
X11430Y49416D01*
Y49816D01*
X11030D01*
X10630Y49416D01*
X10230Y49816D01*
X9830D01*
Y49416D01*
X10230Y49016D01*
X9830Y48616D01*
Y48216D01*
X13472Y44574D02*
X13872D01*
X14272Y44974D01*
X14672Y44574D01*
X15072D01*
Y44974D01*
X14672Y45374D01*
X15072Y45774D01*
Y46174D01*
X14672D01*
X14272Y45774D01*
X13872Y46174D01*
X13472D01*
Y45774D01*
X13872Y45374D01*
X13472Y44974D01*
Y44574D01*
X2054Y35125D02*
X2454D01*
X2854Y35525D01*
X3254Y35125D01*
X3654D01*
Y35525D01*
X3254Y35925D01*
X3654Y36325D01*
Y36725D01*
X3254D01*
X2854Y36325D01*
X2454Y36725D01*
X2054D01*
Y36325D01*
X2454Y35925D01*
X2054Y35525D01*
Y35125D01*
X-56016Y64161D02*
X-55616D01*
X-55216Y64561D01*
X-54817Y64161D01*
X-54417D01*
Y64561D01*
X-54817Y64961D01*
X-54417Y65361D01*
Y65761D01*
X-54817D01*
X-55216Y65361D01*
X-55616Y65761D01*
X-56016D01*
Y65361D01*
X-55616Y64961D01*
X-56016Y64561D01*
Y64161D01*
X4220Y-53950D02*
X4620D01*
X5020Y-53550D01*
X5420Y-53950D01*
X5820D01*
Y-53550D01*
X5420Y-53150D01*
X5820Y-52750D01*
Y-52350D01*
X5420D01*
X5020Y-52750D01*
X4620Y-52350D01*
X4220D01*
Y-52750D01*
X4620Y-53150D01*
X4220Y-53550D01*
Y-53950D01*
X-16843Y11700D02*
X-16443D01*
X-16043Y12100D01*
X-15643Y11700D01*
X-15243D01*
Y12100D01*
X-15643Y12500D01*
X-15243Y12900D01*
Y13300D01*
X-15643D01*
X-16043Y12900D01*
X-16443Y13300D01*
X-16843D01*
Y12900D01*
X-16443Y12500D01*
X-16843Y12100D01*
Y11700D01*
X-88398Y-58871D02*
X-87998D01*
X-87598Y-58471D01*
X-87198Y-58871D01*
X-86798D01*
Y-58471D01*
X-87198Y-58071D01*
X-86798Y-57671D01*
Y-57271D01*
X-87198D01*
X-87598Y-57671D01*
X-87998Y-57271D01*
X-88398D01*
Y-57671D01*
X-87998Y-58071D01*
X-88398Y-58471D01*
Y-58871D01*
D83*
X-18137Y-103839D02*
G03*
X-18137Y-103839I-800J0D01*
G01*
X-9161D02*
G03*
X-9161Y-103839I-800J0D01*
G01*
X-184D02*
G03*
X-184Y-103839I-800J0D01*
G01*
X8792D02*
G03*
X8792Y-103839I-800J0D01*
G01*
X17768D02*
G03*
X17768Y-103839I-800J0D01*
G01*
X-13649Y-93839D02*
G03*
X-13649Y-93839I-800J0D01*
G01*
X-4672D02*
G03*
X-4672Y-93839I-800J0D01*
G01*
X4304D02*
G03*
X4304Y-93839I-800J0D01*
G01*
X13280D02*
G03*
X13280Y-93839I-800J0D01*
G01*
X22257D02*
G03*
X22257Y-93839I-800J0D01*
G01*
X-18137Y-83839D02*
G03*
X-18137Y-83839I-800J0D01*
G01*
X-9161D02*
G03*
X-9161Y-83839I-800J0D01*
G01*
X-184D02*
G03*
X-184Y-83839I-800J0D01*
G01*
X8792D02*
G03*
X8792Y-83839I-800J0D01*
G01*
X17768D02*
G03*
X17768Y-83839I-800J0D01*
G01*
M02*
