G04*
G04 #@! TF.GenerationSoftware,Altium Limited,Altium Designer,22.2.1 (43)*
G04*
G04 Layer_Color=16711935*
%FSLAX25Y25*%
%MOIN*%
G70*
G04*
G04 #@! TF.SameCoordinates,9388D860-640C-4D59-96FC-9271E4276608*
G04*
G04*
G04 #@! TF.FilePolarity,Positive*
G04*
G01*
G75*
%ADD10C,0.00787*%
%ADD16C,0.01000*%
D10*
X183111Y101335D02*
G03*
X175592Y120076I-27116J-0D01*
G01*
X140815Y85300D02*
G03*
X122299Y39068I48458J-46232D01*
G01*
X122300Y-39005D02*
G03*
X140816Y-85237I66974J0D01*
G01*
X175592Y-120013D02*
G03*
X183111Y-101272I-19597J18741D01*
G01*
X-183308D02*
G03*
X-175789Y-120013I27116J0D01*
G01*
X-141013Y-85237D02*
G03*
X-122497Y-39005I-48458J46232D01*
G01*
X-122496Y39068D02*
G03*
X-141012Y85300I-66974J0D01*
G01*
X-175789Y120076D02*
G03*
X-183308Y101335I19597J-18741D01*
G01*
X-84309Y157382D02*
G03*
X-38164Y138866I46145J48243D01*
G01*
X-139702Y212775D02*
G03*
X-233575Y152971I-40307J-40307D01*
G01*
X-217014Y80176D02*
G03*
X-233575Y152972I-168275J0D01*
G01*
X-233575Y-152972D02*
G03*
X-217014Y-80176I-151715J72796D01*
G01*
X-233575Y-152971D02*
G03*
X-139702Y-212775I53565J-19496D01*
G01*
X-38164Y-138866D02*
G03*
X-84309Y-157382I0J-66759D01*
G01*
X84112D02*
G03*
X37967Y-138866I-46145J-48243D01*
G01*
X139505Y-212775D02*
G03*
X233378Y-152971I40307J40307D01*
G01*
X216817Y-80176D02*
G03*
X233378Y-152972I168275J0D01*
G01*
X233378Y152972D02*
G03*
X216817Y80176I151715J-72796D01*
G01*
X233378Y152971D02*
G03*
X139505Y212775I-53565J19496D01*
G01*
X37967Y138866D02*
G03*
X84112Y157382I0J66759D01*
G01*
X140815Y85300D02*
X175592Y120076D01*
X140816Y-85237D02*
X175592Y-120013D01*
X183111Y-101334D02*
Y101335D01*
X122299Y-39091D02*
Y39068D01*
X-122496Y-39091D02*
Y39068D01*
X-183308Y-101334D02*
Y101335D01*
X-175789Y-120013D02*
X-141013Y-85237D01*
X-175789Y120076D02*
X-141012Y85300D01*
X-139702Y212775D02*
X-84309Y157382D01*
X-217014Y-80176D02*
Y80176D01*
X-139702Y-212775D02*
X-84309Y-157382D01*
X-38164Y-138866D02*
X37967D01*
X84112Y-157382D02*
X139505Y-212775D01*
X216817Y-80176D02*
Y80176D01*
X84112Y157382D02*
X139505Y212775D01*
X-38164Y138866D02*
X37967D01*
D16*
X204636Y-196850D02*
G03*
X204636Y-196850I-7884J0D01*
G01*
X106201Y-98425D02*
G03*
X106201Y-98425I-7874J0D01*
G01*
X-90650D02*
G03*
X-90650Y-98425I-7874J0D01*
G01*
X-189037Y-196850D02*
G03*
X-189037Y-196850I-7912J0D01*
G01*
X-189075Y196850D02*
G03*
X-189075Y196850I-7874J0D01*
G01*
X204626D02*
G03*
X204626Y196850I-7874J0D01*
G01*
X-90650Y98425D02*
G03*
X-90650Y98425I-7874J0D01*
G01*
X106239D02*
G03*
X106239Y98425I-7912J0D01*
G01*
M02*
