G04*
G04 #@! TF.GenerationSoftware,Altium Limited,Altium Designer,22.2.1 (43)*
G04*
G04 Layer_Color=128*
%FSLAX25Y25*%
%MOIN*%
G70*
G04*
G04 #@! TF.SameCoordinates,9388D860-640C-4D59-96FC-9271E4276608*
G04*
G04*
G04 #@! TF.FilePolarity,Positive*
G04*
G01*
G75*
%ADD82C,0.00200*%
D82*
X86260Y0D02*
X90591D01*
X88425Y-2165D02*
Y2165D01*
X106260Y0D02*
X110591D01*
X108425Y-2165D02*
Y2165D01*
X96260Y0D02*
X100591D01*
X98425Y-2165D02*
Y2165D01*
X96260Y-59252D02*
X100591D01*
X98425Y-61417D02*
Y-57087D01*
X106260Y-59252D02*
X110591D01*
X108425Y-61417D02*
Y-57087D01*
X86260Y-59252D02*
X90591D01*
X88425Y-61417D02*
Y-57087D01*
X96260Y-29626D02*
X100591D01*
X98425Y-31791D02*
Y-27461D01*
X106260Y-29626D02*
X110591D01*
X108425Y-31791D02*
Y-27461D01*
X86260Y-29626D02*
X90591D01*
X88425Y-31791D02*
Y-27461D01*
X-20906Y-103839D02*
X-16969D01*
X-18937Y-105807D02*
Y-101870D01*
X-11929Y-103839D02*
X-7992D01*
X-9961Y-105807D02*
Y-101870D01*
X-2953Y-103839D02*
X984D01*
X-984Y-105807D02*
Y-101870D01*
X6024Y-103839D02*
X9961D01*
X7992Y-105807D02*
Y-101870D01*
X15000Y-103839D02*
X18937D01*
X16969Y-105807D02*
Y-101870D01*
X-16417Y-93839D02*
X-12480D01*
X-14449Y-95807D02*
Y-91870D01*
X-7441Y-93839D02*
X-3504D01*
X-5472Y-95807D02*
Y-91870D01*
X1535Y-93839D02*
X5472D01*
X3504Y-95807D02*
Y-91870D01*
X10512Y-93839D02*
X14449D01*
X12480Y-95807D02*
Y-91870D01*
X19488Y-93839D02*
X23425D01*
X21457Y-95807D02*
Y-91870D01*
X42913Y-93839D02*
X55512D01*
X49213Y-100138D02*
Y-87539D01*
X-55472Y-93839D02*
X-42874D01*
X-49173Y-100138D02*
Y-87539D01*
X-20906Y-83839D02*
X-16969D01*
X-18937Y-85807D02*
Y-81870D01*
X-11929Y-83839D02*
X-7992D01*
X-9961Y-85807D02*
Y-81870D01*
X-2953Y-83839D02*
X984D01*
X-984Y-85807D02*
Y-81870D01*
X6024Y-83839D02*
X9961D01*
X7992Y-85807D02*
Y-81870D01*
X15000Y-83839D02*
X18937D01*
X16969Y-85807D02*
Y-81870D01*
X43189Y127953D02*
X45551D01*
X44370Y126772D02*
Y129134D01*
X9173Y127953D02*
X11535D01*
X10354Y126772D02*
Y129134D01*
X43189Y111496D02*
X45551D01*
X44370Y110315D02*
Y112677D01*
X9173Y111496D02*
X11535D01*
X10354Y110315D02*
Y112677D01*
X14803Y113465D02*
X17165D01*
X15984Y112284D02*
Y114646D01*
X37559Y113465D02*
X39921D01*
X38740Y112284D02*
Y114646D01*
X14173Y101575D02*
X15354D01*
X14764Y100984D02*
Y102165D01*
X-113386Y-65433D02*
X-112205D01*
X-112795Y-66024D02*
Y-64842D01*
X-109272Y-65433D02*
X-108090D01*
X-108681Y-66024D02*
Y-64842D01*
X-117500Y-65433D02*
X-116319D01*
X-116909Y-66024D02*
Y-64842D01*
X-109272Y-52874D02*
X-108091D01*
X-108681Y-53465D02*
Y-52284D01*
X-117500Y-52874D02*
X-116319D01*
X-116910Y-53465D02*
Y-52284D01*
X-113386Y-52874D02*
X-112205D01*
X-112795Y-53465D02*
Y-52284D01*
X59648Y40488D02*
X60830D01*
X60239Y39898D02*
Y41079D01*
X50386Y40551D02*
X51567D01*
X50976Y39961D02*
Y41142D01*
X59563Y52658D02*
X60744D01*
X60154Y52067D02*
Y53248D01*
X50386Y52658D02*
X51567D01*
X50976Y52067D02*
Y53248D01*
X56504Y52658D02*
X57685D01*
X57095Y52067D02*
Y53248D01*
X53445Y52658D02*
X54626D01*
X54035Y52067D02*
Y53248D01*
X56589Y40488D02*
X57770D01*
X57180Y39898D02*
Y41079D01*
X53445Y40551D02*
X54626D01*
X54035Y39961D02*
Y41142D01*
X-28051Y68110D02*
X-26870D01*
X-27461Y67520D02*
Y68701D01*
X-98963Y-53124D02*
X-97781D01*
X-98372Y-53715D02*
Y-52534D01*
X-103077Y-53124D02*
X-101896D01*
X-102486Y-53715D02*
Y-52534D01*
X-94848Y-53124D02*
X-93667D01*
X-94258Y-53715D02*
Y-52534D01*
X-103077Y-65683D02*
X-101896D01*
X-102486Y-66274D02*
Y-65092D01*
X-94848Y-65683D02*
X-93667D01*
X-94258Y-66274D02*
Y-65092D01*
X-98963Y-65683D02*
X-97781D01*
X-98372Y-66274D02*
Y-65092D01*
X20177Y43406D02*
X21358D01*
X20768Y42815D02*
Y43996D01*
X-52165Y64961D02*
X-50984D01*
X-51575Y64370D02*
Y65551D01*
X-43117Y64961D02*
X-41936D01*
X-42527Y64370D02*
Y65551D01*
X-32776Y64567D02*
X-31594D01*
X-32185Y63976D02*
Y65158D01*
X11122Y101575D02*
X12303D01*
X11713Y100984D02*
Y102165D01*
X17224Y101575D02*
X18406D01*
X17815Y100984D02*
Y102165D01*
X-88189Y-65945D02*
X-87008D01*
X-87598Y-66535D02*
Y-65354D01*
X77264Y-13071D02*
X78445D01*
X77854Y-13661D02*
Y-12480D01*
X-17004Y125547D02*
X-15823D01*
X-16413Y124957D02*
Y126138D01*
X77264Y-72224D02*
X78445D01*
X77854Y-72815D02*
Y-71634D01*
X-11273Y82362D02*
X-10092D01*
X-10683Y81772D02*
Y82953D01*
X77480Y17913D02*
X78661D01*
X78071Y17323D02*
Y18504D01*
X87369Y13799D02*
X88550D01*
X87959Y13209D02*
Y14390D01*
X-88189Y-54134D02*
X-87008D01*
X-87598Y-54724D02*
Y-53543D01*
X-24011Y82362D02*
X-22830D01*
X-23420Y81772D02*
Y82953D01*
X-25665Y125547D02*
X-24484D01*
X-25075Y124957D02*
Y126138D01*
X-43117Y82362D02*
X-41936D01*
X-42527Y81772D02*
Y82953D01*
X73150Y8957D02*
X74331D01*
X73740Y8366D02*
Y9547D01*
X40925Y85138D02*
X42106D01*
X41516Y84547D02*
Y85728D01*
X-49486Y82362D02*
X-48305D01*
X-48895Y81772D02*
Y82953D01*
X-73347Y41240D02*
X-72165D01*
X-72756Y40650D02*
Y41831D01*
X81988Y64764D02*
X83169D01*
X82579Y64173D02*
Y65354D01*
X20177Y50689D02*
X21358D01*
X20768Y50098D02*
Y51279D01*
X85630Y64764D02*
X86811D01*
X86221Y64173D02*
Y65354D01*
X-78347Y41240D02*
X-77165D01*
X-77756Y40650D02*
Y41831D01*
X8563Y35925D02*
X9744D01*
X9154Y35335D02*
Y36516D01*
X-17642Y82362D02*
X-16461D01*
X-17052Y81772D02*
Y82953D01*
X-36748Y82362D02*
X-35567D01*
X-36158Y81772D02*
Y82953D01*
X-88189Y-62008D02*
X-87008D01*
X-87598Y-62598D02*
Y-61417D01*
X73150Y-2953D02*
X74331D01*
X73740Y-3543D02*
Y-2362D01*
X81378Y-32382D02*
X82559D01*
X81968Y-32972D02*
Y-31791D01*
X81378Y-62008D02*
X82559D01*
X81968Y-62598D02*
Y-61417D01*
X81378Y-20571D02*
X82559D01*
X81968Y-21161D02*
Y-19980D01*
X93143Y13799D02*
X94324D01*
X93734Y13209D02*
Y14390D01*
X-67618Y23819D02*
X-66437D01*
X-67028Y23228D02*
Y24409D01*
X-36024Y27559D02*
X-34843D01*
X-35433Y26969D02*
Y28150D01*
X72047Y61039D02*
X73228D01*
X72638Y60449D02*
Y61630D01*
X64173Y76279D02*
X65354D01*
X64764Y75689D02*
Y76870D01*
X73425Y40059D02*
X74606D01*
X74016Y39469D02*
Y40650D01*
X73425Y43012D02*
X74606D01*
X74016Y42421D02*
Y43602D01*
X96535Y31102D02*
X97716D01*
X97126Y30512D02*
Y31693D01*
X77264Y-46083D02*
X78445D01*
X77854Y-46673D02*
Y-45492D01*
X-17642Y68075D02*
X-16461D01*
X-17051Y67484D02*
Y68665D01*
X-28051Y64665D02*
X-26870D01*
X-27461Y64075D02*
Y65256D01*
X-36811Y68012D02*
X-35630D01*
X-36220Y67421D02*
Y68602D01*
X-33346Y43130D02*
X-32165D01*
X-32756Y42539D02*
Y43720D01*
X-8018Y84449D02*
X-6837D01*
X-7428Y83858D02*
Y85039D01*
X-14387Y84449D02*
X-13206D01*
X-13797Y83858D02*
Y85039D01*
X-20756Y84449D02*
X-19575D01*
X-20165Y83858D02*
Y85039D01*
X-33493Y84449D02*
X-32312D01*
X-32903Y83858D02*
Y85039D01*
X-39764Y84449D02*
X-38583D01*
X-39173Y83858D02*
Y85039D01*
X-8350Y114583D02*
X-7169D01*
X-7760Y113992D02*
Y115173D01*
X-12681Y114583D02*
X-11500D01*
X-12091Y113992D02*
Y115173D01*
X-21342Y114583D02*
X-20161D01*
X-20752Y113992D02*
Y115173D01*
X-30004Y114583D02*
X-28823D01*
X-29413Y113992D02*
Y115173D01*
X-34335Y114583D02*
X-33154D01*
X-33744Y113992D02*
Y115173D01*
X-77362Y-70157D02*
X-76181D01*
X-76772Y-70748D02*
Y-69567D01*
X13189Y81083D02*
X14370D01*
X13780Y80492D02*
Y81673D01*
X9075Y81083D02*
X10256D01*
X9665Y80492D02*
Y81673D01*
X17303Y81083D02*
X18484D01*
X17894Y80492D02*
Y81673D01*
X9075Y68524D02*
X10256D01*
X9665Y67933D02*
Y69114D01*
X17303Y68524D02*
X18484D01*
X17894Y67933D02*
Y69114D01*
X13189Y68524D02*
X14370D01*
X13780Y67933D02*
Y69114D01*
X49409Y107402D02*
X50591D01*
X50000Y106811D02*
Y107992D01*
X4134Y107402D02*
X5315D01*
X4724Y106811D02*
Y107992D01*
X117520Y0D02*
X118701D01*
X118110Y-591D02*
Y591D01*
X117520Y-19685D02*
X118701D01*
X118110Y-20276D02*
Y-19094D01*
X117520Y-39370D02*
X118701D01*
X118110Y-39961D02*
Y-38780D01*
X117520Y-59055D02*
X118701D01*
X118110Y-59646D02*
Y-58465D01*
X117520Y-78740D02*
X118701D01*
X118110Y-79331D02*
Y-78150D01*
X97835Y-157480D02*
X99016D01*
X98425Y-158071D02*
Y-156890D01*
X-99016Y-157480D02*
X-97835D01*
X-98425Y-158071D02*
Y-156890D01*
X-99016Y59055D02*
X-97835D01*
X-98425Y58465D02*
Y59646D01*
X-118701Y59055D02*
X-117520D01*
X-118110Y58465D02*
Y59646D01*
X-59646Y137795D02*
X-58465D01*
X-59055Y137205D02*
Y138386D01*
X-79331Y137795D02*
X-78150D01*
X-78740Y137205D02*
Y138386D01*
X-79331Y118110D02*
X-78150D01*
X-78740Y117520D02*
Y118701D01*
X-99016Y157480D02*
X-97835D01*
X-98425Y156890D02*
Y158071D01*
X-99016Y137795D02*
X-97835D01*
X-98425Y137205D02*
Y138386D01*
X117520Y59055D02*
X118701D01*
X118110Y58465D02*
Y59646D01*
X117520Y78740D02*
X118701D01*
X118110Y78150D02*
Y79331D01*
X58465Y137795D02*
X59646D01*
X59055Y137205D02*
Y138386D01*
X78150Y137795D02*
X79331D01*
X78740Y137205D02*
Y138386D01*
X78150Y118110D02*
X79331D01*
X78740Y117520D02*
Y118701D01*
X137205Y98425D02*
X138386D01*
X137795Y97835D02*
Y99016D01*
X156890Y118110D02*
X158071D01*
X157480Y117520D02*
Y118701D01*
X137205Y118110D02*
X138386D01*
X137795Y117520D02*
Y118701D01*
X117520Y118110D02*
X118701D01*
X118110Y117520D02*
Y118701D01*
X97835Y137795D02*
X99016D01*
X98425Y137205D02*
Y138386D01*
X97835Y157480D02*
X99016D01*
X98425Y156890D02*
Y158071D01*
X117520Y137795D02*
X118701D01*
X118110Y137205D02*
Y138386D01*
X137205Y137795D02*
X138386D01*
X137795Y137205D02*
Y138386D01*
X156890Y137795D02*
X158071D01*
X157480Y137205D02*
Y138386D01*
X176575Y137795D02*
X177756D01*
X177165Y137205D02*
Y138386D01*
X176575Y157480D02*
X177756D01*
X177165Y156890D02*
Y158071D01*
X156890Y157480D02*
X158071D01*
X157480Y156890D02*
Y158071D01*
X137205Y157480D02*
X138386D01*
X137795Y156890D02*
Y158071D01*
X117520Y157480D02*
X118701D01*
X118110Y156890D02*
Y158071D01*
X117520Y177165D02*
X118701D01*
X118110Y176575D02*
Y177756D01*
X137205Y177165D02*
X138386D01*
X137795Y176575D02*
Y177756D01*
X137205Y196850D02*
X138386D01*
X137795Y196260D02*
Y197441D01*
X156890Y177165D02*
X158071D01*
X157480Y176575D02*
Y177756D01*
X156890Y196850D02*
X158071D01*
X157480Y196260D02*
Y197441D01*
X156890Y216535D02*
X158071D01*
X157480Y215945D02*
Y217126D01*
X176575Y216535D02*
X177756D01*
X177165Y215945D02*
Y217126D01*
X176575Y177165D02*
X177756D01*
X177165Y176575D02*
Y177756D01*
X215945Y177165D02*
X217126D01*
X216535Y176575D02*
Y177756D01*
X215945Y157480D02*
X217126D01*
X216535Y156890D02*
Y158071D01*
X196260Y157480D02*
X197441D01*
X196850Y156890D02*
Y158071D01*
X215945Y137795D02*
X217126D01*
X216535Y137205D02*
Y138386D01*
X196260Y137795D02*
X197441D01*
X196850Y137205D02*
Y138386D01*
X196260Y118110D02*
X197441D01*
X196850Y117520D02*
Y118701D01*
X196260Y98425D02*
X197441D01*
X196850Y97835D02*
Y99016D01*
X196260Y78740D02*
X197441D01*
X196850Y78150D02*
Y79331D01*
X196260Y59055D02*
X197441D01*
X196850Y58465D02*
Y59646D01*
X196260Y39370D02*
X197441D01*
X196850Y38780D02*
Y39961D01*
X196260Y19685D02*
X197441D01*
X196850Y19094D02*
Y20276D01*
X196260Y0D02*
X197441D01*
X196850Y-591D02*
Y591D01*
X196260Y-19685D02*
X197441D01*
X196850Y-20276D02*
Y-19094D01*
X196260Y-39370D02*
X197441D01*
X196850Y-39961D02*
Y-38780D01*
X196260Y-59055D02*
X197441D01*
X196850Y-59646D02*
Y-58465D01*
X196260Y-78740D02*
X197441D01*
X196850Y-79331D02*
Y-78150D01*
X196260Y-98425D02*
X197441D01*
X196850Y-99016D02*
Y-97835D01*
X215945Y-118110D02*
X217126D01*
X216535Y-118701D02*
Y-117520D01*
X196913Y-120920D02*
X198094D01*
X197503Y-121511D02*
Y-120330D01*
X215945Y-157480D02*
X217126D01*
X216535Y-158071D02*
Y-156890D01*
X215945Y-137795D02*
X217126D01*
X216535Y-138386D02*
Y-137205D01*
X196260Y-137795D02*
X197441D01*
X196850Y-138386D02*
Y-137205D01*
X176575Y-137795D02*
X177756D01*
X177165Y-138386D02*
Y-137205D01*
X176575Y-157480D02*
X177756D01*
X177165Y-158071D02*
Y-156890D01*
X196260Y-157480D02*
X197441D01*
X196850Y-158071D02*
Y-156890D01*
X215945Y-177165D02*
X217126D01*
X216535Y-177756D02*
Y-176575D01*
X176575Y-177165D02*
X177756D01*
X177165Y-177756D02*
Y-176575D01*
X176575Y-216535D02*
X177756D01*
X177165Y-217126D02*
Y-215945D01*
X156890Y-216535D02*
X158071D01*
X157480Y-217126D02*
Y-215945D01*
X156890Y-196850D02*
X158071D01*
X157480Y-197441D02*
Y-196260D01*
X137205Y-196850D02*
X138386D01*
X137795Y-197441D02*
Y-196260D01*
X156890Y-177165D02*
X158071D01*
X157480Y-177756D02*
Y-176575D01*
X156890Y-118110D02*
X158071D01*
X157480Y-118701D02*
Y-117520D01*
X156890Y-137795D02*
X158071D01*
X157480Y-138386D02*
Y-137205D01*
X156890Y-157480D02*
X158071D01*
X157480Y-158071D02*
Y-156890D01*
X137205Y-177165D02*
X138386D01*
X137795Y-177756D02*
Y-176575D01*
X117520Y-177165D02*
X118701D01*
X118110Y-177756D02*
Y-176575D01*
X137205Y-157480D02*
X138386D01*
X137795Y-158071D02*
Y-156890D01*
X117520Y-157480D02*
X118701D01*
X118110Y-158071D02*
Y-156890D01*
X137205Y-137795D02*
X138386D01*
X137795Y-138386D02*
Y-137205D01*
X137205Y-118110D02*
X138386D01*
X137795Y-118701D02*
Y-117520D01*
X137205Y-98425D02*
X138386D01*
X137795Y-99016D02*
Y-97835D01*
X117520Y-137795D02*
X118701D01*
X118110Y-138386D02*
Y-137205D01*
X97835Y-137795D02*
X99016D01*
X98425Y-138386D02*
Y-137205D01*
X78150Y-137795D02*
X79331D01*
X78740Y-138386D02*
Y-137205D01*
X117520Y-118110D02*
X118701D01*
X118110Y-118701D02*
Y-117520D01*
X78150Y-118110D02*
X79331D01*
X78740Y-118701D02*
Y-117520D01*
X58465Y-118110D02*
X59646D01*
X59055Y-118701D02*
Y-117520D01*
X38780Y-118110D02*
X39961D01*
X39370Y-118701D02*
Y-117520D01*
X19094Y-118110D02*
X20276D01*
X19685Y-118701D02*
Y-117520D01*
X-591Y-118110D02*
X591D01*
X0Y-118701D02*
Y-117520D01*
X-39961Y-98425D02*
X-38780D01*
X-39370Y-99016D02*
Y-97835D01*
X-20276Y-118110D02*
X-19094D01*
X-19685Y-118701D02*
Y-117520D01*
X-39961Y-118110D02*
X-38780D01*
X-39370Y-118701D02*
Y-117520D01*
X-59646Y-78740D02*
X-58465D01*
X-59055Y-79331D02*
Y-78150D01*
X-59646Y-98425D02*
X-58465D01*
X-59055Y-99016D02*
Y-97835D01*
X-59646Y-118110D02*
X-58465D01*
X-59055Y-118701D02*
Y-117520D01*
X-59646Y-137795D02*
X-58465D01*
X-59055Y-138386D02*
Y-137205D01*
X-79331Y-137795D02*
X-78150D01*
X-78740Y-138386D02*
Y-137205D01*
X-99016Y-137795D02*
X-97835D01*
X-98425Y-138386D02*
Y-137205D01*
X-79331Y-118110D02*
X-78150D01*
X-78740Y-118701D02*
Y-117520D01*
X-79331Y-78740D02*
X-78150D01*
X-78740Y-79331D02*
Y-78150D01*
X-118701Y-78740D02*
X-117520D01*
X-118110Y-79331D02*
Y-78150D01*
X-138386Y-98425D02*
X-137205D01*
X-137795Y-99016D02*
Y-97835D01*
X-118701Y-118110D02*
X-117520D01*
X-118110Y-118701D02*
Y-117520D01*
X-118701Y-137795D02*
X-117520D01*
X-118110Y-138386D02*
Y-137205D01*
X-118701Y-157480D02*
X-117520D01*
X-118110Y-158071D02*
Y-156890D01*
X-118701Y-177165D02*
X-117520D01*
X-118110Y-177756D02*
Y-176575D01*
X-138386Y-196850D02*
X-137205D01*
X-137795Y-197441D02*
Y-196260D01*
X-138386Y-177165D02*
X-137205D01*
X-137795Y-177756D02*
Y-176575D01*
X-138386Y-157480D02*
X-137205D01*
X-137795Y-158071D02*
Y-156890D01*
X-138386Y-137795D02*
X-137205D01*
X-137795Y-138386D02*
Y-137205D01*
X-138386Y-118110D02*
X-137205D01*
X-137795Y-118701D02*
Y-117520D01*
X-158071Y-118110D02*
X-156890D01*
X-157480Y-118701D02*
Y-117520D01*
X-158071Y-137795D02*
X-156890D01*
X-157480Y-138386D02*
Y-137205D01*
X-158071Y-157480D02*
X-156890D01*
X-157480Y-158071D02*
Y-156890D01*
X-158071Y-177165D02*
X-156890D01*
X-157480Y-177756D02*
Y-176575D01*
X-158071Y-196850D02*
X-156890D01*
X-157480Y-197441D02*
Y-196260D01*
X-158071Y-216535D02*
X-156890D01*
X-157480Y-217126D02*
Y-215945D01*
X-177756Y-216535D02*
X-176575D01*
X-177165Y-217126D02*
Y-215945D01*
X-177756Y-177165D02*
X-176575D01*
X-177165Y-177756D02*
Y-176575D01*
X-177756Y-137795D02*
X-176575D01*
X-177165Y-138386D02*
Y-137205D01*
X-177756Y-157480D02*
X-176575D01*
X-177165Y-158071D02*
Y-156890D01*
X-217126Y-177165D02*
X-215945D01*
X-216535Y-177756D02*
Y-176575D01*
X-197441Y-157480D02*
X-196260D01*
X-196850Y-158071D02*
Y-156890D01*
X-217126Y-157480D02*
X-215945D01*
X-216535Y-158071D02*
Y-156890D01*
X-217126Y-137795D02*
X-215945D01*
X-216535Y-138386D02*
Y-137205D01*
X-197441Y-137795D02*
X-196260D01*
X-196850Y-138386D02*
Y-137205D01*
X-197441Y-118110D02*
X-196260D01*
X-196850Y-118701D02*
Y-117520D01*
X-197441Y-98425D02*
X-196260D01*
X-196850Y-99016D02*
Y-97835D01*
X-197441Y-78740D02*
X-196260D01*
X-196850Y-79331D02*
Y-78150D01*
X-197441Y-59055D02*
X-196260D01*
X-196850Y-59646D02*
Y-58465D01*
X-197441Y-39370D02*
X-196260D01*
X-196850Y-39961D02*
Y-38780D01*
X-197441Y-19685D02*
X-196260D01*
X-196850Y-20276D02*
Y-19094D01*
X-197441Y0D02*
X-196260D01*
X-196850Y-591D02*
Y591D01*
X-197441Y19685D02*
X-196260D01*
X-196850Y19094D02*
Y20276D01*
X-197441Y39370D02*
X-196260D01*
X-196850Y38780D02*
Y39961D01*
X-197441Y59055D02*
X-196260D01*
X-196850Y58465D02*
Y59646D01*
X-197441Y78740D02*
X-196260D01*
X-196850Y78150D02*
Y79331D01*
X-197441Y98425D02*
X-196260D01*
X-196850Y97835D02*
Y99016D01*
X-197441Y118110D02*
X-196260D01*
X-196850Y117520D02*
Y118701D01*
X-217126Y118110D02*
X-215945D01*
X-216535Y117520D02*
Y118701D01*
X-158071Y216535D02*
X-156890D01*
X-157480Y215945D02*
Y217126D01*
X-177756Y216535D02*
X-176575D01*
X-177165Y215945D02*
Y217126D01*
X-138386Y196850D02*
X-137205D01*
X-137795Y196260D02*
Y197441D01*
X-158071Y196850D02*
X-156890D01*
X-157480Y196260D02*
Y197441D01*
X-217126Y177165D02*
X-215945D01*
X-216535Y176575D02*
Y177756D01*
X-197565Y158107D02*
X-196384D01*
X-196975Y157516D02*
Y158697D01*
X-217126Y157480D02*
X-215945D01*
X-216535Y156890D02*
Y158071D01*
X-217126Y137795D02*
X-215945D01*
X-216535Y137205D02*
Y138386D01*
X-197441Y137795D02*
X-196260D01*
X-196850Y137205D02*
Y138386D01*
X-177756Y137795D02*
X-176575D01*
X-177165Y137205D02*
Y138386D01*
X-158071Y137795D02*
X-156890D01*
X-157480Y137205D02*
Y138386D01*
X-158071Y177165D02*
X-156890D01*
X-157480Y176575D02*
Y177756D01*
X-177756Y177165D02*
X-176575D01*
X-177165Y176575D02*
Y177756D01*
X-177756Y157480D02*
X-176575D01*
X-177165Y156890D02*
Y158071D01*
X-158071Y157480D02*
X-156890D01*
X-157480Y156890D02*
Y158071D01*
X-118701Y177165D02*
X-117520D01*
X-118110Y176575D02*
Y177756D01*
X-138386Y177165D02*
X-137205D01*
X-137795Y176575D02*
Y177756D01*
X-138386Y157480D02*
X-137205D01*
X-137795Y156890D02*
Y158071D01*
X-118701Y157480D02*
X-117520D01*
X-118110Y156890D02*
Y158071D01*
X-138386Y137795D02*
X-137205D01*
X-137795Y137205D02*
Y138386D01*
X-118701Y137795D02*
X-117520D01*
X-118110Y137205D02*
Y138386D01*
X-118701Y118110D02*
X-117520D01*
X-118110Y117520D02*
Y118701D01*
X-138386Y118110D02*
X-137205D01*
X-137795Y117520D02*
Y118701D01*
X-138386Y98425D02*
X-137205D01*
X-137795Y97835D02*
Y99016D01*
X-118701Y78740D02*
X-117520D01*
X-118110Y78150D02*
Y79331D01*
X-38091Y-55315D02*
X-36909D01*
X-37500Y-55905D02*
Y-54724D01*
X-41831Y-55216D02*
X-40650D01*
X-41240Y-55807D02*
Y-54626D01*
X-38346Y-41240D02*
X-37165D01*
X-37756Y-41831D02*
Y-40650D01*
X-21828Y-35167D02*
X-20647D01*
X-21237Y-35758D02*
Y-34576D01*
X-3740Y-6634D02*
X-2559D01*
X-3150Y-7224D02*
Y-6043D01*
X38780Y9055D02*
X39961D01*
X39370Y8465D02*
Y9646D01*
X21850Y9055D02*
X23031D01*
X22441Y8465D02*
Y9646D01*
X38780Y-984D02*
X39961D01*
X39370Y-1575D02*
Y-394D01*
X38780Y3937D02*
X39961D01*
X39370Y3347D02*
Y4528D01*
X5413Y18898D02*
X6594D01*
X6004Y18307D02*
Y19488D01*
X2264Y18898D02*
X3445D01*
X2854Y18307D02*
Y19488D01*
X8563Y18898D02*
X9744D01*
X9154Y18307D02*
Y19488D01*
X-93504Y-27165D02*
X-92323D01*
X-92913Y-27756D02*
Y-26575D01*
X-30059Y-22500D02*
X-28878D01*
X-29469Y-23090D02*
Y-21910D01*
X-97933Y-47146D02*
X-96752D01*
X-97342Y-47736D02*
Y-46555D01*
X-97933Y-41240D02*
X-96752D01*
X-97342Y-41831D02*
Y-40650D01*
X8169Y-53248D02*
X9350D01*
X8760Y-53838D02*
Y-52657D01*
X-30118Y-27559D02*
X-28937D01*
X-29528Y-28150D02*
Y-26969D01*
X5413Y22539D02*
X6594D01*
X6004Y21949D02*
Y23130D01*
X8563Y22539D02*
X9744D01*
X9154Y21949D02*
Y23130D01*
X2264Y22539D02*
X3445D01*
X2854Y21949D02*
Y23130D01*
X-72126Y-22736D02*
X-70945D01*
X-71535Y-23327D02*
Y-22146D01*
X-67126Y-22736D02*
X-65945D01*
X-66535Y-23327D02*
Y-22146D01*
X40925Y91240D02*
X42106D01*
X41516Y90650D02*
Y91831D01*
X14173Y105118D02*
X15354D01*
X14764Y104528D02*
Y105709D01*
X39370Y105118D02*
X40551D01*
X39961Y104528D02*
Y105709D01*
X36220Y105118D02*
X37402D01*
X36811Y104528D02*
Y105709D01*
X10039Y49016D02*
X11220D01*
X10630Y48425D02*
Y49606D01*
X13681Y45374D02*
X14862D01*
X14272Y44783D02*
Y45965D01*
X2264Y35925D02*
X3445D01*
X2854Y35335D02*
Y36516D01*
X-55807Y64961D02*
X-54626D01*
X-55216Y64370D02*
Y65551D01*
X4429Y-53150D02*
X5610D01*
X5020Y-53740D02*
Y-52559D01*
X-16634Y12500D02*
X-15453D01*
X-16043Y11909D02*
Y13091D01*
X-88189Y-58071D02*
X-87008D01*
X-87598Y-58661D02*
Y-57480D01*
M02*
