G04*
G04 #@! TF.GenerationSoftware,Altium Limited,Altium Designer,22.2.1 (43)*
G04*
G04 Layer_Physical_Order=1*
G04 Layer_Color=255*
%FSLAX25Y25*%
%MOIN*%
G70*
G04*
G04 #@! TF.SameCoordinates,9388D860-640C-4D59-96FC-9271E4276608*
G04*
G04*
G04 #@! TF.FilePolarity,Positive*
G04*
G01*
G75*
%ADD15C,0.01968*%
%ADD16C,0.01000*%
%ADD19R,0.01063X0.03898*%
%ADD20R,0.03898X0.01063*%
%ADD21R,0.03347X0.03150*%
%ADD22R,0.02362X0.03347*%
%ADD23R,0.21654X0.08465*%
%ADD24R,0.03150X0.03347*%
%ADD25R,0.03543X0.05906*%
%ADD26R,0.05906X0.03543*%
%ADD27R,0.03543X0.03543*%
%ADD28R,0.03937X0.06102*%
%ADD29R,0.03150X0.05512*%
%ADD30R,0.05709X0.03937*%
%ADD31R,0.03150X0.05906*%
%ADD32R,0.03150X0.06890*%
%ADD33R,0.05906X0.05906*%
%ADD34R,0.03937X0.05906*%
%ADD35R,0.10236X0.06299*%
G04:AMPARAMS|DCode=36|XSize=40.16mil|YSize=14.17mil|CornerRadius=1.77mil|HoleSize=0mil|Usage=FLASHONLY|Rotation=90.000|XOffset=0mil|YOffset=0mil|HoleType=Round|Shape=RoundedRectangle|*
%AMROUNDEDRECTD36*
21,1,0.04016,0.01063,0,0,90.0*
21,1,0.03661,0.01417,0,0,90.0*
1,1,0.00354,0.00532,0.01831*
1,1,0.00354,0.00532,-0.01831*
1,1,0.00354,-0.00532,-0.01831*
1,1,0.00354,-0.00532,0.01831*
%
%ADD36ROUNDEDRECTD36*%
%ADD37R,0.02165X0.03937*%
%ADD38R,0.00984X0.04528*%
%ADD69R,0.12795X0.12795*%
%ADD70C,0.02000*%
%ADD71C,0.02362*%
%ADD72C,0.06890*%
%ADD73R,0.06890X0.06890*%
%ADD74C,0.05937*%
%ADD75C,0.16598*%
%ADD76R,0.05937X0.05937*%
G04:AMPARAMS|DCode=77|XSize=70.87mil|YSize=39.37mil|CornerRadius=9.84mil|HoleSize=0mil|Usage=FLASHONLY|Rotation=270.000|XOffset=0mil|YOffset=0mil|HoleType=Round|Shape=RoundedRectangle|*
%AMROUNDEDRECTD77*
21,1,0.07087,0.01968,0,0,270.0*
21,1,0.05118,0.03937,0,0,270.0*
1,1,0.01968,-0.00984,-0.02559*
1,1,0.01968,-0.00984,0.02559*
1,1,0.01968,0.00984,0.02559*
1,1,0.01968,0.00984,-0.02559*
%
%ADD77ROUNDEDRECTD77*%
%ADD78O,0.03937X0.08268*%
%ADD79C,0.02362*%
%ADD80C,0.02559*%
G36*
X-175991Y228564D02*
X-171791Y228104D01*
X-167638Y227330D01*
X-163554Y226246D01*
X-159562Y224859D01*
X-155687Y223176D01*
X-151949Y221207D01*
X-148369Y218963D01*
X-144967Y216456D01*
X-141764Y213701D01*
X-140270Y212207D01*
X-84877Y156814D01*
X-84864Y156806D01*
X-84855Y156793D01*
X-83298Y155350D01*
X-83281Y155340D01*
X-83269Y155325D01*
X-80021Y152592D01*
X-79998Y152579D01*
X-79981Y152560D01*
X-76566Y150039D01*
X-76542Y150028D01*
X-76524Y150010D01*
X-72955Y147710D01*
X-72931Y147701D01*
X-72912Y147684D01*
X-69204Y145616D01*
X-69179Y145608D01*
X-69159Y145593D01*
X-65328Y143765D01*
X-65302Y143758D01*
X-65281Y143744D01*
X-61341Y142163D01*
X-61316Y142158D01*
X-61293Y142146D01*
X-57261Y140819D01*
X-57235Y140815D01*
X-57212Y140804D01*
X-53104Y139736D01*
X-53078Y139734D01*
X-53054Y139725D01*
X-48886Y138920D01*
X-48860Y138920D01*
X-48835Y138911D01*
X-44625Y138373D01*
X-44599Y138375D01*
X-44574Y138368D01*
X-40337Y138098D01*
X-40318Y138101D01*
X-40299Y138097D01*
X-38176Y138063D01*
X-38170Y138064D01*
X-38164Y138063D01*
X37967D01*
X37973Y138064D01*
X37980Y138063D01*
X40102Y138097D01*
X40121Y138101D01*
X40140Y138098D01*
X44377Y138368D01*
X44402Y138375D01*
X44428Y138373D01*
X48638Y138911D01*
X48663Y138920D01*
X48689Y138920D01*
X52857Y139725D01*
X52881Y139734D01*
X52907Y139736D01*
X57015Y140804D01*
X57038Y140815D01*
X57064Y140819D01*
X61096Y142146D01*
X61119Y142158D01*
X61144Y142163D01*
X65084Y143744D01*
X65106Y143758D01*
X65131Y143765D01*
X68962Y145593D01*
X68983Y145608D01*
X69007Y145616D01*
X72715Y147684D01*
X72734Y147701D01*
X72758Y147710D01*
X76327Y150010D01*
X76345Y150028D01*
X76369Y150039D01*
X79784Y152560D01*
X79801Y152579D01*
X79824Y152592D01*
X83072Y155325D01*
X83084Y155340D01*
X83101Y155350D01*
X84658Y156793D01*
X84667Y156806D01*
X84680Y156814D01*
X140073Y212207D01*
X141567Y213701D01*
X144770Y216456D01*
X148172Y218963D01*
X151752Y221207D01*
X155490Y223176D01*
X159366Y224859D01*
X163357Y226246D01*
X167441Y227330D01*
X171594Y228104D01*
X175794Y228564D01*
X180017Y228707D01*
X184239Y228533D01*
X188435Y228043D01*
X192583Y227238D01*
X196659Y226125D01*
X200640Y224709D01*
X204503Y222998D01*
X208227Y221002D01*
X211791Y218731D01*
X215174Y216200D01*
X218357Y213422D01*
X221323Y210413D01*
X224055Y207189D01*
X226537Y203770D01*
X228755Y200173D01*
X230697Y196421D01*
X232351Y192533D01*
X233710Y188532D01*
X234764Y184441D01*
X235507Y180281D01*
X235937Y176078D01*
X236049Y171854D01*
X235845Y167634D01*
X235324Y163441D01*
X234489Y159299D01*
X233346Y155231D01*
X232636Y153280D01*
X231321Y150471D01*
X231318Y150460D01*
X231311Y150451D01*
X228810Y144698D01*
X228807Y144683D01*
X228799Y144670D01*
X226514Y138828D01*
X226511Y138813D01*
X226504Y138800D01*
X224438Y132877D01*
X224436Y132862D01*
X224429Y132848D01*
X222585Y126852D01*
X222584Y126837D01*
X222577Y126823D01*
X220958Y120763D01*
X220957Y120747D01*
X220951Y120733D01*
X219560Y114617D01*
X219559Y114601D01*
X219554Y114587D01*
X218391Y108423D01*
X218391Y108408D01*
X218386Y108393D01*
X217454Y102190D01*
X217455Y102175D01*
X217450Y102160D01*
X216750Y95926D01*
X216751Y95911D01*
X216747Y95896D01*
X216280Y89641D01*
X216282Y89626D01*
X216278Y89611D01*
X216044Y83342D01*
X216046Y83331D01*
X216044Y83320D01*
X216015Y80183D01*
X216015Y80179D01*
X216015Y80176D01*
Y-80176D01*
X216015Y-80179D01*
X216015Y-80183D01*
X216044Y-83320D01*
X216046Y-83331D01*
X216044Y-83342D01*
X216278Y-89611D01*
X216282Y-89626D01*
X216280Y-89641D01*
X216747Y-95896D01*
X216751Y-95911D01*
X216750Y-95926D01*
X217450Y-102160D01*
X217455Y-102175D01*
X217454Y-102190D01*
X218386Y-108393D01*
X218391Y-108408D01*
X218391Y-108423D01*
X219554Y-114587D01*
X219559Y-114601D01*
X219560Y-114617D01*
X220951Y-120733D01*
X220957Y-120747D01*
X220958Y-120763D01*
X222577Y-126823D01*
X222584Y-126837D01*
X222585Y-126852D01*
X224429Y-132848D01*
X224436Y-132862D01*
X224438Y-132877D01*
X226503Y-138800D01*
X226511Y-138813D01*
X226514Y-138828D01*
X228799Y-144670D01*
X228807Y-144683D01*
X228810Y-144698D01*
X231311Y-150451D01*
X231318Y-150460D01*
X231321Y-150471D01*
X232636Y-153280D01*
X233346Y-155231D01*
X234489Y-159299D01*
X235324Y-163441D01*
X235845Y-167634D01*
X236049Y-171854D01*
X235937Y-176078D01*
X235507Y-180281D01*
X234764Y-184441D01*
X233710Y-188532D01*
X232351Y-192533D01*
X230697Y-196421D01*
X228755Y-200173D01*
X226537Y-203770D01*
X224055Y-207189D01*
X221323Y-210413D01*
X218357Y-213422D01*
X215174Y-216200D01*
X211791Y-218731D01*
X208227Y-221002D01*
X204503Y-222998D01*
X200640Y-224709D01*
X196659Y-226125D01*
X192583Y-227239D01*
X188435Y-228043D01*
X184239Y-228533D01*
X180017Y-228707D01*
X175794Y-228564D01*
X171594Y-228104D01*
X167441Y-227330D01*
X163357Y-226246D01*
X159366Y-224859D01*
X155490Y-223176D01*
X151752Y-221207D01*
X148172Y-218963D01*
X144771Y-216456D01*
X141567Y-213701D01*
X140073Y-212207D01*
X140073Y-212207D01*
X84680Y-156814D01*
X84667Y-156806D01*
X84658Y-156793D01*
X83101Y-155350D01*
X83084Y-155340D01*
X83072Y-155325D01*
X79824Y-152592D01*
X79801Y-152579D01*
X79784Y-152560D01*
X76369Y-150039D01*
X76345Y-150028D01*
X76327Y-150010D01*
X72758Y-147710D01*
X72734Y-147701D01*
X72715Y-147684D01*
X69007Y-145616D01*
X68983Y-145608D01*
X68962Y-145593D01*
X65131Y-143765D01*
X65106Y-143758D01*
X65084Y-143744D01*
X61144Y-142163D01*
X61119Y-142159D01*
X61096Y-142146D01*
X57064Y-140819D01*
X57038Y-140815D01*
X57015Y-140804D01*
X52907Y-139736D01*
X52881Y-139734D01*
X52857Y-139725D01*
X48689Y-138920D01*
X48663Y-138920D01*
X48638Y-138911D01*
X44428Y-138373D01*
X44402Y-138375D01*
X44377Y-138368D01*
X40140Y-138098D01*
X40121Y-138101D01*
X40102Y-138097D01*
X37980Y-138063D01*
X37973Y-138064D01*
X37967Y-138063D01*
X-38164Y-138063D01*
X-38170Y-138064D01*
X-38176Y-138063D01*
X-40299Y-138097D01*
X-40318Y-138101D01*
X-40337Y-138098D01*
X-44574Y-138368D01*
X-44599Y-138375D01*
X-44625Y-138373D01*
X-48835Y-138911D01*
X-48860Y-138920D01*
X-48886Y-138920D01*
X-53054Y-139725D01*
X-53078Y-139734D01*
X-53104Y-139736D01*
X-57212Y-140804D01*
X-57235Y-140815D01*
X-57261Y-140819D01*
X-61293Y-142146D01*
X-61316Y-142159D01*
X-61341Y-142163D01*
X-65281Y-143744D01*
X-65302Y-143758D01*
X-65328Y-143765D01*
X-69159Y-145593D01*
X-69179Y-145608D01*
X-69204Y-145616D01*
X-72912Y-147684D01*
X-72931Y-147701D01*
X-72955Y-147710D01*
X-76524Y-150010D01*
X-76542Y-150028D01*
X-76566Y-150039D01*
X-79981Y-152560D01*
X-79998Y-152579D01*
X-80021Y-152592D01*
X-83269Y-155325D01*
X-83281Y-155340D01*
X-83298Y-155350D01*
X-84855Y-156793D01*
X-84864Y-156806D01*
X-84877Y-156814D01*
X-140270Y-212207D01*
X-141764Y-213701D01*
X-144967Y-216456D01*
X-148369Y-218963D01*
X-151949Y-221207D01*
X-155687Y-223176D01*
X-159563Y-224859D01*
X-163554Y-226246D01*
X-167638Y-227330D01*
X-171791Y-228104D01*
X-175991Y-228564D01*
X-180214Y-228707D01*
X-184436Y-228533D01*
X-188632Y-228043D01*
X-192780Y-227239D01*
X-196856Y-226125D01*
X-200837Y-224709D01*
X-204700Y-222998D01*
X-208424Y-221002D01*
X-211988Y-218731D01*
X-215371Y-216200D01*
X-218554Y-213422D01*
X-221520Y-210413D01*
X-224252Y-207189D01*
X-226733Y-203770D01*
X-228952Y-200173D01*
X-230894Y-196421D01*
X-232548Y-192533D01*
X-233906Y-188532D01*
X-234960Y-184441D01*
X-235704Y-180281D01*
X-236134Y-176078D01*
X-236246Y-171854D01*
X-236041Y-167634D01*
X-235520Y-163441D01*
X-234686Y-159299D01*
X-233543Y-155231D01*
X-232833Y-153280D01*
X-231517Y-150471D01*
X-231515Y-150460D01*
X-231508Y-150451D01*
X-229007Y-144698D01*
X-229004Y-144683D01*
X-228996Y-144670D01*
X-226711Y-138828D01*
X-226708Y-138813D01*
X-226700Y-138800D01*
X-224635Y-132877D01*
X-224633Y-132862D01*
X-224625Y-132848D01*
X-222782Y-126852D01*
X-222781Y-126837D01*
X-222774Y-126823D01*
X-221155Y-120763D01*
X-221154Y-120747D01*
X-221148Y-120733D01*
X-219757Y-114617D01*
X-219756Y-114602D01*
X-219750Y-114587D01*
X-218588Y-108423D01*
X-218588Y-108408D01*
X-218583Y-108393D01*
X-217651Y-102190D01*
X-217652Y-102175D01*
X-217647Y-102160D01*
X-216947Y-95926D01*
X-216948Y-95911D01*
X-216944Y-95896D01*
X-216477Y-89641D01*
X-216479Y-89626D01*
X-216475Y-89611D01*
X-216241Y-83342D01*
X-216243Y-83331D01*
X-216241Y-83320D01*
X-216212Y-80183D01*
X-216212Y-80179D01*
X-216211Y-80176D01*
X-216212Y80176D01*
X-216212Y80179D01*
X-216212Y80183D01*
X-216241Y83320D01*
X-216243Y83331D01*
X-216241Y83342D01*
X-216475Y89611D01*
X-216479Y89626D01*
X-216477Y89641D01*
X-216944Y95896D01*
X-216948Y95911D01*
X-216947Y95926D01*
X-217647Y102160D01*
X-217652Y102175D01*
X-217651Y102190D01*
X-218583Y108393D01*
X-218588Y108408D01*
X-218588Y108423D01*
X-219750Y114587D01*
X-219756Y114601D01*
X-219757Y114617D01*
X-221148Y120733D01*
X-221154Y120747D01*
X-221155Y120763D01*
X-222774Y126823D01*
X-222781Y126837D01*
X-222782Y126852D01*
X-224625Y132848D01*
X-224633Y132862D01*
X-224635Y132877D01*
X-226700Y138800D01*
X-226708Y138813D01*
X-226711Y138828D01*
X-228996Y144670D01*
X-229004Y144683D01*
X-229007Y144698D01*
X-231508Y150451D01*
X-231515Y150460D01*
X-231517Y150471D01*
X-232833Y153280D01*
X-233543Y155231D01*
X-234686Y159299D01*
X-235520Y163441D01*
X-236041Y167634D01*
X-236246Y171854D01*
X-236134Y176078D01*
X-235704Y180281D01*
X-234960Y184441D01*
X-233906Y188532D01*
X-232548Y192533D01*
X-230893Y196421D01*
X-228952Y200173D01*
X-226733Y203770D01*
X-224252Y207189D01*
X-221520Y210413D01*
X-218554Y213422D01*
X-215371Y216200D01*
X-211988Y218731D01*
X-208424Y221002D01*
X-204700Y222998D01*
X-200837Y224709D01*
X-196856Y226125D01*
X-192780Y227238D01*
X-188632Y228043D01*
X-184436Y228533D01*
X-180214Y228707D01*
X-175991Y228564D01*
D02*
G37*
%LPC*%
G36*
X197528Y205527D02*
X195976D01*
X195899Y205512D01*
X195820D01*
X194299Y205209D01*
X194226Y205179D01*
X194148Y205164D01*
X192715Y204570D01*
X192649Y204526D01*
X192576Y204496D01*
X191287Y203634D01*
X191231Y203578D01*
X191165Y203534D01*
X190068Y202437D01*
X190024Y202372D01*
X189968Y202316D01*
X189107Y201026D01*
X189076Y200953D01*
X189032Y200887D01*
X188439Y199454D01*
X188423Y199377D01*
X188393Y199304D01*
X188091Y197783D01*
Y197704D01*
X188075Y197626D01*
Y196075D01*
X188091Y195997D01*
Y195918D01*
X188393Y194397D01*
X188423Y194324D01*
X188439Y194246D01*
X189032Y192813D01*
X189076Y192748D01*
X189107Y192675D01*
X189968Y191385D01*
X190024Y191329D01*
X190068Y191263D01*
X191165Y190167D01*
X191231Y190123D01*
X191287Y190067D01*
X192576Y189205D01*
X192649Y189175D01*
X192715Y189131D01*
X194148Y188537D01*
X194226Y188522D01*
X194299Y188492D01*
X195820Y188189D01*
X195899D01*
X195976Y188174D01*
X197528D01*
X197605Y188189D01*
X197684D01*
X199205Y188492D01*
X199278Y188522D01*
X199356Y188537D01*
X200789Y189131D01*
X200855Y189175D01*
X200928Y189205D01*
X202217Y190067D01*
X202273Y190123D01*
X202339Y190167D01*
X203436Y191263D01*
X203480Y191329D01*
X203536Y191385D01*
X204397Y192675D01*
X204428Y192748D01*
X204472Y192813D01*
X205065Y194246D01*
X205081Y194324D01*
X205111Y194397D01*
X205413Y195918D01*
Y195997D01*
X205429Y196075D01*
Y197626D01*
X205413Y197704D01*
Y197783D01*
X205111Y199304D01*
X205081Y199377D01*
X205065Y199454D01*
X204472Y200887D01*
X204428Y200953D01*
X204397Y201026D01*
X203536Y202316D01*
X203480Y202372D01*
X203436Y202437D01*
X202339Y203534D01*
X202273Y203578D01*
X202217Y203634D01*
X200928Y204496D01*
X200855Y204526D01*
X200789Y204570D01*
X199356Y205164D01*
X199278Y205179D01*
X199205Y205209D01*
X197684Y205512D01*
X197605D01*
X197528Y205527D01*
D02*
G37*
G36*
X-196173Y205527D02*
X-197724D01*
X-197802Y205512D01*
X-197881D01*
X-199402Y205209D01*
X-199475Y205179D01*
X-199553Y205164D01*
X-200986Y204570D01*
X-201051Y204526D01*
X-201125Y204496D01*
X-202414Y203634D01*
X-202470Y203578D01*
X-202536Y203534D01*
X-203633Y202437D01*
X-203677Y202372D01*
X-203732Y202316D01*
X-204594Y201026D01*
X-204625Y200953D01*
X-204668Y200887D01*
X-205262Y199454D01*
X-205277Y199377D01*
X-205308Y199304D01*
X-205610Y197783D01*
Y197704D01*
X-205626Y197626D01*
Y196075D01*
X-205610Y195997D01*
Y195918D01*
X-205308Y194397D01*
X-205277Y194324D01*
X-205262Y194246D01*
X-204668Y192813D01*
X-204625Y192748D01*
X-204594Y192675D01*
X-203732Y191385D01*
X-203677Y191329D01*
X-203633Y191263D01*
X-202536Y190166D01*
X-202470Y190123D01*
X-202414Y190067D01*
X-201125Y189205D01*
X-201051Y189175D01*
X-200986Y189131D01*
X-199553Y188537D01*
X-199475Y188522D01*
X-199402Y188492D01*
X-197881Y188189D01*
X-197802D01*
X-197724Y188173D01*
X-196173D01*
X-196096Y188189D01*
X-196017D01*
X-194495Y188492D01*
X-194422Y188522D01*
X-194345Y188537D01*
X-192912Y189131D01*
X-192846Y189175D01*
X-192773Y189205D01*
X-191483Y190067D01*
X-191428Y190123D01*
X-191362Y190167D01*
X-190265Y191263D01*
X-190221Y191329D01*
X-190165Y191385D01*
X-189303Y192675D01*
X-189273Y192748D01*
X-189229Y192813D01*
X-188636Y194246D01*
X-188620Y194324D01*
X-188590Y194397D01*
X-188287Y195918D01*
Y195997D01*
X-188272Y196075D01*
Y197626D01*
X-188287Y197704D01*
Y197783D01*
X-188590Y199304D01*
X-188620Y199377D01*
X-188636Y199454D01*
X-189229Y200887D01*
X-189273Y200953D01*
X-189303Y201026D01*
X-190165Y202316D01*
X-190221Y202372D01*
X-190265Y202437D01*
X-191362Y203534D01*
X-191428Y203578D01*
X-191483Y203634D01*
X-192773Y204496D01*
X-192846Y204526D01*
X-192912Y204570D01*
X-194345Y205164D01*
X-194422Y205179D01*
X-194495Y205209D01*
X-196017Y205512D01*
X-196096D01*
X-196173Y205527D01*
D02*
G37*
G36*
X-9835Y134677D02*
X-10335Y134677D01*
X-13846D01*
X-14165Y134677D01*
X-14665Y134677D01*
X-16171D01*
Y130732D01*
Y126787D01*
X-14665D01*
X-14346Y126787D01*
X-13846Y126787D01*
X-13110D01*
Y116080D01*
X-13599Y115591D01*
X-13870Y114937D01*
Y114229D01*
X-13599Y113575D01*
X-13099Y113074D01*
X-12444Y112803D01*
X-11737D01*
X-11083Y113074D01*
X-10582Y113575D01*
X-10311Y114229D01*
Y114937D01*
X-10582Y115591D01*
X-11071Y116080D01*
Y126434D01*
X-10717Y126787D01*
X-10016Y126787D01*
X-9516Y126787D01*
X-8779D01*
Y116080D01*
X-9268Y115591D01*
X-9539Y114937D01*
Y114229D01*
X-9268Y113575D01*
X-8768Y113074D01*
X-8114Y112803D01*
X-7406D01*
X-6752Y113074D01*
X-6251Y113575D01*
X-5980Y114229D01*
Y114937D01*
X-6251Y115591D01*
X-6740Y116080D01*
Y126434D01*
X-6387Y126787D01*
X-5685Y126787D01*
X-5185Y126787D01*
X-3285D01*
Y130240D01*
Y133693D01*
X-5504Y133693D01*
X-5685Y134118D01*
Y134677D01*
X-9835Y134677D01*
D02*
G37*
G36*
X-18496D02*
X-18996Y134677D01*
X-22508D01*
X-22827Y134677D01*
X-23327Y134677D01*
X-26839D01*
X-27158Y134677D01*
X-27657Y134677D01*
X-31169D01*
X-31488Y134677D01*
X-31988Y134677D01*
X-35500D01*
X-35819Y134677D01*
X-36319Y134677D01*
X-40150D01*
Y126787D01*
X-39094D01*
Y116393D01*
X-42445Y113042D01*
X-42666Y112711D01*
X-42744Y112321D01*
Y87537D01*
X-44593Y85687D01*
X-45055Y85879D01*
Y91764D01*
X-49992D01*
Y89232D01*
X-55587D01*
X-55977Y89155D01*
X-56308Y88934D01*
X-59767Y85475D01*
X-59781Y85465D01*
X-60367Y84879D01*
X-60588Y84548D01*
X-60665Y84158D01*
Y76575D01*
X-60588Y76185D01*
X-60367Y75854D01*
X-57291Y72779D01*
Y70071D01*
X-56236D01*
Y66458D01*
X-56725Y65969D01*
X-56996Y65315D01*
Y64607D01*
X-56725Y63953D01*
X-56225Y63452D01*
X-55571Y63181D01*
X-54863D01*
X-54208Y63452D01*
X-53708Y63953D01*
X-53666Y64053D01*
X-53125D01*
X-53083Y63953D01*
X-52594Y63464D01*
Y63119D01*
X-63477Y52237D01*
X-63698Y51906D01*
X-63775Y51516D01*
Y46491D01*
X-63794Y46483D01*
X-63802Y46464D01*
X-66032D01*
Y46479D01*
X-66715Y46343D01*
X-67293Y45957D01*
X-67680Y45378D01*
X-67816Y44695D01*
X-67801D01*
Y43195D01*
X-67816D01*
X-67680Y42512D01*
X-67293Y41933D01*
X-66715Y41546D01*
X-66032Y41411D01*
Y41425D01*
X-63802D01*
X-63794Y41407D01*
X-63775Y41399D01*
Y37902D01*
X-64984D01*
X-65027Y37902D01*
X-65484D01*
X-65528Y37902D01*
X-69984D01*
X-70028Y37902D01*
X-70484D01*
X-70528Y37902D01*
X-71736D01*
Y39743D01*
X-71247Y40232D01*
X-70976Y40886D01*
Y41594D01*
X-71247Y42248D01*
X-71748Y42749D01*
X-72402Y43020D01*
X-73110D01*
X-73764Y42749D01*
X-74265Y42248D01*
X-74535Y41594D01*
Y40886D01*
X-74265Y40232D01*
X-73776Y39743D01*
Y37902D01*
X-74984D01*
X-75028Y37902D01*
X-75484D01*
X-75528Y37902D01*
X-76736D01*
Y39743D01*
X-76247Y40232D01*
X-75976Y40886D01*
Y41594D01*
X-76247Y42248D01*
X-76748Y42749D01*
X-77402Y43020D01*
X-78110D01*
X-78764Y42749D01*
X-79264Y42248D01*
X-79535Y41594D01*
Y40886D01*
X-79264Y40232D01*
X-78776Y39743D01*
Y37902D01*
X-79984D01*
X-80028Y37902D01*
X-80484D01*
X-80528Y37902D01*
X-84984D01*
X-85027Y37902D01*
X-85484D01*
X-85528Y37902D01*
X-89984D01*
X-90027Y37902D01*
X-90484D01*
X-90528Y37902D01*
X-92506D01*
Y34449D01*
Y30996D01*
X-90528D01*
X-90484Y30996D01*
X-90027D01*
X-89984Y30996D01*
X-88775D01*
Y-6516D01*
X-88698Y-6906D01*
X-88477Y-7237D01*
X-73315Y-22399D01*
Y-23090D01*
X-73044Y-23744D01*
X-72543Y-24245D01*
X-71889Y-24516D01*
X-71181D01*
X-70527Y-24245D01*
X-70027Y-23744D01*
X-69756Y-23090D01*
Y-22382D01*
X-70027Y-21728D01*
X-70527Y-21228D01*
X-71181Y-20957D01*
X-71873D01*
X-86736Y-6093D01*
Y30996D01*
X-85528D01*
X-85484Y30996D01*
X-85027D01*
X-84984Y30996D01*
X-83776D01*
Y-6516D01*
X-83698Y-6906D01*
X-83477Y-7237D01*
X-68315Y-22399D01*
Y-23090D01*
X-68044Y-23744D01*
X-67543Y-24245D01*
X-66889Y-24516D01*
X-66181D01*
X-65527Y-24245D01*
X-65027Y-23744D01*
X-64756Y-23090D01*
Y-22382D01*
X-65027Y-21728D01*
X-65527Y-21228D01*
X-66181Y-20957D01*
X-66873D01*
X-81736Y-6093D01*
Y30996D01*
X-80528D01*
X-80484Y30996D01*
X-80028D01*
X-79984Y30996D01*
X-75528D01*
X-75484Y30996D01*
X-75028D01*
X-74984Y30996D01*
X-70528D01*
X-70484Y30996D01*
X-70028D01*
X-69984Y30996D01*
X-65528D01*
X-65484Y30996D01*
X-65027D01*
X-64984Y30996D01*
X-60484D01*
Y30996D01*
X-60027D01*
Y30996D01*
X-55528D01*
X-55484Y30996D01*
X-55028D01*
X-54984Y30996D01*
X-50528D01*
X-50484Y30996D01*
X-50028D01*
X-49984Y30996D01*
X-48776D01*
Y30039D01*
X-48698Y29649D01*
X-48477Y29318D01*
X-45997Y26838D01*
X-45666Y26617D01*
X-45276Y26539D01*
X-36930D01*
X-36441Y26050D01*
X-35787Y25780D01*
X-35079D01*
X-34425Y26050D01*
X-33924Y26551D01*
X-33654Y27205D01*
Y27913D01*
X-33924Y28567D01*
X-34425Y29068D01*
X-35079Y29339D01*
X-35787D01*
X-36441Y29068D01*
X-36930Y28579D01*
X-44853D01*
X-46736Y30462D01*
Y30996D01*
X-45528D01*
X-45484Y30996D01*
X-45028D01*
X-44984Y30996D01*
X-40528D01*
X-40484Y30996D01*
X-40028D01*
X-39984Y30996D01*
X-35528D01*
X-35484Y30996D01*
X-35028D01*
X-34984Y30996D01*
X-30528D01*
X-30484Y30996D01*
X-30028D01*
X-29984Y30996D01*
X-28776D01*
Y29753D01*
X-33690Y24838D01*
X-65531D01*
X-66019Y25328D01*
X-66674Y25598D01*
X-67382D01*
X-68036Y25328D01*
X-68536Y24827D01*
X-68807Y24173D01*
Y23465D01*
X-68536Y22811D01*
X-68036Y22310D01*
X-67382Y22039D01*
X-66674D01*
X-66019Y22310D01*
X-65531Y22799D01*
X-33268D01*
X-32877Y22877D01*
X-32547Y23098D01*
X-27035Y28610D01*
X-26814Y28940D01*
X-26787Y29074D01*
X-26287Y29025D01*
Y25272D01*
X-26287Y25228D01*
Y24772D01*
X-26287Y24728D01*
Y20272D01*
X-26287Y20228D01*
Y19772D01*
X-26287Y19728D01*
Y15272D01*
X-26287Y15228D01*
Y14772D01*
X-26287Y14728D01*
Y10272D01*
X-26287Y10228D01*
Y9772D01*
X-26287Y9728D01*
Y5272D01*
X-26287Y5228D01*
Y4772D01*
X-26287Y4728D01*
Y272D01*
X-26287Y228D01*
Y-228D01*
X-26287Y-272D01*
Y-4772D01*
X-26287D01*
Y-5228D01*
X-26287D01*
Y-9772D01*
X-26287D01*
Y-10228D01*
X-26287D01*
Y-14772D01*
X-26287D01*
Y-15228D01*
X-26287D01*
Y-19728D01*
X-26287Y-19772D01*
Y-20228D01*
X-26287Y-20272D01*
Y-21480D01*
X-27972D01*
X-28460Y-20991D01*
X-29114Y-20720D01*
X-29822D01*
X-30476Y-20991D01*
X-30977Y-21492D01*
X-31248Y-22146D01*
Y-22854D01*
X-30977Y-23508D01*
X-30476Y-24009D01*
X-29822Y-24280D01*
X-29114D01*
X-28460Y-24009D01*
X-27972Y-23520D01*
X-26287D01*
Y-24728D01*
X-26287Y-24772D01*
Y-25228D01*
X-26287Y-25272D01*
Y-26539D01*
X-28030D01*
X-28519Y-26050D01*
X-29174Y-25780D01*
X-29882D01*
X-30536Y-26050D01*
X-31036Y-26551D01*
X-31307Y-27205D01*
Y-27913D01*
X-31036Y-28567D01*
X-30536Y-29068D01*
X-29882Y-29339D01*
X-29174D01*
X-28519Y-29068D01*
X-28030Y-28579D01*
X-26287D01*
Y-29772D01*
X-19689D01*
X-19382Y-29772D01*
X-19189Y-30192D01*
Y-30795D01*
X-19111Y-31185D01*
X-18890Y-31516D01*
X-11102Y-39304D01*
X-10771Y-39525D01*
X-10381Y-39602D01*
X23200D01*
X26539Y-42942D01*
Y-57866D01*
X25386D01*
Y-62016D01*
X29732D01*
Y-57866D01*
X28579D01*
Y-42520D01*
X28501Y-42129D01*
X28280Y-41799D01*
X24343Y-37862D01*
X24012Y-37641D01*
X23622Y-37563D01*
X-9959D01*
X-17150Y-30372D01*
Y-26732D01*
X-16650Y-26524D01*
X-8595Y-34579D01*
X-8264Y-34800D01*
X-7874Y-34878D01*
X29105D01*
X32543Y-38316D01*
Y-57866D01*
X31390D01*
Y-62016D01*
X35736D01*
Y-57866D01*
X34583D01*
Y-37894D01*
X34505Y-37503D01*
X34284Y-37173D01*
X30248Y-33137D01*
X29918Y-32916D01*
X29528Y-32839D01*
X-7452D01*
X-15150Y-25141D01*
Y-22039D01*
X-14650Y-21832D01*
X-6233Y-30248D01*
X-5902Y-30470D01*
X-5512Y-30547D01*
X34617D01*
X38449Y-34379D01*
Y-57866D01*
X37295D01*
Y-62016D01*
X41642D01*
Y-57866D01*
X40488D01*
Y-33957D01*
X40411Y-33566D01*
X40189Y-33236D01*
X35760Y-28807D01*
X35430Y-28586D01*
X35039Y-28508D01*
X-5090D01*
X-13150Y-20448D01*
Y-17444D01*
X-12650Y-17237D01*
X-3969Y-25918D01*
X-3638Y-26139D01*
X-3248Y-26216D01*
X40916D01*
X44354Y-29655D01*
Y-57866D01*
X43201D01*
Y-62016D01*
X47547D01*
Y-57866D01*
X46394D01*
Y-29232D01*
X46316Y-28842D01*
X46095Y-28511D01*
X42060Y-24476D01*
X41729Y-24255D01*
X41339Y-24177D01*
X-2826D01*
X-11185Y-15818D01*
Y-7480D01*
X-11263Y-7090D01*
X-11484Y-6759D01*
X-16464Y-1779D01*
X-16795Y-1558D01*
X-17185Y-1480D01*
X-19382D01*
Y-272D01*
X-19382Y-228D01*
Y228D01*
X-19382Y272D01*
Y1480D01*
X-13946D01*
X-10468Y-1997D01*
Y-12598D01*
X-10391Y-12989D01*
X-10170Y-13319D01*
X-2296Y-21193D01*
X-1965Y-21414D01*
X-1575Y-21492D01*
X45641D01*
X50260Y-26111D01*
Y-57866D01*
X49106D01*
Y-62016D01*
X53453D01*
Y-57866D01*
X52299D01*
Y-25689D01*
X52222Y-25299D01*
X52000Y-24968D01*
X46784Y-19751D01*
X46453Y-19531D01*
X46063Y-19453D01*
X-1153D01*
X-8429Y-12176D01*
Y-1575D01*
X-8507Y-1185D01*
X-8728Y-854D01*
X-12803Y3221D01*
X-13133Y3442D01*
X-13524Y3520D01*
X-19382D01*
Y4728D01*
X-19382Y4772D01*
Y5228D01*
X-19382Y5272D01*
Y6480D01*
X-11859D01*
X-7319Y1940D01*
Y-9055D01*
X-7241Y-9445D01*
X-7020Y-9776D01*
X66Y-16863D01*
X397Y-17084D01*
X787Y-17161D01*
X57452D01*
X62071Y-21781D01*
Y-57866D01*
X60917D01*
Y-61426D01*
X60417Y-61633D01*
X59358Y-60574D01*
Y-57866D01*
X55012D01*
Y-62016D01*
X57916D01*
X59377Y-63476D01*
X59162Y-63968D01*
X58940Y-63968D01*
X55012D01*
Y-65024D01*
X53453D01*
Y-63968D01*
X49106D01*
Y-67528D01*
X48606Y-67735D01*
X47547Y-66676D01*
Y-63968D01*
X43201D01*
Y-68118D01*
X46105D01*
X47164Y-69177D01*
X46957Y-69677D01*
X43201D01*
Y-70831D01*
X41642D01*
Y-69677D01*
X40488D01*
Y-68118D01*
X41642D01*
Y-63968D01*
X37295D01*
Y-68118D01*
X38449D01*
Y-69677D01*
X37492D01*
Y-74024D01*
X41642D01*
Y-72870D01*
X43201D01*
Y-74024D01*
X47350D01*
Y-70070D01*
X47850Y-69863D01*
X49303Y-71316D01*
Y-74024D01*
X53453D01*
Y-72870D01*
X55012D01*
Y-74024D01*
X59161D01*
Y-70130D01*
X59161Y-69873D01*
X59654Y-69659D01*
X61114Y-71119D01*
Y-74024D01*
X65264D01*
Y-69677D01*
X62556D01*
X61459Y-68580D01*
X61650Y-68118D01*
X65264D01*
Y-67063D01*
X66823D01*
Y-68118D01*
X67878D01*
Y-75365D01*
X65523Y-77721D01*
X13091D01*
X12700Y-77798D01*
X12370Y-78019D01*
X9617Y-80772D01*
X9331Y-80606D01*
X8449Y-80370D01*
X7536D01*
X6653Y-80606D01*
X5862Y-81063D01*
X5217Y-81709D01*
X4760Y-82500D01*
X4524Y-83382D01*
Y-84295D01*
X4760Y-85177D01*
X5217Y-85968D01*
X5862Y-86614D01*
X6653Y-87071D01*
X7536Y-87307D01*
X8449D01*
X9331Y-87071D01*
X10122Y-86614D01*
X10768Y-85968D01*
X11224Y-85177D01*
X11461Y-84295D01*
Y-83382D01*
X11224Y-82500D01*
X11059Y-82214D01*
X12972Y-80301D01*
X13077Y-80295D01*
X13500Y-80654D01*
X13500Y-80825D01*
Y-85865D01*
X11408Y-87957D01*
X-25759D01*
X-28311Y-85404D01*
Y-74024D01*
X-27256D01*
Y-69677D01*
X-30160D01*
X-33161Y-66676D01*
Y-63968D01*
X-37508D01*
Y-65024D01*
X-39067D01*
Y-63968D01*
X-43413D01*
Y-67528D01*
X-43913Y-67735D01*
X-44972Y-66676D01*
Y-63968D01*
X-49319D01*
Y-68118D01*
X-46414D01*
X-45355Y-69177D01*
X-45562Y-69677D01*
X-49319D01*
Y-70831D01*
X-50878D01*
Y-69677D01*
X-52032D01*
Y-68118D01*
X-50878D01*
Y-63968D01*
X-55224D01*
Y-68118D01*
X-54071D01*
Y-69677D01*
X-55028D01*
Y-74024D01*
X-50878D01*
Y-72870D01*
X-49319D01*
Y-74024D01*
X-45169D01*
Y-70070D01*
X-44669Y-69863D01*
X-43216Y-71316D01*
Y-74024D01*
X-39067D01*
Y-72870D01*
X-37508D01*
Y-74024D01*
X-33358D01*
Y-70070D01*
X-32858Y-69863D01*
X-31405Y-71316D01*
Y-74024D01*
X-30350D01*
Y-85827D01*
X-30273Y-86217D01*
X-30052Y-86548D01*
X-26902Y-89697D01*
X-26571Y-89918D01*
X-26181Y-89996D01*
X-15441D01*
X-15375Y-90496D01*
X-15788Y-90606D01*
X-16578Y-91063D01*
X-17224Y-91709D01*
X-17681Y-92500D01*
X-17917Y-93382D01*
Y-93589D01*
X-10980D01*
Y-93382D01*
X-11217Y-92500D01*
X-11673Y-91709D01*
X-12319Y-91063D01*
X-13110Y-90606D01*
X-13522Y-90496D01*
X-13456Y-89996D01*
X-6465D01*
X-6399Y-90496D01*
X-6811Y-90606D01*
X-7602Y-91063D01*
X-8248Y-91709D01*
X-8705Y-92500D01*
X-8941Y-93382D01*
Y-94295D01*
X-8705Y-95177D01*
X-8248Y-95968D01*
X-7602Y-96614D01*
X-6811Y-97071D01*
X-5929Y-97307D01*
X-5016D01*
X-4328Y-97123D01*
X-1661Y-99791D01*
X-1661Y-99791D01*
X-1503Y-99896D01*
X-1503Y-99897D01*
X-1621Y-100418D01*
X-2323Y-100606D01*
X-3114Y-101063D01*
X-3760Y-101709D01*
X-4216Y-102500D01*
X-4453Y-103382D01*
Y-104295D01*
X-4216Y-105177D01*
X-3760Y-105968D01*
X-3114Y-106614D01*
X-2323Y-107071D01*
X-1441Y-107307D01*
X-528D01*
X354Y-107071D01*
X1146Y-106614D01*
X1791Y-105968D01*
X2248Y-105177D01*
X2484Y-104295D01*
Y-103382D01*
X2248Y-102500D01*
X1791Y-101709D01*
X1146Y-101063D01*
X575Y-100734D01*
X709Y-100234D01*
X6299D01*
X6433Y-100734D01*
X5862Y-101063D01*
X5217Y-101709D01*
X4760Y-102500D01*
X4524Y-103382D01*
Y-104295D01*
X4760Y-105177D01*
X5217Y-105968D01*
X5862Y-106614D01*
X6653Y-107071D01*
X7536Y-107307D01*
X8449D01*
X9331Y-107071D01*
X10122Y-106614D01*
X10768Y-105968D01*
X11224Y-105177D01*
X11461Y-104295D01*
Y-103382D01*
X11224Y-102500D01*
X10768Y-101709D01*
X10122Y-101063D01*
X9551Y-100734D01*
X9685Y-100234D01*
X15275D01*
X15409Y-100734D01*
X14839Y-101063D01*
X14193Y-101709D01*
X13736Y-102500D01*
X13500Y-103382D01*
Y-104295D01*
X13736Y-105177D01*
X14193Y-105968D01*
X14839Y-106614D01*
X15630Y-107071D01*
X16512Y-107307D01*
X17425D01*
X18307Y-107071D01*
X19098Y-106614D01*
X19744Y-105968D01*
X20201Y-105177D01*
X20437Y-104295D01*
Y-103382D01*
X20201Y-102500D01*
X19744Y-101709D01*
X19098Y-101063D01*
X18528Y-100734D01*
X18662Y-100234D01*
X33428D01*
X41646Y-108452D01*
X41646Y-108452D01*
X42137Y-108780D01*
X42717Y-108895D01*
X42717Y-108895D01*
X56004D01*
X56004Y-108895D01*
X56583Y-108780D01*
X57074Y-108452D01*
X74594Y-90932D01*
X74922Y-90441D01*
X75037Y-89862D01*
X75037Y-89862D01*
Y-55906D01*
X75037Y-55905D01*
X74922Y-55326D01*
X74594Y-54835D01*
X71986Y-52227D01*
Y-16339D01*
X71986Y-16339D01*
X71871Y-15759D01*
X71543Y-15269D01*
X71543Y-15269D01*
X47872Y8402D01*
Y11873D01*
X80672D01*
X83871Y8674D01*
X83871Y8674D01*
X84362Y8346D01*
X84941Y8231D01*
X84941Y8231D01*
X96358D01*
X96358Y8231D01*
X96937Y8346D01*
X97428Y8674D01*
X100578Y11824D01*
X100578Y11824D01*
X100906Y12314D01*
X101021Y12894D01*
Y15839D01*
X101681D01*
Y19988D01*
X97335D01*
Y15839D01*
X97995D01*
Y13521D01*
X95731Y11257D01*
X85568D01*
X82369Y14456D01*
X81878Y14784D01*
X81299Y14899D01*
X81299Y14899D01*
X47872D01*
Y58957D01*
X47756Y59536D01*
X47428Y60027D01*
X47428Y60027D01*
X41720Y65735D01*
X41229Y66063D01*
X40650Y66179D01*
X40650Y66179D01*
X27362D01*
X27362Y66179D01*
X26783Y66063D01*
X26292Y65735D01*
X26292Y65735D01*
X23438Y62881D01*
X23110Y62390D01*
X22995Y61811D01*
X22995Y61811D01*
Y60777D01*
X12598Y60777D01*
X8590D01*
X5266Y64102D01*
Y70653D01*
X5260Y70668D01*
X5224Y71153D01*
X5224Y71154D01*
X5224Y71154D01*
Y78453D01*
X5224Y78453D01*
X5224D01*
X5260Y78938D01*
X5266Y78953D01*
Y81567D01*
X8870Y85171D01*
X8911Y85271D01*
X8987Y85347D01*
Y85454D01*
X9028Y85554D01*
X9176Y85827D01*
X9381Y86016D01*
X9457D01*
Y89947D01*
X9536Y89979D01*
X9695Y90362D01*
Y91705D01*
X15283Y97293D01*
X18209D01*
X18591Y97452D01*
X18591Y97452D01*
X20855Y99716D01*
X21014Y100098D01*
X21014Y100098D01*
Y103248D01*
X20855Y103631D01*
X20472Y103789D01*
X19427D01*
Y105118D01*
X19427Y105118D01*
Y105991D01*
X19480Y106468D01*
X23390D01*
Y100422D01*
X22901Y99934D01*
X22680Y99603D01*
X22603Y99213D01*
Y95382D01*
X21941D01*
Y91035D01*
X25181D01*
X25303Y91035D01*
X25681D01*
X25803Y91035D01*
X27112D01*
Y93209D01*
X27612D01*
Y91035D01*
X28921D01*
X29043Y91035D01*
X29421D01*
X29543Y91035D01*
X32783D01*
Y95382D01*
X32122D01*
Y99213D01*
X32044Y99603D01*
X31823Y99934D01*
X31335Y100422D01*
Y106468D01*
X34998D01*
X35237Y105968D01*
X35032Y105472D01*
Y104764D01*
X35302Y104110D01*
X35803Y103610D01*
X36457Y103339D01*
X37165D01*
X37819Y103610D01*
X38320Y104110D01*
X38591Y104764D01*
Y105472D01*
X38324Y106115D01*
Y106764D01*
X39711D01*
Y109232D01*
X40211D01*
Y106764D01*
X41543D01*
Y108326D01*
X42043Y108375D01*
X42045Y108368D01*
X42590Y107551D01*
X43407Y107005D01*
X44120Y106864D01*
Y111496D01*
X44370D01*
Y111746D01*
X46887D01*
Y113661D01*
X46695Y114625D01*
X46150Y115441D01*
X45333Y115987D01*
X44771Y116098D01*
X44820Y116598D01*
X47827D01*
Y115543D01*
X52173D01*
Y119693D01*
X47827D01*
Y118638D01*
X34252D01*
X33862Y118560D01*
X33531Y118339D01*
X31563Y116371D01*
X31341Y116040D01*
X31264Y115650D01*
Y114881D01*
X31032Y114727D01*
X30764Y114649D01*
X30508Y114820D01*
X30118Y114898D01*
X26575D01*
X26185Y114820D01*
X25854Y114599D01*
X25657Y114402D01*
X25436Y114071D01*
X25358Y113681D01*
Y111996D01*
X21492D01*
Y115650D01*
X21414Y116040D01*
X21193Y116371D01*
X19225Y118339D01*
X18894Y118560D01*
X18504Y118638D01*
X6898D01*
Y119693D01*
X2551D01*
Y115543D01*
X6898D01*
Y116598D01*
X9904D01*
X9953Y116098D01*
X9391Y115987D01*
X8575Y115441D01*
X8029Y114625D01*
X7837Y113661D01*
Y111746D01*
X10354D01*
Y111496D01*
X10604D01*
Y106864D01*
X11317Y107005D01*
X12134Y107551D01*
X12680Y108368D01*
X12681Y108375D01*
X13181Y108326D01*
Y106764D01*
X14514D01*
Y109232D01*
X15014D01*
Y106764D01*
X16400D01*
Y105118D01*
X16400Y105118D01*
X16400Y105118D01*
Y103789D01*
X11614D01*
X11614Y103789D01*
X11614Y103789D01*
X8563Y103789D01*
X8563Y103789D01*
X8180Y103631D01*
X8180Y103630D01*
X2373Y97824D01*
X2215Y97441D01*
X2215Y97441D01*
Y88905D01*
X-5895Y80796D01*
X-5908Y80763D01*
X-6408Y80862D01*
Y82952D01*
X-5919Y83441D01*
X-5648Y84095D01*
Y84803D01*
X-5919Y85457D01*
X-6420Y85957D01*
X-7074Y86228D01*
X-7782D01*
X-8436Y85957D01*
X-8936Y85457D01*
X-9207Y84803D01*
Y84111D01*
X-9252Y84068D01*
X-9642Y83838D01*
X-9675Y83871D01*
X-10329Y84142D01*
X-11037D01*
X-11555Y83927D01*
X-11688Y83975D01*
X-11931Y84140D01*
X-12017Y84236D01*
Y84803D01*
X-12288Y85457D01*
X-12789Y85957D01*
X-13443Y86228D01*
X-14151D01*
X-14805Y85957D01*
X-15305Y85457D01*
X-15576Y84803D01*
Y84111D01*
X-15621Y84068D01*
X-16011Y83838D01*
X-16043Y83871D01*
X-16698Y84142D01*
X-17405D01*
X-17924Y83927D01*
X-18056Y83975D01*
X-18300Y84140D01*
X-18386Y84236D01*
Y84803D01*
X-18657Y85457D01*
X-19157Y85957D01*
X-19474Y86089D01*
X-19375Y86589D01*
X-17799D01*
X-17416Y86747D01*
X-17258Y87130D01*
Y95004D01*
X-17416Y95387D01*
X-17799Y95545D01*
X-27642D01*
X-28024Y95387D01*
X-28183Y95004D01*
Y87130D01*
X-28024Y86747D01*
X-27642Y86589D01*
X-20956D01*
X-20856Y86089D01*
X-21173Y85957D01*
X-21674Y85457D01*
X-21945Y84803D01*
Y84111D01*
X-21990Y84068D01*
X-22380Y83838D01*
X-22412Y83871D01*
X-23066Y84142D01*
X-23774D01*
X-24428Y83871D01*
X-24929Y83370D01*
X-25200Y82716D01*
Y82008D01*
X-24934Y81366D01*
Y80323D01*
X-25594D01*
Y79761D01*
X-27616D01*
Y80323D01*
X-31883D01*
Y82952D01*
X-31394Y83441D01*
X-31123Y84095D01*
Y84803D01*
X-31394Y85457D01*
X-31895Y85957D01*
X-32549Y86228D01*
X-33257D01*
X-33911Y85957D01*
X-34411Y85457D01*
X-34682Y84803D01*
Y84111D01*
X-34727Y84068D01*
X-35117Y83838D01*
X-35150Y83871D01*
X-35804Y84142D01*
X-36512D01*
X-36932Y83968D01*
X-36975Y83980D01*
X-37394Y84296D01*
Y84803D01*
X-37665Y85457D01*
X-38165Y85957D01*
X-38819Y86228D01*
X-39527D01*
X-40181Y85957D01*
X-40682Y85457D01*
X-40953Y84803D01*
Y84095D01*
X-40894Y83954D01*
X-41318Y83671D01*
X-41519Y83871D01*
X-42173Y84142D01*
X-42548D01*
X-42755Y84642D01*
X-41004Y86393D01*
X-40782Y86724D01*
X-40705Y87114D01*
Y111643D01*
X-40653Y111672D01*
X-40591Y111654D01*
X-40191Y111355D01*
Y103665D01*
X-40032Y103283D01*
X-39650Y103124D01*
X-6185D01*
X-5802Y103283D01*
X-5644Y103665D01*
Y111539D01*
X-5802Y111922D01*
X-6185Y112081D01*
X-39650D01*
X-39760Y112035D01*
X-39947Y111985D01*
X-40216Y112387D01*
X-37354Y115249D01*
X-37133Y115580D01*
X-37055Y115970D01*
Y126434D01*
X-36702Y126787D01*
X-36000Y126787D01*
X-35500Y126787D01*
X-34764D01*
Y116080D01*
X-35253Y115591D01*
X-35524Y114937D01*
Y114229D01*
X-35253Y113575D01*
X-34752Y113074D01*
X-34098Y112803D01*
X-33390D01*
X-32736Y113074D01*
X-32236Y113575D01*
X-31965Y114229D01*
Y114937D01*
X-32236Y115591D01*
X-32724Y116080D01*
Y126434D01*
X-32371Y126787D01*
X-31669Y126787D01*
X-31169Y126787D01*
X-30433D01*
Y116080D01*
X-30922Y115591D01*
X-31193Y114937D01*
Y114229D01*
X-30922Y113575D01*
X-30421Y113074D01*
X-29767Y112803D01*
X-29059D01*
X-28405Y113074D01*
X-27905Y113575D01*
X-27634Y114229D01*
Y114937D01*
X-27905Y115591D01*
X-28394Y116080D01*
Y126434D01*
X-28040Y126787D01*
X-26987Y126787D01*
X-26694Y126287D01*
X-26854Y125901D01*
Y125193D01*
X-26583Y124539D01*
X-26083Y124039D01*
X-25429Y123768D01*
X-24721D01*
X-24067Y124039D01*
X-23566Y124539D01*
X-23295Y125193D01*
Y125901D01*
X-23455Y126287D01*
X-23145Y126787D01*
X-22125Y126787D01*
X-21772Y126434D01*
Y116080D01*
X-22261Y115591D01*
X-22532Y114937D01*
Y114229D01*
X-22261Y113575D01*
X-21760Y113074D01*
X-21106Y112803D01*
X-20398D01*
X-19744Y113074D01*
X-19243Y113575D01*
X-18972Y114229D01*
Y114937D01*
X-19243Y115591D01*
X-19732Y116080D01*
Y126434D01*
X-19379Y126787D01*
X-18677Y126787D01*
X-18177Y126787D01*
X-16671D01*
Y130732D01*
Y134677D01*
X-18177D01*
X-18496Y134677D01*
D02*
G37*
G36*
X-2785Y133693D02*
Y130490D01*
X-567D01*
Y133693D01*
X-2785D01*
D02*
G37*
G36*
X-44268D02*
X-47471D01*
Y130490D01*
X-44268D01*
Y133693D01*
D02*
G37*
G36*
X-47971D02*
X-51173D01*
Y130490D01*
X-47971D01*
Y133693D01*
D02*
G37*
G36*
X11339Y132025D02*
X10604D01*
Y128203D01*
X12852D01*
Y130512D01*
X12737Y131091D01*
X12409Y131582D01*
X11918Y131910D01*
X11339Y132025D01*
D02*
G37*
G36*
X10104D02*
X9370D01*
X8791Y131910D01*
X8300Y131582D01*
X7972Y131091D01*
X7857Y130512D01*
Y128203D01*
X10104D01*
Y132025D01*
D02*
G37*
G36*
X45354D02*
X44620D01*
Y128203D01*
X46868D01*
Y130512D01*
X46752Y131091D01*
X46424Y131582D01*
X45933Y131910D01*
X45354Y132025D01*
D02*
G37*
G36*
X44120D02*
X43386D01*
X42807Y131910D01*
X42316Y131582D01*
X41988Y131091D01*
X41873Y130512D01*
Y128203D01*
X44120D01*
Y132025D01*
D02*
G37*
G36*
X-567Y129990D02*
X-2785D01*
Y126787D01*
X-567D01*
Y129990D01*
D02*
G37*
G36*
X-44268D02*
X-47471D01*
Y126787D01*
X-44268D01*
Y129990D01*
D02*
G37*
G36*
X-47971D02*
X-51173D01*
Y126787D01*
X-47971D01*
Y129990D01*
D02*
G37*
G36*
X46868Y127703D02*
X44620D01*
Y123880D01*
X45354D01*
X45933Y123996D01*
X46424Y124324D01*
X46752Y124815D01*
X46868Y125394D01*
Y127703D01*
D02*
G37*
G36*
X44120D02*
X41873D01*
Y125394D01*
X41988Y124815D01*
X42316Y124324D01*
X42807Y123996D01*
X43386Y123880D01*
X44120D01*
Y127703D01*
D02*
G37*
G36*
X12852Y127703D02*
X10604D01*
Y123880D01*
X11339D01*
X11918Y123996D01*
X12409Y124324D01*
X12737Y124815D01*
X12852Y125394D01*
Y127703D01*
D02*
G37*
G36*
X10104D02*
X7857D01*
Y125394D01*
X7972Y124815D01*
X8300Y124324D01*
X8791Y123996D01*
X9370Y123880D01*
X10104D01*
Y127703D01*
D02*
G37*
G36*
X175670Y121386D02*
X175657Y121384D01*
X175645Y121386D01*
X175429Y121377D01*
X175416Y121374D01*
X175404Y121376D01*
X175265Y121337D01*
X175124Y121303D01*
X175114Y121296D01*
X175102Y121292D01*
X174909Y121195D01*
X174898Y121188D01*
X174886Y121184D01*
X174775Y121092D01*
X174661Y121003D01*
X174655Y120992D01*
X174645Y120984D01*
X174603Y120932D01*
X139895Y86224D01*
X139894Y86222D01*
X139892Y86221D01*
X139890Y86219D01*
X139888Y86216D01*
X139885Y86214D01*
X139883Y86212D01*
X139881Y86209D01*
X139879Y86207D01*
X139876Y86205D01*
X139874Y86202D01*
X139872Y86200D01*
X138393Y84650D01*
X138379Y84628D01*
X138359Y84612D01*
X135603Y81330D01*
X135591Y81307D01*
X135572Y81290D01*
X133030Y77839D01*
X133019Y77816D01*
X133001Y77797D01*
X130683Y74193D01*
X130674Y74168D01*
X130657Y74149D01*
X128573Y70404D01*
X128565Y70380D01*
X128549Y70359D01*
X126707Y66490D01*
X126700Y66465D01*
X126686Y66443D01*
X125093Y62465D01*
X125088Y62439D01*
X125076Y62417D01*
X123738Y58346D01*
X123735Y58320D01*
X123723Y58297D01*
X122647Y54149D01*
X122645Y54123D01*
X122636Y54099D01*
X121824Y49891D01*
X121824Y49865D01*
X121816Y49841D01*
X121273Y45590D01*
X121275Y45564D01*
X121269Y45539D01*
X120997Y41262D01*
X121000Y41236D01*
X120995Y41211D01*
Y39068D01*
X120995Y39068D01*
X120995Y-39088D01*
X120995Y-39092D01*
X120996Y-39098D01*
X120995Y-39104D01*
X120995Y-39110D01*
X120996Y-39115D01*
X120996Y-39118D01*
Y-39120D01*
X120995Y-39122D01*
X120996Y-39128D01*
X120996Y-39129D01*
X120999Y-41249D01*
X121004Y-41274D01*
X121001Y-41300D01*
X121277Y-45554D01*
X121284Y-45579D01*
X121282Y-45604D01*
X121826Y-49832D01*
X121834Y-49857D01*
X121834Y-49883D01*
X122644Y-54068D01*
X122653Y-54092D01*
X122655Y-54117D01*
X123727Y-58243D01*
X123738Y-58266D01*
X123741Y-58292D01*
X125072Y-62342D01*
X125085Y-62364D01*
X125089Y-62389D01*
X126673Y-66347D01*
X126687Y-66369D01*
X126693Y-66394D01*
X128523Y-70244D01*
X128539Y-70265D01*
X128547Y-70289D01*
X130616Y-74016D01*
X130633Y-74035D01*
X130642Y-74059D01*
X132943Y-77648D01*
X132961Y-77667D01*
X132971Y-77690D01*
X135494Y-81126D01*
X135513Y-81144D01*
X135525Y-81166D01*
X138260Y-84437D01*
X138280Y-84453D01*
X138293Y-84475D01*
X139687Y-85942D01*
X139699Y-85975D01*
X139730Y-86023D01*
X139761Y-86056D01*
X139782Y-86096D01*
X139818Y-86140D01*
X139853Y-86169D01*
X139878Y-86207D01*
X139897Y-86226D01*
X174604Y-120933D01*
X174646Y-120984D01*
X174654Y-120992D01*
X174660Y-121001D01*
X174775Y-121091D01*
X174887Y-121184D01*
X174898Y-121187D01*
X174907Y-121195D01*
X175098Y-121291D01*
X175109Y-121294D01*
X175118Y-121301D01*
X175259Y-121336D01*
X175399Y-121375D01*
X175411Y-121374D01*
X175422Y-121377D01*
X175635Y-121387D01*
X175647Y-121385D01*
X175658Y-121387D01*
X175801Y-121362D01*
X175945Y-121340D01*
X175955Y-121334D01*
X175966Y-121332D01*
X176165Y-121254D01*
X176175Y-121248D01*
X176186Y-121246D01*
X176306Y-121164D01*
X176429Y-121086D01*
X176436Y-121076D01*
X176445Y-121070D01*
X176520Y-120994D01*
X176521Y-120993D01*
X176521Y-120993D01*
X176522Y-120992D01*
X176523Y-120990D01*
X176525Y-120989D01*
X176525Y-120989D01*
X176526Y-120988D01*
X176526Y-120987D01*
X176528Y-120986D01*
X176529Y-120985D01*
X176530Y-120984D01*
X176531Y-120982D01*
X176532Y-120982D01*
X176532Y-120982D01*
X176533Y-120980D01*
X176534Y-120979D01*
X176534Y-120979D01*
X176535Y-120979D01*
X176535Y-120978D01*
X176536Y-120977D01*
X176537Y-120977D01*
X176538Y-120975D01*
X176539Y-120975D01*
X176539Y-120975D01*
X176539Y-120974D01*
X176540Y-120974D01*
X177450Y-120021D01*
X177471Y-119988D01*
X177500Y-119963D01*
X179132Y-117893D01*
X179149Y-117859D01*
X179176Y-117831D01*
X180603Y-115615D01*
X180617Y-115579D01*
X180641Y-115549D01*
X181851Y-113208D01*
X181861Y-113171D01*
X181883Y-113138D01*
X182864Y-110692D01*
X182871Y-110654D01*
X182889Y-110620D01*
X183632Y-108091D01*
X183636Y-108053D01*
X183651Y-108017D01*
X184150Y-105429D01*
X184150Y-105391D01*
X184161Y-105354D01*
X184412Y-102730D01*
X184408Y-102692D01*
X184415Y-102654D01*
Y-101336D01*
X184415Y-101336D01*
X184415Y101335D01*
Y102653D01*
X184407Y102691D01*
X184411Y102730D01*
X184160Y105354D01*
X184149Y105392D01*
X184149Y105430D01*
X183649Y108019D01*
X183635Y108055D01*
X183631Y108093D01*
X182887Y110623D01*
X182869Y110657D01*
X182862Y110695D01*
X181880Y113142D01*
X181859Y113174D01*
X181848Y113212D01*
X180638Y115554D01*
X180614Y115584D01*
X180599Y115620D01*
X179171Y117837D01*
X179144Y117865D01*
X179127Y117899D01*
X177494Y119969D01*
X177465Y119994D01*
X177444Y120027D01*
X176458Y121058D01*
X176447Y121065D01*
X176440Y121076D01*
X176320Y121155D01*
X176201Y121238D01*
X176189Y121240D01*
X176178Y121247D01*
X175978Y121328D01*
X175965Y121330D01*
X175954Y121337D01*
X175812Y121360D01*
X175670Y121386D01*
D02*
G37*
G36*
X6898Y113591D02*
X4975D01*
Y111766D01*
X6898D01*
Y113591D01*
D02*
G37*
G36*
X52173D02*
X50250D01*
Y111766D01*
X52173D01*
Y113591D01*
D02*
G37*
G36*
X49750D02*
X47827D01*
Y111766D01*
X49750D01*
Y113591D01*
D02*
G37*
G36*
X4474D02*
X2551D01*
Y111766D01*
X4474D01*
Y113591D01*
D02*
G37*
G36*
X52173Y111266D02*
X50250D01*
Y109441D01*
X52173D01*
Y111266D01*
D02*
G37*
G36*
X49750D02*
X47827D01*
Y109441D01*
X49750D01*
Y111266D01*
D02*
G37*
G36*
X6898D02*
X4975D01*
Y109441D01*
X6898D01*
Y111266D01*
D02*
G37*
G36*
X4474D02*
X2551D01*
Y109441D01*
X4474D01*
Y111266D01*
D02*
G37*
G36*
X46887Y111246D02*
X44620D01*
Y106864D01*
X45333Y107005D01*
X46150Y107551D01*
X46695Y108368D01*
X46887Y109331D01*
Y111246D01*
D02*
G37*
G36*
X10104Y111246D02*
X7837D01*
Y109331D01*
X8029Y108368D01*
X8575Y107551D01*
X9391Y107005D01*
X10104Y106864D01*
Y111246D01*
D02*
G37*
G36*
X24Y103772D02*
X-1801D01*
Y100569D01*
X24D01*
Y103772D01*
D02*
G37*
G36*
X-2301D02*
X-4126D01*
Y100569D01*
X-2301D01*
Y103772D01*
D02*
G37*
G36*
X-47024Y101016D02*
X-48849D01*
Y98010D01*
X-47024D01*
Y101016D01*
D02*
G37*
G36*
X-49349D02*
X-51173D01*
Y98010D01*
X-49349D01*
Y101016D01*
D02*
G37*
G36*
X24Y100069D02*
X-2051D01*
X-4126D01*
Y96882D01*
X-6685D01*
Y94663D01*
X-3331D01*
X24D01*
Y96866D01*
Y100069D01*
D02*
G37*
G36*
X-47024Y97510D02*
X-48849D01*
Y94504D01*
X-47024D01*
Y97510D01*
D02*
G37*
G36*
X-49349D02*
X-51173D01*
Y94504D01*
X-49349D01*
Y97510D01*
D02*
G37*
G36*
X24Y94163D02*
X-3081D01*
Y91945D01*
X24D01*
Y94163D01*
D02*
G37*
G36*
X-3581D02*
X-6685D01*
Y91945D01*
X-3581D01*
Y94163D01*
D02*
G37*
G36*
X39575Y93315D02*
X37652D01*
Y91490D01*
X39575D01*
Y93315D01*
D02*
G37*
G36*
X37152D02*
X35228D01*
Y91490D01*
X37152D01*
Y93315D01*
D02*
G37*
G36*
X99102Y107102D02*
X97551D01*
X97474Y107087D01*
X97395D01*
X95873Y106784D01*
X95800Y106754D01*
X95723Y106738D01*
X94290Y106145D01*
X94224Y106101D01*
X94151Y106071D01*
X92861Y105209D01*
X92805Y105153D01*
X92740Y105109D01*
X91643Y104012D01*
X91599Y103946D01*
X91543Y103891D01*
X90681Y102601D01*
X90651Y102528D01*
X90607Y102462D01*
X90014Y101029D01*
X89998Y100952D01*
X89968Y100879D01*
X89665Y99357D01*
Y99278D01*
X89650Y99201D01*
Y97650D01*
X89665Y97572D01*
Y97493D01*
X89968Y95972D01*
X89998Y95899D01*
X90014Y95821D01*
X90607Y94388D01*
X90651Y94323D01*
X90681Y94249D01*
X91543Y92960D01*
X91599Y92904D01*
X91643Y92838D01*
X92740Y91741D01*
X92805Y91697D01*
X92861Y91641D01*
X94151Y90780D01*
X94224Y90750D01*
X94290Y90706D01*
X95723Y90112D01*
X95800Y90097D01*
X95873Y90066D01*
X97395Y89764D01*
X97474D01*
X97551Y89748D01*
X99102D01*
X99180Y89764D01*
X99259D01*
X100780Y90066D01*
X100853Y90097D01*
X100931Y90112D01*
X102364Y90706D01*
X102429Y90750D01*
X102503Y90780D01*
X103792Y91641D01*
X103848Y91697D01*
X103914Y91741D01*
X105011Y92838D01*
X105055Y92904D01*
X105111Y92960D01*
X105972Y94249D01*
X106002Y94323D01*
X106046Y94388D01*
X106640Y95821D01*
X106655Y95899D01*
X106686Y95972D01*
X106988Y97493D01*
Y97572D01*
X107004Y97650D01*
Y99201D01*
X106988Y99278D01*
Y99357D01*
X106686Y100879D01*
X106655Y100952D01*
X106640Y101029D01*
X106046Y102462D01*
X106002Y102528D01*
X105972Y102601D01*
X105111Y103891D01*
X105054Y103947D01*
X105011Y104012D01*
X103914Y105109D01*
X103848Y105153D01*
X103792Y105209D01*
X102503Y106071D01*
X102429Y106101D01*
X102364Y106145D01*
X100931Y106738D01*
X100853Y106754D01*
X100780Y106784D01*
X99259Y107087D01*
X99180D01*
X99102Y107102D01*
D02*
G37*
G36*
X-97748D02*
X-99299D01*
X-99377Y107087D01*
X-99456D01*
X-100977Y106784D01*
X-101050Y106754D01*
X-101128Y106738D01*
X-102561Y106145D01*
X-102626Y106101D01*
X-102699Y106071D01*
X-103989Y105209D01*
X-104045Y105153D01*
X-104111Y105109D01*
X-105208Y104012D01*
X-105251Y103946D01*
X-105307Y103891D01*
X-106169Y102601D01*
X-106199Y102528D01*
X-106243Y102462D01*
X-106837Y101029D01*
X-106852Y100952D01*
X-106882Y100879D01*
X-107185Y99357D01*
Y99278D01*
X-107201Y99201D01*
Y97650D01*
X-107185Y97572D01*
Y97493D01*
X-106882Y95972D01*
X-106852Y95899D01*
X-106837Y95821D01*
X-106243Y94388D01*
X-106199Y94323D01*
X-106169Y94249D01*
X-105307Y92960D01*
X-105251Y92904D01*
X-105207Y92838D01*
X-104111Y91741D01*
X-104045Y91697D01*
X-103989Y91641D01*
X-102699Y90780D01*
X-102626Y90750D01*
X-102561Y90706D01*
X-101128Y90112D01*
X-101050Y90097D01*
X-100977Y90066D01*
X-99456Y89764D01*
X-99377D01*
X-99299Y89748D01*
X-97748D01*
X-97671Y89764D01*
X-97592D01*
X-96070Y90066D01*
X-95997Y90097D01*
X-95920Y90112D01*
X-94487Y90706D01*
X-94421Y90750D01*
X-94348Y90780D01*
X-93058Y91641D01*
X-93002Y91697D01*
X-92936Y91741D01*
X-91840Y92838D01*
X-91796Y92904D01*
X-91740Y92960D01*
X-90878Y94249D01*
X-90848Y94323D01*
X-90804Y94388D01*
X-90210Y95821D01*
X-90195Y95899D01*
X-90165Y95972D01*
X-89862Y97493D01*
Y97572D01*
X-89847Y97650D01*
Y99201D01*
X-89862Y99278D01*
Y99357D01*
X-90165Y100879D01*
X-90195Y100952D01*
X-90210Y101029D01*
X-90804Y102462D01*
X-90848Y102528D01*
X-90878Y102601D01*
X-91740Y103891D01*
X-91796Y103947D01*
X-91840Y104012D01*
X-92936Y105109D01*
X-93002Y105153D01*
X-93058Y105209D01*
X-94348Y106071D01*
X-94421Y106101D01*
X-94487Y106145D01*
X-95920Y106738D01*
X-95997Y106754D01*
X-96070Y106784D01*
X-97592Y107087D01*
X-97671D01*
X-97748Y107102D01*
D02*
G37*
G36*
X39575Y90990D02*
X37652D01*
Y89165D01*
X39575D01*
Y90990D01*
D02*
G37*
G36*
X37152D02*
X35228D01*
Y89165D01*
X37152D01*
Y90990D01*
D02*
G37*
G36*
X15559Y90362D02*
X13734D01*
Y88439D01*
X15559D01*
Y90362D01*
D02*
G37*
G36*
X13234D02*
X11409D01*
Y88439D01*
X13234D01*
Y90362D01*
D02*
G37*
G36*
X15559Y87939D02*
X13734D01*
Y86016D01*
X15559D01*
Y87939D01*
D02*
G37*
G36*
X13234D02*
X11409D01*
Y86016D01*
X13234D01*
Y87939D01*
D02*
G37*
G36*
X31791Y89013D02*
X31791Y89013D01*
X28515D01*
X27936Y88898D01*
X27445Y88570D01*
X27445Y88570D01*
X26292Y87417D01*
X25964Y86926D01*
X25849Y86347D01*
X25849Y86347D01*
Y85773D01*
X25681Y85343D01*
X25303D01*
Y85343D01*
X21941D01*
Y80996D01*
X22603D01*
Y79724D01*
X22680Y79334D01*
X22901Y79004D01*
X25593Y76312D01*
Y74969D01*
X25670Y74579D01*
X25891Y74248D01*
X29624Y70515D01*
X29955Y70294D01*
X30345Y70217D01*
X41530D01*
X53795Y57952D01*
Y54437D01*
X53681D01*
X53027Y54166D01*
X52527Y53666D01*
X52256Y53012D01*
Y52303D01*
X52527Y51649D01*
X53027Y51149D01*
X53681Y50878D01*
X54389D01*
X55043Y51149D01*
X55238Y51344D01*
X55565Y51631D01*
X55892Y51344D01*
X56086Y51149D01*
X56740Y50878D01*
X57449D01*
X58103Y51149D01*
X58603Y51649D01*
X58874Y52303D01*
Y53012D01*
X58603Y53666D01*
X58103Y54166D01*
X57449Y54437D01*
X57335D01*
Y58995D01*
X57257Y59386D01*
X57036Y59716D01*
X43295Y73457D01*
X42964Y73678D01*
X42574Y73756D01*
X31389D01*
X29132Y76013D01*
Y76214D01*
X31823Y78905D01*
X32044Y79236D01*
X32122Y79626D01*
Y80996D01*
X32783D01*
Y83706D01*
X33283Y83974D01*
X33455Y83859D01*
X34034Y83744D01*
X35228D01*
Y83063D01*
X39575D01*
Y83625D01*
X40519D01*
X41162Y83358D01*
X41870D01*
X42524Y83629D01*
X43024Y84130D01*
X43295Y84784D01*
Y85492D01*
X43024Y86146D01*
X42524Y86646D01*
X41870Y86917D01*
X41162D01*
X40519Y86651D01*
X39575D01*
Y87213D01*
X35228D01*
Y86770D01*
X34661D01*
X32861Y88570D01*
X32370Y88898D01*
X32274Y88917D01*
X31791Y89013D01*
D02*
G37*
G36*
X19398Y78453D02*
X14029D01*
Y75053D01*
X19398D01*
Y78453D01*
D02*
G37*
G36*
X13530D02*
X8161D01*
Y75053D01*
X13530D01*
Y78453D01*
D02*
G37*
G36*
X19398Y74553D02*
X14029D01*
Y71153D01*
X19398D01*
Y74553D01*
D02*
G37*
G36*
X13530D02*
X8161D01*
Y71153D01*
X13530D01*
Y74553D01*
D02*
G37*
G36*
X66240Y80350D02*
X59350D01*
X58960Y80273D01*
X58629Y80052D01*
X57842Y79264D01*
X57621Y78934D01*
X57543Y78543D01*
Y73630D01*
X56390D01*
Y69480D01*
X60736D01*
Y73630D01*
X59583D01*
Y78121D01*
X59773Y78311D01*
X63712D01*
X63811Y77811D01*
X63756Y77788D01*
X63255Y77288D01*
X62984Y76634D01*
Y75925D01*
X63255Y75271D01*
X63518Y75009D01*
X63744Y74583D01*
X63594Y74359D01*
X63542Y74094D01*
Y70433D01*
X63594Y70169D01*
X63744Y69945D01*
X63968Y69795D01*
X64232Y69743D01*
X65295D01*
X65560Y69795D01*
X65759Y69928D01*
X65786Y69945D01*
X66301D01*
X66328Y69928D01*
X66527Y69795D01*
X66791Y69743D01*
X67854D01*
X68119Y69795D01*
X68293Y69912D01*
X68320Y69928D01*
X68602Y69938D01*
X68884Y69928D01*
X68912Y69912D01*
X69086Y69795D01*
X69350Y69743D01*
X70413D01*
X70678Y69795D01*
X70902Y69945D01*
X71051Y70169D01*
X71104Y70433D01*
Y71244D01*
X73713D01*
Y69480D01*
X78059D01*
Y70535D01*
X84420D01*
X89039Y65916D01*
Y64094D01*
X88539Y63887D01*
X88000Y64426D01*
Y65118D01*
X87729Y65772D01*
X87229Y66272D01*
X86574Y66543D01*
X85866D01*
X85212Y66272D01*
X84712Y65772D01*
X84670Y65671D01*
X84129D01*
X84087Y65772D01*
X83587Y66272D01*
X82933Y66543D01*
X82225D01*
X81571Y66272D01*
X81070Y65772D01*
X80799Y65118D01*
Y64410D01*
X81070Y63756D01*
X81571Y63255D01*
X82225Y62984D01*
X82916D01*
X85071Y60830D01*
Y59535D01*
X81154D01*
Y58106D01*
X75950D01*
X75758Y58568D01*
X76607Y59417D01*
X76828Y59748D01*
X76905Y60138D01*
Y63378D01*
X78059D01*
Y67528D01*
X73713D01*
Y63378D01*
X74866D01*
Y61616D01*
X74366Y61517D01*
X74146Y62047D01*
X73646Y62548D01*
X72992Y62819D01*
X72284D01*
X71630Y62548D01*
X71581Y62499D01*
X71080Y62653D01*
X71058Y62683D01*
X71104Y62913D01*
Y66575D01*
X71051Y66839D01*
X70902Y67063D01*
X70678Y67213D01*
X70413Y67265D01*
X69350D01*
X69086Y67213D01*
X68887Y67080D01*
X68860Y67063D01*
X68345D01*
X68318Y67080D01*
X68119Y67213D01*
X67854Y67265D01*
X66791D01*
X66527Y67213D01*
X66328Y67080D01*
X66301Y67063D01*
X65786D01*
X65759Y67080D01*
X65560Y67213D01*
X65295Y67265D01*
X64232D01*
X63968Y67213D01*
X63744Y67063D01*
X63594Y66839D01*
X63542Y66575D01*
Y66472D01*
X60736D01*
Y67528D01*
X56390D01*
Y63378D01*
X60736D01*
Y64433D01*
X63542D01*
Y62913D01*
X63594Y62649D01*
X63744Y62425D01*
X63744Y62425D01*
Y58661D01*
X63822Y58271D01*
X64043Y57941D01*
X65618Y56366D01*
X65948Y56145D01*
X66339Y56067D01*
X81154D01*
Y54732D01*
X76350D01*
Y52669D01*
Y50014D01*
X78799D01*
Y49514D01*
X76350D01*
Y48815D01*
X75902D01*
X75511Y48737D01*
X75277Y48581D01*
X57841D01*
X57451Y48503D01*
X57120Y48282D01*
X54183Y45345D01*
X53962Y45014D01*
X53885Y44624D01*
Y42331D01*
X53681D01*
X53027Y42060D01*
X52527Y41559D01*
X52256Y40905D01*
Y40197D01*
X52527Y39543D01*
X53027Y39043D01*
X53681Y38772D01*
X54389D01*
X55043Y39043D01*
X55250Y39249D01*
X55641Y39464D01*
X55903Y39249D01*
X56172Y38980D01*
X56826Y38709D01*
X57534D01*
X58188Y38980D01*
X58688Y39480D01*
X58959Y40134D01*
Y40842D01*
X58688Y41496D01*
X58188Y41997D01*
X57534Y42268D01*
X57424D01*
Y43580D01*
X58885Y45041D01*
X71575D01*
X71864Y44541D01*
X71801Y44390D01*
Y35236D01*
X71842Y35137D01*
Y34736D01*
X72243D01*
X72342Y34695D01*
X75689D01*
X75788Y34736D01*
X76189D01*
Y35137D01*
X76230Y35236D01*
Y40408D01*
X76350Y40858D01*
X81154D01*
Y36055D01*
X81165D01*
Y26091D01*
X80012D01*
Y21941D01*
X84358D01*
Y22996D01*
X85786D01*
Y21941D01*
X90132D01*
Y22996D01*
X91560D01*
Y21941D01*
X95907D01*
Y22996D01*
X97335D01*
Y21941D01*
X101681D01*
Y26091D01*
X97335D01*
Y25035D01*
X95907D01*
Y26091D01*
X91560D01*
Y25035D01*
X90132D01*
Y26091D01*
X85786D01*
Y25035D01*
X84358D01*
Y26091D01*
X83205D01*
Y32757D01*
X83705Y32964D01*
X84835Y31834D01*
Y28929D01*
X88984D01*
Y33276D01*
X89421Y33429D01*
X90501D01*
X90937Y33276D01*
X90937Y32929D01*
Y28929D01*
X95087D01*
Y29589D01*
X96129D01*
X96772Y29323D01*
X97480D01*
X98134Y29594D01*
X98635Y30094D01*
X98905Y30748D01*
Y31456D01*
X98635Y32110D01*
X98134Y32611D01*
X97480Y32882D01*
X96772D01*
X96129Y32616D01*
X95440D01*
X95252Y32804D01*
X95339Y33365D01*
X95523Y33429D01*
X100463D01*
X104264Y29629D01*
Y26091D01*
X103110D01*
Y21941D01*
X107457D01*
Y26091D01*
X106303D01*
Y30051D01*
X106225Y30441D01*
X106004Y30772D01*
X101607Y35170D01*
X101276Y35391D01*
X100886Y35468D01*
X89709D01*
X89644Y35555D01*
X89894Y36055D01*
X95028D01*
Y40858D01*
X99831D01*
Y42827D01*
Y46764D01*
Y50701D01*
Y54732D01*
X95028D01*
Y59535D01*
X91079D01*
Y66339D01*
X91001Y66729D01*
X90780Y67060D01*
X85563Y72276D01*
X85233Y72497D01*
X84842Y72575D01*
X78059D01*
Y73630D01*
X73713D01*
Y73283D01*
X71104D01*
Y74094D01*
X71051Y74359D01*
X70902Y74583D01*
X70678Y74732D01*
X70413Y74785D01*
X69350D01*
X69086Y74732D01*
X68820Y74620D01*
X68456Y74868D01*
X68342Y74964D01*
Y78248D01*
X68265Y78638D01*
X68044Y78969D01*
X66961Y80052D01*
X66630Y80273D01*
X66240Y80350D01*
D02*
G37*
G36*
X-93006Y37902D02*
X-95028D01*
Y34699D01*
X-93006D01*
Y37902D01*
D02*
G37*
G36*
Y34199D02*
X-95028D01*
Y30996D01*
X-93006D01*
Y34199D01*
D02*
G37*
G36*
X76189Y32783D02*
X74266D01*
Y30959D01*
X76189D01*
Y32783D01*
D02*
G37*
G36*
X73766D02*
X71842D01*
Y30959D01*
X73766D01*
Y32783D01*
D02*
G37*
G36*
X76189Y30459D02*
X74266D01*
Y28634D01*
X76189D01*
Y30459D01*
D02*
G37*
G36*
X73766D02*
X71842D01*
Y28634D01*
X73766D01*
Y30459D01*
D02*
G37*
G36*
X84358Y19988D02*
X80012D01*
Y19427D01*
X79067D01*
X78425Y19693D01*
X77717D01*
X77063Y19422D01*
X76562Y18921D01*
X76291Y18267D01*
Y17559D01*
X76562Y16905D01*
X77063Y16405D01*
X77717Y16134D01*
X78425D01*
X79067Y16400D01*
X80012D01*
Y15839D01*
X84358D01*
Y19988D01*
D02*
G37*
G36*
X107457D02*
X105534D01*
Y18163D01*
X107457D01*
Y19988D01*
D02*
G37*
G36*
X95907D02*
X93984D01*
Y18163D01*
X95907D01*
Y19988D01*
D02*
G37*
G36*
X90132D02*
X88209D01*
Y18163D01*
X90132D01*
Y19988D01*
D02*
G37*
G36*
X87709D02*
X85786D01*
Y18163D01*
X87709D01*
Y19988D01*
D02*
G37*
G36*
X105034D02*
X103110D01*
Y18163D01*
X105034D01*
Y19988D01*
D02*
G37*
G36*
X93484D02*
X91560D01*
Y18163D01*
X93484D01*
Y19988D01*
D02*
G37*
G36*
X107457Y17663D02*
X105534D01*
Y15839D01*
X107457D01*
Y17663D01*
D02*
G37*
G36*
X105034D02*
X103110D01*
Y15839D01*
X105034D01*
Y17663D01*
D02*
G37*
G36*
X95907D02*
X93984D01*
Y15839D01*
X95907D01*
Y17663D01*
D02*
G37*
G36*
X93484D02*
X91560D01*
Y15839D01*
X93484D01*
Y17663D01*
D02*
G37*
G36*
X90132D02*
X88209D01*
Y15839D01*
X90132D01*
Y17663D01*
D02*
G37*
G36*
X87709D02*
X85786D01*
Y15839D01*
X87709D01*
Y17663D01*
D02*
G37*
G36*
X80028Y11032D02*
X75681D01*
Y10470D01*
X74737D01*
X74094Y10736D01*
X73386D01*
X72732Y10465D01*
X72232Y9965D01*
X71961Y9311D01*
Y8603D01*
X72232Y7949D01*
X72732Y7448D01*
X73386Y7177D01*
X74094D01*
X74737Y7443D01*
X75681D01*
Y6882D01*
X80028D01*
Y11032D01*
D02*
G37*
G36*
X88945Y3945D02*
X88675D01*
Y250D01*
X92370D01*
Y519D01*
X92101Y1523D01*
X91582Y2422D01*
X90847Y3157D01*
X89948Y3676D01*
X88945Y3945D01*
D02*
G37*
G36*
X88175D02*
X87906D01*
X86902Y3676D01*
X86003Y3157D01*
X85268Y2422D01*
X84749Y1523D01*
X84480Y519D01*
Y250D01*
X88175D01*
Y3945D01*
D02*
G37*
G36*
X-54579Y1878D02*
X-56600D01*
Y-144D01*
X-54579D01*
Y1878D01*
D02*
G37*
G36*
X-65602D02*
X-67624D01*
Y-144D01*
X-65602D01*
Y1878D01*
D02*
G37*
G36*
X-60091D02*
X-62112D01*
Y-144D01*
X-60091D01*
Y1878D01*
D02*
G37*
G36*
X-62612D02*
X-64634D01*
Y-144D01*
X-62612D01*
Y1878D01*
D02*
G37*
G36*
X-68124D02*
X-70146D01*
Y-144D01*
X-68124D01*
Y1878D01*
D02*
G37*
G36*
X-57100D02*
X-59122D01*
Y-144D01*
X-57100D01*
Y1878D01*
D02*
G37*
G36*
X80028Y4929D02*
X75681D01*
Y779D01*
X76835D01*
Y-779D01*
X75681D01*
Y-1439D01*
X74737D01*
X74094Y-1173D01*
X73386D01*
X72732Y-1444D01*
X72232Y-1945D01*
X71961Y-2599D01*
Y-3307D01*
X72232Y-3961D01*
X72732Y-4461D01*
X73386Y-4732D01*
X74094D01*
X74737Y-4466D01*
X75681D01*
Y-4929D01*
X80028D01*
Y-3972D01*
X81172D01*
X85106Y-7906D01*
X85437Y-8127D01*
X85827Y-8205D01*
X101240D01*
X101630Y-8127D01*
X101961Y-7906D01*
X105922Y-3945D01*
X112370D01*
Y3945D01*
X104480D01*
Y-2503D01*
X100818Y-6165D01*
X86249D01*
X82315Y-2232D01*
X81985Y-2011D01*
X81595Y-1933D01*
X80028D01*
Y-779D01*
X78874D01*
Y779D01*
X80028D01*
Y4929D01*
D02*
G37*
G36*
X-54579Y-644D02*
X-56600D01*
Y-2665D01*
X-54579D01*
Y-644D01*
D02*
G37*
G36*
X-57100D02*
X-59122D01*
Y-2665D01*
X-57100D01*
Y-644D01*
D02*
G37*
G36*
X-60091D02*
X-62112D01*
Y-2665D01*
X-60091D01*
Y-644D01*
D02*
G37*
G36*
X-62612D02*
X-64634D01*
Y-2665D01*
X-62612D01*
Y-644D01*
D02*
G37*
G36*
X-65602D02*
X-67624D01*
Y-2665D01*
X-65602D01*
Y-644D01*
D02*
G37*
G36*
X-68124D02*
X-70146D01*
Y-2665D01*
X-68124D01*
Y-644D01*
D02*
G37*
G36*
X98945Y3945D02*
X97906D01*
X96903Y3676D01*
X96003Y3157D01*
X95268Y2422D01*
X94749Y1523D01*
X94480Y519D01*
Y-519D01*
X94749Y-1523D01*
X95268Y-2422D01*
X96003Y-3157D01*
X96903Y-3676D01*
X97906Y-3945D01*
X98945D01*
X99948Y-3676D01*
X100847Y-3157D01*
X101582Y-2422D01*
X102101Y-1523D01*
X102370Y-519D01*
Y519D01*
X102101Y1523D01*
X101582Y2422D01*
X100847Y3157D01*
X99948Y3676D01*
X98945Y3945D01*
D02*
G37*
G36*
X92370Y-250D02*
X88675D01*
Y-3945D01*
X88945D01*
X89948Y-3676D01*
X90847Y-3157D01*
X91582Y-2422D01*
X92101Y-1523D01*
X92370Y-519D01*
Y-250D01*
D02*
G37*
G36*
X88175D02*
X84480D01*
Y-519D01*
X84749Y-1523D01*
X85268Y-2422D01*
X86003Y-3157D01*
X86902Y-3676D01*
X87906Y-3945D01*
X88175D01*
Y-250D01*
D02*
G37*
G36*
X-54579Y-3634D02*
X-56600D01*
Y-5655D01*
X-54579D01*
Y-3634D01*
D02*
G37*
G36*
X-65602D02*
X-67624D01*
Y-5655D01*
X-65602D01*
Y-3634D01*
D02*
G37*
G36*
X-60091D02*
X-62112D01*
Y-5655D01*
X-60091D01*
Y-3634D01*
D02*
G37*
G36*
X-62612D02*
X-64634D01*
Y-5655D01*
X-62612D01*
Y-3634D01*
D02*
G37*
G36*
X-68124D02*
X-70146D01*
Y-5655D01*
X-68124D01*
Y-3634D01*
D02*
G37*
G36*
X-57100D02*
X-59122D01*
Y-5655D01*
X-57100D01*
Y-3634D01*
D02*
G37*
G36*
X-54579Y-6155D02*
X-56600D01*
Y-8177D01*
X-54579D01*
Y-6155D01*
D02*
G37*
G36*
X-57100D02*
X-59122D01*
Y-8177D01*
X-57100D01*
Y-6155D01*
D02*
G37*
G36*
X-60091D02*
X-62112D01*
Y-8177D01*
X-60091D01*
Y-6155D01*
D02*
G37*
G36*
X-62612D02*
X-64634D01*
Y-8177D01*
X-62612D01*
Y-6155D01*
D02*
G37*
G36*
X-65602D02*
X-67624D01*
Y-8177D01*
X-65602D01*
Y-6155D01*
D02*
G37*
G36*
X-68124D02*
X-70146D01*
Y-8177D01*
X-68124D01*
Y-6155D01*
D02*
G37*
G36*
X80028Y-6882D02*
X78104D01*
Y-8707D01*
X80028D01*
Y-6882D01*
D02*
G37*
G36*
X77604D02*
X75681D01*
Y-8707D01*
X77604D01*
Y-6882D01*
D02*
G37*
G36*
X80028Y-9207D02*
X78104D01*
Y-11032D01*
X80028D01*
Y-9207D01*
D02*
G37*
G36*
X77604D02*
X75681D01*
Y-11032D01*
X77604D01*
Y-9207D01*
D02*
G37*
G36*
X-54579Y-9146D02*
X-56600D01*
Y-11167D01*
X-54579D01*
Y-9146D01*
D02*
G37*
G36*
X-65602D02*
X-67624D01*
Y-11167D01*
X-65602D01*
Y-9146D01*
D02*
G37*
G36*
X-60091D02*
X-62112D01*
Y-11167D01*
X-60091D01*
Y-9146D01*
D02*
G37*
G36*
X-62612D02*
X-64634D01*
Y-11167D01*
X-62612D01*
Y-9146D01*
D02*
G37*
G36*
X-68124D02*
X-70146D01*
Y-11167D01*
X-68124D01*
Y-9146D01*
D02*
G37*
G36*
X-57100D02*
X-59122D01*
Y-11167D01*
X-57100D01*
Y-9146D01*
D02*
G37*
G36*
X-54579Y-11667D02*
X-56600D01*
Y-13689D01*
X-54579D01*
Y-11667D01*
D02*
G37*
G36*
X-57100D02*
X-59122D01*
Y-13689D01*
X-57100D01*
Y-11667D01*
D02*
G37*
G36*
X-60091D02*
X-62112D01*
Y-13689D01*
X-60091D01*
Y-11667D01*
D02*
G37*
G36*
X-62612D02*
X-64634D01*
Y-13689D01*
X-62612D01*
Y-11667D01*
D02*
G37*
G36*
X-65602D02*
X-67624D01*
Y-13689D01*
X-65602D01*
Y-11667D01*
D02*
G37*
G36*
X-68124D02*
X-70146D01*
Y-13689D01*
X-68124D01*
Y-11667D01*
D02*
G37*
G36*
X80028Y-18496D02*
X75681D01*
Y-22646D01*
X80028D01*
Y-22084D01*
X80972D01*
X81615Y-22350D01*
X82323D01*
X82977Y-22080D01*
X83477Y-21579D01*
X83748Y-20925D01*
Y-20217D01*
X83477Y-19563D01*
X82977Y-19062D01*
X82323Y-18791D01*
X81615D01*
X80972Y-19058D01*
X80028D01*
Y-18496D01*
D02*
G37*
G36*
X88945Y-25681D02*
X88675D01*
Y-29376D01*
X92370D01*
Y-29107D01*
X92101Y-28103D01*
X91582Y-27204D01*
X90847Y-26469D01*
X89948Y-25950D01*
X88945Y-25681D01*
D02*
G37*
G36*
X88175D02*
X87906D01*
X86902Y-25950D01*
X86003Y-26469D01*
X85268Y-27204D01*
X84749Y-28103D01*
X84480Y-29107D01*
Y-29376D01*
X88175D01*
Y-25681D01*
D02*
G37*
G36*
X-92559Y-25386D02*
X-93267D01*
X-93921Y-25657D01*
X-94422Y-26157D01*
X-94693Y-26811D01*
Y-27519D01*
X-94422Y-28173D01*
X-93921Y-28674D01*
X-93267Y-28945D01*
X-92559D01*
X-91905Y-28674D01*
X-91416Y-28185D01*
X-84281D01*
X-83776Y-28690D01*
Y-30996D01*
X-84984D01*
X-85027Y-30996D01*
X-85484D01*
X-85528Y-30996D01*
X-89984D01*
Y-30496D01*
X-91772D01*
Y-34449D01*
Y-38402D01*
X-90108D01*
Y-50169D01*
X-90579Y-50640D01*
X-103740D01*
X-104123Y-50798D01*
X-104281Y-51181D01*
Y-55504D01*
X-104240Y-55603D01*
Y-62704D01*
X-104281Y-62803D01*
Y-67913D01*
X-104123Y-68296D01*
X-103740Y-68455D01*
X-85630D01*
X-85247Y-68296D01*
X-84850Y-68118D01*
X-80504D01*
Y-63968D01*
X-84850D01*
X-85089Y-63567D01*
Y-62417D01*
X-84850Y-62016D01*
X-84589Y-62016D01*
X-80504D01*
Y-60961D01*
X-78945D01*
Y-62016D01*
X-74598D01*
Y-57866D01*
X-78945D01*
Y-58921D01*
X-80504D01*
Y-57866D01*
X-81736D01*
Y-37902D01*
X-80528D01*
X-80484Y-37902D01*
X-80028D01*
X-79984Y-37902D01*
X-78776D01*
Y-43861D01*
X-78698Y-44252D01*
X-78477Y-44583D01*
X-65882Y-57178D01*
Y-57866D01*
X-67035D01*
Y-62016D01*
X-62689D01*
Y-57866D01*
X-63843D01*
Y-56755D01*
X-63920Y-56365D01*
X-64141Y-56034D01*
X-76736Y-43439D01*
Y-37902D01*
X-75528D01*
X-75484Y-37902D01*
X-75028D01*
X-74984Y-37902D01*
X-73776D01*
Y-42008D01*
X-73698Y-42398D01*
X-73477Y-42729D01*
X-59976Y-56229D01*
Y-57866D01*
X-61130D01*
Y-62016D01*
X-56783D01*
Y-57866D01*
X-57937D01*
Y-55807D01*
X-58015Y-55417D01*
X-58236Y-55086D01*
X-71736Y-41585D01*
Y-37902D01*
X-70528D01*
X-70484Y-37902D01*
X-70028D01*
X-69984Y-37902D01*
X-68775D01*
Y-41988D01*
X-68698Y-42378D01*
X-68477Y-42709D01*
X-54071Y-57115D01*
Y-57866D01*
X-55224D01*
Y-62016D01*
X-50878D01*
Y-57866D01*
X-52032D01*
Y-56693D01*
X-52109Y-56303D01*
X-52330Y-55972D01*
X-66736Y-41566D01*
Y-37902D01*
X-65528D01*
X-65484Y-37902D01*
X-65027D01*
X-64984Y-37902D01*
X-63775D01*
Y-40886D01*
X-63698Y-41276D01*
X-63477Y-41607D01*
X-48165Y-56918D01*
Y-57866D01*
X-49319D01*
Y-62016D01*
X-44972D01*
Y-57866D01*
X-46126D01*
Y-56496D01*
X-46204Y-56106D01*
X-46425Y-55775D01*
X-61736Y-40464D01*
Y-37902D01*
X-60528D01*
X-60484Y-37902D01*
X-60027D01*
X-59984Y-37902D01*
X-58776D01*
Y-41457D01*
X-58698Y-41847D01*
X-58477Y-42178D01*
X-47571Y-53083D01*
X-47241Y-53304D01*
X-46850Y-53382D01*
X-42629D01*
X-42422Y-53882D01*
X-42749Y-54208D01*
X-43020Y-54862D01*
Y-55571D01*
X-42749Y-56225D01*
X-42260Y-56714D01*
Y-57866D01*
X-43413D01*
Y-62016D01*
X-39067D01*
Y-57866D01*
X-40221D01*
Y-56714D01*
X-39732Y-56225D01*
X-39461Y-55571D01*
Y-54862D01*
X-39732Y-54208D01*
X-40058Y-53882D01*
X-39851Y-53382D01*
X-21879D01*
X-19720Y-55540D01*
Y-57866D01*
X-20776D01*
Y-62016D01*
X-16429D01*
Y-57866D01*
X-17681D01*
Y-55118D01*
X-17759Y-54728D01*
X-17980Y-54397D01*
X-20736Y-51641D01*
X-20918Y-51520D01*
X-20766Y-51020D01*
X-17352D01*
X-13716Y-54655D01*
Y-57866D01*
X-14870D01*
Y-62016D01*
X-10524D01*
Y-57866D01*
X-11677D01*
Y-54232D01*
X-11755Y-53842D01*
X-11976Y-53511D01*
X-15936Y-49551D01*
X-15729Y-49051D01*
X-11446D01*
X-7811Y-52686D01*
Y-57866D01*
X-8965D01*
Y-62016D01*
X-4618D01*
Y-57866D01*
X-5772D01*
Y-52264D01*
X-5849Y-51874D01*
X-6070Y-51543D01*
X-10303Y-47311D01*
X-10633Y-47089D01*
X-11024Y-47012D01*
X-42346D01*
X-46736Y-42622D01*
Y-37902D01*
X-45528D01*
X-45484Y-37902D01*
X-45028D01*
X-44984Y-37902D01*
X-43775D01*
Y-40709D01*
X-43698Y-41099D01*
X-43477Y-41430D01*
X-38970Y-45937D01*
X-38639Y-46158D01*
X-38249Y-46235D01*
X-7372D01*
X-1905Y-51702D01*
Y-57866D01*
X-3059D01*
Y-62016D01*
X1287D01*
Y-57866D01*
X134D01*
Y-51279D01*
X56Y-50889D01*
X-165Y-50559D01*
X-6229Y-44495D01*
X-6560Y-44274D01*
X-6950Y-44196D01*
X-37827D01*
X-38711Y-43312D01*
X-38427Y-42888D01*
X-38110Y-43020D01*
X-37402D01*
X-36748Y-42749D01*
X-36247Y-42248D01*
X-35976Y-41594D01*
Y-40886D01*
X-36247Y-40232D01*
X-36736Y-39743D01*
Y-37902D01*
X-35528D01*
X-35484Y-37902D01*
X-35028D01*
X-34984Y-37902D01*
X-30528D01*
X-30484Y-37902D01*
X-30028D01*
X-29984Y-37902D01*
X-25484D01*
Y-30996D01*
X-29984D01*
X-30028Y-30996D01*
X-30484D01*
X-30528Y-30996D01*
X-34984D01*
X-35028Y-30996D01*
X-35484D01*
X-35528Y-30996D01*
X-39984D01*
X-40028Y-30996D01*
X-40484D01*
X-40528Y-30996D01*
X-44984D01*
X-45028Y-30996D01*
X-45484D01*
X-45528Y-30996D01*
X-50028D01*
Y-30996D01*
X-50484D01*
Y-30996D01*
X-54984D01*
X-55028Y-30996D01*
X-55484D01*
X-55528Y-30996D01*
X-59984D01*
X-60027Y-30996D01*
X-60484D01*
X-60528Y-30996D01*
X-64984D01*
X-65027Y-30996D01*
X-65484D01*
X-65528Y-30996D01*
X-69984D01*
X-70028Y-30996D01*
X-70484D01*
X-70528Y-30996D01*
X-74984D01*
X-75028Y-30996D01*
X-75484D01*
X-75528Y-30996D01*
X-79984D01*
X-80028Y-30996D01*
X-80484D01*
X-80528Y-30996D01*
X-81736D01*
Y-28268D01*
X-81814Y-27878D01*
X-82035Y-27547D01*
X-83137Y-26444D01*
X-83468Y-26223D01*
X-83858Y-26146D01*
X-91416D01*
X-91905Y-25657D01*
X-92559Y-25386D01*
D02*
G37*
G36*
X101240Y-21421D02*
X85827D01*
X85437Y-21499D01*
X85106Y-21720D01*
X81172Y-25654D01*
X80028D01*
Y-24598D01*
X75681D01*
Y-28748D01*
X76835D01*
Y-30307D01*
X75681D01*
Y-34457D01*
X80028D01*
Y-33895D01*
X80972D01*
X81615Y-34161D01*
X82323D01*
X82977Y-33891D01*
X83477Y-33390D01*
X83748Y-32736D01*
Y-32028D01*
X83477Y-31374D01*
X82977Y-30873D01*
X82323Y-30602D01*
X81615D01*
X80972Y-30869D01*
X80028D01*
Y-30307D01*
X78874D01*
Y-28748D01*
X80028D01*
Y-27693D01*
X81595D01*
X81985Y-27615D01*
X82315Y-27394D01*
X86249Y-23460D01*
X100818D01*
X104480Y-27123D01*
Y-33571D01*
X112370D01*
Y-25681D01*
X105922D01*
X101961Y-21720D01*
X101630Y-21499D01*
X101240Y-21421D01*
D02*
G37*
G36*
X98945Y-25681D02*
X97906D01*
X96903Y-25950D01*
X96003Y-26469D01*
X95268Y-27204D01*
X94749Y-28103D01*
X94480Y-29107D01*
Y-30145D01*
X94749Y-31149D01*
X95268Y-32048D01*
X96003Y-32783D01*
X96903Y-33302D01*
X97906Y-33571D01*
X98945D01*
X99948Y-33302D01*
X100847Y-32783D01*
X101582Y-32048D01*
X102101Y-31149D01*
X102370Y-30145D01*
Y-29107D01*
X102101Y-28103D01*
X101582Y-27204D01*
X100847Y-26469D01*
X99948Y-25950D01*
X98945Y-25681D01*
D02*
G37*
G36*
X92370Y-29876D02*
X88675D01*
Y-33571D01*
X88945D01*
X89948Y-33302D01*
X90847Y-32783D01*
X91582Y-32048D01*
X92101Y-31149D01*
X92370Y-30145D01*
Y-29876D01*
D02*
G37*
G36*
X88175D02*
X84480D01*
Y-30145D01*
X84749Y-31149D01*
X85268Y-32048D01*
X86003Y-32783D01*
X86902Y-33302D01*
X87906Y-33571D01*
X88175D01*
Y-29876D01*
D02*
G37*
G36*
X80028Y-36410D02*
X78104D01*
Y-38234D01*
X80028D01*
Y-36410D01*
D02*
G37*
G36*
X77604D02*
X75681D01*
Y-38234D01*
X77604D01*
Y-36410D01*
D02*
G37*
G36*
X-175867Y121386D02*
X-176009Y121360D01*
X-176151Y121337D01*
X-176162Y121330D01*
X-176175Y121328D01*
X-176375Y121247D01*
X-176386Y121240D01*
X-176398Y121238D01*
X-176516Y121155D01*
X-176637Y121076D01*
X-176644Y121065D01*
X-176655Y121058D01*
X-176729Y120980D01*
X-177641Y120027D01*
X-177661Y119994D01*
X-177691Y119969D01*
X-179323Y117899D01*
X-179341Y117865D01*
X-179368Y117837D01*
X-180796Y115620D01*
X-180810Y115584D01*
X-180834Y115554D01*
X-182045Y113212D01*
X-182056Y113174D01*
X-182077Y113142D01*
X-183059Y110695D01*
X-183066Y110657D01*
X-183084Y110623D01*
X-183828Y108093D01*
X-183832Y108055D01*
X-183846Y108019D01*
X-184346Y105430D01*
X-184346Y105392D01*
X-184357Y105354D01*
X-184608Y102730D01*
X-184604Y102691D01*
X-184612Y102653D01*
Y101335D01*
X-184612Y-101336D01*
Y-102654D01*
X-184605Y-102692D01*
X-184609Y-102730D01*
X-184358Y-105354D01*
X-184347Y-105391D01*
X-184347Y-105429D01*
X-183847Y-108017D01*
X-183833Y-108053D01*
X-183829Y-108091D01*
X-183086Y-110620D01*
X-183068Y-110654D01*
X-183061Y-110692D01*
X-182080Y-113138D01*
X-182058Y-113171D01*
X-182048Y-113208D01*
X-180838Y-115549D01*
X-180814Y-115579D01*
X-180800Y-115615D01*
X-179373Y-117831D01*
X-179346Y-117859D01*
X-179329Y-117893D01*
X-177697Y-119963D01*
X-177668Y-119988D01*
X-177647Y-120021D01*
X-176736Y-120974D01*
X-176736Y-120974D01*
X-176735Y-120975D01*
X-176735Y-120975D01*
X-176735Y-120975D01*
X-176734Y-120976D01*
X-176734Y-120976D01*
X-176734Y-120977D01*
X-176733Y-120977D01*
X-176732Y-120978D01*
X-176732Y-120979D01*
X-176731Y-120979D01*
X-176731Y-120979D01*
X-176730Y-120980D01*
X-176730Y-120980D01*
X-176729Y-120982D01*
X-176728Y-120982D01*
X-176728Y-120982D01*
X-176727Y-120984D01*
X-176725Y-120985D01*
X-176725Y-120986D01*
X-176723Y-120987D01*
X-176723Y-120988D01*
X-176722Y-120989D01*
X-176722Y-120989D01*
X-176720Y-120990D01*
X-176719Y-120992D01*
X-176718Y-120993D01*
X-176717Y-120993D01*
X-176717Y-120994D01*
X-176642Y-121070D01*
X-176633Y-121076D01*
X-176626Y-121086D01*
X-176503Y-121164D01*
X-176383Y-121246D01*
X-176372Y-121248D01*
X-176362Y-121254D01*
X-176163Y-121332D01*
X-176152Y-121334D01*
X-176142Y-121340D01*
X-175998Y-121362D01*
X-175855Y-121387D01*
X-175844Y-121385D01*
X-175832Y-121387D01*
X-175619Y-121377D01*
X-175608Y-121374D01*
X-175596Y-121375D01*
X-175456Y-121336D01*
X-175314Y-121301D01*
X-175305Y-121294D01*
X-175294Y-121291D01*
X-175103Y-121195D01*
X-175095Y-121187D01*
X-175084Y-121184D01*
X-174972Y-121091D01*
X-174857Y-121001D01*
X-174851Y-120992D01*
X-174843Y-120984D01*
X-174801Y-120933D01*
X-140092Y-86225D01*
X-140075Y-86207D01*
X-140049Y-86169D01*
X-140014Y-86140D01*
X-139979Y-86096D01*
X-139958Y-86056D01*
X-139926Y-86023D01*
X-139896Y-85975D01*
X-139883Y-85942D01*
X-138490Y-84475D01*
X-138477Y-84453D01*
X-138456Y-84437D01*
X-135722Y-81166D01*
X-135710Y-81144D01*
X-135691Y-81126D01*
X-133168Y-77690D01*
X-133157Y-77667D01*
X-133140Y-77648D01*
X-130839Y-74059D01*
X-130830Y-74035D01*
X-130813Y-74016D01*
X-128744Y-70289D01*
X-128736Y-70265D01*
X-128720Y-70244D01*
X-126890Y-66394D01*
X-126884Y-66369D01*
X-126870Y-66347D01*
X-125286Y-62389D01*
X-125282Y-62364D01*
X-125269Y-62342D01*
X-123938Y-58292D01*
X-123935Y-58266D01*
X-123924Y-58243D01*
X-122852Y-54117D01*
X-122850Y-54092D01*
X-122840Y-54068D01*
X-122031Y-49883D01*
X-122031Y-49857D01*
X-122023Y-49832D01*
X-121479Y-45604D01*
X-121481Y-45579D01*
X-121474Y-45554D01*
X-121198Y-41300D01*
X-121201Y-41274D01*
X-121196Y-41249D01*
X-121193Y-39129D01*
X-121192Y-39128D01*
X-121192Y-39122D01*
X-121193Y-39120D01*
Y-39118D01*
X-121193Y-39117D01*
X-121193Y-39116D01*
X-121193Y-39115D01*
X-121192Y-39110D01*
X-121192Y-39104D01*
X-121193Y-39098D01*
X-121192Y-39092D01*
X-121192Y-39088D01*
Y-35974D01*
X-96457D01*
X-96074Y-35816D01*
X-96027Y-35704D01*
X-95527Y-35803D01*
Y-38402D01*
X-93740D01*
Y-34449D01*
Y-30496D01*
X-95416D01*
X-95527Y-30496D01*
X-95916Y-30226D01*
Y35433D01*
X-96074Y35816D01*
X-96457Y35974D01*
X-121192D01*
Y39068D01*
X-121192Y39068D01*
Y41211D01*
X-121197Y41236D01*
X-121194Y41262D01*
X-121465Y45539D01*
X-121472Y45564D01*
X-121470Y45590D01*
X-122013Y49841D01*
X-122021Y49865D01*
X-122021Y49891D01*
X-122832Y54099D01*
X-122842Y54123D01*
X-122844Y54149D01*
X-123920Y58297D01*
X-123932Y58320D01*
X-123935Y58346D01*
X-125272Y62417D01*
X-125285Y62439D01*
X-125290Y62465D01*
X-126883Y66443D01*
X-126897Y66465D01*
X-126904Y66490D01*
X-128746Y70359D01*
X-128762Y70380D01*
X-128770Y70404D01*
X-130854Y74149D01*
X-130871Y74168D01*
X-130880Y74193D01*
X-133198Y77797D01*
X-133216Y77816D01*
X-133227Y77839D01*
X-135768Y81290D01*
X-135787Y81307D01*
X-135800Y81330D01*
X-138556Y84612D01*
X-138576Y84628D01*
X-138590Y84650D01*
X-140069Y86200D01*
X-140071Y86202D01*
X-140073Y86205D01*
X-140075Y86207D01*
X-140078Y86209D01*
X-140080Y86212D01*
X-140082Y86214D01*
X-140085Y86216D01*
X-140087Y86219D01*
X-140089Y86221D01*
X-140091Y86222D01*
X-140092Y86224D01*
X-174800Y120932D01*
X-174842Y120984D01*
X-174852Y120992D01*
X-174858Y121003D01*
X-174972Y121092D01*
X-175083Y121184D01*
X-175095Y121188D01*
X-175105Y121195D01*
X-175299Y121292D01*
X-175311Y121296D01*
X-175321Y121303D01*
X-175461Y121337D01*
X-175601Y121376D01*
X-175613Y121374D01*
X-175626Y121377D01*
X-175841Y121386D01*
X-175854Y121384D01*
X-175867Y121386D01*
D02*
G37*
G36*
X80028Y-38734D02*
X78104D01*
Y-40559D01*
X80028D01*
Y-38734D01*
D02*
G37*
G36*
X77604D02*
X75681D01*
Y-40559D01*
X77604D01*
Y-38734D01*
D02*
G37*
G36*
X-91528Y-39165D02*
X-93352D01*
Y-41089D01*
X-91528D01*
Y-39165D01*
D02*
G37*
G36*
X-93852D02*
X-95677D01*
Y-41089D01*
X-93852D01*
Y-39165D01*
D02*
G37*
G36*
X-91528Y-41589D02*
X-93352D01*
Y-43512D01*
X-91528D01*
Y-41589D01*
D02*
G37*
G36*
X-93852D02*
X-95677D01*
Y-43512D01*
X-93852D01*
Y-41589D01*
D02*
G37*
G36*
X-91528Y-45071D02*
X-93352D01*
Y-46994D01*
X-91528D01*
Y-45071D01*
D02*
G37*
G36*
X-93852D02*
X-95677D01*
Y-46994D01*
X-93852D01*
Y-45071D01*
D02*
G37*
G36*
X-91528Y-47494D02*
X-93352D01*
Y-49417D01*
X-91528D01*
Y-47494D01*
D02*
G37*
G36*
X-93852D02*
X-95677D01*
Y-49417D01*
X-93852D01*
Y-47494D01*
D02*
G37*
G36*
X78208Y-44303D02*
X77500D01*
X76846Y-44574D01*
X76346Y-45075D01*
X76075Y-45729D01*
Y-46437D01*
X76341Y-47079D01*
Y-48122D01*
X75681D01*
Y-52272D01*
X80028D01*
Y-48122D01*
X79368D01*
Y-47079D01*
X79634Y-46437D01*
Y-45729D01*
X79363Y-45075D01*
X78862Y-44574D01*
X78208Y-44303D01*
D02*
G37*
G36*
X-107177Y-55504D02*
X-112545D01*
Y-58903D01*
X-107177D01*
Y-55504D01*
D02*
G37*
G36*
X-113045D02*
X-118413D01*
Y-58903D01*
X-113045D01*
Y-55504D01*
D02*
G37*
G36*
X88945Y-55307D02*
X88675D01*
Y-59002D01*
X92370D01*
Y-58733D01*
X92101Y-57729D01*
X91582Y-56830D01*
X90847Y-56095D01*
X89948Y-55576D01*
X88945Y-55307D01*
D02*
G37*
G36*
X88175D02*
X87906D01*
X86902Y-55576D01*
X86003Y-56095D01*
X85268Y-56830D01*
X84749Y-57729D01*
X84480Y-58733D01*
Y-59002D01*
X88175D01*
Y-55307D01*
D02*
G37*
G36*
X13098Y-57768D02*
X11175D01*
Y-59592D01*
X13098D01*
Y-57768D01*
D02*
G37*
G36*
X10675D02*
X8752D01*
Y-59592D01*
X10675D01*
Y-57768D01*
D02*
G37*
G36*
X-33161Y-57866D02*
X-35085D01*
Y-59691D01*
X-33161D01*
Y-57866D01*
D02*
G37*
G36*
X-35585D02*
X-37508D01*
Y-59691D01*
X-35585D01*
Y-57866D01*
D02*
G37*
G36*
X23925D02*
X22002D01*
Y-59691D01*
X23925D01*
Y-57866D01*
D02*
G37*
G36*
X21502D02*
X19579D01*
Y-59691D01*
X21502D01*
Y-57866D01*
D02*
G37*
G36*
X-22335D02*
X-24258D01*
Y-59691D01*
X-22335D01*
Y-57866D01*
D02*
G37*
G36*
X-24758D02*
X-26681D01*
Y-59691D01*
X-24758D01*
Y-57866D01*
D02*
G37*
G36*
X-68594D02*
X-70518D01*
Y-59691D01*
X-68594D01*
Y-57866D01*
D02*
G37*
G36*
X-71018D02*
X-72941D01*
Y-59691D01*
X-71018D01*
Y-57866D01*
D02*
G37*
G36*
X13098Y-60093D02*
X11175D01*
Y-61917D01*
X13098D01*
Y-60093D01*
D02*
G37*
G36*
X10675D02*
X8752D01*
Y-61917D01*
X10675D01*
Y-60093D01*
D02*
G37*
G36*
X23925Y-60191D02*
X22002D01*
Y-62016D01*
X23925D01*
Y-60191D01*
D02*
G37*
G36*
X21502D02*
X19579D01*
Y-62016D01*
X21502D01*
Y-60191D01*
D02*
G37*
G36*
X5374Y-51370D02*
X4666D01*
X4012Y-51641D01*
X3511Y-52142D01*
X3240Y-52796D01*
Y-53504D01*
X3511Y-54158D01*
X4000Y-54647D01*
Y-57866D01*
X2847D01*
Y-62016D01*
X7193D01*
Y-57866D01*
X6039D01*
Y-54647D01*
X6528Y-54158D01*
X6799Y-53504D01*
Y-52796D01*
X6528Y-52142D01*
X6028Y-51641D01*
X5374Y-51370D01*
D02*
G37*
G36*
X-22335Y-60191D02*
X-24258D01*
Y-62016D01*
X-22335D01*
Y-60191D01*
D02*
G37*
G36*
X-24758D02*
X-26681D01*
Y-62016D01*
X-24758D01*
Y-60191D01*
D02*
G37*
G36*
X-33161Y-60191D02*
X-35085D01*
Y-62016D01*
X-33161D01*
Y-60191D01*
D02*
G37*
G36*
X-35585D02*
X-37508D01*
Y-62016D01*
X-35585D01*
Y-60191D01*
D02*
G37*
G36*
X-68594Y-60191D02*
X-70518D01*
Y-62016D01*
X-68594D01*
Y-60191D01*
D02*
G37*
G36*
X-71018D02*
X-72941D01*
Y-62016D01*
X-71018D01*
Y-60191D01*
D02*
G37*
G36*
X-107177Y-59404D02*
X-112545D01*
Y-62803D01*
X-107177D01*
Y-59404D01*
D02*
G37*
G36*
X-113045D02*
X-118413D01*
Y-62803D01*
X-113045D01*
Y-59404D01*
D02*
G37*
G36*
X101240Y-51047D02*
X85827D01*
X85437Y-51125D01*
X85106Y-51346D01*
X81172Y-55280D01*
X80028D01*
Y-54224D01*
X75681D01*
Y-58374D01*
X76835D01*
Y-59933D01*
X75681D01*
Y-64083D01*
X80028D01*
Y-63521D01*
X80972D01*
X81615Y-63787D01*
X82323D01*
X82977Y-63516D01*
X83477Y-63016D01*
X83748Y-62362D01*
Y-61654D01*
X83477Y-61000D01*
X82977Y-60499D01*
X82323Y-60228D01*
X81615D01*
X80972Y-60495D01*
X80028D01*
Y-59933D01*
X78874D01*
Y-58374D01*
X80028D01*
Y-57319D01*
X81595D01*
X81985Y-57241D01*
X82315Y-57020D01*
X86249Y-53087D01*
X100818D01*
X104480Y-56749D01*
Y-63197D01*
X112370D01*
Y-55307D01*
X105922D01*
X101961Y-51346D01*
X101630Y-51125D01*
X101240Y-51047D01*
D02*
G37*
G36*
X98945Y-55307D02*
X97906D01*
X96903Y-55576D01*
X96003Y-56095D01*
X95268Y-56830D01*
X94749Y-57729D01*
X94480Y-58733D01*
Y-59771D01*
X94749Y-60775D01*
X95268Y-61674D01*
X96003Y-62409D01*
X96903Y-62928D01*
X97906Y-63197D01*
X98945D01*
X99948Y-62928D01*
X100847Y-62409D01*
X101582Y-61674D01*
X102101Y-60775D01*
X102370Y-59771D01*
Y-58733D01*
X102101Y-57729D01*
X101582Y-56830D01*
X100847Y-56095D01*
X99948Y-55576D01*
X98945Y-55307D01*
D02*
G37*
G36*
X92370Y-59502D02*
X88675D01*
Y-63197D01*
X88945D01*
X89948Y-62928D01*
X90847Y-62409D01*
X91582Y-61674D01*
X92101Y-60775D01*
X92370Y-59771D01*
Y-59502D01*
D02*
G37*
G36*
X88175D02*
X84480D01*
Y-59771D01*
X84749Y-60775D01*
X85268Y-61674D01*
X86003Y-62409D01*
X86902Y-62928D01*
X87906Y-63197D01*
X88175D01*
Y-59502D01*
D02*
G37*
G36*
X29732Y-63968D02*
X25386D01*
Y-65024D01*
X23925D01*
Y-63968D01*
X19579D01*
Y-68118D01*
X20732D01*
Y-69677D01*
X19579D01*
Y-74024D01*
X23728D01*
Y-69677D01*
X22772D01*
Y-68118D01*
X23925D01*
Y-67063D01*
X25386D01*
Y-68118D01*
X29732D01*
Y-63968D01*
D02*
G37*
G36*
X13098Y-63870D02*
X8752D01*
Y-65024D01*
X7193D01*
Y-63968D01*
X2847D01*
Y-67528D01*
X2347Y-67735D01*
X1287Y-66676D01*
Y-63968D01*
X-3059D01*
Y-68118D01*
X-155D01*
X905Y-69177D01*
X697Y-69677D01*
X-3059D01*
Y-70831D01*
X-4618D01*
Y-69677D01*
X-5673D01*
Y-68118D01*
X-4618D01*
Y-63968D01*
X-8965D01*
Y-68118D01*
X-7712D01*
Y-69677D01*
X-8768D01*
Y-74024D01*
X-4618D01*
Y-72870D01*
X-3059D01*
Y-74024D01*
X1091D01*
Y-70070D01*
X1591Y-69863D01*
X3043Y-71316D01*
Y-74024D01*
X7193D01*
Y-72870D01*
X8752D01*
Y-74024D01*
X12257D01*
X12494Y-74524D01*
X12307Y-74768D01*
X7067D01*
X6677Y-74845D01*
X6346Y-75066D01*
X641Y-80772D01*
X354Y-80606D01*
X-528Y-80370D01*
X-1441D01*
X-2323Y-80606D01*
X-3114Y-81063D01*
X-3760Y-81709D01*
X-4216Y-82500D01*
X-4453Y-83382D01*
Y-84295D01*
X-4216Y-85177D01*
X-3760Y-85968D01*
X-3114Y-86614D01*
X-2323Y-87071D01*
X-1441Y-87307D01*
X-528D01*
X354Y-87071D01*
X1146Y-86614D01*
X1791Y-85968D01*
X2248Y-85177D01*
X2484Y-84295D01*
Y-83382D01*
X2248Y-82500D01*
X2083Y-82214D01*
X7489Y-76807D01*
X12894D01*
X13284Y-76729D01*
X13615Y-76508D01*
X16099Y-74024D01*
X19004D01*
Y-69677D01*
X16198D01*
X13098Y-66578D01*
Y-63870D01*
D02*
G37*
G36*
X-16429Y-63968D02*
X-20776D01*
Y-65024D01*
X-22335D01*
Y-63968D01*
X-26681D01*
Y-68118D01*
X-25626D01*
Y-69677D01*
X-26681D01*
Y-74024D01*
X-22532D01*
Y-69677D01*
X-23587D01*
Y-68118D01*
X-22335D01*
Y-67063D01*
X-20776D01*
Y-68118D01*
X-16429D01*
Y-63968D01*
D02*
G37*
G36*
X-62689D02*
X-67035D01*
Y-65024D01*
X-68594D01*
Y-63968D01*
X-72941D01*
Y-68118D01*
X-71787D01*
Y-69677D01*
X-72941D01*
Y-74024D01*
X-68791D01*
Y-69677D01*
X-69748D01*
Y-68118D01*
X-68594D01*
Y-67063D01*
X-67035D01*
Y-68118D01*
X-62689D01*
Y-63968D01*
D02*
G37*
G36*
X-74598Y-63968D02*
X-76522D01*
Y-65793D01*
X-74598D01*
Y-63968D01*
D02*
G37*
G36*
X-77022D02*
X-78945D01*
Y-65793D01*
X-77022D01*
Y-63968D01*
D02*
G37*
G36*
X80028Y-66035D02*
X78104D01*
Y-67860D01*
X80028D01*
Y-66035D01*
D02*
G37*
G36*
X77604D02*
X75681D01*
Y-67860D01*
X77604D01*
Y-66035D01*
D02*
G37*
G36*
X-74598Y-66293D02*
X-76522D01*
Y-68118D01*
X-74598D01*
Y-66293D01*
D02*
G37*
G36*
X-77022D02*
X-78945D01*
Y-68118D01*
X-77022D01*
Y-66293D01*
D02*
G37*
G36*
X80028Y-68360D02*
X78104D01*
Y-70185D01*
X80028D01*
Y-68360D01*
D02*
G37*
G36*
X77604D02*
X75681D01*
Y-70185D01*
X77604D01*
Y-68360D01*
D02*
G37*
G36*
X-10524Y-63968D02*
X-14870D01*
Y-68118D01*
X-13716D01*
Y-69677D01*
X-14870D01*
Y-70831D01*
X-16429D01*
Y-69677D01*
X-20579D01*
Y-74024D01*
X-16429D01*
Y-72870D01*
X-14870D01*
Y-74024D01*
X-10721D01*
Y-69677D01*
X-11677D01*
Y-68118D01*
X-10524D01*
Y-63968D01*
D02*
G37*
G36*
X35736D02*
X31390D01*
Y-68118D01*
X32543D01*
Y-69677D01*
X31390D01*
Y-70831D01*
X29831D01*
Y-69677D01*
X25681D01*
Y-74024D01*
X29831D01*
Y-72870D01*
X31390D01*
Y-74024D01*
X35539D01*
Y-69677D01*
X34583D01*
Y-68118D01*
X35736D01*
Y-63968D01*
D02*
G37*
G36*
X-56783D02*
X-61130D01*
Y-68118D01*
X-59976D01*
Y-69677D01*
X-61130D01*
Y-70831D01*
X-62689D01*
Y-69677D01*
X-66839D01*
Y-74024D01*
X-62689D01*
Y-72870D01*
X-61130D01*
Y-74024D01*
X-56980D01*
Y-69677D01*
X-57937D01*
Y-68118D01*
X-56783D01*
Y-63968D01*
D02*
G37*
G36*
X-18480Y-80370D02*
X-18687D01*
Y-83589D01*
X-15469D01*
Y-83382D01*
X-15705Y-82500D01*
X-16161Y-81709D01*
X-16807Y-81063D01*
X-17598Y-80606D01*
X-18480Y-80370D01*
D02*
G37*
G36*
X-19187D02*
X-19394D01*
X-20276Y-80606D01*
X-21067Y-81063D01*
X-21712Y-81709D01*
X-22169Y-82500D01*
X-22406Y-83382D01*
Y-83589D01*
X-19187D01*
Y-80370D01*
D02*
G37*
G36*
X-9504D02*
X-10417D01*
X-11299Y-80606D01*
X-12090Y-81063D01*
X-12736Y-81709D01*
X-13193Y-82500D01*
X-13429Y-83382D01*
Y-84295D01*
X-13193Y-85177D01*
X-12736Y-85968D01*
X-12090Y-86614D01*
X-11299Y-87071D01*
X-10417Y-87307D01*
X-9504D01*
X-8622Y-87071D01*
X-7831Y-86614D01*
X-7185Y-85968D01*
X-6729Y-85177D01*
X-6492Y-84295D01*
Y-83382D01*
X-6729Y-82500D01*
X-7185Y-81709D01*
X-7831Y-81063D01*
X-8622Y-80606D01*
X-9504Y-80370D01*
D02*
G37*
G36*
X-15469Y-84089D02*
X-18687D01*
Y-87307D01*
X-18480D01*
X-17598Y-87071D01*
X-16807Y-86614D01*
X-16161Y-85968D01*
X-15705Y-85177D01*
X-15469Y-84295D01*
Y-84089D01*
D02*
G37*
G36*
X-19187D02*
X-22406D01*
Y-84295D01*
X-22169Y-85177D01*
X-21712Y-85968D01*
X-21067Y-86614D01*
X-20276Y-87071D01*
X-19394Y-87307D01*
X-19187D01*
Y-84089D01*
D02*
G37*
G36*
X-48307Y-85039D02*
X-48923D01*
Y-93589D01*
X-40374D01*
Y-92972D01*
X-40712Y-91272D01*
X-41375Y-89671D01*
X-42338Y-88229D01*
X-43564Y-87004D01*
X-45005Y-86041D01*
X-46607Y-85378D01*
X-48307Y-85039D01*
D02*
G37*
G36*
X-49423D02*
X-50040D01*
X-51740Y-85378D01*
X-53341Y-86041D01*
X-54782Y-87004D01*
X-56008Y-88229D01*
X-56971Y-89671D01*
X-57634Y-91272D01*
X-57972Y-92972D01*
Y-93589D01*
X-49423D01*
Y-85039D01*
D02*
G37*
G36*
X-10980Y-94089D02*
X-14199D01*
Y-97307D01*
X-13992D01*
X-13110Y-97071D01*
X-12319Y-96614D01*
X-11673Y-95968D01*
X-11217Y-95177D01*
X-10980Y-94295D01*
Y-94089D01*
D02*
G37*
G36*
X-14699D02*
X-17917D01*
Y-94295D01*
X-17681Y-95177D01*
X-17224Y-95968D01*
X-16578Y-96614D01*
X-15788Y-97071D01*
X-14905Y-97307D01*
X-14699D01*
Y-94089D01*
D02*
G37*
G36*
X-40374D02*
X-48923D01*
Y-102638D01*
X-48307D01*
X-46607Y-102300D01*
X-45005Y-101636D01*
X-43564Y-100673D01*
X-42338Y-99448D01*
X-41375Y-98007D01*
X-40712Y-96405D01*
X-40374Y-94705D01*
Y-94089D01*
D02*
G37*
G36*
X-49423D02*
X-57972D01*
Y-94705D01*
X-57634Y-96405D01*
X-56971Y-98007D01*
X-56008Y-99448D01*
X-54782Y-100673D01*
X-53341Y-101636D01*
X-51740Y-102300D01*
X-50040Y-102638D01*
X-49423D01*
Y-94089D01*
D02*
G37*
G36*
X99102Y-89748D02*
X97551D01*
X97474Y-89764D01*
X97395D01*
X95873Y-90066D01*
X95800Y-90097D01*
X95723Y-90112D01*
X94290Y-90706D01*
X94224Y-90750D01*
X94151Y-90780D01*
X92861Y-91641D01*
X92805Y-91697D01*
X92740Y-91741D01*
X91643Y-92838D01*
X91599Y-92904D01*
X91543Y-92960D01*
X90681Y-94249D01*
X90651Y-94323D01*
X90607Y-94388D01*
X90014Y-95821D01*
X89998Y-95899D01*
X89968Y-95972D01*
X89665Y-97493D01*
Y-97572D01*
X89650Y-97650D01*
Y-99201D01*
X89665Y-99278D01*
Y-99357D01*
X89968Y-100879D01*
X89998Y-100952D01*
X90014Y-101029D01*
X90607Y-102462D01*
X90651Y-102528D01*
X90681Y-102601D01*
X91543Y-103891D01*
X91599Y-103947D01*
X91643Y-104012D01*
X92740Y-105109D01*
X92805Y-105153D01*
X92861Y-105209D01*
X94151Y-106071D01*
X94224Y-106101D01*
X94290Y-106145D01*
X95723Y-106738D01*
X95800Y-106754D01*
X95873Y-106784D01*
X97395Y-107087D01*
X97474D01*
X97551Y-107102D01*
X99102D01*
X99180Y-107087D01*
X99259D01*
X100780Y-106784D01*
X100853Y-106754D01*
X100931Y-106738D01*
X102364Y-106145D01*
X102429Y-106101D01*
X102503Y-106071D01*
X103792Y-105209D01*
X103848Y-105153D01*
X103914Y-105109D01*
X105011Y-104012D01*
X105055Y-103946D01*
X105111Y-103891D01*
X105972Y-102601D01*
X106002Y-102528D01*
X106046Y-102462D01*
X106640Y-101029D01*
X106655Y-100952D01*
X106686Y-100879D01*
X106988Y-99357D01*
Y-99278D01*
X107004Y-99201D01*
Y-97650D01*
X106988Y-97572D01*
Y-97493D01*
X106686Y-95972D01*
X106655Y-95899D01*
X106640Y-95821D01*
X106046Y-94388D01*
X106002Y-94323D01*
X105972Y-94249D01*
X105111Y-92960D01*
X105054Y-92904D01*
X105011Y-92838D01*
X103914Y-91741D01*
X103848Y-91697D01*
X103792Y-91641D01*
X102503Y-90780D01*
X102429Y-90750D01*
X102364Y-90706D01*
X100931Y-90112D01*
X100853Y-90097D01*
X100780Y-90066D01*
X99259Y-89764D01*
X99180D01*
X99102Y-89748D01*
D02*
G37*
G36*
X-97748D02*
X-99299D01*
X-99377Y-89764D01*
X-99456D01*
X-100977Y-90066D01*
X-101050Y-90097D01*
X-101128Y-90112D01*
X-102561Y-90706D01*
X-102626Y-90750D01*
X-102699Y-90780D01*
X-103989Y-91641D01*
X-104045Y-91697D01*
X-104111Y-91741D01*
X-105208Y-92838D01*
X-105251Y-92904D01*
X-105307Y-92960D01*
X-106169Y-94249D01*
X-106199Y-94323D01*
X-106243Y-94388D01*
X-106837Y-95821D01*
X-106852Y-95899D01*
X-106882Y-95972D01*
X-107185Y-97493D01*
Y-97572D01*
X-107201Y-97650D01*
Y-99201D01*
X-107185Y-99278D01*
Y-99357D01*
X-106882Y-100879D01*
X-106852Y-100952D01*
X-106837Y-101029D01*
X-106243Y-102462D01*
X-106199Y-102528D01*
X-106169Y-102601D01*
X-105307Y-103891D01*
X-105251Y-103947D01*
X-105207Y-104012D01*
X-104111Y-105109D01*
X-104045Y-105153D01*
X-103989Y-105209D01*
X-102699Y-106071D01*
X-102626Y-106101D01*
X-102561Y-106145D01*
X-101128Y-106738D01*
X-101050Y-106754D01*
X-100977Y-106784D01*
X-99456Y-107087D01*
X-99377D01*
X-99299Y-107102D01*
X-97748D01*
X-97671Y-107087D01*
X-97592D01*
X-96070Y-106784D01*
X-95997Y-106754D01*
X-95920Y-106738D01*
X-94487Y-106145D01*
X-94421Y-106101D01*
X-94348Y-106071D01*
X-93058Y-105209D01*
X-93002Y-105153D01*
X-92936Y-105109D01*
X-91840Y-104012D01*
X-91796Y-103946D01*
X-91740Y-103891D01*
X-90878Y-102601D01*
X-90848Y-102528D01*
X-90804Y-102462D01*
X-90210Y-101029D01*
X-90195Y-100952D01*
X-90165Y-100879D01*
X-89862Y-99357D01*
Y-99278D01*
X-89847Y-99201D01*
Y-97650D01*
X-89862Y-97572D01*
Y-97493D01*
X-90165Y-95972D01*
X-90195Y-95899D01*
X-90210Y-95821D01*
X-90804Y-94388D01*
X-90848Y-94323D01*
X-90878Y-94249D01*
X-91740Y-92960D01*
X-91796Y-92904D01*
X-91840Y-92838D01*
X-92936Y-91741D01*
X-93002Y-91697D01*
X-93058Y-91641D01*
X-94348Y-90780D01*
X-94421Y-90750D01*
X-94487Y-90706D01*
X-95920Y-90112D01*
X-95997Y-90097D01*
X-96070Y-90066D01*
X-97592Y-89764D01*
X-97671D01*
X-97748Y-89748D01*
D02*
G37*
G36*
X-9504Y-100370D02*
X-10417D01*
X-11299Y-100606D01*
X-12090Y-101063D01*
X-12736Y-101709D01*
X-13193Y-102500D01*
X-13429Y-103382D01*
Y-104295D01*
X-13193Y-105177D01*
X-12736Y-105968D01*
X-12090Y-106614D01*
X-11299Y-107071D01*
X-10417Y-107307D01*
X-9504D01*
X-8622Y-107071D01*
X-7831Y-106614D01*
X-7185Y-105968D01*
X-6729Y-105177D01*
X-6492Y-104295D01*
Y-103382D01*
X-6729Y-102500D01*
X-7185Y-101709D01*
X-7831Y-101063D01*
X-8622Y-100606D01*
X-9504Y-100370D01*
D02*
G37*
G36*
X-18480D02*
X-19394D01*
X-20276Y-100606D01*
X-21067Y-101063D01*
X-21712Y-101709D01*
X-22169Y-102500D01*
X-22406Y-103382D01*
Y-104295D01*
X-22169Y-105177D01*
X-21712Y-105968D01*
X-21067Y-106614D01*
X-20276Y-107071D01*
X-19394Y-107307D01*
X-18480D01*
X-17598Y-107071D01*
X-16807Y-106614D01*
X-16161Y-105968D01*
X-15705Y-105177D01*
X-15469Y-104295D01*
Y-103382D01*
X-15705Y-102500D01*
X-16161Y-101709D01*
X-16807Y-101063D01*
X-17598Y-100606D01*
X-18480Y-100370D01*
D02*
G37*
G36*
X197528Y-188173D02*
X195976D01*
X195899Y-188189D01*
X195820D01*
X194299Y-188492D01*
X194226Y-188522D01*
X194148Y-188537D01*
X192715Y-189131D01*
X192649Y-189175D01*
X192576Y-189205D01*
X191287Y-190067D01*
X191231Y-190123D01*
X191165Y-190167D01*
X190068Y-191263D01*
X190024Y-191329D01*
X189968Y-191385D01*
X189107Y-192675D01*
X189076Y-192748D01*
X189032Y-192813D01*
X188439Y-194246D01*
X188423Y-194324D01*
X188393Y-194397D01*
X188091Y-195918D01*
Y-195997D01*
X188075Y-196075D01*
Y-197626D01*
X188091Y-197704D01*
Y-197783D01*
X188393Y-199304D01*
X188423Y-199377D01*
X188439Y-199454D01*
X189032Y-200887D01*
X189076Y-200953D01*
X189107Y-201026D01*
X189968Y-202316D01*
X190024Y-202372D01*
X190068Y-202437D01*
X191165Y-203534D01*
X191231Y-203578D01*
X191287Y-203634D01*
X192576Y-204496D01*
X192649Y-204526D01*
X192715Y-204570D01*
X194148Y-205164D01*
X194226Y-205179D01*
X194299Y-205209D01*
X195820Y-205512D01*
X195899D01*
X195976Y-205527D01*
X197528D01*
X197605Y-205512D01*
X197684D01*
X199205Y-205209D01*
X199278Y-205179D01*
X199356Y-205164D01*
X200789Y-204570D01*
X200855Y-204526D01*
X200928Y-204496D01*
X202217Y-203634D01*
X202273Y-203578D01*
X202339Y-203534D01*
X203436Y-202437D01*
X203480Y-202372D01*
X203536Y-202316D01*
X204397Y-201026D01*
X204428Y-200953D01*
X204472Y-200887D01*
X205065Y-199454D01*
X205081Y-199377D01*
X205111Y-199304D01*
X205413Y-197783D01*
Y-197704D01*
X205429Y-197626D01*
Y-196075D01*
X205413Y-195997D01*
Y-195918D01*
X205111Y-194397D01*
X205081Y-194324D01*
X205065Y-194246D01*
X204472Y-192813D01*
X204428Y-192748D01*
X204397Y-192675D01*
X203536Y-191385D01*
X203480Y-191329D01*
X203436Y-191263D01*
X202339Y-190166D01*
X202273Y-190123D01*
X202217Y-190067D01*
X200928Y-189205D01*
X200855Y-189175D01*
X200789Y-189131D01*
X199356Y-188537D01*
X199278Y-188522D01*
X199205Y-188492D01*
X197684Y-188189D01*
X197605D01*
X197528Y-188173D01*
D02*
G37*
G36*
X-196173Y-188173D02*
X-197724D01*
X-197802Y-188189D01*
X-197881D01*
X-199402Y-188492D01*
X-199475Y-188522D01*
X-199553Y-188537D01*
X-200986Y-189131D01*
X-201051Y-189175D01*
X-201125Y-189205D01*
X-202414Y-190067D01*
X-202470Y-190123D01*
X-202536Y-190167D01*
X-203633Y-191263D01*
X-203677Y-191329D01*
X-203732Y-191385D01*
X-204594Y-192675D01*
X-204625Y-192748D01*
X-204668Y-192813D01*
X-205262Y-194246D01*
X-205277Y-194324D01*
X-205308Y-194397D01*
X-205610Y-195918D01*
Y-195997D01*
X-205626Y-196075D01*
Y-197626D01*
X-205610Y-197704D01*
Y-197783D01*
X-205308Y-199304D01*
X-205277Y-199377D01*
X-205262Y-199454D01*
X-204668Y-200887D01*
X-204625Y-200953D01*
X-204594Y-201026D01*
X-203732Y-202316D01*
X-203677Y-202372D01*
X-203633Y-202437D01*
X-202536Y-203534D01*
X-202470Y-203578D01*
X-202414Y-203634D01*
X-201125Y-204496D01*
X-201051Y-204526D01*
X-200986Y-204570D01*
X-199553Y-205164D01*
X-199475Y-205179D01*
X-199402Y-205209D01*
X-197881Y-205512D01*
X-197802D01*
X-197724Y-205527D01*
X-196173D01*
X-196096Y-205512D01*
X-196017D01*
X-194495Y-205209D01*
X-194422Y-205179D01*
X-194345Y-205164D01*
X-192912Y-204570D01*
X-192846Y-204526D01*
X-192773Y-204496D01*
X-191483Y-203634D01*
X-191427Y-203578D01*
X-191362Y-203534D01*
X-190265Y-202437D01*
X-190221Y-202372D01*
X-190165Y-202316D01*
X-189303Y-201026D01*
X-189273Y-200953D01*
X-189229Y-200887D01*
X-188636Y-199454D01*
X-188620Y-199377D01*
X-188590Y-199304D01*
X-188287Y-197783D01*
Y-197704D01*
X-188272Y-197626D01*
Y-196075D01*
X-188287Y-195997D01*
Y-195918D01*
X-188590Y-194397D01*
X-188620Y-194324D01*
X-188636Y-194246D01*
X-189229Y-192813D01*
X-189273Y-192748D01*
X-189303Y-192675D01*
X-190165Y-191385D01*
X-190221Y-191329D01*
X-190265Y-191263D01*
X-191362Y-190167D01*
X-191428Y-190123D01*
X-191483Y-190067D01*
X-192773Y-189205D01*
X-192846Y-189175D01*
X-192912Y-189131D01*
X-194345Y-188537D01*
X-194422Y-188522D01*
X-194495Y-188492D01*
X-196017Y-188189D01*
X-196096D01*
X-196173Y-188173D01*
D02*
G37*
%LPD*%
G36*
X-25594Y76173D02*
X-21542D01*
X-21335Y75673D01*
X-22787Y74221D01*
X-25594D01*
Y70071D01*
X-24440D01*
Y59089D01*
X-38477Y45052D01*
X-38698Y44721D01*
X-38776Y44331D01*
Y37902D01*
X-39984D01*
X-40028Y37902D01*
X-40484D01*
X-40528Y37902D01*
X-41736D01*
Y45011D01*
X-41449Y45298D01*
X-41087Y45632D01*
X-41087Y45632D01*
X-40645Y46294D01*
X-40490Y47074D01*
X-40645Y47855D01*
X-41087Y48516D01*
X-40952Y48961D01*
X-40576Y49337D01*
X-39570Y48331D01*
X-39570Y48331D01*
X-39581Y48321D01*
X-39002Y47934D01*
X-38319Y47798D01*
X-37636Y47934D01*
X-37057Y48321D01*
X-37068Y48331D01*
X-36007Y49392D01*
X-35997Y49381D01*
X-35610Y49960D01*
X-35474Y50643D01*
X-35610Y51326D01*
X-35997Y51905D01*
X-36007Y51894D01*
X-36667Y52555D01*
X-35964Y53258D01*
X-35531Y52969D01*
X-34751Y52814D01*
X-33970Y52969D01*
X-33309Y53411D01*
X-33309Y53411D01*
X-33323Y53425D01*
X-28315Y58433D01*
X-26740Y60007D01*
X-26519Y60338D01*
X-26441Y60728D01*
Y63168D01*
X-25952Y63657D01*
X-25681Y64311D01*
Y65019D01*
X-25952Y65673D01*
X-26453Y66174D01*
X-27107Y66445D01*
X-27815D01*
X-28469Y66174D01*
X-28969Y65673D01*
X-29240Y65019D01*
Y64311D01*
X-28969Y63657D01*
X-28480Y63168D01*
Y61151D01*
X-29756Y59874D01*
X-34433Y55198D01*
X-34846Y54961D01*
X-34846Y54961D01*
X-34869Y54972D01*
X-35305Y55264D01*
X-35988Y55400D01*
X-36671Y55264D01*
X-37250Y54877D01*
X-37239Y54867D01*
X-38300Y53806D01*
X-38310Y53816D01*
X-38697Y53237D01*
X-38833Y52555D01*
X-38697Y51872D01*
X-38310Y51293D01*
X-38300Y51303D01*
X-37640Y50643D01*
X-38069Y50214D01*
X-38569D01*
X-39325Y50969D01*
X-39314Y50980D01*
X-39893Y51366D01*
X-40576Y51502D01*
X-41259Y51366D01*
X-41838Y50980D01*
X-41827Y50969D01*
X-42888Y49909D01*
X-42898Y49919D01*
X-43285Y49340D01*
X-43421Y48657D01*
X-43285Y47975D01*
X-42898Y47396D01*
X-42898Y47396D01*
X-42620Y47011D01*
X-43477Y46154D01*
X-43698Y45823D01*
X-43775Y45433D01*
Y37902D01*
X-44984D01*
X-45028Y37902D01*
X-45484D01*
X-45528Y37902D01*
X-49984D01*
X-50028Y37902D01*
X-50484D01*
X-50528Y37902D01*
X-51736D01*
Y43574D01*
X-32523Y62787D01*
X-31831D01*
X-31177Y63058D01*
X-30676Y63559D01*
X-30406Y64213D01*
Y64921D01*
X-30676Y65575D01*
X-31177Y66075D01*
X-31831Y66347D01*
X-32539D01*
X-33193Y66075D01*
X-33694Y65575D01*
X-33965Y64921D01*
Y64229D01*
X-53477Y44717D01*
X-53698Y44386D01*
X-53776Y43996D01*
Y37902D01*
X-54984D01*
X-55028Y37902D01*
X-55484D01*
X-55528Y37902D01*
X-56736D01*
Y45251D01*
X-56318Y45876D01*
X-56163Y46657D01*
X-56318Y47437D01*
X-56761Y48099D01*
X-56761Y48099D01*
X-56774Y48085D01*
X-59049Y50360D01*
X-58370Y51039D01*
X-54525Y47194D01*
X-54525Y47194D01*
X-54535Y47184D01*
X-53956Y46797D01*
X-53273Y46661D01*
X-52591Y46797D01*
X-52012Y47184D01*
X-52022Y47194D01*
X-50962Y48255D01*
X-50951Y48244D01*
X-50564Y48823D01*
X-50429Y49506D01*
X-50564Y50189D01*
X-50951Y50768D01*
X-50962Y50757D01*
X-54514Y54310D01*
X-53835Y54989D01*
X-52206Y53360D01*
X-51866Y52993D01*
X-51205Y52551D01*
X-50424Y52396D01*
X-49644Y52551D01*
X-48982Y52993D01*
X-48982Y52993D01*
X-48996Y53007D01*
X-48076Y53927D01*
X-47855Y54258D01*
X-47777Y54648D01*
Y59697D01*
Y70071D01*
X-46722D01*
Y72779D01*
X-45143Y74358D01*
X-44700Y74094D01*
Y70071D01*
X-43546D01*
Y66458D01*
X-44035Y65969D01*
X-44306Y65315D01*
Y64607D01*
X-44035Y63953D01*
X-43535Y63452D01*
X-42880Y63181D01*
X-42173D01*
X-41519Y63452D01*
X-41018Y63953D01*
X-40747Y64607D01*
Y65315D01*
X-41018Y65969D01*
X-41507Y66458D01*
Y70071D01*
X-40353D01*
Y72779D01*
X-38774Y74358D01*
X-38331Y74094D01*
Y70071D01*
X-37240D01*
Y69509D01*
X-37729Y69020D01*
X-38000Y68366D01*
Y67658D01*
X-37729Y67004D01*
X-37229Y66503D01*
X-36574Y66232D01*
X-35866D01*
X-35212Y66503D01*
X-34712Y67004D01*
X-34441Y67658D01*
Y68366D01*
X-34712Y69020D01*
X-35201Y69509D01*
Y70071D01*
X-33985D01*
Y72877D01*
X-32336Y74526D01*
X-32039Y74261D01*
X-31962Y73897D01*
X-31962Y73732D01*
Y72396D01*
X-30039D01*
Y74221D01*
X-31463D01*
X-31934Y74221D01*
X-32020Y74316D01*
X-32156Y74612D01*
X-32182Y74680D01*
X-31961Y75010D01*
X-31883Y75401D01*
Y76173D01*
X-27616D01*
Y76735D01*
X-25594D01*
Y76173D01*
D02*
G37*
G36*
X-6012Y74664D02*
Y71154D01*
X-6012Y71153D01*
X-6012D01*
X-6047Y70668D01*
X-6053Y70653D01*
X-6053Y58661D01*
X-5895Y58279D01*
X-5895Y58279D01*
X-776Y53161D01*
X-394Y53002D01*
X-394Y53002D01*
X12098D01*
X12198Y53043D01*
X16345D01*
X16445Y53002D01*
X24433D01*
X24624Y52540D01*
X23296Y51212D01*
X22924Y50656D01*
X22794Y50000D01*
Y49578D01*
X22449Y49220D01*
X22294Y49220D01*
X21018D01*
Y47047D01*
Y44874D01*
X22294D01*
X22449Y44874D01*
X22794Y44517D01*
Y41622D01*
X13181D01*
Y32157D01*
X35835D01*
Y41622D01*
X26222D01*
Y44517D01*
X26567Y44874D01*
X26722Y44874D01*
X29929D01*
Y45333D01*
X32776D01*
X33432Y45464D01*
X33988Y45835D01*
X35093Y46941D01*
X36917D01*
Y51091D01*
X33709D01*
X33554Y51459D01*
X33542Y51591D01*
X34995Y53043D01*
X36917D01*
Y57193D01*
X32571D01*
Y55467D01*
X31589Y54486D01*
X30104D01*
X29929Y54913D01*
X29929Y54986D01*
Y57818D01*
X31623Y59512D01*
X37176D01*
X40516Y56172D01*
Y23847D01*
X39420Y22752D01*
X35876D01*
Y25984D01*
X35835Y26084D01*
Y26465D01*
X35482D01*
X35335Y26526D01*
X13905D01*
X12292Y28139D01*
X11909Y28297D01*
X11909Y28297D01*
X11327D01*
X11227Y28256D01*
X7080D01*
X6980Y28297D01*
X5028D01*
X4928Y28256D01*
X681D01*
Y27201D01*
X-1272D01*
Y28256D01*
X-5618D01*
Y24106D01*
X-1272D01*
Y25161D01*
X681D01*
Y24206D01*
X640Y24106D01*
Y17421D01*
X798Y17039D01*
X1181Y16880D01*
X35335D01*
X35624Y17000D01*
X35835D01*
Y17322D01*
X35876Y17421D01*
Y20713D01*
X39843D01*
X40233Y20790D01*
X40563Y21011D01*
X42256Y22704D01*
X42477Y23035D01*
X42555Y23425D01*
Y56595D01*
X42477Y56985D01*
X42256Y57315D01*
X38319Y61252D01*
X37989Y61474D01*
X37598Y61551D01*
X31201D01*
X30811Y61474D01*
X30480Y61252D01*
X28487Y59260D01*
X26730D01*
X26567Y59260D01*
X26230Y59620D01*
Y60236D01*
X26072Y60619D01*
X26021Y60640D01*
Y61184D01*
X27989Y63152D01*
X40023D01*
X44845Y58330D01*
Y13386D01*
Y7776D01*
X44845Y7776D01*
X44960Y7197D01*
X45288Y6706D01*
X68959Y-16965D01*
Y-52854D01*
X68959Y-52854D01*
X69074Y-53434D01*
X69402Y-53924D01*
X72010Y-56532D01*
Y-89235D01*
X55377Y-105869D01*
X43343D01*
X35125Y-97650D01*
X34634Y-97322D01*
X34055Y-97207D01*
X34055Y-97207D01*
X23559D01*
X23425Y-96707D01*
X23586Y-96614D01*
X24232Y-95968D01*
X24689Y-95177D01*
X24925Y-94295D01*
Y-94089D01*
X17988D01*
Y-94295D01*
X18225Y-95177D01*
X18681Y-95968D01*
X19327Y-96614D01*
X19488Y-96707D01*
X19354Y-97207D01*
X14583D01*
X14449Y-96707D01*
X14610Y-96614D01*
X15256Y-95968D01*
X15712Y-95177D01*
X15949Y-94295D01*
Y-94089D01*
X12480D01*
Y-93589D01*
X15949D01*
Y-93382D01*
X15712Y-92500D01*
X15256Y-91709D01*
X14610Y-91063D01*
X13819Y-90606D01*
X12937Y-90370D01*
X12376D01*
X12308Y-90171D01*
X12293Y-89870D01*
X12552Y-89697D01*
X14942Y-87307D01*
X20437D01*
Y-80370D01*
X14049D01*
X13929Y-80248D01*
X13752Y-79870D01*
X13813Y-79760D01*
X65945D01*
X66335Y-79682D01*
X66666Y-79461D01*
X69619Y-76508D01*
X69840Y-76178D01*
X69917Y-75787D01*
Y-68118D01*
X71169D01*
Y-63968D01*
X66823D01*
Y-65024D01*
X65264D01*
Y-63968D01*
X62715D01*
X62638Y-63854D01*
X61300Y-62516D01*
X61507Y-62016D01*
X65264D01*
Y-57866D01*
X64110D01*
Y-21358D01*
X64033Y-20968D01*
X63811Y-20637D01*
X58595Y-15421D01*
X58264Y-15200D01*
X57874Y-15122D01*
X1210D01*
X-5280Y-8633D01*
Y-7448D01*
X-4780Y-7349D01*
X-4658Y-7642D01*
X-4158Y-8143D01*
X-3504Y-8413D01*
X-2796D01*
X-2142Y-8143D01*
X-1641Y-7642D01*
X-1370Y-6988D01*
Y-6280D01*
X-1641Y-5626D01*
X-2130Y-5137D01*
Y-2173D01*
X-1075D01*
Y2173D01*
X-4846D01*
X-5268Y2357D01*
X-5333Y2628D01*
X-5357Y2752D01*
X-5578Y3083D01*
X-10716Y8221D01*
X-11047Y8442D01*
X-11437Y8520D01*
X-19382D01*
Y9728D01*
X-19382Y9772D01*
Y10228D01*
X-19382Y10272D01*
Y11480D01*
X-17540D01*
X-17051Y10991D01*
X-16397Y10721D01*
X-15689D01*
X-15035Y10991D01*
X-14535Y11492D01*
X-14264Y12146D01*
Y12854D01*
X-14535Y13508D01*
X-15035Y14009D01*
X-15689Y14279D01*
X-16397D01*
X-17051Y14009D01*
X-17540Y13520D01*
X-19382D01*
Y14728D01*
X-19382Y14772D01*
Y15228D01*
X-19382Y15272D01*
Y16480D01*
X-13001D01*
X66Y3413D01*
X397Y3192D01*
X787Y3114D01*
X17491D01*
X22310Y-1705D01*
X22641Y-1926D01*
X23031Y-2004D01*
X37873D01*
X38362Y-2493D01*
X39016Y-2764D01*
X39724D01*
X40378Y-2493D01*
X40879Y-1992D01*
X41150Y-1338D01*
Y-630D01*
X40879Y24D01*
X40378Y524D01*
X39724Y795D01*
X39016D01*
X38362Y524D01*
X37873Y35D01*
X23454D01*
X18634Y4855D01*
X18304Y5076D01*
X17913Y5153D01*
X1210D01*
X-11858Y18221D01*
X-12189Y18442D01*
X-12579Y18520D01*
X-19382D01*
Y19728D01*
X-19382Y19772D01*
Y20228D01*
X-19382Y20272D01*
Y21480D01*
X-10127D01*
X4594Y6759D01*
X4925Y6538D01*
X5315Y6461D01*
X18869D01*
X22114Y3216D01*
X22445Y2995D01*
X22835Y2917D01*
X37873D01*
X38362Y2428D01*
X39016Y2158D01*
X39724D01*
X40378Y2428D01*
X40879Y2929D01*
X41150Y3583D01*
Y4291D01*
X40879Y4945D01*
X40378Y5446D01*
X39724Y5717D01*
X39016D01*
X38362Y5446D01*
X37873Y4957D01*
X23257D01*
X20012Y8201D01*
X19681Y8422D01*
X19291Y8500D01*
X5737D01*
X-8984Y23221D01*
X-9314Y23442D01*
X-9705Y23520D01*
X-19382D01*
Y24728D01*
X-19382Y24772D01*
Y25228D01*
X-19382Y25272D01*
Y29772D01*
X-26236D01*
X-26287Y29772D01*
X-26736Y29895D01*
Y30996D01*
X-25484D01*
Y33429D01*
X-6131D01*
X-5618Y32916D01*
Y30209D01*
X-1272D01*
Y34358D01*
X-4176D01*
X-4988Y35170D01*
X-5319Y35391D01*
X-5709Y35468D01*
X-25484D01*
Y37902D01*
X-29984D01*
X-30028Y37902D01*
X-30484D01*
X-30528Y37902D01*
X-31736D01*
Y41633D01*
X-31247Y42122D01*
X-30976Y42776D01*
Y43484D01*
X-31247Y44138D01*
X-31748Y44638D01*
X-32402Y44910D01*
X-33110D01*
X-33764Y44638D01*
X-34264Y44138D01*
X-34535Y43484D01*
Y42776D01*
X-34264Y42122D01*
X-33775Y41633D01*
Y37902D01*
X-34984D01*
X-35028Y37902D01*
X-35484D01*
X-35528Y37902D01*
X-36736D01*
Y43908D01*
X-22699Y57945D01*
X-22478Y58276D01*
X-22401Y58666D01*
Y70071D01*
X-21247D01*
Y72877D01*
X-19598Y74526D01*
X-19225Y74192D01*
Y70071D01*
X-18073D01*
X-18072Y69571D01*
X-18560Y69082D01*
X-18831Y68428D01*
Y67721D01*
X-18560Y67067D01*
X-18059Y66566D01*
X-17405Y66295D01*
X-16698D01*
X-16043Y66566D01*
X-15543Y67067D01*
X-15272Y67721D01*
Y68428D01*
X-15543Y69082D01*
X-16031Y69571D01*
X-16030Y70071D01*
X-14878D01*
Y72877D01*
X-13229Y74526D01*
X-12856Y74192D01*
Y70071D01*
X-8509D01*
Y72877D01*
X-6707Y74680D01*
X-6091Y74717D01*
X-6012Y74664D01*
D02*
G37*
G36*
X20472Y100098D02*
X18209Y97835D01*
X15059D01*
X9154Y91929D01*
Y90362D01*
X7632D01*
Y88189D01*
Y86016D01*
X8296D01*
X8487Y85554D01*
X4724Y81791D01*
Y78953D01*
X606D01*
Y74803D01*
Y70653D01*
X4724D01*
Y63878D01*
X8366Y60236D01*
X12598D01*
X25689Y60236D01*
Y59260D01*
X24758D01*
Y57087D01*
Y54913D01*
X25689D01*
Y53605D01*
X25627Y53543D01*
X16445D01*
Y54868D01*
X14272D01*
X12098D01*
Y53543D01*
X-394D01*
X-5512Y58661D01*
X-5512Y70653D01*
X-1394D01*
Y74803D01*
Y78953D01*
X-5512D01*
Y80413D01*
X2756Y88681D01*
Y97441D01*
X8563Y103248D01*
X11614Y103248D01*
X20472D01*
Y100098D01*
D02*
G37*
G36*
X13681Y25984D02*
X35335D01*
Y17421D01*
X1181D01*
Y24106D01*
X2604D01*
Y26181D01*
X2854D01*
Y26431D01*
X5028D01*
Y27756D01*
X6980D01*
Y26431D01*
X11327D01*
Y27756D01*
X11909D01*
X13681Y25984D01*
D02*
G37*
%LPC*%
G36*
X-29539Y74221D02*
Y72396D01*
X-27616D01*
Y74221D01*
X-29539D01*
D02*
G37*
G36*
X-27616Y71896D02*
X-29539D01*
Y70071D01*
X-27616D01*
Y71896D01*
D02*
G37*
G36*
X-30039D02*
X-31962D01*
Y70071D01*
X-30039D01*
Y71896D01*
D02*
G37*
G36*
X16445Y51091D02*
X14522D01*
Y49266D01*
X16445D01*
Y51091D01*
D02*
G37*
G36*
X14022D02*
X12098D01*
Y49266D01*
X14022D01*
Y51091D01*
D02*
G37*
G36*
X20518Y49220D02*
X19087D01*
Y47297D01*
X20518D01*
Y49220D01*
D02*
G37*
G36*
X16445Y48766D02*
X14522D01*
Y46941D01*
X16445D01*
Y48766D01*
D02*
G37*
G36*
X14022D02*
X12098D01*
Y46941D01*
X14022D01*
Y48766D01*
D02*
G37*
G36*
X20518Y46797D02*
X19087D01*
Y44874D01*
X20518D01*
Y46797D01*
D02*
G37*
G36*
X11327Y34358D02*
X9404D01*
Y32533D01*
X11327D01*
Y34358D01*
D02*
G37*
G36*
X8904D02*
X6980D01*
Y32533D01*
X8904D01*
Y34358D01*
D02*
G37*
G36*
X5028D02*
X3104D01*
Y32533D01*
X5028D01*
Y34358D01*
D02*
G37*
G36*
X2604D02*
X681D01*
Y32533D01*
X2604D01*
Y34358D01*
D02*
G37*
G36*
X11327Y32034D02*
X9404D01*
Y30209D01*
X11327D01*
Y32034D01*
D02*
G37*
G36*
X8904D02*
X6980D01*
Y30209D01*
X8904D01*
Y32034D01*
D02*
G37*
G36*
X5028D02*
X3104D01*
Y30209D01*
X5028D01*
Y32034D01*
D02*
G37*
G36*
X2604D02*
X681D01*
Y30209D01*
X2604D01*
Y32034D01*
D02*
G37*
G36*
X39724Y10835D02*
X39016D01*
X38362Y10564D01*
X37873Y10075D01*
X23938D01*
X23449Y10564D01*
X22795Y10835D01*
X22087D01*
X21433Y10564D01*
X20932Y10063D01*
X20661Y9409D01*
Y8701D01*
X20932Y8047D01*
X21433Y7547D01*
X22087Y7276D01*
X22795D01*
X23449Y7547D01*
X23938Y8036D01*
X37873D01*
X38362Y7547D01*
X39016Y7276D01*
X39724D01*
X40378Y7547D01*
X40879Y8047D01*
X41150Y8701D01*
Y9409D01*
X40879Y10063D01*
X40378Y10564D01*
X39724Y10835D01*
D02*
G37*
G36*
X11622Y2173D02*
X7473D01*
Y1513D01*
X5028D01*
Y2173D01*
X878D01*
Y-2173D01*
X5028D01*
Y-1513D01*
X7473D01*
Y-2173D01*
X11622D01*
Y2173D01*
D02*
G37*
G36*
X17724D02*
X15900D01*
Y250D01*
X17724D01*
Y2173D01*
D02*
G37*
G36*
X15400D02*
X13575D01*
Y250D01*
X15400D01*
Y2173D01*
D02*
G37*
G36*
X17724Y-250D02*
X15900D01*
Y-2173D01*
X17724D01*
Y-250D01*
D02*
G37*
G36*
X15400D02*
X13575D01*
Y-2173D01*
X15400D01*
Y-250D01*
D02*
G37*
G36*
X71169Y-57866D02*
X69246D01*
Y-59691D01*
X71169D01*
Y-57866D01*
D02*
G37*
G36*
X68746D02*
X66823D01*
Y-59691D01*
X68746D01*
Y-57866D01*
D02*
G37*
G36*
X71169Y-60191D02*
X69246D01*
Y-62016D01*
X71169D01*
Y-60191D01*
D02*
G37*
G36*
X68746D02*
X66823D01*
Y-62016D01*
X68746D01*
Y-60191D01*
D02*
G37*
G36*
X50079Y-85039D02*
X49463D01*
Y-93589D01*
X58012D01*
Y-92972D01*
X57674Y-91272D01*
X57010Y-89671D01*
X56047Y-88229D01*
X54822Y-87004D01*
X53381Y-86041D01*
X51779Y-85378D01*
X50079Y-85039D01*
D02*
G37*
G36*
X48963D02*
X48346D01*
X46646Y-85378D01*
X45045Y-86041D01*
X43603Y-87004D01*
X42378Y-88229D01*
X41415Y-89671D01*
X40751Y-91272D01*
X40413Y-92972D01*
Y-93589D01*
X48963D01*
Y-85039D01*
D02*
G37*
G36*
X21913Y-90370D02*
X21707D01*
Y-93589D01*
X24925D01*
Y-93382D01*
X24689Y-92500D01*
X24232Y-91709D01*
X23586Y-91063D01*
X22795Y-90606D01*
X21913Y-90370D01*
D02*
G37*
G36*
X21207D02*
X21000D01*
X20118Y-90606D01*
X19327Y-91063D01*
X18681Y-91709D01*
X18225Y-92500D01*
X17988Y-93382D01*
Y-93589D01*
X21207D01*
Y-90370D01*
D02*
G37*
G36*
X58012Y-94089D02*
X49463D01*
Y-102638D01*
X50079D01*
X51779Y-102300D01*
X53381Y-101636D01*
X54822Y-100673D01*
X56047Y-99448D01*
X57010Y-98007D01*
X57674Y-96405D01*
X58012Y-94705D01*
Y-94089D01*
D02*
G37*
G36*
X48963D02*
X40413D01*
Y-94705D01*
X40751Y-96405D01*
X41415Y-98007D01*
X42378Y-99448D01*
X43603Y-100673D01*
X45045Y-101636D01*
X46646Y-102300D01*
X48346Y-102638D01*
X48963D01*
Y-94089D01*
D02*
G37*
G36*
X7132Y90362D02*
X5307D01*
Y88439D01*
X7132D01*
Y90362D01*
D02*
G37*
G36*
Y87939D02*
X5307D01*
Y86016D01*
X7132D01*
Y87939D01*
D02*
G37*
G36*
X20518Y59260D02*
X19087D01*
Y57337D01*
X20518D01*
Y59260D01*
D02*
G37*
G36*
X16445Y57193D02*
X14522D01*
Y55368D01*
X16445D01*
Y57193D01*
D02*
G37*
G36*
X14022D02*
X12098D01*
Y55368D01*
X14022D01*
Y57193D01*
D02*
G37*
G36*
X20518Y56837D02*
X19087D01*
Y54913D01*
X20518D01*
Y56837D01*
D02*
G37*
G36*
X22827Y59260D02*
X22449D01*
X22327Y59260D01*
X21018D01*
Y57087D01*
Y54913D01*
X22327D01*
X22449Y54913D01*
X22827D01*
X22949Y54913D01*
X24258D01*
Y57087D01*
Y59260D01*
X22949D01*
X22827Y59260D01*
D02*
G37*
G36*
X11327Y25931D02*
X9404D01*
Y24106D01*
X11327D01*
Y25931D01*
D02*
G37*
G36*
X8904D02*
X6980D01*
Y24106D01*
X8904D01*
Y25931D01*
D02*
G37*
G36*
X5028D02*
X3104D01*
Y24106D01*
X5028D01*
Y25931D01*
D02*
G37*
%LPD*%
G36*
X75689Y35236D02*
X72342D01*
Y44390D01*
X75689D01*
Y35236D01*
D02*
G37*
G36*
X-87506Y-37902D02*
X-85630D01*
Y-67913D01*
X-103740D01*
Y-62803D01*
X-98872D01*
Y-59153D01*
Y-55504D01*
X-103740D01*
Y-51181D01*
X-90354D01*
X-89567Y-50394D01*
Y-37902D01*
X-88006D01*
Y-34449D01*
X-87506D01*
Y-37902D01*
D02*
G37*
%LPC*%
G36*
X-93004Y-55504D02*
X-98372D01*
Y-58903D01*
X-93004D01*
Y-55504D01*
D02*
G37*
G36*
Y-59404D02*
X-98372D01*
Y-62803D01*
X-93004D01*
Y-59404D01*
D02*
G37*
%LPD*%
D15*
X-5472Y-93839D02*
X-591Y-98721D01*
X34055D02*
X42717Y-107382D01*
X-591Y-98721D02*
X34055D01*
X42717Y-107382D02*
X56004D01*
X73524Y-89862D02*
Y-55905D01*
X56004Y-107382D02*
X73524Y-89862D01*
X70472Y-52854D02*
X73524Y-55905D01*
X46358Y7776D02*
X70472Y-16339D01*
Y-52854D02*
Y-16339D01*
X46358Y7776D02*
Y13386D01*
X14764Y105118D02*
Y109232D01*
X37402Y85138D02*
X41516D01*
X37303D02*
X37402D01*
X-55118Y78248D02*
X-48895D01*
X-29789D02*
X-23420D01*
X27362Y83169D02*
Y86347D01*
X28515Y87500D01*
X31791D01*
X34034Y85257D01*
X37282D02*
X37402Y85138D01*
X34034Y85257D02*
X37282D01*
X77854Y-13071D02*
Y-8957D01*
X-16421Y125555D02*
Y130732D01*
X77854Y-72224D02*
Y-68110D01*
X-10683Y78248D02*
Y82362D01*
X78071Y17913D02*
X82185D01*
X87959Y13799D02*
Y17913D01*
X-23420Y78248D02*
Y82362D01*
X-25083Y125555D02*
Y130732D01*
X-25091Y130740D02*
X-25083Y130732D01*
X-42527Y78248D02*
Y82362D01*
X73740Y8957D02*
X77854D01*
X-48895Y78248D02*
Y82362D01*
X20768Y47047D02*
Y50689D01*
X9154Y32283D02*
Y35925D01*
X-17051Y78248D02*
Y82362D01*
X-36158Y78248D02*
Y82362D01*
X73740Y-2953D02*
X77854D01*
Y-32382D02*
X81968D01*
X77854Y-62008D02*
X81968D01*
X77854Y-20571D02*
X81968D01*
X24508Y57087D02*
Y61811D01*
X27362Y64665D01*
X40650D01*
X46358Y13386D02*
Y58957D01*
X40650Y64665D02*
X46358Y58957D01*
Y13386D02*
X81299D01*
X84941Y9744D01*
X96358D01*
X99508Y12894D01*
Y17913D01*
X93734Y13799D02*
Y17913D01*
X17815Y101575D02*
X17913Y101673D01*
Y105118D01*
X17913Y105118D02*
X17913Y105118D01*
X17913Y105118D02*
Y109232D01*
X93012Y31102D02*
X97126D01*
X77854Y-50197D02*
Y-46083D01*
X20768Y57087D02*
X24508D01*
X-93012Y-34705D02*
X-92756Y-34449D01*
X-93602Y-41339D02*
X-93012Y-40748D01*
X2953Y0D02*
X9547D01*
X37402Y91240D02*
X41516D01*
X39961Y105118D02*
Y109232D01*
X36811Y105118D02*
Y109232D01*
X10630Y49016D02*
X14272D01*
X14272Y45374D02*
Y49016D01*
X2854Y32283D02*
Y35925D01*
D16*
X-51131Y53728D02*
G03*
X-49717Y53728I707J707D01*
G01*
X-53304Y55901D02*
G03*
X-54365Y55901I-530J-530D01*
G01*
X-55426Y54840D02*
G03*
X-55426Y53779I530J-530D01*
G01*
X-51683Y48976D02*
G03*
X-51683Y50036I-530J530D01*
G01*
X-53804Y47915D02*
G03*
X-52743Y47915I530J530D01*
G01*
X-57840Y51951D02*
G03*
X-58900Y51951I-530J-530D01*
G01*
X-59961Y50890D02*
G03*
X-59961Y49829I530J-530D01*
G01*
X-57495Y45950D02*
G03*
X-57495Y47364I-707J707D01*
G01*
X-35458Y54145D02*
G03*
X-34043Y54145I707J707D01*
G01*
X-35458Y54146D02*
G03*
X-36518Y54146I-530J-530D01*
G01*
X-37579Y53085D02*
G03*
X-37579Y52024I530J-530D01*
G01*
X-36728Y50113D02*
G03*
X-36728Y51173I-530J530D01*
G01*
X-38849Y49052D02*
G03*
X-37789Y49052I530J530D01*
G01*
X-40046Y50248D02*
G03*
X-41106Y50248I-530J-530D01*
G01*
X-42167Y49188D02*
G03*
X-42167Y48127I530J-530D01*
G01*
X-41822Y46367D02*
G03*
X-41822Y47782I-707J707D01*
G01*
X-63756Y45445D02*
G03*
X-62756Y46445I0J1000D01*
G01*
X-66032Y45445D02*
G03*
X-66782Y44695I0J-750D01*
G01*
Y43195D02*
G03*
X-66032Y42445I750J0D01*
G01*
X-62756Y41445D02*
G03*
X-63756Y42445I-1000J0D01*
G01*
X42574Y72736D02*
X56315Y58995D01*
Y53859D02*
Y58995D01*
X30967Y72736D02*
X42574D01*
X54035Y52658D02*
Y53079D01*
X56315Y53859D02*
X57095Y53079D01*
X41953Y71236D02*
X54815Y58374D01*
X54035Y53079D02*
X54815Y53859D01*
X57095Y52658D02*
Y53079D01*
X54815Y53859D02*
Y58374D01*
X54904Y44624D02*
X57841Y47561D01*
X54035Y40973D02*
X54904Y41842D01*
X56404Y44003D02*
X58463Y46061D01*
X57180Y40488D02*
Y40910D01*
X56404Y41686D02*
Y44003D01*
X54035Y40551D02*
Y40973D01*
X54904Y41842D02*
Y44624D01*
X56404Y41686D02*
X57180Y40910D01*
X-87598Y-66043D02*
X-82677D01*
X16929Y-71949D02*
Y-71752D01*
X15657Y-73024D02*
X15854D01*
X7067Y-75787D02*
X12894D01*
X15854Y-73024D02*
X16929Y-71949D01*
X12894Y-75787D02*
X15657Y-73024D01*
X-59646Y76575D02*
Y84158D01*
X-59060Y84744D01*
X-55587Y88213D02*
X-47524D01*
X-59055Y84744D02*
X-55587Y88213D01*
X-59060Y84744D02*
X-59055D01*
X-48797Y54648D02*
Y59697D01*
X-49717Y53728D02*
X-48797Y54648D01*
X-51131Y53728D02*
X-51131Y53728D01*
X-53304Y55901D02*
X-51131Y53728D01*
X-55426Y54840D02*
X-54365Y55901D01*
X-55426Y53779D02*
X-51683Y50036D01*
X-51683Y50036D02*
X-51683Y50036D01*
X-52743Y47915D02*
X-51683Y48976D01*
X-53804Y47915D02*
X-53804Y47915D01*
X-57840Y51951D02*
X-53804Y47915D01*
X-57840Y51951D02*
X-57840Y51951D01*
X-59961Y50890D02*
X-58900Y51951D01*
X-59961Y49829D02*
X-59961Y49829D01*
X-57495Y47364D01*
X-57756Y45689D02*
X-57495Y45950D01*
X-57756Y45503D02*
Y45689D01*
X-34043Y54145D02*
X-29035Y59153D01*
X-35458Y54145D02*
X-35458Y54145D01*
X-35458Y54146D02*
X-35458Y54145D01*
X-37579Y53085D02*
X-36518Y54146D01*
X-37579Y52024D02*
X-36728Y51173D01*
X-37789Y49052D02*
X-36728Y50113D01*
X-40046Y50248D02*
X-38849Y49052D01*
X-40046Y50248D02*
X-40046Y50248D01*
X-42167Y49188D02*
X-41106Y50248D01*
X-42167Y48127D02*
X-42167Y48127D01*
X-41822Y47782D01*
X-42175Y46014D02*
X-41822Y46367D01*
X-29035Y59153D02*
X-27461Y60728D01*
X-42756Y45433D02*
X-42175Y46014D01*
X-62756Y51516D02*
X-51575Y62697D01*
X-62756Y48318D02*
Y51516D01*
X-51575Y62697D02*
Y64961D01*
X-57756Y34449D02*
Y45503D01*
X-52756Y43996D02*
X-32185Y64567D01*
X-52756Y34449D02*
Y43996D01*
X-62756Y34449D02*
Y40945D01*
Y46445D02*
Y48318D01*
X-66032Y45445D02*
X-63756D01*
X-66782Y43195D02*
Y44695D01*
X-66032Y42445D02*
X-63756D01*
X-62756Y40945D02*
Y41445D01*
X-48797Y59697D02*
Y72146D01*
X-42527Y64961D02*
Y72047D01*
X100886Y34449D02*
X105283Y30051D01*
Y24016D02*
Y30051D01*
X88878Y34449D02*
X100886D01*
X88090Y35236D02*
X88878Y34449D01*
X88090Y35236D02*
Y38504D01*
X-5709Y34449D02*
X-3543Y32283D01*
X-27756Y34449D02*
X-5709D01*
X-3543Y32283D02*
X-3445D01*
X2854Y26181D02*
X2854Y26181D01*
X-3445Y26181D02*
X2854D01*
X93734Y24016D02*
X99508D01*
X87959D02*
X93734D01*
X82185D02*
X87959D01*
X82185D02*
Y38504D01*
X-70768Y-66043D02*
X-64862D01*
X-70866Y-71850D02*
X-70768Y-71752D01*
Y-66043D01*
X-58957Y-71752D02*
Y-66043D01*
X-59055Y-71850D02*
X-58957Y-71752D01*
X-64764Y-71850D02*
X-59055D01*
X-52953D02*
X-47244D01*
X-53051Y-71752D02*
X-52953Y-71850D01*
X-53051Y-71752D02*
Y-66043D01*
X-41142Y-71850D02*
X-35433D01*
X-47047Y-66043D02*
X-42413Y-70677D01*
X-42217D02*
X-41142Y-71752D01*
X-47146Y-66043D02*
X-47047D01*
X-42413Y-70677D02*
X-42217D01*
X-41142Y-71850D02*
Y-71752D01*
X21752Y-66043D02*
X27559D01*
X21752Y-71752D02*
Y-66043D01*
X21654Y-71850D02*
X21752Y-71752D01*
X33563Y-71752D02*
Y-66043D01*
X33465Y-71850D02*
X33563Y-71752D01*
X27756Y-71850D02*
X33465D01*
X39567D02*
X45276D01*
X39469Y-71752D02*
X39567Y-71850D01*
X39469Y-71752D02*
Y-66043D01*
X51378Y-71850D02*
X57087D01*
X45472Y-66043D02*
X50106Y-70677D01*
X45374Y-66043D02*
X45472D01*
X50106Y-70677D02*
X50303D01*
X51378Y-71752D01*
Y-71850D02*
Y-71752D01*
X57185Y-66043D02*
X57185Y-66043D01*
X51279Y-66043D02*
X57185D01*
X63189Y-71850D02*
Y-71752D01*
X58555Y-67118D02*
X63189Y-71752D01*
X58260Y-67118D02*
X58555D01*
X57185Y-66043D02*
X58260Y-67118D01*
X-24508Y-66043D02*
X-18602D01*
X-24606Y-66142D02*
X-24508Y-66043D01*
X-24606Y-71850D02*
Y-66142D01*
X-12697Y-71752D02*
Y-66043D01*
X-12795Y-71850D02*
X-12697Y-71752D01*
X-18504Y-71850D02*
X-12795D01*
X-6693D02*
X-984D01*
X-6693D02*
Y-66142D01*
X-6791Y-66043D02*
X-6693Y-66142D01*
X5118Y-71850D02*
X10827D01*
X3846Y-70677D02*
X4043D01*
X-886Y-66043D02*
X-787D01*
X3846Y-70677D01*
X4043D02*
X5118Y-71752D01*
Y-71850D02*
Y-71752D01*
X84153Y33957D02*
X86910Y31201D01*
X84153Y33957D02*
Y38504D01*
X86910Y31102D02*
Y31201D01*
X-62362Y-5906D02*
Y-394D01*
Y-11417D02*
Y-5906D01*
X-67874D02*
X-62362D01*
X-56850D01*
X-72756Y34449D02*
Y41240D01*
X82579Y64764D02*
X86090Y61252D01*
Y57118D02*
Y61252D01*
Y57118D02*
X86122Y57087D01*
X88090D02*
Y62894D01*
X86221Y64764D02*
X88090Y62894D01*
X-77756Y34449D02*
Y41240D01*
X31102Y79626D02*
Y83169D01*
X28112Y75591D02*
Y76636D01*
X31102Y79626D01*
X28112Y75591D02*
X30967Y72736D01*
X23622Y79724D02*
Y83169D01*
X26612Y74969D02*
Y76734D01*
X23622Y79724D02*
X26612Y76734D01*
X-67028Y23819D02*
X-33268D01*
X-27756Y29331D01*
Y34449D01*
X11831Y-88976D02*
X16969Y-83839D01*
X-29331Y-85827D02*
X-26181Y-88976D01*
X11831D01*
X77854Y-2953D02*
Y2756D01*
Y-2953D02*
X81595D01*
X85827Y-7185D02*
X101240D01*
X108425Y0D01*
X81595Y-2953D02*
X85827Y-7185D01*
X77854Y-32382D02*
Y-26673D01*
X81595D01*
X85827Y-22441D02*
X101240D01*
X108425Y-29626D01*
X81595Y-26673D02*
X85827Y-22441D01*
X81595Y-56299D02*
X85827Y-52067D01*
X101240D02*
X108425Y-59252D01*
X85827Y-52067D02*
X101240D01*
X77854Y-56299D02*
X81595D01*
X77854Y-62008D02*
Y-56299D01*
X75612Y46061D02*
X75846Y45827D01*
X78799D01*
X58463Y46061D02*
X75612D01*
X57841Y47561D02*
X75667D01*
X75902Y47795D01*
X78799D01*
X26612Y74969D02*
X30345Y71236D01*
X41953D01*
X-45276Y27559D02*
X-35433D01*
X68898Y58760D02*
X74508D01*
X75886Y60138D01*
Y65453D01*
X69882Y61625D02*
X70468Y61039D01*
X72638D01*
X69882Y61625D02*
Y64744D01*
X67323Y60335D02*
X68898Y58760D01*
X58563Y71555D02*
Y78543D01*
X59350Y79331D01*
X66240D01*
X67323Y78248D01*
Y72264D02*
Y78248D01*
X64764Y72264D02*
Y76279D01*
X64764Y76279D01*
X67323Y60335D02*
Y64744D01*
X69882Y72264D02*
X75177D01*
X75886Y71555D01*
X84842D01*
X90059Y66339D01*
Y57087D02*
Y66339D01*
X64555Y65453D02*
X64764Y65244D01*
X58563Y65453D02*
X64555D01*
X64764Y64744D02*
Y65244D01*
Y58661D02*
Y64744D01*
Y58661D02*
X66339Y57087D01*
X82185D01*
X86122Y49764D02*
X88090Y47795D01*
X78799Y49764D02*
X86122D01*
X74961Y41890D02*
X78799D01*
X74961Y43858D02*
X78799D01*
X-55216Y64961D02*
Y72047D01*
X-55118Y72146D01*
X-59646Y76575D02*
X-55216Y72146D01*
X-55118D01*
X-41724Y87114D02*
Y112321D01*
X-38075Y115970D02*
Y130732D01*
X-41724Y112321D02*
X-38075Y115970D01*
X-82756Y-34449D02*
Y-28268D01*
Y-59862D02*
Y-34449D01*
X-17051Y68075D02*
Y72146D01*
X-36220Y68012D02*
Y72083D01*
X-32903Y75401D01*
X-32756Y34449D02*
Y43130D01*
X-27461Y60728D02*
Y64665D01*
X-42756Y34449D02*
Y45433D01*
X-37756Y44331D02*
X-23420Y58666D01*
Y72146D01*
X-37756Y34449D02*
Y44331D01*
X-10683Y72146D02*
X-7428Y75401D01*
Y84449D01*
X-17051Y72146D02*
X-13797Y75401D01*
Y84449D01*
X-23420Y72146D02*
X-20165Y75401D01*
Y84449D01*
X-32903Y75401D02*
Y84449D01*
X-39173Y75401D02*
Y84449D01*
X-42428Y72146D02*
X-39173Y75401D01*
X-42527Y72146D02*
X-42428D01*
X-7760Y114583D02*
Y130732D01*
X-12091Y114583D02*
Y130732D01*
X-20752Y114583D02*
Y130732D01*
X-29413Y114583D02*
Y130732D01*
X-33744Y114583D02*
Y130732D01*
X-45571Y83268D02*
X-41724Y87114D01*
X-48797Y72146D02*
X-45571Y75372D01*
Y83268D01*
X5315Y7480D02*
X19291D01*
X23031Y-984D02*
X39370D01*
X787Y4134D02*
X17913D01*
X22835Y3937D02*
X39370D01*
X19291Y7480D02*
X22835Y3937D01*
X17913Y4134D02*
X23031Y-984D01*
X-72756Y-42008D02*
X-58957Y-55807D01*
Y-59941D02*
Y-55807D01*
X-72756Y-42008D02*
Y-34449D01*
X-67756Y-41988D02*
X-53051Y-56693D01*
Y-59941D02*
Y-56693D01*
X-67756Y-41988D02*
Y-34449D01*
X-47146Y-59941D02*
Y-56496D01*
X-62756Y-40886D02*
X-47146Y-56496D01*
X-62756Y-40886D02*
Y-34449D01*
X-64862Y-59941D02*
Y-56755D01*
X-77756Y-43861D02*
Y-34449D01*
Y-43861D02*
X-64862Y-56755D01*
X-17185Y-2500D02*
X-12205Y-7480D01*
Y-16240D02*
X-3248Y-25197D01*
X-12205Y-16240D02*
Y-7480D01*
X-11437Y7500D02*
X-6299Y2362D01*
Y-9055D02*
X787Y-16142D01*
X-6299Y-9055D02*
Y2362D01*
X-52756Y-42520D02*
X-45276Y-50000D01*
X-16929D01*
X-52756Y-42520D02*
Y-34449D01*
X-16929Y-50000D02*
X-12697Y-54232D01*
X-46850Y-52362D02*
X-21457D01*
X-18701Y-55118D01*
X-57756Y-41457D02*
X-46850Y-52362D01*
X-41240Y-59941D02*
Y-55216D01*
X-47756Y-43044D02*
X-42768Y-48031D01*
X-11024D01*
X-6791Y-52264D01*
X-42756Y-40709D02*
X-38249Y-45215D01*
X-6950D01*
X-42756Y-40709D02*
Y-34449D01*
X-6950Y-45215D02*
X-886Y-51279D01*
X-37756Y-41240D02*
Y-34449D01*
X-57756Y-41457D02*
Y-34449D01*
X-9449Y-12598D02*
Y-1575D01*
Y-12598D02*
X-1575Y-20472D01*
X-13524Y2500D02*
X-9449Y-1575D01*
X-22835Y2500D02*
X-13524D01*
X-22835Y7500D02*
X-11437D01*
X-3248Y-25197D02*
X41339D01*
X45374Y-29232D01*
X-10381Y-38583D02*
X23622D01*
X27559Y-59941D02*
Y-42520D01*
X23622Y-38583D02*
X27559Y-42520D01*
X-18169Y-30795D02*
X-10381Y-38583D01*
X33563Y-59941D02*
Y-37894D01*
X29528Y-33858D02*
X33563Y-37894D01*
X-7874Y-33858D02*
X29528D01*
X-16169Y-25563D02*
X-7874Y-33858D01*
X-16169Y-25563D02*
Y-14343D01*
X39469Y-59941D02*
Y-33957D01*
X-5512Y-29528D02*
X35039D01*
X39469Y-33957D01*
X-14169Y-20870D02*
X-5512Y-29528D01*
X-14169Y-20870D02*
Y-10437D01*
X45374Y-59941D02*
Y-29232D01*
X-1575Y-20472D02*
X46063D01*
X51279Y-59941D02*
Y-25689D01*
X46063Y-20472D02*
X51279Y-25689D01*
X787Y-16142D02*
X57874D01*
X63090Y-21358D01*
Y-59941D02*
Y-21358D01*
X-3150Y-6634D02*
Y0D01*
X-12579Y17500D02*
X787Y4134D01*
X-9705Y22500D02*
X5315Y7480D01*
X22441Y9055D02*
X39370D01*
X-22835Y17500D02*
X-12579D01*
X-22835Y22500D02*
X-9705D01*
X-92913Y-27165D02*
X-83858D01*
X-82756Y-28268D01*
X28248Y57579D02*
X31201Y60532D01*
X37598D01*
X28248Y57087D02*
Y57579D01*
X-47756Y30039D02*
X-45276Y27559D01*
X-47756Y30039D02*
Y34449D01*
X-29469Y-22500D02*
X-22835D01*
X41535Y23425D02*
Y56595D01*
X37598Y60532D02*
X41535Y56595D01*
X-22894Y-27559D02*
X-22835Y-27500D01*
X-29528Y-27559D02*
X-22894D01*
X-87756Y-6516D02*
X-71535Y-22736D01*
X-82756Y-6516D02*
X-66535Y-22736D01*
X-87756Y-6516D02*
Y34449D01*
X-82756Y-6516D02*
Y34449D01*
X26378Y113681D02*
X26575Y113878D01*
X30118D01*
X30315Y109232D02*
Y113681D01*
X30118Y113878D02*
X30315Y113681D01*
X26378Y109232D02*
Y113681D01*
X27657Y104232D02*
X28346Y104921D01*
X24409Y100000D02*
Y109232D01*
X24892Y104232D02*
X27657D01*
X28346Y104921D02*
Y109232D01*
X30315Y100000D02*
Y109232D01*
Y100000D02*
X31102Y99213D01*
Y93209D02*
Y99213D01*
X23622Y93209D02*
Y99213D01*
X24409Y100000D01*
X34252Y117618D02*
X50000D01*
X32283Y115650D02*
X34252Y117618D01*
X32283Y109232D02*
Y115650D01*
X20472Y109232D02*
Y115650D01*
X18504Y117618D02*
X20472Y115650D01*
X4724Y117618D02*
X18504D01*
X2854Y32283D02*
X2854Y32283D01*
X24508Y21732D02*
X39843D01*
X41535Y23425D01*
X-18012Y-12500D02*
X-16169Y-14343D01*
X-17106Y-7500D02*
X-14169Y-10437D01*
X-18917Y-17500D02*
X-18169Y-18248D01*
Y-30795D02*
Y-18248D01*
X-22835Y-17500D02*
X-18917D01*
X5020Y-59941D02*
Y-53150D01*
X-22835Y12500D02*
X-16043D01*
X-22835Y-12500D02*
X-18012D01*
X-22835Y-7500D02*
X-17106D01*
X-22835Y-2500D02*
X-17185D01*
X-82677Y-59941D02*
X-76772D01*
X-82756Y-59862D02*
X-82677Y-59941D01*
X-886Y-59941D02*
Y-51279D01*
X-6791Y-59941D02*
Y-52264D01*
X-47756Y-43044D02*
Y-34449D01*
X-12697Y-59941D02*
Y-54232D01*
X-18701Y-59842D02*
Y-55118D01*
Y-59842D02*
X-18602Y-59941D01*
X57283Y-59941D02*
X61917Y-64575D01*
Y-64969D02*
Y-64575D01*
Y-64969D02*
X62992Y-66043D01*
X57185Y-59941D02*
X57283D01*
X62992Y-66043D02*
X63090D01*
X68996D02*
X68996Y-66043D01*
X68898Y-66142D02*
X68996Y-66043D01*
X63090D02*
X68996D01*
X68898Y-75787D02*
Y-66142D01*
X13091Y-78740D02*
X65945D01*
X68898Y-75787D01*
X7992Y-83839D02*
X13091Y-78740D01*
X5020Y-66043D02*
X10827D01*
X10925Y-65945D01*
X15756Y-70677D02*
X15854D01*
X16929Y-71752D01*
X10925Y-65945D02*
X11024D01*
X15756Y-70677D01*
X-984Y-83839D02*
X7067Y-75787D01*
X-29331Y-85827D02*
Y-71850D01*
X-35236Y-66043D02*
X-30602Y-70677D01*
X-30406D01*
X-29331Y-71752D01*
X-35335Y-66043D02*
X-35236D01*
X-29331Y-71850D02*
Y-71752D01*
X-41240Y-66043D02*
X-35335D01*
D19*
X82185Y57087D02*
D03*
X84153D02*
D03*
X86122D02*
D03*
X88090D02*
D03*
X90059D02*
D03*
X92028D02*
D03*
X93996D02*
D03*
Y38504D02*
D03*
X92028D02*
D03*
X90059D02*
D03*
X88090D02*
D03*
X86122D02*
D03*
X84153D02*
D03*
X82185D02*
D03*
D20*
X97382Y53701D02*
D03*
Y51732D02*
D03*
Y49764D02*
D03*
Y47795D02*
D03*
Y45827D02*
D03*
Y43858D02*
D03*
Y41890D02*
D03*
X78799D02*
D03*
Y43858D02*
D03*
Y45827D02*
D03*
Y47795D02*
D03*
Y49764D02*
D03*
Y51732D02*
D03*
Y53701D02*
D03*
D21*
X105283Y24016D02*
D03*
Y17913D02*
D03*
X-3445Y32283D02*
D03*
Y26181D02*
D03*
X34744Y55118D02*
D03*
Y49016D02*
D03*
X93734Y24016D02*
D03*
X99508D02*
D03*
X87959D02*
D03*
X82185D02*
D03*
X-64862Y-66043D02*
D03*
X-70768D02*
D03*
X-58957D02*
D03*
X-53051D02*
D03*
X-47146D02*
D03*
X27559D02*
D03*
X21752D02*
D03*
X33563D02*
D03*
X39469D02*
D03*
X45374D02*
D03*
X51279D02*
D03*
X57185Y-66043D02*
D03*
X-24508Y-66043D02*
D03*
X-18602D02*
D03*
X-12697D02*
D03*
X-6791D02*
D03*
X-886D02*
D03*
X74016Y36811D02*
D03*
X9154Y32283D02*
D03*
Y26181D02*
D03*
X37402Y85138D02*
D03*
X-76772Y-59941D02*
D03*
X50000Y117618D02*
D03*
X4724D02*
D03*
X-64862Y-59941D02*
D03*
X-58957D02*
D03*
X-53051D02*
D03*
X-47146D02*
D03*
X-41240D02*
D03*
X-82677Y-66043D02*
D03*
Y-59941D02*
D03*
X-70768Y-59941D02*
D03*
X-35335Y-66043D02*
D03*
Y-59941D02*
D03*
X45374D02*
D03*
X51279D02*
D03*
X99508Y17913D02*
D03*
X21752Y-59941D02*
D03*
X5020Y-66043D02*
D03*
X-24508Y-59941D02*
D03*
X10925Y-65945D02*
D03*
X-55118Y78248D02*
D03*
X-36158D02*
D03*
X-42527D02*
D03*
X-48895D02*
D03*
Y72146D02*
D03*
X57185Y-59941D02*
D03*
X77854Y8957D02*
D03*
Y2854D02*
D03*
Y-2854D02*
D03*
Y-8957D02*
D03*
X87959Y17913D02*
D03*
X58563Y71555D02*
D03*
Y65453D02*
D03*
X75886D02*
D03*
Y71555D02*
D03*
X77854Y-26673D02*
D03*
Y-32382D02*
D03*
Y-38484D02*
D03*
Y-56299D02*
D03*
Y-62008D02*
D03*
Y-68110D02*
D03*
X14272Y55118D02*
D03*
X50000Y111516D02*
D03*
X4724D02*
D03*
X-41240Y-66043D02*
D03*
X82185Y17913D02*
D03*
X27559Y-59941D02*
D03*
X33563D02*
D03*
X39469D02*
D03*
X-18602D02*
D03*
X-12697D02*
D03*
X-6791D02*
D03*
X-886D02*
D03*
X5020D02*
D03*
X10925Y-59842D02*
D03*
X-10683Y78248D02*
D03*
X68996Y-66043D02*
D03*
X-55118Y72146D02*
D03*
X-10683D02*
D03*
X-17051Y78248D02*
D03*
X-36158Y72146D02*
D03*
X-17051D02*
D03*
X-23420Y78248D02*
D03*
X-42527Y72146D02*
D03*
X-23420D02*
D03*
X93734Y17913D02*
D03*
X77854Y-20571D02*
D03*
Y-50197D02*
D03*
X14272Y49016D02*
D03*
X2854Y26181D02*
D03*
Y32283D02*
D03*
X68996Y-59941D02*
D03*
X63090Y-66043D02*
D03*
Y-59941D02*
D03*
X-29789Y72146D02*
D03*
Y78248D02*
D03*
X-76772Y-66043D02*
D03*
X37402Y91240D02*
D03*
X74016Y30709D02*
D03*
D22*
X24508Y47047D02*
D03*
X28248D02*
D03*
Y57087D02*
D03*
X24508D02*
D03*
X20768D02*
D03*
Y47047D02*
D03*
X31102Y93209D02*
D03*
X27362D02*
D03*
X23622D02*
D03*
Y83169D02*
D03*
X27362D02*
D03*
X31102D02*
D03*
D23*
X24508Y36890D02*
D03*
Y21732D02*
D03*
D24*
X-70866Y-71850D02*
D03*
X-64764D02*
D03*
X-59055D02*
D03*
X-47244D02*
D03*
X-52953D02*
D03*
X-35433D02*
D03*
X-41142D02*
D03*
X21654D02*
D03*
X33465D02*
D03*
X27756D02*
D03*
X45276D02*
D03*
X39567D02*
D03*
X57087D02*
D03*
X51378D02*
D03*
X63189D02*
D03*
X-24606Y-71850D02*
D03*
X-18504D02*
D03*
X-12795D02*
D03*
X-984D02*
D03*
X-6693D02*
D03*
X5118D02*
D03*
X10827D02*
D03*
X86910Y31102D02*
D03*
X16929Y-71850D02*
D03*
X15650Y0D02*
D03*
X9547D02*
D03*
X-93602Y-47244D02*
D03*
X-87500D02*
D03*
X-29331Y-71850D02*
D03*
X93012Y31102D02*
D03*
X-3150Y0D02*
D03*
X2953D02*
D03*
X-93602Y-41339D02*
D03*
X-87500D02*
D03*
X13484Y88189D02*
D03*
X7382D02*
D03*
D25*
X-92756Y-34449D02*
D03*
X-87756D02*
D03*
X-47756D02*
D03*
X-42756D02*
D03*
X-37756D02*
D03*
X-27756Y34449D02*
D03*
X-42756D02*
D03*
X-47756D02*
D03*
X-72756D02*
D03*
X-77756D02*
D03*
X-82756D02*
D03*
X-87756D02*
D03*
X-92756D02*
D03*
X-82756Y-34449D02*
D03*
X-77756D02*
D03*
X-72756D02*
D03*
X-67756D02*
D03*
X-62756D02*
D03*
X-32756Y34449D02*
D03*
X-37756D02*
D03*
X-57756Y-34449D02*
D03*
X-52756D02*
D03*
X-32756D02*
D03*
X-27756D02*
D03*
X-52756Y34449D02*
D03*
X-57756D02*
D03*
X-62756D02*
D03*
X-67756D02*
D03*
D26*
X-22835Y-27500D02*
D03*
Y-22500D02*
D03*
Y-17500D02*
D03*
Y-12500D02*
D03*
Y-7500D02*
D03*
Y-2500D02*
D03*
Y2500D02*
D03*
Y7500D02*
D03*
Y12500D02*
D03*
Y17500D02*
D03*
Y22500D02*
D03*
Y27500D02*
D03*
D27*
X-62362Y-5906D02*
D03*
X-67874D02*
D03*
Y-11417D02*
D03*
X-62362D02*
D03*
X-56850D02*
D03*
Y-5906D02*
D03*
Y-394D02*
D03*
X-62362D02*
D03*
X-67874D02*
D03*
D28*
X-47524Y88213D02*
D03*
D29*
X-49098Y97760D02*
D03*
D30*
X-3331Y94413D02*
D03*
D31*
X-2051Y100319D02*
D03*
D32*
X-38075Y130732D02*
D03*
X-33744D02*
D03*
X-29413D02*
D03*
X-25083D02*
D03*
X-20752D02*
D03*
X-16421D02*
D03*
X-12091D02*
D03*
X-7760D02*
D03*
D33*
X-47721Y130240D02*
D03*
D34*
X-3035D02*
D03*
D35*
X-98622Y-59153D02*
D03*
X-112795D02*
D03*
X-394Y74803D02*
D03*
X13780D02*
D03*
D36*
X64764Y64744D02*
D03*
X67323D02*
D03*
X69882D02*
D03*
Y72264D02*
D03*
X67323D02*
D03*
X64764D02*
D03*
D37*
X39961Y109232D02*
D03*
X14764D02*
D03*
X36811D02*
D03*
X17913D02*
D03*
D38*
X26378D02*
D03*
X28346D02*
D03*
X24409D02*
D03*
X22441D02*
D03*
X20472D02*
D03*
X30315D02*
D03*
X32283D02*
D03*
X34252D02*
D03*
D69*
X88090Y47795D02*
D03*
D70*
X-87756Y-41083D02*
Y-34449D01*
Y-41083D02*
X-87500Y-41339D01*
D71*
X24508Y36890D02*
Y50000D01*
X27279Y52772D02*
X32299D01*
X24508Y50000D02*
X27279Y52772D01*
X32299D02*
X34252Y54724D01*
X34350D01*
X34744Y55118D01*
X34252Y48622D02*
X34646Y49016D01*
X34744D01*
X28248Y47047D02*
X32776D01*
X34252Y48524D01*
Y48622D01*
D72*
X88425Y0D02*
D03*
X98425D02*
D03*
Y-59252D02*
D03*
X88425D02*
D03*
X98425Y-29626D02*
D03*
X88425D02*
D03*
D73*
X108425Y0D02*
D03*
Y-59252D02*
D03*
Y-29626D02*
D03*
D74*
X-18937Y-103839D02*
D03*
X-9961D02*
D03*
X-984D02*
D03*
X7992D02*
D03*
X16969D02*
D03*
X-14449Y-93839D02*
D03*
X-5472D02*
D03*
X3504D02*
D03*
X12480D02*
D03*
X21457D02*
D03*
X-18937Y-83839D02*
D03*
X-9961D02*
D03*
X-984D02*
D03*
X7992D02*
D03*
D75*
X49213Y-93839D02*
D03*
X-49173D02*
D03*
D76*
X16969Y-83839D02*
D03*
D77*
X44370Y127953D02*
D03*
X10354D02*
D03*
D78*
X44370Y111496D02*
D03*
X10354D02*
D03*
D79*
X15984Y113465D02*
D03*
X38740D02*
D03*
D80*
X14764Y101575D02*
D03*
X-112795Y-65433D02*
D03*
X-108681Y-65433D02*
D03*
X-116909Y-65433D02*
D03*
X-108681Y-52874D02*
D03*
X-116910Y-52874D02*
D03*
X-112795Y-52874D02*
D03*
X60239Y40488D02*
D03*
X50976Y40551D02*
D03*
X60154Y52658D02*
D03*
X50976D02*
D03*
X57095D02*
D03*
X54035D02*
D03*
X57180Y40488D02*
D03*
X54035Y40551D02*
D03*
X-27461Y68110D02*
D03*
X-98372Y-53124D02*
D03*
X-102486Y-53124D02*
D03*
X-94258Y-53124D02*
D03*
X-102486Y-65683D02*
D03*
X-94258Y-65683D02*
D03*
X-98372Y-65683D02*
D03*
X20768Y43406D02*
D03*
X-51575Y64961D02*
D03*
X-42527Y64961D02*
D03*
X-32185Y64567D02*
D03*
X11713Y101575D02*
D03*
X17815D02*
D03*
X-87598Y-65945D02*
D03*
X77854Y-13071D02*
D03*
X-16413Y125547D02*
D03*
X77854Y-72224D02*
D03*
X-10683Y82362D02*
D03*
X78071Y17913D02*
D03*
X87959Y13799D02*
D03*
X-87598Y-54134D02*
D03*
X-23420Y82362D02*
D03*
X-25075Y125547D02*
D03*
X-42527Y82362D02*
D03*
X73740Y8957D02*
D03*
X41516Y85138D02*
D03*
X-48895Y82362D02*
D03*
X-72756Y41240D02*
D03*
X82579Y64764D02*
D03*
X20768Y50689D02*
D03*
X86221Y64764D02*
D03*
X-77756Y41240D02*
D03*
X9154Y35925D02*
D03*
X-17052Y82362D02*
D03*
X-36158D02*
D03*
X-87598Y-62008D02*
D03*
X73740Y-2953D02*
D03*
X81968Y-32382D02*
D03*
Y-62008D02*
D03*
Y-20571D02*
D03*
X93734Y13799D02*
D03*
X-67028Y23819D02*
D03*
X-35433Y27559D02*
D03*
X72638Y61039D02*
D03*
X64764Y76279D02*
D03*
X74016Y40059D02*
D03*
Y43012D02*
D03*
X97126Y31102D02*
D03*
X77854Y-46083D02*
D03*
X-17051Y68075D02*
D03*
X-27461Y64665D02*
D03*
X-36220Y68012D02*
D03*
X-32756Y43130D02*
D03*
X-7428Y84449D02*
D03*
X-13797D02*
D03*
X-20165D02*
D03*
X-32903D02*
D03*
X-39173D02*
D03*
X-7760Y114583D02*
D03*
X-12091D02*
D03*
X-20752D02*
D03*
X-29413D02*
D03*
X-33744D02*
D03*
X-76772Y-70157D02*
D03*
X13780Y81083D02*
D03*
X9665Y81083D02*
D03*
X17894Y81083D02*
D03*
X9665Y68524D02*
D03*
X17894Y68524D02*
D03*
X13780Y68524D02*
D03*
X50000Y107402D02*
D03*
X4724D02*
D03*
X118110Y0D02*
D03*
Y-19685D02*
D03*
Y-39370D02*
D03*
Y-59055D02*
D03*
Y-78740D02*
D03*
X98425Y-157480D02*
D03*
X-98425D02*
D03*
Y59055D02*
D03*
X-118110D02*
D03*
X-59055Y137795D02*
D03*
X-78740D02*
D03*
Y118110D02*
D03*
X-98425Y157480D02*
D03*
Y137795D02*
D03*
X118110Y59055D02*
D03*
Y78740D02*
D03*
X59055Y137795D02*
D03*
X78740D02*
D03*
Y118110D02*
D03*
X137795Y98425D02*
D03*
X157480Y118110D02*
D03*
X137795D02*
D03*
X118110D02*
D03*
X98425Y137795D02*
D03*
Y157480D02*
D03*
X118110Y137795D02*
D03*
X137795D02*
D03*
X157480D02*
D03*
X177165D02*
D03*
Y157480D02*
D03*
X157480D02*
D03*
X137795D02*
D03*
X118110D02*
D03*
Y177165D02*
D03*
X137795D02*
D03*
Y196850D02*
D03*
X157480Y177165D02*
D03*
Y196850D02*
D03*
Y216535D02*
D03*
X177165D02*
D03*
Y177165D02*
D03*
X216535D02*
D03*
Y157480D02*
D03*
X196850D02*
D03*
X216535Y137795D02*
D03*
X196850D02*
D03*
Y118110D02*
D03*
Y98425D02*
D03*
Y78740D02*
D03*
Y59055D02*
D03*
Y39370D02*
D03*
Y19685D02*
D03*
Y0D02*
D03*
Y-19685D02*
D03*
Y-39370D02*
D03*
Y-59055D02*
D03*
Y-78740D02*
D03*
Y-98425D02*
D03*
X216535Y-118110D02*
D03*
X197503Y-120920D02*
D03*
X216535Y-157480D02*
D03*
Y-137795D02*
D03*
X196850D02*
D03*
X177165D02*
D03*
Y-157480D02*
D03*
X196850D02*
D03*
X216535Y-177165D02*
D03*
X177165D02*
D03*
Y-216535D02*
D03*
X157480D02*
D03*
Y-196850D02*
D03*
X137795D02*
D03*
X157480Y-177165D02*
D03*
Y-118110D02*
D03*
Y-137795D02*
D03*
Y-157480D02*
D03*
X137795Y-177165D02*
D03*
X118110D02*
D03*
X137795Y-157480D02*
D03*
X118110D02*
D03*
X137795Y-137795D02*
D03*
Y-118110D02*
D03*
Y-98425D02*
D03*
X118110Y-137795D02*
D03*
X98425D02*
D03*
X78740D02*
D03*
X118110Y-118110D02*
D03*
X78740D02*
D03*
X59055D02*
D03*
X39370D02*
D03*
X19685D02*
D03*
X0D02*
D03*
X-39370Y-98425D02*
D03*
X-19685Y-118110D02*
D03*
X-39370D02*
D03*
X-59055Y-78740D02*
D03*
Y-98425D02*
D03*
Y-118110D02*
D03*
Y-137795D02*
D03*
X-78740D02*
D03*
X-98425D02*
D03*
X-78740Y-118110D02*
D03*
Y-78740D02*
D03*
X-118110D02*
D03*
X-137795Y-98425D02*
D03*
X-118110Y-118110D02*
D03*
Y-137795D02*
D03*
Y-157480D02*
D03*
Y-177165D02*
D03*
X-137795Y-196850D02*
D03*
Y-177165D02*
D03*
Y-157480D02*
D03*
Y-137795D02*
D03*
Y-118110D02*
D03*
X-157480D02*
D03*
Y-137795D02*
D03*
Y-157480D02*
D03*
Y-177165D02*
D03*
Y-196850D02*
D03*
Y-216535D02*
D03*
X-177165D02*
D03*
Y-177165D02*
D03*
Y-137795D02*
D03*
Y-157480D02*
D03*
X-216535Y-177165D02*
D03*
X-196850Y-157480D02*
D03*
X-216535D02*
D03*
Y-137795D02*
D03*
X-196850D02*
D03*
Y-118110D02*
D03*
Y-98425D02*
D03*
Y-78740D02*
D03*
Y-59055D02*
D03*
Y-39370D02*
D03*
Y-19685D02*
D03*
Y0D02*
D03*
Y19685D02*
D03*
Y39370D02*
D03*
Y59055D02*
D03*
Y78740D02*
D03*
Y98425D02*
D03*
Y118110D02*
D03*
X-216535D02*
D03*
X-157480Y216535D02*
D03*
X-177165D02*
D03*
X-137795Y196850D02*
D03*
X-157480D02*
D03*
X-216535Y177165D02*
D03*
X-196975Y158107D02*
D03*
X-216535Y157480D02*
D03*
Y137795D02*
D03*
X-196850D02*
D03*
X-177165D02*
D03*
X-157480D02*
D03*
Y177165D02*
D03*
X-177165D02*
D03*
Y157480D02*
D03*
X-157480D02*
D03*
X-118110Y177165D02*
D03*
X-137795D02*
D03*
Y157480D02*
D03*
X-118110D02*
D03*
X-137795Y137795D02*
D03*
X-118110D02*
D03*
Y118110D02*
D03*
X-137795D02*
D03*
Y98425D02*
D03*
X-118110Y78740D02*
D03*
X-37500Y-55315D02*
D03*
X-41240Y-55216D02*
D03*
X-37756Y-41240D02*
D03*
X-21237Y-35167D02*
D03*
X-3150Y-6634D02*
D03*
X39370Y9055D02*
D03*
X22441D02*
D03*
X39370Y-984D02*
D03*
Y3937D02*
D03*
X6004Y18898D02*
D03*
X2854D02*
D03*
X9154D02*
D03*
X-92913Y-27165D02*
D03*
X-29469Y-22500D02*
D03*
X-97342Y-47146D02*
D03*
Y-41240D02*
D03*
X8760Y-53248D02*
D03*
X-29528Y-27559D02*
D03*
X6004Y22539D02*
D03*
X9154D02*
D03*
X2854D02*
D03*
X-71535Y-22736D02*
D03*
X-66535D02*
D03*
X41516Y91240D02*
D03*
X14764Y105118D02*
D03*
X39961D02*
D03*
X36811D02*
D03*
X10630Y49016D02*
D03*
X14272Y45374D02*
D03*
X2854Y35925D02*
D03*
X-55216Y64961D02*
D03*
X5020Y-53150D02*
D03*
X-16043Y12500D02*
D03*
X-87598Y-58071D02*
D03*
M02*
