M48
;Layer_Color=9474304
;FILE_FORMAT=4:4
METRIC,LZ
;TYPE=PLATED
T1F00S00C0.3000
T3F00S00C1.0000
T4F00S00C1.1000
T5F00S00C3.2000
;TYPE=NON_PLATED
T6F00S00C0.6000
%
T01
X004Y-0055
X0045
X-004
X-0045
X-004Y-005
X-0035
Y-0045
X-004
Y-004
X-0035
Y-0035
X-004
Y-003
X-0035
Y-0025
X-003Y-002
X-0029695Y-001662
X-002865Y-001662
X-0027605Y-001662
X-00260315Y-00166835
X-00249865Y-00166835
X-00239415Y-00166835
X-0025Y-0035
Y-004
X-003
Y-0035
Y-003
Y-0045
X-0045
Y-004
Y-0035
X-005
Y-004
X-0055
Y-0035
Y-0045
X-005Y-003
Y-0025
Y-002
Y-0015
X-002225Y-001475
Y-001575
Y-001675
X-00195Y-001782
X-002Y-002
X-0015
Y-0025
X-001
Y-003
X-0005
X0
X0005
X001
X0015
X-0015
Y-0035
X-002
Y-003
X002
Y-0035
X0025
Y-004
X003
Y-0035
X0035
X004
Y-004
X0035
Y-0045
X004
X0045
Y-004
Y-0035
X005
X00501659Y-00307137
X0055Y-003
Y-0035
Y-004
X005
X0055Y-0045
X004Y-005
X0035
X003Y-0045
Y-003
X0035
X004
X0035Y-0025
X003Y-002
Y-0015
X002082Y-001575
X0019775Y-0018345
X005Y-002
Y-0015
Y-0025
Y-001
Y-0005
Y0
Y0005
Y001
Y0015
Y002
Y0025
X0035
X003Y002
Y0015
X00219Y001645
X0020975
X001845Y0015504
X00188Y0010925
Y0010175
X001983Y000455
X001873Y0002275
Y-000075
X0019775Y-000332
X002082Y-0005225
Y-0008225
X0019775Y-0011705
X003Y-001
Y-0005
Y0
X00238083Y0003505
X00223417
X002467Y00079
X00153007Y0010284
X00145237
X0013725Y00103
X0012948
Y0013375
X0013725
X0014502
X0015279
X001645Y0019375
X0010545Y0021625
Y0023175
X0004545Y0020595
X00035Y0020595
X0002455Y0020595
X0002455Y0017405
X00035Y0017405
X0004545Y0017405
X0005275Y0012875
X0005275Y0011025
X0003625Y0011525
X00027Y001245
X0002325Y0009125
X0000725
X0000725Y0005725
X0001525
X0002325
X0002325Y00048
X0001525
X0000725
X-0004075Y0003175
X-00008Y-0001685
X00057Y00023
X001
Y0001
Y-000025
X0002225Y-0013525
X0001275Y-00135
X-00053942Y-00089324
X-00075Y-0007
X-0007485Y-0005715
X-000959Y-0010475
X-0009525Y-001405
X-0010475Y-0014025
X-002225Y-001375
X-001817Y-0005775
X-00169
X-0017025Y000605
X-001848Y0010475
X-001975
X-0014025Y00165
X-00131Y00165
X-00108017Y00165
X-00092Y0017275
X-0008175Y00164
X-0006975Y0016425
Y00173
X-00043311Y00172909
X-00043311Y002092
X-0005122Y002145
X-00059487Y002092
X-00083573Y002145
X-00091841Y002092
X-000995Y002145
X-00108017Y002092
X-00124194
X-00035043Y002145
X-00027134Y002092
X-00018867Y002145
X-000832Y0010955
X-0009Y0007
X-0025Y0015
X-003
Y002
X-0035Y0025
X-005
Y002
Y0015
Y001
Y0005
Y0
Y-0005
Y-001
X-0029695Y-001343
X-002865Y-001343
X-0027605Y-001343
X-00260315Y-00134935
X-00249865Y-00134935
X-00239415Y-00134935
X-0024725Y-0011975
Y-0010475
X-00236Y-00069
X-0025Y0035
Y004
X-003
Y0035
X-0035
X-004
Y004
X-0035
Y0045
X-004
Y005
X-0035
X-004Y0055
X-0045
Y0045
Y004
Y0035
X-005
Y003
X-0055
Y0035
Y004
Y0045
X-00500316Y00401591
X-003Y0045
Y003
X-0035
X-002
Y0035
X-0015
X-0006369Y0031889
X-0004169
X-0003071Y0029104
X-0001971
X-0005271
X-0007471
X-0008571
X00012Y002728
X000375Y00267
Y00258
X0002975
X0004525
X000935Y00267
X001015
X00127Y002728
X0015Y0035
X002
Y003
X003
X0035
X004
Y0035
X0035
Y004
X004
X0045
Y0035
X005
Y004
X0055
Y0035
Y0045
X0045
X004
X0035
X003
Y004
Y0035
X0025
Y004
X0035Y005
X004
Y0055
X0045
X005Y003
T03
X-000481Y-0026375
X-000253
X-000025
X000203
X000431
X000317Y-0023835
X000089
X-000139
X-000367
X-000481Y-0021295
X-000253
X-000025
X000203
X000431
X000545Y-0023835
T04
X002246Y-001505
X0025
X002754
Y-0007525
X0025
X002246
Y0
X0025
X002754
T05
X-001249Y-0023835
X00125
T06
X000406Y002882
X000984
M30
